M48
;Layer_Color=9474304
;FILE_FORMAT=4:3
METRIC,LZ
;TYPE=PLATED
T1F00S00C0.200
T2F00S00C0.300
T3F00S00C0.400
;TYPE=NON_PLATED
%
T01
X00028Y-0006
X00033Y-00064
Y-00053
X00038Y-00056
X00048Y-0006
X00054Y-0006
X00068Y-00078
X00078Y-00041
X00087
X00094Y-00019
X0009Y00001
X00082Y00009
X00074
Y00001
X0005
X00058Y00009
Y00025
X00066
X0007Y00045
X0005Y00041
X00026Y00033
X00018Y00025
Y00049
X0001
Y00065
Y00089
X00026Y00081
X00028Y00098
X00046Y00093
X00058Y00089
X00054Y00085
X0007Y00093
X0009Y00089
X00093Y00105
X0009Y00033
X00058Y-00015
X00006Y-00011
X0001Y00001
Y00009
X00006Y00013
X00014Y-00029
X-00014Y-00023
X-0001Y-00041
X-00043Y-00043
X-00051
X-00057Y-0004
X-00064Y-00036
X-00065Y-00054
X-00051Y-00063
X-00061Y-00082
X-001Y-0008
Y-00089
X-00091Y-00053
Y-00043
Y-00023
X-00083
Y-00013
X-00091
X-00067Y-00012
X-00062Y-00009
X-00058Y-00005
X-0007Y00007
X-00066Y00012
X-00074Y00016
X-00083Y00017
X-00087Y00012
X-00083Y00027
Y00037
X-00091Y00047
X-00081Y00064
X-000825Y000745
X-000775Y001015
X-00098Y00105
X-00102Y00101
X-00107Y00085
X-00105Y00064
X-00049Y00071
X-00046Y00078
X-00031Y00085
X-00018Y00069
X-00014Y00065
X00002
X-00002Y00069
X-00006Y00057
Y00049
X00002
Y00041
X-00006
X-00014
X-0002Y00037
X-00014Y00025
X-00006
Y00009
X-00014
Y00001
X-00051Y00017
Y00027
X-00047Y00032
X-00061Y00032
X-00051Y00047
X-000555Y000905
X-000615Y000905
X-000615Y000855
X-00001Y00094
X-00043Y-00023
X-00051
X00005Y-00072
T02
X-0006Y00064
T03
X00014Y00105
M30
