G04 Layer_Physical_Order=8*
G04 Layer_Color=16711680*
%FSLAX43Y43*%
%MOMM*%
G71*
G01*
G75*
%ADD16R,0.500X0.500*%
%ADD17R,0.500X0.500*%
%ADD29C,0.400*%
%ADD30C,0.700*%
%ADD31C,0.500*%
%ADD33C,0.150*%
%ADD34C,0.250*%
%ADD35C,0.200*%
%ADD36C,0.300*%
G04:AMPARAMS|DCode=39|XSize=0.7mm|YSize=1.6mm|CornerRadius=0.175mm|HoleSize=0mm|Usage=FLASHONLY|Rotation=90.000|XOffset=0mm|YOffset=0mm|HoleType=Round|Shape=RoundedRectangle|*
%AMROUNDEDRECTD39*
21,1,0.700,1.250,0,0,90.0*
21,1,0.350,1.600,0,0,90.0*
1,1,0.350,0.625,0.175*
1,1,0.350,0.625,-0.175*
1,1,0.350,-0.625,-0.175*
1,1,0.350,-0.625,0.175*
%
%ADD39ROUNDEDRECTD39*%
%ADD40R,1.600X0.700*%
G04:AMPARAMS|DCode=41|XSize=0.7mm|YSize=1.6mm|CornerRadius=0.175mm|HoleSize=0mm|Usage=FLASHONLY|Rotation=0.000|XOffset=0mm|YOffset=0mm|HoleType=Round|Shape=RoundedRectangle|*
%AMROUNDEDRECTD41*
21,1,0.700,1.250,0,0,0.0*
21,1,0.350,1.600,0,0,0.0*
1,1,0.350,0.175,-0.625*
1,1,0.350,-0.175,-0.625*
1,1,0.350,-0.175,0.625*
1,1,0.350,0.175,0.625*
%
%ADD41ROUNDEDRECTD41*%
%ADD42C,0.991*%
%ADD43C,0.400*%
%ADD44C,0.800*%
%ADD45C,0.500*%
%ADD46C,0.100*%
%ADD47C,0.300*%
%ADD48P,0.707X4X180.0*%
%ADD49O,0.750X0.300*%
%ADD50O,0.300X0.750*%
%ADD51R,1.800X1.800*%
%ADD52C,0.360*%
%ADD53C,0.410*%
%ADD54O,0.350X1.400*%
G36*
X9515Y4100D02*
X9536Y3991D01*
X9598Y3898D01*
X9691Y3836D01*
X9800Y3815D01*
X9828Y3820D01*
X9940Y3707D01*
X9878Y3590D01*
X9800Y3606D01*
X9683Y3583D01*
X9584Y3516D01*
X9517Y3417D01*
X9494Y3300D01*
X9517Y3183D01*
X9584Y3084D01*
X9683Y3017D01*
X9800Y2994D01*
X9892Y3012D01*
X9994Y2939D01*
X9993Y2844D01*
X9887Y2768D01*
X9800Y2786D01*
X9691Y2764D01*
X9598Y2702D01*
X9536Y2609D01*
X9515Y2500D01*
X9536Y2391D01*
X9598Y2298D01*
X9691Y2236D01*
X9800Y2215D01*
X9828Y2220D01*
X9969Y2078D01*
X9911Y1970D01*
X9903Y1965D01*
X9800Y1986D01*
X9691Y1964D01*
X9598Y1902D01*
X9536Y1809D01*
X9515Y1700D01*
X9536Y1591D01*
X9598Y1498D01*
X9691Y1436D01*
X9800Y1415D01*
X9909Y1436D01*
X9945Y1460D01*
X10072Y1392D01*
Y1208D01*
X9945Y1140D01*
X9909Y1164D01*
X9800Y1186D01*
X9691Y1164D01*
X9598Y1102D01*
X9536Y1009D01*
X9515Y900D01*
X9536Y791D01*
X9598Y698D01*
X9626Y680D01*
X9635Y632D01*
X9674Y574D01*
X9744Y504D01*
X9702Y366D01*
X9691Y364D01*
X9598Y302D01*
X9536Y209D01*
X9515Y100D01*
X9536Y-9D01*
X9598Y-102D01*
X9691Y-164D01*
X9800Y-185D01*
X9828Y-180D01*
X9965Y-317D01*
X9910Y-429D01*
X9895Y-433D01*
X9800Y-415D01*
X9691Y-436D01*
X9598Y-498D01*
X9536Y-591D01*
X9515Y-700D01*
X9536Y-809D01*
X9598Y-902D01*
X9691Y-964D01*
X9800Y-986D01*
X9895Y-967D01*
X9925Y-975D01*
X10022Y-1041D01*
Y-1100D01*
X10035Y-1168D01*
X10033Y-1170D01*
X9943Y-1259D01*
X9909Y-1236D01*
X9800Y-1215D01*
X9691Y-1236D01*
X9598Y-1298D01*
X9536Y-1391D01*
X9515Y-1500D01*
X9391Y-1528D01*
X9331Y-1525D01*
X9306Y-1500D01*
X9283Y-1383D01*
X9216Y-1284D01*
X9117Y-1217D01*
X9000Y-1194D01*
X8996Y-1195D01*
X8878Y-1102D01*
Y-1098D01*
X8996Y-1005D01*
X9000Y-1006D01*
X9117Y-983D01*
X9216Y-916D01*
X9283Y-817D01*
X9306Y-700D01*
X9283Y-583D01*
X9216Y-484D01*
X9117Y-417D01*
X9000Y-394D01*
X8967Y-401D01*
X8910Y-294D01*
X8993Y-205D01*
X9000Y-206D01*
X9117Y-183D01*
X9216Y-116D01*
X9283Y-17D01*
X9306Y100D01*
X9283Y217D01*
X9216Y316D01*
X9117Y383D01*
X9000Y406D01*
X8993Y405D01*
X8910Y494D01*
X8967Y601D01*
X9000Y594D01*
X9117Y617D01*
X9216Y684D01*
X9283Y783D01*
X9306Y900D01*
X9283Y1017D01*
X9216Y1116D01*
X9117Y1183D01*
X9000Y1206D01*
X8883Y1183D01*
X8784Y1116D01*
X8717Y1017D01*
X8694Y900D01*
X8699Y875D01*
X8660Y804D01*
X8604Y757D01*
X8527Y775D01*
X8492Y831D01*
X8506Y900D01*
X8483Y1017D01*
X8416Y1116D01*
X8317Y1183D01*
X8200Y1206D01*
X8083Y1183D01*
X7984Y1116D01*
X7917Y1017D01*
X7894Y900D01*
X7901Y867D01*
X7794Y810D01*
X7705Y893D01*
X7706Y900D01*
X7683Y1017D01*
X7616Y1116D01*
X7517Y1183D01*
X7400Y1206D01*
X7396Y1205D01*
X7277Y1298D01*
Y1302D01*
X7396Y1395D01*
X7400Y1394D01*
X7517Y1417D01*
X7616Y1484D01*
X7683Y1583D01*
X7706Y1700D01*
X7683Y1817D01*
X7616Y1916D01*
X7517Y1983D01*
X7400Y2006D01*
X7396Y2005D01*
X7277Y2098D01*
Y2102D01*
X7396Y2195D01*
X7400Y2194D01*
X7517Y2217D01*
X7616Y2284D01*
X7683Y2383D01*
X7706Y2500D01*
X7683Y2617D01*
X7616Y2716D01*
X7517Y2783D01*
X7400Y2806D01*
X7396Y2805D01*
X7277Y2898D01*
Y2902D01*
X7396Y2995D01*
X7400Y2994D01*
X7517Y3017D01*
X7616Y3084D01*
X7683Y3183D01*
X7706Y3300D01*
X7701Y3322D01*
X7790Y3446D01*
X7793Y3447D01*
X7873Y3425D01*
X7908Y3369D01*
X7894Y3300D01*
X7917Y3183D01*
X7984Y3084D01*
X8083Y3017D01*
X8200Y2994D01*
X8317Y3017D01*
X8416Y3084D01*
X8483Y3183D01*
X8506Y3300D01*
X8499Y3333D01*
X8606Y3390D01*
X8695Y3306D01*
X8694Y3300D01*
X8717Y3183D01*
X8784Y3084D01*
X8883Y3017D01*
X9000Y2994D01*
X9117Y3017D01*
X9216Y3084D01*
X9283Y3183D01*
X9306Y3300D01*
X9283Y3417D01*
X9216Y3516D01*
X9117Y3583D01*
X9000Y3606D01*
X8994Y3605D01*
X8910Y3694D01*
X8967Y3801D01*
X9000Y3794D01*
X9117Y3817D01*
X9216Y3884D01*
X9283Y3983D01*
X9306Y4100D01*
X9400Y4194D01*
X9404Y4195D01*
X9515Y4100D01*
D02*
G37*
G36*
X8725Y5825D02*
X8733Y5795D01*
X8715Y5700D01*
X8736Y5591D01*
X8798Y5498D01*
X8891Y5436D01*
X9000Y5415D01*
X9028Y5420D01*
X9274Y5174D01*
X9332Y5135D01*
X9400Y5122D01*
X9459D01*
X9525Y5025D01*
X9533Y4995D01*
X9515Y4900D01*
X9404Y4805D01*
X9400Y4806D01*
X9283Y4783D01*
X9184Y4716D01*
X9158Y4678D01*
X8600D01*
X8560Y4671D01*
X8492Y4743D01*
X8476Y4773D01*
X8483Y4783D01*
X8506Y4900D01*
X8483Y5017D01*
X8416Y5116D01*
X8317Y5183D01*
X8200Y5206D01*
X8083Y5183D01*
X7984Y5116D01*
X7917Y5017D01*
X7894Y4900D01*
X7917Y4783D01*
X7984Y4684D01*
X8083Y4617D01*
X8200Y4594D01*
X8278Y4610D01*
X8340Y4493D01*
X8228Y4380D01*
X8200Y4386D01*
X8091Y4364D01*
X7998Y4302D01*
X7936Y4209D01*
X7915Y4100D01*
X7926Y4042D01*
X7809Y3979D01*
X7703Y4085D01*
X7706Y4100D01*
X7683Y4217D01*
X7616Y4316D01*
X7517Y4383D01*
X7400Y4406D01*
X7306Y4500D01*
X7400Y4594D01*
X7517Y4617D01*
X7616Y4684D01*
X7683Y4783D01*
X7706Y4900D01*
X7683Y5017D01*
X7616Y5116D01*
X7517Y5183D01*
X7400Y5206D01*
X7308Y5188D01*
X7206Y5261D01*
X7208Y5358D01*
X7314Y5432D01*
X7400Y5415D01*
X7509Y5436D01*
X7602Y5498D01*
X7664Y5591D01*
X7685Y5700D01*
X7680Y5728D01*
X7874Y5922D01*
X8659D01*
X8725Y5825D01*
D02*
G37*
G36*
X-2750Y8150D02*
X-2706Y8041D01*
Y6600D01*
X-2706Y6600D01*
X-2683Y6483D01*
X-2616Y6384D01*
X-2216Y5984D01*
X-2216Y5984D01*
X-2216Y5984D01*
X-2116Y5884D01*
X-2017Y5817D01*
X-1900Y5794D01*
X-1783Y5817D01*
X-1679Y5734D01*
X-1685Y5700D01*
X-1664Y5591D01*
X-1602Y5498D01*
X-1509Y5436D01*
X-1400Y5415D01*
X-1291Y5436D01*
X-1198Y5498D01*
X-1136Y5591D01*
X-1115Y5700D01*
X-1122Y5737D01*
X-1040Y5848D01*
X-980Y5848D01*
X-898Y5739D01*
X-906Y5700D01*
X-883Y5583D01*
X-816Y5484D01*
X-717Y5417D01*
X-600Y5394D01*
X-531Y5408D01*
X-404Y5329D01*
Y4471D01*
X-531Y4392D01*
X-600Y4406D01*
X-717Y4383D01*
X-816Y4316D01*
X-883Y4217D01*
X-906Y4100D01*
X-883Y3983D01*
X-816Y3884D01*
X-717Y3817D01*
X-600Y3794D01*
X-567Y3801D01*
X-505Y3684D01*
X-604Y3585D01*
X-709Y3564D01*
X-723Y3555D01*
X-878Y3599D01*
X-885Y3615D01*
X-1085Y3815D01*
X-1126Y3969D01*
X-1117Y3983D01*
X-1094Y4100D01*
X-1117Y4217D01*
X-1184Y4316D01*
X-1283Y4383D01*
X-1400Y4406D01*
X-1517Y4383D01*
X-1616Y4316D01*
X-1683Y4217D01*
X-1706Y4100D01*
X-1684Y3989D01*
X-1684Y3982D01*
X-1784Y3916D01*
X-1883Y3983D01*
X-2000Y4006D01*
X-2117Y3983D01*
X-2216Y3916D01*
X-2283Y3817D01*
X-2306Y3700D01*
X-2283Y3583D01*
X-2216Y3484D01*
X-2117Y3417D01*
X-2000Y3394D01*
X-1883Y3417D01*
X-1830Y3453D01*
X-1780Y3447D01*
X-1682Y3318D01*
X-1685Y3300D01*
X-1676Y3253D01*
X-2815Y2115D01*
X-2862Y2000D01*
Y867D01*
X-3067Y663D01*
X-3136Y684D01*
X-3192Y717D01*
X-3213Y819D01*
X-3280Y920D01*
X-3381Y987D01*
X-3500Y1011D01*
X-3619Y987D01*
X-3720Y920D01*
X-3787Y819D01*
X-3811Y700D01*
X-3789Y589D01*
X-3789Y578D01*
X-3861Y462D01*
X-4500D01*
X-4615Y415D01*
X-5032Y-3D01*
X-5100Y11D01*
X-5219Y-13D01*
X-5320Y-80D01*
X-5387Y-181D01*
X-5411Y-300D01*
X-5402Y-344D01*
X-5517Y-383D01*
X-5584Y-284D01*
X-5683Y-217D01*
X-5800Y-194D01*
X-5917Y-217D01*
X-6016Y-284D01*
X-6083Y-383D01*
X-6106Y-500D01*
X-6200Y-594D01*
X-6317Y-617D01*
X-6416Y-684D01*
X-6483Y-783D01*
X-6491Y-826D01*
X-6570Y-905D01*
X-6627Y-909D01*
X-6700Y-894D01*
X-6811Y-916D01*
X-6819Y-917D01*
X-6938Y-845D01*
Y-67D01*
X-6485Y385D01*
X-6438Y500D01*
Y948D01*
X-6384Y984D01*
X-6317Y1083D01*
X-6294Y1200D01*
X-6317Y1317D01*
X-6384Y1416D01*
X-6483Y1483D01*
X-6600Y1506D01*
X-6717Y1483D01*
X-6816Y1416D01*
X-6883Y1317D01*
X-6906Y1200D01*
X-6889Y1113D01*
X-6946Y1031D01*
X-6981Y1002D01*
X-7000Y1006D01*
X-7117Y983D01*
X-7216Y916D01*
X-7283Y817D01*
X-7306Y700D01*
X-7293Y636D01*
X-7411Y519D01*
X-7538Y572D01*
Y1215D01*
X-7439Y1302D01*
X-7400Y1294D01*
X-7283Y1317D01*
X-7184Y1384D01*
X-7117Y1483D01*
X-7094Y1600D01*
X-7117Y1717D01*
X-7184Y1816D01*
X-7283Y1883D01*
X-7400Y1906D01*
X-7517Y1883D01*
X-7616Y1816D01*
X-7683Y1717D01*
X-7706Y1600D01*
X-7693Y1536D01*
X-7815Y1415D01*
X-7862Y1300D01*
Y-2206D01*
X-7875Y-2224D01*
X-7880Y-2225D01*
X-8013Y-2181D01*
X-8080Y-2080D01*
X-8181Y-2013D01*
X-8300Y-1989D01*
X-8419Y-2013D01*
X-8520Y-2080D01*
X-8587Y-2181D01*
X-8611Y-2300D01*
X-8587Y-2419D01*
X-8526Y-2511D01*
X-8537Y-2558D01*
X-8572Y-2638D01*
X-8600D01*
X-8715Y-2685D01*
X-9032Y-3003D01*
X-9100Y-2989D01*
X-9219Y-3013D01*
X-9270Y-3046D01*
X-9397Y-2984D01*
Y-2849D01*
X-9149Y-2601D01*
X-9100Y-2611D01*
X-8981Y-2587D01*
X-8880Y-2520D01*
X-8813Y-2419D01*
X-8789Y-2300D01*
X-8813Y-2181D01*
X-8880Y-2080D01*
X-8880Y-2078D01*
X-8855Y-1944D01*
X-8785Y-1915D01*
X-8585Y-1715D01*
X-8557Y-1648D01*
X-8427Y-1589D01*
X-8411Y-1589D01*
X-8300Y-1611D01*
X-8181Y-1587D01*
X-8080Y-1520D01*
X-8013Y-1419D01*
X-7989Y-1300D01*
X-8013Y-1181D01*
X-8080Y-1080D01*
X-8181Y-1013D01*
X-8300Y-989D01*
X-8411Y-1011D01*
X-8422Y-1011D01*
X-8538Y-939D01*
Y-661D01*
X-8422Y-589D01*
X-8411Y-589D01*
X-8300Y-611D01*
X-8181Y-587D01*
X-8080Y-520D01*
X-8013Y-419D01*
X-7989Y-300D01*
X-8013Y-181D01*
X-8080Y-80D01*
X-8181Y-13D01*
X-8300Y11D01*
X-8411Y-11D01*
X-8422Y-11D01*
X-8538Y61D01*
Y339D01*
X-8422Y411D01*
X-8411Y411D01*
X-8300Y389D01*
X-8181Y413D01*
X-8080Y480D01*
X-8013Y581D01*
X-7989Y700D01*
X-8013Y819D01*
X-8080Y920D01*
X-8181Y987D01*
X-8300Y1011D01*
X-8315Y1008D01*
X-8347Y1032D01*
X-8410Y1118D01*
X-8394Y1200D01*
X-8410Y1282D01*
X-8347Y1368D01*
X-8315Y1392D01*
X-8300Y1389D01*
X-8181Y1413D01*
X-8080Y1480D01*
X-8013Y1581D01*
X-7989Y1700D01*
X-8013Y1819D01*
X-8080Y1920D01*
X-8181Y1987D01*
X-8300Y2011D01*
X-8419Y1987D01*
X-8520Y1920D01*
X-8587Y1819D01*
X-8611Y1700D01*
X-8594Y1614D01*
X-8654Y1530D01*
X-8688Y1504D01*
X-8700Y1506D01*
X-8817Y1483D01*
X-8916Y1416D01*
X-8983Y1317D01*
X-9006Y1200D01*
X-8990Y1118D01*
X-9053Y1032D01*
X-9085Y1008D01*
X-9100Y1011D01*
X-9219Y987D01*
X-9320Y920D01*
X-9387Y819D01*
X-9411Y700D01*
X-9387Y581D01*
X-9329Y494D01*
Y-94D01*
X-9334Y-102D01*
X-9472Y-239D01*
X-9609Y-197D01*
X-9613Y-181D01*
X-9680Y-80D01*
X-9781Y-13D01*
X-9900Y11D01*
X-10019Y-13D01*
X-10120Y-80D01*
X-10187Y-181D01*
X-10211Y-300D01*
X-10187Y-419D01*
X-10120Y-520D01*
X-10019Y-587D01*
X-10003Y-591D01*
X-9961Y-728D01*
X-10616Y-1384D01*
X-10683Y-1483D01*
X-10706Y-1600D01*
X-10706Y-1600D01*
Y-5900D01*
X-10706Y-5900D01*
X-10683Y-6017D01*
X-10616Y-6116D01*
X-9506Y-7227D01*
Y-7650D01*
X-9550D01*
Y-7966D01*
X-9557Y-8000D01*
Y-8900D01*
X-9550Y-8934D01*
Y-9250D01*
X-9355D01*
X-9252Y-9352D01*
X-9137Y-9430D01*
X-9000Y-9457D01*
X-8863D01*
X-8861Y-9460D01*
X-8695Y-9571D01*
X-8527Y-9604D01*
X-8481Y-9689D01*
X-8471Y-9733D01*
X-8571Y-9884D01*
X-8617Y-10116D01*
X-8571Y-10348D01*
X-8439Y-10545D01*
X-8242Y-10677D01*
X-8010Y-10723D01*
X-7778Y-10677D01*
X-7581Y-10545D01*
X-7449Y-10348D01*
X-7403Y-10116D01*
X-7449Y-9884D01*
X-7581Y-9687D01*
X-7735Y-9584D01*
X-7696Y-9457D01*
X-7066D01*
X-7062Y-9462D01*
X-6662Y-9862D01*
X-6588Y-9912D01*
X-6529Y-9924D01*
X-6481Y-9998D01*
X-6465Y-10056D01*
X-6483Y-10083D01*
X-6506Y-10200D01*
X-6483Y-10317D01*
X-6416Y-10416D01*
X-6317Y-10483D01*
X-6200Y-10506D01*
X-6083Y-10483D01*
X-5984Y-10416D01*
X-5917Y-10317D01*
X-5894Y-10200D01*
X-5917Y-10083D01*
X-5935Y-10056D01*
X-5867Y-9929D01*
X-5500D01*
X-5412Y-9912D01*
X-5338Y-9862D01*
X-4826Y-9350D01*
X-4611D01*
X-4525Y-9477D01*
X-4529Y-9500D01*
X-4512Y-9588D01*
X-4462Y-9662D01*
X-4138Y-9987D01*
X-4135Y-9998D01*
X-4080Y-10080D01*
X-3998Y-10135D01*
X-3900Y-10155D01*
X-3802Y-10135D01*
X-3720Y-10080D01*
X-3665Y-9998D01*
X-3645Y-9900D01*
X-3665Y-9802D01*
X-3720Y-9720D01*
X-3802Y-9665D01*
X-3813Y-9662D01*
X-3976Y-9500D01*
X-3813Y-9338D01*
X-3802Y-9335D01*
X-3720Y-9280D01*
X-3665Y-9198D01*
X-3645Y-9100D01*
X-3665Y-9002D01*
X-3720Y-8920D01*
X-3802Y-8865D01*
X-3813Y-8862D01*
X-3938Y-8738D01*
X-4012Y-8688D01*
X-4100Y-8671D01*
X-4450D01*
Y-8650D01*
X-5150D01*
Y-9026D01*
X-5595Y-9471D01*
X-5632D01*
X-5750Y-9450D01*
Y-9102D01*
X-5474Y-8826D01*
X-5435Y-8768D01*
X-5422Y-8700D01*
Y-7900D01*
X-5435Y-7832D01*
X-5474Y-7774D01*
X-5540Y-7707D01*
X-5478Y-7590D01*
X-5400Y-7606D01*
X-5283Y-7583D01*
X-5200Y-7527D01*
X-5117Y-7583D01*
X-5000Y-7606D01*
X-4883Y-7583D01*
X-4800Y-7527D01*
X-4717Y-7583D01*
X-4600Y-7606D01*
X-4483Y-7583D01*
X-4400Y-7527D01*
X-4317Y-7583D01*
X-4200Y-7606D01*
X-4083Y-7583D01*
X-3984Y-7516D01*
X-3917Y-7417D01*
X-3894Y-7300D01*
X-3916Y-7189D01*
X-3917Y-7181D01*
X-3845Y-7062D01*
X-3800D01*
X-3685Y-7015D01*
X-3033Y-6362D01*
X-2352D01*
X-2316Y-6416D01*
X-2217Y-6483D01*
X-2100Y-6506D01*
X-1983Y-6483D01*
X-1884Y-6416D01*
X-1817Y-6317D01*
X-1794Y-6200D01*
X-1817Y-6083D01*
X-1846Y-6040D01*
X-1822Y-5898D01*
X-1806Y-5888D01*
X-1789Y-5890D01*
X-1721Y-5917D01*
X-1672Y-5962D01*
X-1647Y-6085D01*
X-1542Y-6242D01*
X-1464Y-6295D01*
X-1498Y-6416D01*
X-1502Y-6422D01*
X-1568Y-6435D01*
X-1626Y-6474D01*
X-2002Y-6850D01*
X-2350D01*
Y-7523D01*
X-2350Y-7550D01*
Y-7650D01*
X-2350Y-7677D01*
Y-8350D01*
X-1650D01*
Y-7677D01*
X-1650Y-7650D01*
Y-7550D01*
X-1650Y-7523D01*
Y-7002D01*
X-1426Y-6778D01*
X-550D01*
Y-7450D01*
X150D01*
Y-7445D01*
X277Y-7406D01*
X284Y-7416D01*
X383Y-7483D01*
X500Y-7506D01*
X617Y-7483D01*
X716Y-7416D01*
X783Y-7317D01*
X783Y-7315D01*
X921Y-7273D01*
X1174Y-7526D01*
X1232Y-7565D01*
X1300Y-7578D01*
X4000D01*
X4068Y-7565D01*
X4126Y-7526D01*
X5355Y-6297D01*
X5400Y-6306D01*
X5517Y-6283D01*
X5616Y-6216D01*
X5683Y-6117D01*
X5690Y-6078D01*
X5828Y-6036D01*
X5948Y-6155D01*
X5939Y-6200D01*
X5962Y-6317D01*
X6028Y-6416D01*
X6128Y-6483D01*
X6245Y-6506D01*
X6289Y-6497D01*
X6493Y-6701D01*
X6510Y-6712D01*
X7450Y-7652D01*
Y-8123D01*
X7450Y-8150D01*
Y-8250D01*
X7450Y-8277D01*
Y-8566D01*
X7443Y-8600D01*
Y-8920D01*
X7358Y-8959D01*
X7316Y-8964D01*
X6978Y-8626D01*
Y-8042D01*
X7016Y-8016D01*
X7083Y-7917D01*
X7106Y-7800D01*
X7083Y-7683D01*
X7016Y-7584D01*
X6917Y-7517D01*
X6800Y-7494D01*
X6683Y-7517D01*
X6584Y-7584D01*
X6517Y-7683D01*
X6494Y-7800D01*
X6517Y-7917D01*
X6584Y-8016D01*
X6622Y-8042D01*
Y-8700D01*
X6635Y-8768D01*
X6674Y-8826D01*
X7022Y-9174D01*
Y-9900D01*
X7035Y-9968D01*
X7074Y-10026D01*
X7450Y-10402D01*
Y-10750D01*
X8150D01*
Y-10146D01*
X8277Y-10079D01*
X8283Y-10083D01*
X8400Y-10106D01*
X8517Y-10083D01*
X8616Y-10016D01*
X8683Y-9917D01*
X8706Y-9800D01*
X8683Y-9683D01*
X8616Y-9584D01*
X8517Y-9517D01*
X8400Y-9494D01*
X8283Y-9517D01*
X8157Y-9449D01*
Y-8600D01*
X8150Y-8566D01*
Y-8277D01*
X8150Y-8250D01*
Y-8150D01*
X8150Y-8123D01*
Y-7450D01*
X7752D01*
X7570Y-7267D01*
X7618Y-7150D01*
X8150D01*
Y-6477D01*
X8150Y-6450D01*
Y-6350D01*
X8250Y-6257D01*
X8843D01*
Y-6800D01*
X8850Y-6834D01*
Y-7150D01*
X9166D01*
X9200Y-7157D01*
X9234Y-7150D01*
X9550D01*
Y-6834D01*
X9557Y-6800D01*
Y-5900D01*
X9550Y-5866D01*
Y-5550D01*
X9234D01*
X9200Y-5543D01*
X7900D01*
X7833Y-5556D01*
X7764Y-5570D01*
X7763Y-5570D01*
X7763Y-5570D01*
X7704Y-5610D01*
X7648Y-5648D01*
X7648Y-5648D01*
X7648Y-5648D01*
X7648Y-5648D01*
X7645Y-5650D01*
X7450D01*
Y-5965D01*
X7443Y-6000D01*
X7450Y-6034D01*
Y-6323D01*
X7450Y-6350D01*
Y-6450D01*
X7450Y-6477D01*
Y-6518D01*
X7323Y-6571D01*
X7060Y-6307D01*
X7081Y-6200D01*
X7058Y-6083D01*
X6991Y-5984D01*
X6903Y-5925D01*
Y-5237D01*
X6923Y-5223D01*
X6984Y-5132D01*
X7005Y-5025D01*
Y-3975D01*
X6984Y-3868D01*
X6923Y-3777D01*
X6847Y-3726D01*
X6844Y-3666D01*
X6861Y-3594D01*
X6917Y-3583D01*
X7016Y-3516D01*
X7083Y-3417D01*
X7106Y-3300D01*
X7083Y-3183D01*
X7016Y-3084D01*
X6937Y-3031D01*
X6909Y-2938D01*
X6903Y-2885D01*
X7144Y-2644D01*
X7144Y-2644D01*
X7156Y-2626D01*
X7291Y-2564D01*
X7400Y-2586D01*
X7469Y-2572D01*
X7596Y-2647D01*
Y-3750D01*
X7450D01*
Y-4066D01*
X7443Y-4100D01*
X7450Y-4134D01*
Y-4450D01*
X7766D01*
X7800Y-4457D01*
X10500D01*
X10534Y-4450D01*
X10850D01*
Y-4134D01*
X10857Y-4100D01*
X10866Y-4088D01*
X10927Y-4090D01*
X11007Y-4109D01*
X11057Y-4183D01*
X11148Y-4244D01*
X11255Y-4265D01*
X11430D01*
Y-4625D01*
X11255D01*
X11148Y-4646D01*
X11057Y-4707D01*
X10996Y-4798D01*
X10975Y-4905D01*
Y-5255D01*
X10996Y-5362D01*
X11057Y-5453D01*
X11148Y-5514D01*
X11255Y-5535D01*
X11430D01*
Y-5895D01*
X11255D01*
X11148Y-5916D01*
X11057Y-5977D01*
X10996Y-6068D01*
X10975Y-6175D01*
Y-6525D01*
X10996Y-6632D01*
X11057Y-6723D01*
X11148Y-6784D01*
X11255Y-6805D01*
X11430D01*
Y-7165D01*
X11255D01*
X11148Y-7186D01*
X11057Y-7247D01*
X10996Y-7338D01*
X10975Y-7445D01*
Y-7795D01*
X10996Y-7902D01*
X11057Y-7993D01*
X11148Y-8054D01*
X11255Y-8075D01*
X11430D01*
Y-9705D01*
X11255D01*
X11148Y-9726D01*
X11057Y-9787D01*
X10996Y-9878D01*
X10975Y-9985D01*
Y-10335D01*
X10996Y-10442D01*
X11057Y-10533D01*
X11148Y-10594D01*
X11255Y-10615D01*
X11430D01*
Y-11430D01*
X10615D01*
Y-11255D01*
X10594Y-11148D01*
X10533Y-11057D01*
X10442Y-10996D01*
X10335Y-10975D01*
X9985D01*
X9878Y-10996D01*
X9787Y-11057D01*
X9726Y-11148D01*
X9705Y-11255D01*
Y-11430D01*
X9345D01*
Y-11255D01*
X9324Y-11148D01*
X9263Y-11057D01*
X9172Y-10996D01*
X9065Y-10975D01*
X8715D01*
X8608Y-10996D01*
X8517Y-11057D01*
X8456Y-11148D01*
X8435Y-11255D01*
Y-11430D01*
X8075D01*
Y-11255D01*
X8054Y-11148D01*
X7993Y-11057D01*
X7902Y-10996D01*
X7795Y-10975D01*
X7445D01*
X7338Y-10996D01*
X7247Y-11057D01*
X7186Y-11148D01*
X7165Y-11255D01*
Y-11430D01*
X6805D01*
Y-11255D01*
X6784Y-11148D01*
X6723Y-11057D01*
X6632Y-10996D01*
X6525Y-10975D01*
X6275D01*
X6237Y-10848D01*
X6273Y-10823D01*
X6334Y-10732D01*
X6355Y-10625D01*
Y-9575D01*
X6334Y-9468D01*
X6273Y-9377D01*
X6182Y-9316D01*
X6075Y-9295D01*
X5968Y-9316D01*
X5877Y-9377D01*
X5816Y-9468D01*
X5815Y-9474D01*
X5685D01*
X5684Y-9468D01*
X5623Y-9377D01*
X5532Y-9316D01*
X5425Y-9295D01*
X5318Y-9316D01*
X5227Y-9377D01*
X5166Y-9468D01*
X5165Y-9474D01*
X5035D01*
X5034Y-9468D01*
X4973Y-9377D01*
X4882Y-9316D01*
X4775Y-9295D01*
X4668Y-9316D01*
X4577Y-9377D01*
X4516Y-9468D01*
X4515Y-9474D01*
X4385D01*
X4384Y-9468D01*
X4323Y-9377D01*
X4232Y-9316D01*
X4125Y-9295D01*
X4018Y-9316D01*
X3927Y-9377D01*
X3866Y-9468D01*
X3865Y-9474D01*
X3735D01*
X3734Y-9468D01*
X3673Y-9377D01*
X3582Y-9316D01*
X3475Y-9295D01*
X3368Y-9316D01*
X3277Y-9377D01*
X3216Y-9468D01*
X3215Y-9474D01*
X3085D01*
X3084Y-9468D01*
X3023Y-9377D01*
X2932Y-9316D01*
X2852Y-9300D01*
X2526Y-8974D01*
X2468Y-8935D01*
X2400Y-8922D01*
X800D01*
X732Y-8935D01*
X674Y-8974D01*
X297Y-9351D01*
X180Y-9288D01*
X217Y-9100D01*
X171Y-8868D01*
X39Y-8671D01*
X-158Y-8539D01*
X-390Y-8493D01*
X-622Y-8539D01*
X-819Y-8671D01*
X-903Y-8796D01*
X-965Y-8863D01*
X-1066Y-8829D01*
X-1083Y-8817D01*
X-1200Y-8794D01*
X-1317Y-8817D01*
X-1416Y-8884D01*
X-1483Y-8983D01*
X-1506Y-9100D01*
X-1483Y-9217D01*
X-1416Y-9316D01*
X-1317Y-9383D01*
X-1200Y-9406D01*
X-1083Y-9383D01*
X-1066Y-9371D01*
X-965Y-9337D01*
X-903Y-9404D01*
X-819Y-9529D01*
X-622Y-9661D01*
X-390Y-9707D01*
X-158Y-9661D01*
X-82Y-9742D01*
X-126Y-9810D01*
X-187Y-9846D01*
X-200Y-9843D01*
X-234Y-9850D01*
X-550D01*
Y-10165D01*
X-557Y-10200D01*
X-550Y-10234D01*
Y-10550D01*
X-355D01*
X-252Y-10652D01*
X-137Y-10730D01*
X0Y-10757D01*
X575D01*
X626Y-10747D01*
X677Y-10823D01*
X768Y-10884D01*
X875Y-10905D01*
X903Y-10900D01*
X953Y-11019D01*
X897Y-11057D01*
X836Y-11148D01*
X815Y-11255D01*
Y-11430D01*
X455D01*
Y-11255D01*
X434Y-11148D01*
X373Y-11057D01*
X282Y-10996D01*
X175Y-10975D01*
X-175D01*
X-282Y-10996D01*
X-373Y-11057D01*
X-434Y-11148D01*
X-455Y-11255D01*
Y-11430D01*
X-815D01*
Y-11255D01*
X-836Y-11148D01*
X-897Y-11057D01*
X-988Y-10996D01*
X-1095Y-10975D01*
X-1445D01*
X-1552Y-10996D01*
X-1643Y-11057D01*
X-1704Y-11148D01*
X-1725Y-11255D01*
Y-11430D01*
X-2085D01*
Y-11255D01*
X-2106Y-11148D01*
X-2167Y-11057D01*
X-2258Y-10996D01*
X-2365Y-10975D01*
X-2715D01*
X-2822Y-10996D01*
X-2913Y-11057D01*
X-2974Y-11148D01*
X-2995Y-11255D01*
Y-11430D01*
X-3355D01*
Y-11255D01*
X-3376Y-11148D01*
X-3437Y-11057D01*
X-3528Y-10996D01*
X-3635Y-10975D01*
X-3985D01*
X-4092Y-10996D01*
X-4183Y-11057D01*
X-4244Y-11148D01*
X-4265Y-11255D01*
Y-11430D01*
X-4625D01*
Y-11255D01*
X-4646Y-11148D01*
X-4707Y-11057D01*
X-4798Y-10996D01*
X-4905Y-10975D01*
X-5255D01*
X-5362Y-10996D01*
X-5453Y-11057D01*
X-5514Y-11148D01*
X-5535Y-11255D01*
Y-11430D01*
X-5895D01*
Y-11255D01*
X-5916Y-11148D01*
X-5977Y-11057D01*
X-6068Y-10996D01*
X-6175Y-10975D01*
X-6525D01*
X-6592Y-10988D01*
X-6682Y-10920D01*
X-6702Y-10890D01*
X-6694Y-10850D01*
X-6717Y-10733D01*
X-6784Y-10634D01*
X-6883Y-10567D01*
X-7000Y-10544D01*
X-7117Y-10567D01*
X-7216Y-10634D01*
X-7283Y-10733D01*
X-7306Y-10850D01*
X-7300Y-10880D01*
X-7409Y-10982D01*
X-7445Y-10975D01*
X-7795D01*
X-7902Y-10996D01*
X-7993Y-11057D01*
X-8054Y-11148D01*
X-8075Y-11255D01*
Y-11430D01*
X-9705D01*
Y-11255D01*
X-9726Y-11148D01*
X-9787Y-11057D01*
X-9878Y-10996D01*
X-9985Y-10975D01*
X-10335D01*
X-10442Y-10996D01*
X-10533Y-11057D01*
X-11057Y-10533D01*
X-10996Y-10442D01*
X-10975Y-10335D01*
Y-9985D01*
X-10996Y-9878D01*
X-11057Y-9787D01*
X-11148Y-9726D01*
X-11255Y-9705D01*
X-11430D01*
Y-9345D01*
X-11255D01*
X-11148Y-9324D01*
X-11057Y-9263D01*
X-10996Y-9172D01*
X-10975Y-9065D01*
Y-8715D01*
X-10996Y-8608D01*
X-11057Y-8517D01*
X-11148Y-8456D01*
X-11255Y-8435D01*
X-11430D01*
Y-6805D01*
X-11255D01*
X-11148Y-6784D01*
X-11057Y-6723D01*
X-10996Y-6632D01*
X-10975Y-6525D01*
Y-6175D01*
X-10996Y-6068D01*
X-11057Y-5977D01*
X-11148Y-5916D01*
X-11255Y-5895D01*
X-11430D01*
Y-5535D01*
X-11255D01*
X-11148Y-5514D01*
X-11057Y-5453D01*
X-10996Y-5362D01*
X-10975Y-5255D01*
Y-4905D01*
X-10996Y-4798D01*
X-11057Y-4707D01*
X-11148Y-4646D01*
X-11255Y-4625D01*
X-11430D01*
Y-4265D01*
X-11255D01*
X-11148Y-4244D01*
X-11057Y-4183D01*
X-10996Y-4092D01*
X-10975Y-3985D01*
Y-3635D01*
X-10996Y-3528D01*
X-11057Y-3437D01*
X-11148Y-3376D01*
X-11255Y-3355D01*
X-11430D01*
Y-2995D01*
X-11255D01*
X-11148Y-2974D01*
X-11057Y-2913D01*
X-10996Y-2822D01*
X-10975Y-2715D01*
Y-2365D01*
X-10996Y-2258D01*
X-11057Y-2167D01*
X-11148Y-2106D01*
X-11255Y-2085D01*
X-11430D01*
Y-1725D01*
X-11255D01*
X-11148Y-1704D01*
X-11057Y-1643D01*
X-10996Y-1552D01*
X-10975Y-1445D01*
Y-1095D01*
X-10996Y-988D01*
X-11057Y-897D01*
X-11148Y-836D01*
X-11255Y-815D01*
X-11430D01*
Y815D01*
X-11255D01*
X-11148Y836D01*
X-11057Y897D01*
X-10996Y988D01*
X-10975Y1095D01*
Y1445D01*
X-10996Y1552D01*
X-11057Y1643D01*
X-11148Y1704D01*
X-11255Y1725D01*
X-11430D01*
Y2085D01*
X-11255D01*
X-11148Y2106D01*
X-11057Y2167D01*
X-10996Y2258D01*
X-10975Y2365D01*
Y2715D01*
X-10996Y2822D01*
X-11057Y2913D01*
X-11148Y2974D01*
X-11255Y2995D01*
X-11430D01*
Y3355D01*
X-11255D01*
X-11148Y3376D01*
X-11057Y3437D01*
X-10996Y3528D01*
X-10986Y3578D01*
X-10870Y3637D01*
X-10848Y3638D01*
X-10817Y3617D01*
X-10700Y3594D01*
X-10583Y3617D01*
X-10484Y3684D01*
X-10417Y3783D01*
X-10394Y3900D01*
X-10417Y4017D01*
X-10484Y4116D01*
X-10522Y4142D01*
Y4426D01*
X-10325Y4623D01*
X-10187Y4581D01*
X-10120Y4480D01*
X-10019Y4413D01*
X-9917Y4392D01*
X-9562Y4038D01*
X-9488Y3988D01*
X-9400Y3971D01*
X-8997D01*
X-8917Y3917D01*
X-8878Y3910D01*
Y3174D01*
X-9051Y3001D01*
X-9100Y3011D01*
X-9219Y2987D01*
X-9320Y2920D01*
X-9387Y2819D01*
X-9411Y2700D01*
X-9387Y2581D01*
X-9320Y2480D01*
X-9219Y2413D01*
X-9100Y2389D01*
X-8981Y2413D01*
X-8880Y2480D01*
X-8813Y2581D01*
X-8789Y2700D01*
X-8799Y2749D01*
X-8714Y2834D01*
X-8597Y2771D01*
X-8611Y2700D01*
X-8587Y2581D01*
X-8520Y2480D01*
X-8419Y2413D01*
X-8300Y2389D01*
X-8181Y2413D01*
X-8080Y2480D01*
X-8013Y2581D01*
X-7989Y2700D01*
X-8013Y2819D01*
X-8080Y2920D01*
X-8181Y2987D01*
X-8300Y3011D01*
X-8419Y2987D01*
X-8425Y2983D01*
X-8434Y2987D01*
X-8528Y3067D01*
X-8522Y3100D01*
Y3329D01*
X-8481Y3362D01*
X-8395Y3408D01*
X-8300Y3389D01*
X-8181Y3413D01*
X-8080Y3480D01*
X-8013Y3581D01*
X-7989Y3700D01*
X-8013Y3819D01*
X-8080Y3920D01*
X-8181Y3987D01*
X-8300Y4011D01*
X-8395Y3992D01*
X-8397Y3993D01*
X-8452Y4057D01*
X-8471Y4097D01*
X-8102Y4466D01*
X-8080Y4480D01*
X-8013Y4581D01*
X-7989Y4700D01*
X-7994Y4726D01*
Y5073D01*
X-7673Y5394D01*
X-7481D01*
Y4047D01*
X-7505Y4012D01*
X-7532Y3875D01*
X-7505Y3738D01*
X-7427Y3623D01*
X-7312Y3545D01*
X-7175Y3518D01*
X-7038Y3545D01*
X-6923Y3623D01*
X-6845Y3738D01*
X-6818Y3875D01*
X-6845Y4012D01*
X-6869Y4047D01*
Y5575D01*
X-6869Y5575D01*
X-6892Y5692D01*
X-6959Y5791D01*
X-6959Y5791D01*
X-6994Y5827D01*
Y6050D01*
X-6950D01*
Y6750D01*
X-7492D01*
X-7508Y6769D01*
X-7548Y6877D01*
X-7515Y6927D01*
X-7495Y7025D01*
Y7088D01*
X-5203D01*
X-5183Y6983D01*
X-5116Y6884D01*
X-5090Y6866D01*
X-5050Y6750D01*
X-5050Y6750D01*
X-5050Y6750D01*
Y6434D01*
X-5057Y6400D01*
X-5050Y6366D01*
Y6050D01*
X-5050Y6050D01*
X-5050D01*
X-5050Y6050D01*
X-5092Y5940D01*
X-5816Y5216D01*
X-5883Y5117D01*
X-5906Y5000D01*
X-5883Y4883D01*
X-5816Y4784D01*
X-5804Y4775D01*
Y3508D01*
X-5931Y3448D01*
X-5983Y3483D01*
X-6100Y3506D01*
X-6217Y3483D01*
X-6316Y3416D01*
X-6383Y3317D01*
X-6406Y3200D01*
X-6383Y3083D01*
X-6316Y2984D01*
X-6262Y2948D01*
Y1700D01*
X-6215Y1585D01*
X-5397Y768D01*
X-5411Y700D01*
X-5387Y581D01*
X-5320Y480D01*
X-5219Y413D01*
X-5100Y389D01*
X-4981Y413D01*
X-4880Y480D01*
X-4813Y581D01*
X-4789Y700D01*
X-4813Y819D01*
X-4880Y920D01*
X-4981Y987D01*
X-5100Y1011D01*
X-5168Y997D01*
X-5938Y1767D01*
Y2815D01*
X-5931Y2819D01*
X-5804Y2749D01*
Y2500D01*
X-5797Y2466D01*
X-5788Y2422D01*
X-5788Y2422D01*
Y2422D01*
X-5744Y2356D01*
X-5744Y2356D01*
X-5744Y2356D01*
X-5444Y2056D01*
X-5444Y2056D01*
X-5409Y2032D01*
X-5393Y2022D01*
X-5371Y1992D01*
X-5353Y1937D01*
X-5349Y1876D01*
X-5387Y1819D01*
X-5411Y1700D01*
X-5387Y1581D01*
X-5320Y1480D01*
X-5219Y1413D01*
X-5100Y1389D01*
X-4981Y1413D01*
X-4880Y1480D01*
X-4813Y1581D01*
X-4795Y1670D01*
X-4710Y1719D01*
X-4665Y1729D01*
X-4608Y1688D01*
X-4587Y1581D01*
X-4520Y1480D01*
X-4419Y1413D01*
X-4300Y1389D01*
X-4181Y1413D01*
X-4080Y1480D01*
X-4013Y1581D01*
X-3989Y1700D01*
X-4013Y1819D01*
X-4080Y1920D01*
X-4181Y1987D01*
X-4300Y2011D01*
X-4319Y2007D01*
X-4656Y2344D01*
X-4722Y2388D01*
X-4722Y2388D01*
X-4787Y2401D01*
X-4814Y2444D01*
X-4846Y2531D01*
X-4813Y2581D01*
X-4789Y2700D01*
X-4806Y2786D01*
X-4745Y2871D01*
X-4712Y2896D01*
X-4700Y2894D01*
X-4583Y2917D01*
X-4484Y2984D01*
X-4417Y3083D01*
X-4394Y3200D01*
X-4410Y3282D01*
X-4347Y3368D01*
X-4315Y3392D01*
X-4300Y3389D01*
X-4181Y3413D01*
X-4080Y3480D01*
X-4013Y3581D01*
X-3989Y3700D01*
X-3997Y3738D01*
X-3901Y3839D01*
X-3899D01*
X-3803Y3738D01*
X-3811Y3700D01*
X-3787Y3581D01*
X-3720Y3480D01*
X-3619Y3413D01*
X-3500Y3389D01*
X-3381Y3413D01*
X-3280Y3480D01*
X-3213Y3581D01*
X-3189Y3700D01*
X-3213Y3819D01*
X-3280Y3920D01*
X-3381Y3987D01*
X-3500Y4011D01*
X-3515Y4008D01*
X-3547Y4032D01*
X-3610Y4119D01*
X-3594Y4200D01*
X-3617Y4317D01*
X-3684Y4416D01*
X-3783Y4483D01*
X-3900Y4506D01*
X-3912Y4504D01*
X-3946Y4530D01*
X-4006Y4614D01*
X-3989Y4700D01*
X-4003Y4768D01*
X-3733Y5038D01*
X-3167D01*
X-2915Y4785D01*
X-2800Y4738D01*
X-1628D01*
X-1602Y4698D01*
X-1509Y4636D01*
X-1400Y4615D01*
X-1291Y4636D01*
X-1198Y4698D01*
X-1136Y4791D01*
X-1115Y4900D01*
X-1136Y5009D01*
X-1198Y5102D01*
X-1291Y5164D01*
X-1400Y5186D01*
X-1509Y5164D01*
X-1602Y5102D01*
X-1628Y5062D01*
X-2733D01*
X-2985Y5315D01*
X-3100Y5362D01*
X-3800D01*
X-3843Y5344D01*
X-3915Y5452D01*
X-3684Y5684D01*
X-3684Y5684D01*
X-3651Y5733D01*
X-3617Y5783D01*
X-3594Y5900D01*
X-3594Y5900D01*
Y6050D01*
X-3550D01*
Y6366D01*
X-3543Y6400D01*
X-3550Y6434D01*
Y6477D01*
X-3541Y6521D01*
Y7027D01*
X-3476Y7124D01*
X-3441Y7300D01*
Y8150D01*
X-2750D01*
D02*
G37*
G36*
X1928Y1427D02*
X2044Y1374D01*
X2056Y1356D01*
X2256Y1156D01*
X2256Y1156D01*
X2273Y1144D01*
X2327Y1028D01*
X2330Y980D01*
X2315Y900D01*
X2336Y791D01*
X2398Y698D01*
X2491Y636D01*
X2600Y615D01*
X2669Y628D01*
X2779Y563D01*
Y437D01*
X2669Y372D01*
X2600Y386D01*
X2491Y364D01*
X2398Y302D01*
X2336Y209D01*
X2315Y100D01*
X2336Y-9D01*
X2398Y-102D01*
X2491Y-164D01*
X2600Y-185D01*
X2669Y-172D01*
X2780Y-237D01*
Y-363D01*
X2669Y-428D01*
X2600Y-415D01*
X2491Y-436D01*
X2398Y-498D01*
X2336Y-591D01*
X2315Y-700D01*
X2336Y-809D01*
X2398Y-902D01*
X2491Y-964D01*
X2600Y-986D01*
X2669Y-972D01*
X2796Y-1047D01*
Y-1953D01*
X2669Y-2028D01*
X2600Y-2015D01*
X2491Y-2036D01*
X2398Y-2098D01*
X2336Y-2191D01*
X2315Y-2300D01*
X2336Y-2409D01*
X2398Y-2502D01*
X2477Y-2555D01*
X2495Y-2589D01*
X2514Y-2698D01*
X2257Y-2955D01*
X2200Y-2943D01*
X2063Y-2970D01*
X1948Y-3048D01*
X1870Y-3163D01*
X1843Y-3300D01*
X1870Y-3437D01*
X1948Y-3552D01*
X2025Y-3604D01*
X2026Y-3607D01*
X2028Y-3734D01*
X2025Y-3745D01*
X1977Y-3777D01*
X1916Y-3868D01*
X1915Y-3874D01*
X1785D01*
X1784Y-3868D01*
X1723Y-3777D01*
X1632Y-3716D01*
X1525Y-3695D01*
X1418Y-3716D01*
X1327Y-3777D01*
X1266Y-3868D01*
X1265Y-3874D01*
X1135D01*
X1134Y-3868D01*
X1073Y-3777D01*
X982Y-3716D01*
X875Y-3695D01*
X782Y-3713D01*
X753Y-3706D01*
X655Y-3639D01*
Y-3006D01*
X780Y-2880D01*
X835Y-2798D01*
X855Y-2700D01*
X851Y-2678D01*
X960Y-2578D01*
X1000Y-2586D01*
X1018Y-2582D01*
X1147Y-2680D01*
X1153Y-2730D01*
X1117Y-2783D01*
X1094Y-2900D01*
X1117Y-3017D01*
X1184Y-3116D01*
X1283Y-3183D01*
X1400Y-3206D01*
X1517Y-3183D01*
X1616Y-3116D01*
X1683Y-3017D01*
X1706Y-2900D01*
X1683Y-2783D01*
X1647Y-2730D01*
X1653Y-2680D01*
X1782Y-2582D01*
X1800Y-2586D01*
X1909Y-2564D01*
X2002Y-2502D01*
X2064Y-2409D01*
X2085Y-2300D01*
X2064Y-2191D01*
X2002Y-2098D01*
X1909Y-2036D01*
X1800Y-2015D01*
X1691Y-2036D01*
X1689Y-2037D01*
X1562Y-1969D01*
Y-1831D01*
X1689Y-1763D01*
X1691Y-1764D01*
X1800Y-1786D01*
X1909Y-1764D01*
X2002Y-1702D01*
X2064Y-1609D01*
X2085Y-1500D01*
X2064Y-1391D01*
X2002Y-1298D01*
X1909Y-1236D01*
X1800Y-1215D01*
X1691Y-1236D01*
X1689Y-1237D01*
X1562Y-1169D01*
Y-1031D01*
X1689Y-963D01*
X1691Y-964D01*
X1800Y-986D01*
X1909Y-964D01*
X2002Y-902D01*
X2064Y-809D01*
X2085Y-700D01*
X2064Y-591D01*
X2002Y-498D01*
X1909Y-436D01*
X1800Y-415D01*
X1691Y-436D01*
X1689Y-437D01*
X1562Y-369D01*
Y-231D01*
X1689Y-163D01*
X1691Y-164D01*
X1800Y-185D01*
X1909Y-164D01*
X2002Y-102D01*
X2064Y-9D01*
X2085Y100D01*
X2064Y209D01*
X2002Y302D01*
X1909Y364D01*
X1800Y386D01*
X1661Y485D01*
X1655Y525D01*
X1753Y624D01*
X1800Y615D01*
X1909Y636D01*
X2002Y698D01*
X2064Y791D01*
X2085Y900D01*
X2064Y1009D01*
X2002Y1102D01*
X1909Y1164D01*
X1800Y1186D01*
X1691Y1164D01*
X1637Y1128D01*
X1556Y1227D01*
X1753Y1424D01*
X1800Y1415D01*
X1880Y1431D01*
X1928Y1427D01*
D02*
G37*
G36*
X132Y-2627D02*
X148Y-2644D01*
X189Y-2760D01*
X188Y-2767D01*
X164Y-2802D01*
X145Y-2900D01*
Y-4494D01*
X-10Y-4650D01*
X-550D01*
Y-5339D01*
X-616Y-5384D01*
X-683Y-5483D01*
X-699Y-5566D01*
X-812Y-5604D01*
X-826Y-5604D01*
X-858Y-5558D01*
X-1015Y-5453D01*
X-1200Y-5416D01*
X-1385Y-5453D01*
X-1542Y-5558D01*
X-1574Y-5604D01*
X-1588Y-5604D01*
X-1701Y-5566D01*
X-1717Y-5483D01*
X-1784Y-5384D01*
X-1794Y-5377D01*
X-1755Y-5250D01*
X-1650D01*
Y-4902D01*
X-1374Y-4626D01*
X-1335Y-4568D01*
X-1322Y-4500D01*
Y-4450D01*
X-650D01*
Y-3750D01*
X-796D01*
Y-3584D01*
X-56Y-2844D01*
X-56Y-2844D01*
X-12Y-2778D01*
X2Y-2711D01*
X26Y-2686D01*
X122Y-2625D01*
X132Y-2627D01*
D02*
G37*
G36*
X10322Y-1474D02*
Y-2880D01*
X10335Y-2948D01*
X10374Y-3006D01*
X10979Y-3612D01*
X10975Y-3635D01*
Y-3744D01*
X10850Y-3750D01*
Y-3750D01*
X10534D01*
X10500Y-3743D01*
X8804D01*
Y-2671D01*
X8931Y-2592D01*
X9000Y-2606D01*
X9117Y-2583D01*
X9216Y-2516D01*
X9283Y-2417D01*
X9306Y-2300D01*
X9400Y-2206D01*
X9517Y-2183D01*
X9616Y-2116D01*
X9683Y-2017D01*
X9706Y-1900D01*
X9701Y-1873D01*
X9790Y-1784D01*
X9800Y-1786D01*
X9909Y-1764D01*
X10002Y-1702D01*
X10064Y-1609D01*
X10086Y-1500D01*
X10065Y-1397D01*
X10070Y-1389D01*
X10179Y-1331D01*
X10322Y-1474D01*
D02*
G37*
G36*
X-2524Y662D02*
X-2466Y640D01*
X-2465Y632D01*
X-2426Y574D01*
X-2278Y426D01*
Y374D01*
X-2426Y226D01*
X-2465Y168D01*
X-2478Y100D01*
Y-100D01*
X-2465Y-168D01*
X-2426Y-226D01*
X-2278Y-374D01*
Y-426D01*
X-2426Y-574D01*
X-2465Y-632D01*
X-2478Y-700D01*
Y-900D01*
X-2465Y-968D01*
X-2426Y-1026D01*
X-2278Y-1174D01*
Y-1226D01*
X-2426Y-1374D01*
X-2465Y-1432D01*
X-2478Y-1500D01*
Y-1700D01*
X-2465Y-1768D01*
X-2426Y-1826D01*
X-2278Y-1974D01*
Y-2026D01*
X-2426Y-2174D01*
X-2465Y-2232D01*
X-2478Y-2300D01*
Y-2500D01*
X-2465Y-2568D01*
X-2426Y-2626D01*
X-2331Y-2721D01*
X-2326Y-2874D01*
X-2326Y-2874D01*
X-2343Y-2899D01*
X-2365Y-2932D01*
X-2365Y-2932D01*
X-2365Y-2932D01*
X-2372Y-2966D01*
X-2378Y-3000D01*
X-2378Y-3000D01*
X-2378Y-3000D01*
Y-3400D01*
X-2365Y-3468D01*
X-2326Y-3526D01*
X-2278Y-3574D01*
Y-3653D01*
X-2347Y-3746D01*
X-2435Y-3768D01*
X-2472Y-3776D01*
X-3122Y-3126D01*
Y-1500D01*
X-3135Y-1432D01*
X-3174Y-1374D01*
X-3774Y-774D01*
X-3832Y-735D01*
X-3900Y-722D01*
X-4700D01*
X-4768Y-735D01*
X-4826Y-774D01*
X-5051Y-999D01*
X-5100Y-989D01*
X-5219Y-1013D01*
X-5320Y-1080D01*
X-5387Y-1181D01*
X-5411Y-1300D01*
X-5387Y-1419D01*
X-5320Y-1520D01*
X-5219Y-1587D01*
X-5100Y-1611D01*
X-4981Y-1587D01*
X-4880Y-1520D01*
X-4813Y-1419D01*
X-4789Y-1300D01*
X-4799Y-1251D01*
X-4714Y-1166D01*
X-4597Y-1229D01*
X-4611Y-1300D01*
X-4587Y-1419D01*
X-4520Y-1520D01*
X-4419Y-1587D01*
X-4300Y-1611D01*
X-4251Y-1601D01*
X-3878Y-1974D01*
Y-2205D01*
X-4005Y-2218D01*
X-4013Y-2181D01*
X-4080Y-2080D01*
X-4181Y-2013D01*
X-4300Y-1989D01*
X-4419Y-2013D01*
X-4520Y-2080D01*
X-4587Y-2181D01*
X-4611Y-2300D01*
X-4587Y-2419D01*
X-4520Y-2520D01*
X-4419Y-2587D01*
X-4300Y-2611D01*
X-4181Y-2587D01*
X-4080Y-2520D01*
X-4013Y-2419D01*
X-4005Y-2382D01*
X-3878Y-2395D01*
Y-3205D01*
X-4005Y-3218D01*
X-4013Y-3181D01*
X-4080Y-3080D01*
X-4181Y-3013D01*
X-4300Y-2989D01*
X-4419Y-3013D01*
X-4520Y-3080D01*
X-4587Y-3181D01*
X-4611Y-3300D01*
X-4597Y-3368D01*
X-4704Y-3474D01*
X-4762Y-3445D01*
X-4809Y-3400D01*
X-4789Y-3300D01*
X-4813Y-3181D01*
X-4880Y-3080D01*
X-4981Y-3013D01*
X-5100Y-2989D01*
X-5168Y-3003D01*
X-5638Y-2533D01*
Y-752D01*
X-5584Y-716D01*
X-5517Y-617D01*
X-5494Y-500D01*
X-5503Y-458D01*
X-5387Y-419D01*
X-5320Y-520D01*
X-5219Y-587D01*
X-5100Y-611D01*
X-4981Y-587D01*
X-4880Y-520D01*
X-4813Y-419D01*
X-4789Y-300D01*
X-4802Y-232D01*
X-4433Y138D01*
X-3200D01*
X-3085Y185D01*
X-2602Y669D01*
X-2524Y662D01*
D02*
G37*
G36*
X584Y9284D02*
X584Y9284D01*
X683Y9217D01*
X707Y9213D01*
X718Y9199D01*
X755Y9074D01*
X717Y9017D01*
X694Y8900D01*
X717Y8783D01*
X784Y8684D01*
X883Y8617D01*
X1000Y8594D01*
X1004Y8595D01*
X1122Y8502D01*
Y8498D01*
X1004Y8405D01*
X1000Y8406D01*
X883Y8383D01*
X784Y8316D01*
X717Y8217D01*
X694Y8100D01*
X717Y7983D01*
X784Y7884D01*
X883Y7817D01*
X1000Y7794D01*
X1039Y7802D01*
X1148Y7720D01*
X1148Y7660D01*
X1037Y7578D01*
X1000Y7585D01*
X891Y7564D01*
X798Y7502D01*
X736Y7409D01*
X715Y7300D01*
X736Y7191D01*
X798Y7098D01*
X891Y7036D01*
X1000Y7015D01*
X1037Y7022D01*
X1148Y6940D01*
X1148Y6880D01*
X1039Y6798D01*
X1000Y6806D01*
X883Y6783D01*
X784Y6716D01*
X717Y6617D01*
X694Y6500D01*
X717Y6383D01*
X784Y6284D01*
X883Y6217D01*
X1000Y6194D01*
X1004Y6195D01*
X1122Y6102D01*
Y6098D01*
X1004Y6005D01*
X1000Y6006D01*
X883Y5983D01*
X784Y5916D01*
X717Y5817D01*
X694Y5700D01*
X717Y5583D01*
X784Y5484D01*
X883Y5417D01*
X1000Y5394D01*
X1004Y5395D01*
X1122Y5302D01*
Y5298D01*
X1004Y5205D01*
X1000Y5206D01*
X883Y5183D01*
X784Y5116D01*
X717Y5017D01*
X694Y4900D01*
X717Y4783D01*
X784Y4684D01*
X883Y4617D01*
X1000Y4594D01*
X1039Y4602D01*
X1148Y4520D01*
X1148Y4460D01*
X1037Y4378D01*
X1000Y4386D01*
X891Y4364D01*
X798Y4302D01*
X736Y4209D01*
X715Y4100D01*
X736Y3991D01*
X798Y3898D01*
X891Y3836D01*
X1000Y3815D01*
X1037Y3822D01*
X1148Y3740D01*
X1148Y3680D01*
X1039Y3598D01*
X1000Y3606D01*
X883Y3583D01*
X784Y3516D01*
X717Y3417D01*
X694Y3300D01*
X717Y3183D01*
X784Y3084D01*
X883Y3017D01*
X1000Y2994D01*
X1033Y3001D01*
X1095Y2884D01*
X996Y2785D01*
X891Y2764D01*
X798Y2702D01*
X736Y2609D01*
X715Y2500D01*
X736Y2391D01*
X798Y2298D01*
X891Y2236D01*
X1000Y2215D01*
X1109Y2236D01*
X1202Y2298D01*
X1264Y2391D01*
X1285Y2496D01*
X1384Y2595D01*
X1501Y2533D01*
X1494Y2500D01*
X1517Y2383D01*
X1584Y2284D01*
X1683Y2217D01*
X1800Y2194D01*
X1856Y2205D01*
X1858Y2204D01*
X1959Y2115D01*
X1951Y2058D01*
X1833Y1979D01*
X1800Y1986D01*
X1691Y1964D01*
X1598Y1902D01*
X1536Y1809D01*
X1515Y1700D01*
X1524Y1653D01*
X1425Y1555D01*
X1385Y1561D01*
X1285Y1700D01*
X1264Y1809D01*
X1202Y1902D01*
X1109Y1964D01*
X1000Y1986D01*
X891Y1964D01*
X798Y1902D01*
X736Y1809D01*
X715Y1700D01*
X604Y1605D01*
X600Y1606D01*
X596Y1605D01*
X485Y1700D01*
X464Y1809D01*
X402Y1902D01*
X309Y1964D01*
X200Y1986D01*
X91Y1964D01*
X-2Y1902D01*
X-64Y1809D01*
X-85Y1700D01*
X-80Y1672D01*
X-274Y1478D01*
X-800D01*
X-868Y1465D01*
X-926Y1426D01*
X-1126Y1226D01*
X-1165Y1168D01*
X-1291Y1184D01*
X-1400Y1206D01*
X-1517Y1183D01*
X-1616Y1116D01*
X-1683Y1017D01*
X-1706Y900D01*
X-1683Y783D01*
X-1616Y684D01*
X-1517Y617D01*
X-1400Y594D01*
X-1321Y610D01*
X-1222Y528D01*
Y472D01*
X-1321Y390D01*
X-1400Y406D01*
X-1517Y383D01*
X-1616Y316D01*
X-1683Y217D01*
X-1706Y100D01*
X-1683Y-17D01*
X-1616Y-116D01*
X-1517Y-183D01*
X-1400Y-206D01*
X-1321Y-190D01*
X-1222Y-272D01*
Y-328D01*
X-1321Y-410D01*
X-1400Y-394D01*
X-1517Y-417D01*
X-1616Y-484D01*
X-1683Y-583D01*
X-1706Y-700D01*
X-1683Y-817D01*
X-1616Y-916D01*
X-1517Y-983D01*
X-1400Y-1006D01*
X-1321Y-990D01*
X-1222Y-1072D01*
Y-1128D01*
X-1321Y-1210D01*
X-1400Y-1194D01*
X-1517Y-1217D01*
X-1616Y-1284D01*
X-1683Y-1383D01*
X-1706Y-1500D01*
X-1683Y-1617D01*
X-1616Y-1716D01*
X-1517Y-1783D01*
X-1400Y-1806D01*
X-1305Y-1787D01*
X-1222Y-1831D01*
X-1178Y-1866D01*
Y-2626D01*
X-1626Y-3074D01*
X-1665Y-3132D01*
X-1678Y-3200D01*
Y-3750D01*
X-1922D01*
Y-3500D01*
X-1935Y-3432D01*
X-1974Y-3374D01*
X-2022Y-3326D01*
Y-3074D01*
X-1974Y-3026D01*
X-1974Y-3026D01*
X-1974Y-3026D01*
X-1955Y-2999D01*
X-1935Y-2968D01*
X-1935Y-2968D01*
X-1935Y-2968D01*
X-1928Y-2934D01*
X-1922Y-2900D01*
X-1922Y-2900D01*
X-1922Y-2900D01*
Y-2700D01*
X-1935Y-2632D01*
X-1974Y-2574D01*
X-2122Y-2426D01*
Y-2374D01*
X-1974Y-2226D01*
X-1935Y-2168D01*
X-1922Y-2100D01*
Y-1900D01*
X-1935Y-1832D01*
X-1974Y-1774D01*
X-2122Y-1626D01*
Y-1574D01*
X-1974Y-1426D01*
X-1935Y-1368D01*
X-1922Y-1300D01*
Y-1100D01*
X-1935Y-1032D01*
X-1974Y-974D01*
X-2122Y-826D01*
Y-774D01*
X-1974Y-626D01*
X-1935Y-568D01*
X-1922Y-500D01*
Y-300D01*
X-1935Y-232D01*
X-1974Y-174D01*
X-2122Y-26D01*
Y26D01*
X-1974Y174D01*
X-1935Y232D01*
X-1922Y300D01*
Y500D01*
X-1935Y568D01*
X-1974Y626D01*
X-2122Y774D01*
Y826D01*
X-1974Y974D01*
X-1935Y1032D01*
X-1922Y1100D01*
Y1300D01*
X-1935Y1368D01*
X-1974Y1426D01*
X-2122Y1574D01*
Y1626D01*
X-2026Y1722D01*
X-1703D01*
X-1685Y1700D01*
X-1664Y1591D01*
X-1602Y1498D01*
X-1509Y1436D01*
X-1400Y1415D01*
X-1291Y1436D01*
X-1198Y1498D01*
X-1136Y1591D01*
X-1115Y1700D01*
X-1136Y1809D01*
X-1198Y1902D01*
X-1291Y1964D01*
X-1400Y1986D01*
X-1428Y1980D01*
X-1474Y2026D01*
X-1532Y2065D01*
X-1600Y2078D01*
X-2100D01*
X-2168Y2065D01*
X-2226Y2026D01*
X-2336Y1916D01*
X-2367Y1914D01*
X-2473Y1959D01*
X-2473Y1997D01*
X-1829Y2642D01*
X-1691Y2613D01*
X-1685Y2606D01*
X-1706Y2500D01*
X-1683Y2383D01*
X-1616Y2284D01*
X-1517Y2217D01*
X-1400Y2194D01*
X-1283Y2217D01*
X-1184Y2284D01*
X-1117Y2383D01*
X-1094Y2500D01*
X-1117Y2617D01*
X-1184Y2716D01*
X-1283Y2783D01*
X-1400Y2806D01*
X-1506Y2785D01*
X-1513Y2791D01*
X-1542Y2929D01*
X-1447Y3024D01*
X-1400Y3015D01*
X-1291Y3036D01*
X-1289Y3037D01*
X-1241Y3023D01*
X-1152Y2976D01*
X-1115Y2885D01*
X-1015Y2785D01*
X-943Y2755D01*
X-884Y2629D01*
X-883Y2622D01*
X-884Y2611D01*
X-906Y2500D01*
X-883Y2383D01*
X-816Y2284D01*
X-717Y2217D01*
X-600Y2194D01*
X-483Y2217D01*
X-384Y2284D01*
X-317Y2383D01*
X-294Y2500D01*
X-315Y2606D01*
X-309Y2613D01*
X-171Y2642D01*
X-76Y2547D01*
X-85Y2500D01*
X-64Y2391D01*
X-2Y2298D01*
X91Y2236D01*
X200Y2215D01*
X309Y2236D01*
X402Y2298D01*
X464Y2391D01*
X485Y2500D01*
X464Y2609D01*
X402Y2702D01*
X309Y2764D01*
X200Y2786D01*
X153Y2776D01*
X-44Y2973D01*
X37Y3072D01*
X91Y3036D01*
X200Y3015D01*
X309Y3036D01*
X402Y3098D01*
X464Y3191D01*
X485Y3300D01*
X464Y3409D01*
X402Y3502D01*
X309Y3564D01*
X200Y3586D01*
X146Y3575D01*
X40Y3668D01*
X46Y3724D01*
X158Y3803D01*
X200Y3794D01*
X317Y3817D01*
X416Y3884D01*
X483Y3983D01*
X506Y4100D01*
X483Y4217D01*
X416Y4316D01*
X317Y4383D01*
X200Y4406D01*
X196Y4405D01*
X77Y4498D01*
Y4502D01*
X196Y4595D01*
X200Y4594D01*
X317Y4617D01*
X416Y4684D01*
X483Y4783D01*
X506Y4900D01*
X483Y5017D01*
X416Y5116D01*
X317Y5183D01*
X200Y5206D01*
X196Y5205D01*
X77Y5298D01*
Y5302D01*
X196Y5395D01*
X200Y5394D01*
X317Y5417D01*
X416Y5484D01*
X483Y5583D01*
X506Y5700D01*
X483Y5817D01*
X416Y5916D01*
X317Y5983D01*
X200Y6006D01*
X83Y5983D01*
X72Y5975D01*
X-12Y5944D01*
X-56Y6010D01*
X-290Y6244D01*
X-336Y6391D01*
X-332Y6413D01*
X-315Y6500D01*
X-204Y6595D01*
X-200Y6594D01*
X-106Y6500D01*
X-83Y6383D01*
X-16Y6284D01*
X83Y6217D01*
X200Y6194D01*
X317Y6217D01*
X416Y6284D01*
X483Y6383D01*
X506Y6500D01*
X483Y6617D01*
X416Y6716D01*
X317Y6783D01*
X200Y6806D01*
X106Y6900D01*
X83Y7017D01*
X16Y7116D01*
X-83Y7183D01*
X-200Y7206D01*
X-217Y7203D01*
X-315Y7300D01*
X-336Y7409D01*
X-398Y7502D01*
X-491Y7564D01*
X-600Y7585D01*
X-669Y7572D01*
X-779Y7637D01*
Y7763D01*
X-669Y7828D01*
X-600Y7815D01*
X-491Y7836D01*
X-398Y7898D01*
X-336Y7991D01*
X-315Y8100D01*
X-336Y8209D01*
X-398Y8302D01*
X-491Y8364D01*
X-600Y8385D01*
X-669Y8372D01*
X-779Y8437D01*
Y8563D01*
X-669Y8628D01*
X-600Y8615D01*
X-491Y8636D01*
X-398Y8698D01*
X-336Y8791D01*
X-315Y8900D01*
X-320Y8928D01*
X-219Y9029D01*
X-78Y8994D01*
X-77Y8993D01*
X-72Y8970D01*
X-85Y8900D01*
X-64Y8791D01*
X-2Y8698D01*
X91Y8636D01*
X200Y8615D01*
X309Y8636D01*
X402Y8698D01*
X464Y8791D01*
X485Y8900D01*
X464Y9009D01*
X402Y9102D01*
X309Y9164D01*
X262Y9173D01*
X191Y9271D01*
X187Y9308D01*
X206Y9400D01*
X205Y9406D01*
X306Y9509D01*
X358Y9510D01*
X584Y9284D01*
D02*
G37*
G36*
X5895Y11255D02*
X5916Y11148D01*
X5977Y11057D01*
X6068Y10996D01*
X6175Y10975D01*
X6169Y10850D01*
X6150D01*
Y10534D01*
X6143Y10500D01*
X6150Y10466D01*
Y10150D01*
X6466D01*
X6500Y10143D01*
X7245D01*
Y9650D01*
X7118Y9582D01*
X7117Y9583D01*
X7000Y9606D01*
X6883Y9583D01*
X6784Y9516D01*
X6717Y9417D01*
X6694Y9300D01*
X6580Y9258D01*
X6499Y9254D01*
X5626Y10126D01*
X5568Y10165D01*
X5500Y10178D01*
X4250D01*
Y10850D01*
X3991D01*
X3985Y10975D01*
X4092Y10996D01*
X4183Y11057D01*
X4244Y11148D01*
X4265Y11255D01*
Y11430D01*
X4625D01*
Y11255D01*
X4646Y11148D01*
X4707Y11057D01*
X4798Y10996D01*
X4905Y10975D01*
X5255D01*
X5362Y10996D01*
X5453Y11057D01*
X5514Y11148D01*
X5535Y11255D01*
Y11430D01*
X5895D01*
Y11255D01*
D02*
G37*
G36*
X8435D02*
X8456Y11148D01*
X8517Y11057D01*
X8608Y10996D01*
X8622Y10993D01*
Y9474D01*
X8474Y9326D01*
X8435Y9268D01*
X8433Y9258D01*
X8341Y9198D01*
X8317Y9189D01*
X8295Y9187D01*
X8200Y9206D01*
X8083Y9183D01*
X7984Y9116D01*
X7917Y9017D01*
X7894Y8900D01*
X7917Y8783D01*
X7984Y8684D01*
X8083Y8617D01*
X8200Y8594D01*
X8271Y8608D01*
X8383Y8531D01*
X8385Y8489D01*
X8371Y8467D01*
X8273Y8391D01*
X8200Y8406D01*
X8083Y8383D01*
X7984Y8316D01*
X7917Y8217D01*
X7894Y8100D01*
X7800Y8006D01*
X7796Y8005D01*
X7685Y8100D01*
X7664Y8209D01*
X7604Y8299D01*
Y8701D01*
X7664Y8791D01*
X7667Y8806D01*
X7680Y8820D01*
X7735Y8902D01*
X7755Y9000D01*
Y10150D01*
X7850D01*
Y10466D01*
X7857Y10500D01*
X7850Y10534D01*
Y10850D01*
X7801D01*
X7795Y10975D01*
X7902Y10996D01*
X7993Y11057D01*
X8054Y11148D01*
X8075Y11255D01*
Y11430D01*
X8435D01*
Y11255D01*
D02*
G37*
G36*
X-7260Y10335D02*
X-7145Y10288D01*
X-6417D01*
X-5972Y9842D01*
X-6035Y9725D01*
X-6050Y9728D01*
X-6544D01*
X-6545Y9730D01*
X-6627Y9785D01*
X-6725Y9805D01*
X-7175D01*
X-7273Y9785D01*
X-7355Y9730D01*
X-7411Y9648D01*
X-7430Y9550D01*
X-7411Y9452D01*
X-7355Y9370D01*
Y9230D01*
X-7411Y9148D01*
X-7430Y9050D01*
X-7411Y8952D01*
X-7355Y8870D01*
Y8730D01*
X-7411Y8648D01*
X-7430Y8550D01*
X-7411Y8452D01*
X-7355Y8370D01*
X-7273Y8314D01*
X-7175Y8295D01*
X-6725D01*
X-6627Y8314D01*
X-6545Y8370D01*
X-6544Y8372D01*
X-6392D01*
X-6366Y8334D01*
X-6267Y8267D01*
X-6150Y8244D01*
X-6033Y8267D01*
X-5934Y8334D01*
X-5867Y8433D01*
X-5844Y8550D01*
X-5867Y8667D01*
X-5901Y8718D01*
X-5876Y8770D01*
X-5853Y8783D01*
X-5725Y8806D01*
X-5667Y8767D01*
X-5550Y8744D01*
X-5433Y8767D01*
X-5334Y8834D01*
X-5267Y8933D01*
X-5263Y8954D01*
X-5125Y8996D01*
X-4762Y8633D01*
Y8052D01*
X-4816Y8016D01*
X-4883Y7917D01*
X-4906Y7800D01*
X-4883Y7683D01*
X-4816Y7584D01*
X-4717Y7517D01*
X-4600Y7494D01*
X-4486Y7517D01*
X-4483Y7517D01*
X-4478Y7516D01*
X-4389Y7427D01*
X-4424Y7376D01*
X-4459Y7200D01*
Y6757D01*
X-4645D01*
X-4684Y6884D01*
X-4617Y6983D01*
X-4594Y7100D01*
X-4617Y7217D01*
X-4684Y7316D01*
X-4783Y7383D01*
X-4900Y7406D01*
X-4991Y7388D01*
X-5050Y7412D01*
X-7495D01*
Y7475D01*
X-7515Y7573D01*
X-7570Y7655D01*
X-7652Y7711D01*
X-7750Y7730D01*
X-7848Y7711D01*
X-7891Y7681D01*
X-8034Y7666D01*
X-8133Y7733D01*
X-8250Y7756D01*
X-8367Y7733D01*
X-8466Y7666D01*
X-8609Y7681D01*
X-8652Y7711D01*
X-8750Y7730D01*
X-8848Y7711D01*
X-8930Y7655D01*
X-9070D01*
X-9152Y7711D01*
X-9250Y7730D01*
X-9348Y7711D01*
X-9430Y7655D01*
X-9485Y7573D01*
X-9505Y7475D01*
Y7025D01*
X-9485Y6927D01*
X-9430Y6845D01*
X-9428Y6844D01*
Y6750D01*
X-9422Y6719D01*
X-9415Y6682D01*
X-9415Y6682D01*
X-9376Y6624D01*
X-9250Y6498D01*
Y6202D01*
X-10826Y4626D01*
X-10865Y4568D01*
X-10878Y4500D01*
Y4233D01*
X-10929Y4199D01*
X-11057Y4183D01*
X-11148Y4244D01*
X-11255Y4265D01*
X-11430D01*
Y4625D01*
X-11255D01*
X-11148Y4646D01*
X-11057Y4707D01*
X-10996Y4798D01*
X-10975Y4905D01*
Y5255D01*
X-10996Y5362D01*
X-11057Y5453D01*
X-11148Y5514D01*
X-11255Y5535D01*
X-11430D01*
Y5895D01*
X-11255D01*
X-11148Y5916D01*
X-11057Y5977D01*
X-10996Y6068D01*
X-10975Y6175D01*
X-10850Y6169D01*
Y6050D01*
X-10150D01*
Y6750D01*
X-10245D01*
Y7694D01*
X-10144Y7795D01*
X-9825D01*
X-9727Y7815D01*
X-9645Y7870D01*
X-9589Y7952D01*
X-9570Y8050D01*
X-9589Y8148D01*
X-9645Y8230D01*
Y8370D01*
X-9589Y8452D01*
X-9570Y8550D01*
X-9589Y8648D01*
X-9645Y8730D01*
Y8870D01*
X-9589Y8952D01*
X-9570Y9050D01*
X-9589Y9148D01*
X-9645Y9230D01*
Y9370D01*
X-9589Y9452D01*
X-9570Y9550D01*
X-9589Y9648D01*
X-9645Y9730D01*
X-9727Y9785D01*
X-9825Y9805D01*
X-9872D01*
Y9950D01*
X-9885Y10018D01*
X-9905Y10047D01*
X-9897Y10084D01*
X-9882Y10112D01*
X-9812Y10182D01*
X-9784Y10197D01*
X-9747Y10205D01*
X-9718Y10185D01*
X-9650Y10172D01*
X-9505D01*
Y10125D01*
X-9485Y10027D01*
X-9430Y9945D01*
X-9348Y9889D01*
X-9250Y9870D01*
X-9152Y9889D01*
X-9109Y9919D01*
X-8966Y9934D01*
X-8867Y9867D01*
X-8750Y9844D01*
X-8633Y9867D01*
X-8534Y9934D01*
X-8391Y9919D01*
X-8348Y9889D01*
X-8250Y9870D01*
X-8152Y9889D01*
X-8109Y9919D01*
X-7966Y9934D01*
X-7867Y9867D01*
X-7750Y9844D01*
X-7633Y9867D01*
X-7534Y9934D01*
X-7467Y10033D01*
X-7444Y10150D01*
X-7467Y10267D01*
X-7481Y10287D01*
X-7466Y10362D01*
X-7331Y10406D01*
X-7260Y10335D01*
D02*
G37*
G36*
X2200Y6594D02*
X2294Y6500D01*
X2317Y6383D01*
X2384Y6284D01*
X2483Y6217D01*
X2600Y6194D01*
X2717Y6217D01*
X2816Y6284D01*
X2883Y6383D01*
X2906Y6500D01*
X3000Y6594D01*
X3094Y6500D01*
X3117Y6383D01*
X3184Y6284D01*
X3283Y6217D01*
X3400Y6194D01*
X3431Y6164D01*
X3431Y6037D01*
X3400Y6006D01*
X3283Y5983D01*
X3184Y5916D01*
X3117Y5817D01*
X3094Y5700D01*
X3117Y5583D01*
X3184Y5484D01*
X3283Y5417D01*
X3400Y5394D01*
X3517Y5417D01*
X3616Y5484D01*
X3683Y5583D01*
X3706Y5700D01*
X3800Y5794D01*
X3827Y5799D01*
X3916Y5710D01*
X3914Y5700D01*
X3936Y5591D01*
X3998Y5498D01*
X4091Y5436D01*
X4173Y5420D01*
X4187Y5292D01*
X4088Y5184D01*
X4083Y5183D01*
X3984Y5116D01*
X3917Y5017D01*
X3914Y4998D01*
X3776Y4957D01*
X3616Y5116D01*
X3517Y5183D01*
X3400Y5206D01*
X3283Y5183D01*
X3184Y5116D01*
X3117Y5017D01*
X3094Y4900D01*
X3117Y4783D01*
X3184Y4684D01*
X3767Y4100D01*
X3320Y3652D01*
X3264Y3675D01*
X3201Y3713D01*
X3188Y3778D01*
X3144Y3844D01*
X3144Y3844D01*
X2903Y4085D01*
X2906Y4100D01*
X2883Y4217D01*
X2816Y4316D01*
X2717Y4383D01*
X2600Y4406D01*
X2483Y4383D01*
X2384Y4316D01*
X2317Y4217D01*
X2294Y4100D01*
X2317Y3983D01*
X2384Y3884D01*
X2483Y3817D01*
X2600Y3794D01*
X2606Y3795D01*
X2690Y3706D01*
X2633Y3599D01*
X2600Y3606D01*
X2483Y3583D01*
X2384Y3516D01*
X2317Y3417D01*
X2294Y3300D01*
X2317Y3183D01*
X2384Y3084D01*
X2483Y3017D01*
X2600Y2994D01*
X2639Y3002D01*
X2748Y2920D01*
X2748Y2860D01*
X2637Y2778D01*
X2600Y2786D01*
X2491Y2764D01*
X2398Y2702D01*
X2336Y2609D01*
X2315Y2504D01*
X2216Y2405D01*
X2099Y2467D01*
X2106Y2500D01*
X2083Y2617D01*
X2016Y2716D01*
X1917Y2783D01*
X1800Y2806D01*
X1779Y2802D01*
X1655Y2894D01*
X1654Y2903D01*
X1675Y2973D01*
X1731Y3008D01*
X1800Y2994D01*
X1917Y3017D01*
X2016Y3084D01*
X2083Y3183D01*
X2106Y3300D01*
X2083Y3417D01*
X2016Y3516D01*
X1917Y3583D01*
X1800Y3606D01*
X1796Y3605D01*
X1677Y3698D01*
Y3702D01*
X1796Y3795D01*
X1800Y3794D01*
X1917Y3817D01*
X2016Y3884D01*
X2083Y3983D01*
X2106Y4100D01*
X2083Y4217D01*
X2016Y4316D01*
X1917Y4383D01*
X1800Y4406D01*
X1796Y4405D01*
X1677Y4498D01*
Y4502D01*
X1796Y4595D01*
X1800Y4594D01*
X1917Y4617D01*
X2016Y4684D01*
X2083Y4783D01*
X2106Y4900D01*
X2083Y5017D01*
X2016Y5116D01*
X1917Y5183D01*
X1800Y5206D01*
X1761Y5198D01*
X1652Y5280D01*
X1652Y5340D01*
X1763Y5422D01*
X1800Y5415D01*
X1909Y5436D01*
X2002Y5498D01*
X2064Y5591D01*
X2085Y5700D01*
X2064Y5809D01*
X2002Y5902D01*
X1909Y5964D01*
X1800Y5985D01*
X1731Y5972D01*
X1621Y6037D01*
Y6163D01*
X1731Y6228D01*
X1800Y6215D01*
X1909Y6236D01*
X2002Y6298D01*
X2064Y6391D01*
X2085Y6500D01*
X2084Y6510D01*
X2173Y6599D01*
X2200Y6594D01*
D02*
G37*
G36*
X815Y11255D02*
X836Y11148D01*
X897Y11057D01*
X902Y11053D01*
X934Y10887D01*
X910Y10857D01*
X700D01*
X666Y10850D01*
X350D01*
Y10534D01*
X343Y10500D01*
X350Y10466D01*
Y10283D01*
X273Y10206D01*
X-400D01*
X-517Y10183D01*
X-616Y10116D01*
X-616Y10116D01*
X-1216Y9516D01*
X-1283Y9417D01*
X-1306Y9300D01*
X-1283Y9183D01*
X-1216Y9084D01*
X-1204Y9075D01*
Y8447D01*
X-1331Y8372D01*
X-1400Y8385D01*
X-1509Y8364D01*
X-1602Y8302D01*
X-1664Y8209D01*
X-1685Y8100D01*
X-1664Y7991D01*
X-1602Y7898D01*
X-1509Y7836D01*
X-1400Y7815D01*
X-1331Y7828D01*
X-1221Y7763D01*
Y7637D01*
X-1331Y7572D01*
X-1400Y7585D01*
X-1509Y7564D01*
X-1602Y7502D01*
X-1664Y7409D01*
X-1685Y7300D01*
X-1783Y7203D01*
X-1800Y7206D01*
X-1917Y7183D01*
X-1967Y7149D01*
X-2094Y7211D01*
Y8728D01*
X-1967Y8807D01*
X-1900Y8794D01*
X-1783Y8817D01*
X-1684Y8884D01*
X-1617Y8983D01*
X-1594Y9100D01*
X-1617Y9217D01*
X-1684Y9316D01*
X-1783Y9383D01*
X-1885Y9403D01*
X-1916Y9455D01*
X-1940Y9527D01*
X-1784Y9684D01*
X-1717Y9783D01*
X-1694Y9900D01*
X-1694Y9900D01*
Y10150D01*
X-1650D01*
Y10850D01*
X-2350D01*
Y10806D01*
X-3000D01*
X-3000Y10806D01*
X-3117Y10783D01*
X-3216Y10716D01*
X-3216Y10716D01*
X-3736Y10197D01*
X-3800Y10210D01*
X-3995Y10171D01*
X-4160Y10060D01*
X-4271Y9895D01*
X-4282Y9838D01*
X-4324Y9776D01*
X-4359Y9600D01*
Y8842D01*
X-4482Y8815D01*
X-4486Y8815D01*
X-6235Y10565D01*
X-6350Y10612D01*
X-6623D01*
X-6706Y10739D01*
X-6694Y10800D01*
X-6714Y10897D01*
X-6666Y10955D01*
X-6615Y10993D01*
X-6525Y10975D01*
X-6175D01*
X-6068Y10996D01*
X-5977Y11057D01*
X-5916Y11148D01*
X-5895Y11255D01*
Y11430D01*
X-5535D01*
Y11255D01*
X-5514Y11148D01*
X-5453Y11057D01*
X-5362Y10996D01*
X-5255Y10975D01*
X-4905D01*
X-4798Y10996D01*
X-4707Y11057D01*
X-4646Y11148D01*
X-4625Y11255D01*
Y11430D01*
X-4265D01*
Y11255D01*
X-4244Y11148D01*
X-4183Y11057D01*
X-4092Y10996D01*
X-3985Y10975D01*
X-3635D01*
X-3528Y10996D01*
X-3437Y11057D01*
X-3376Y11148D01*
X-3355Y11255D01*
Y11430D01*
X-2995D01*
Y11255D01*
X-2974Y11148D01*
X-2913Y11057D01*
X-2822Y10996D01*
X-2715Y10975D01*
X-2365D01*
X-2258Y10996D01*
X-2167Y11057D01*
X-2106Y11148D01*
X-2085Y11255D01*
Y11430D01*
X-1725D01*
Y11255D01*
X-1704Y11148D01*
X-1643Y11057D01*
X-1552Y10996D01*
X-1445Y10975D01*
X-1095D01*
X-988Y10996D01*
X-897Y11057D01*
X-836Y11148D01*
X-815Y11255D01*
Y11430D01*
X-455D01*
Y11255D01*
X-434Y11148D01*
X-373Y11057D01*
X-282Y10996D01*
X-175Y10975D01*
X175D01*
X282Y10996D01*
X373Y11057D01*
X434Y11148D01*
X455Y11255D01*
Y11430D01*
X815D01*
Y11255D01*
D02*
G37*
%LPC*%
G36*
X10000Y-7294D02*
X9883Y-7317D01*
X9784Y-7384D01*
X9717Y-7483D01*
X9694Y-7600D01*
X9717Y-7717D01*
X9784Y-7816D01*
X9883Y-7883D01*
X10000Y-7906D01*
X10117Y-7883D01*
X10216Y-7816D01*
X10283Y-7717D01*
X10306Y-7600D01*
X10283Y-7483D01*
X10216Y-7384D01*
X10117Y-7317D01*
X10000Y-7294D01*
D02*
G37*
G36*
X-5100Y-1989D02*
X-5219Y-2013D01*
X-5320Y-2080D01*
X-5387Y-2181D01*
X-5411Y-2300D01*
X-5387Y-2419D01*
X-5320Y-2520D01*
X-5219Y-2587D01*
X-5100Y-2611D01*
X-4981Y-2587D01*
X-4880Y-2520D01*
X-4813Y-2419D01*
X-4789Y-2300D01*
X-4813Y-2181D01*
X-4880Y-2080D01*
X-4981Y-2013D01*
X-5100Y-1989D01*
D02*
G37*
G36*
X-3400Y-7194D02*
X-3517Y-7217D01*
X-3616Y-7284D01*
X-3683Y-7383D01*
X-3706Y-7500D01*
X-3683Y-7617D01*
X-3616Y-7716D01*
X-3542Y-7766D01*
X-3450Y-7850D01*
Y-8550D01*
X-3329D01*
Y-8993D01*
X-3335Y-9002D01*
X-3355Y-9100D01*
X-3335Y-9198D01*
X-3280Y-9280D01*
X-3198Y-9335D01*
X-3100Y-9355D01*
X-3002Y-9335D01*
X-2920Y-9280D01*
X-2865Y-9198D01*
X-2845Y-9100D01*
X-2865Y-9002D01*
X-2871Y-8993D01*
Y-8550D01*
X-2750D01*
Y-7850D01*
X-2763D01*
X-2871Y-7800D01*
X-2888Y-7712D01*
X-2938Y-7638D01*
X-3099Y-7477D01*
X-3117Y-7383D01*
X-3184Y-7284D01*
X-3283Y-7217D01*
X-3400Y-7194D01*
D02*
G37*
G36*
X-4900Y-9894D02*
X-5017Y-9917D01*
X-5116Y-9984D01*
X-5183Y-10083D01*
X-5206Y-10200D01*
X-5183Y-10317D01*
X-5116Y-10416D01*
X-5017Y-10483D01*
X-4900Y-10506D01*
X-4783Y-10483D01*
X-4684Y-10416D01*
X-4617Y-10317D01*
X-4594Y-10200D01*
X-4617Y-10083D01*
X-4684Y-9984D01*
X-4783Y-9917D01*
X-4900Y-9894D01*
D02*
G37*
G36*
X-2300D02*
X-2417Y-9917D01*
X-2516Y-9984D01*
X-2583Y-10083D01*
X-2606Y-10200D01*
X-2583Y-10317D01*
X-2516Y-10416D01*
X-2417Y-10483D01*
X-2300Y-10506D01*
X-2183Y-10483D01*
X-2087Y-10419D01*
X-2061Y-10425D01*
X-1992Y-10450D01*
X-1965Y-10467D01*
X-1943Y-10577D01*
X-1876Y-10676D01*
X-1777Y-10743D01*
X-1660Y-10766D01*
X-1543Y-10743D01*
X-1444Y-10676D01*
X-1377Y-10577D01*
X-1354Y-10460D01*
X-1377Y-10343D01*
X-1444Y-10244D01*
X-1543Y-10177D01*
X-1660Y-10154D01*
X-1777Y-10177D01*
X-1873Y-10241D01*
X-1899Y-10235D01*
X-1968Y-10210D01*
X-1995Y-10193D01*
X-2017Y-10083D01*
X-2084Y-9984D01*
X-2183Y-9917D01*
X-2300Y-9894D01*
D02*
G37*
G36*
X-10600Y-6694D02*
X-10717Y-6717D01*
X-10816Y-6784D01*
X-10883Y-6883D01*
X-10906Y-7000D01*
X-10883Y-7117D01*
X-10827Y-7200D01*
X-10883Y-7283D01*
X-10906Y-7400D01*
X-10883Y-7517D01*
X-10827Y-7600D01*
X-10883Y-7683D01*
X-10906Y-7800D01*
X-10883Y-7917D01*
X-10816Y-8016D01*
X-10717Y-8083D01*
X-10600Y-8106D01*
X-10483Y-8083D01*
X-10384Y-8016D01*
X-10317Y-7917D01*
X-10294Y-7800D01*
X-10317Y-7683D01*
X-10373Y-7600D01*
X-10317Y-7517D01*
X-10294Y-7400D01*
X-10317Y-7283D01*
X-10373Y-7200D01*
X-10317Y-7117D01*
X-10294Y-7000D01*
X-10317Y-6883D01*
X-10384Y-6784D01*
X-10483Y-6717D01*
X-10600Y-6694D01*
D02*
G37*
G36*
X150Y-7650D02*
X-550D01*
Y-8350D01*
X150D01*
Y-7650D01*
D02*
G37*
G36*
X4400Y-7894D02*
X4283Y-7917D01*
X4184Y-7984D01*
X4117Y-8083D01*
X4094Y-8200D01*
X4117Y-8317D01*
X4184Y-8416D01*
X4283Y-8483D01*
X4400Y-8506D01*
X4517Y-8483D01*
X4616Y-8416D01*
X4683Y-8317D01*
X4706Y-8200D01*
X4683Y-8083D01*
X4616Y-7984D01*
X4517Y-7917D01*
X4400Y-7894D01*
D02*
G37*
G36*
X-3500Y11D02*
X-3619Y-13D01*
X-3720Y-80D01*
X-3787Y-181D01*
X-3811Y-300D01*
X-3787Y-419D01*
X-3720Y-520D01*
X-3619Y-587D01*
X-3500Y-611D01*
X-3381Y-587D01*
X-3280Y-520D01*
X-3213Y-419D01*
X-3189Y-300D01*
X-3213Y-181D01*
X-3280Y-80D01*
X-3381Y-13D01*
X-3500Y11D01*
D02*
G37*
G36*
Y3011D02*
X-3619Y2987D01*
X-3720Y2920D01*
X-3787Y2819D01*
X-3811Y2700D01*
X-3787Y2581D01*
X-3720Y2480D01*
X-3619Y2413D01*
X-3500Y2389D01*
X-3381Y2413D01*
X-3280Y2480D01*
X-3213Y2581D01*
X-3189Y2700D01*
X-3213Y2819D01*
X-3280Y2920D01*
X-3381Y2987D01*
X-3500Y3011D01*
D02*
G37*
G36*
X-9900D02*
X-10019Y2987D01*
X-10120Y2920D01*
X-10187Y2819D01*
X-10211Y2700D01*
X-10187Y2581D01*
X-10120Y2480D01*
X-10019Y2413D01*
X-9900Y2389D01*
X-9781Y2413D01*
X-9680Y2480D01*
X-9613Y2581D01*
X-9589Y2700D01*
X-9613Y2819D01*
X-9680Y2920D01*
X-9781Y2987D01*
X-9900Y3011D01*
D02*
G37*
G36*
Y4011D02*
X-10019Y3987D01*
X-10120Y3920D01*
X-10187Y3819D01*
X-10211Y3700D01*
X-10187Y3581D01*
X-10120Y3480D01*
X-10019Y3413D01*
X-9900Y3389D01*
X-9781Y3413D01*
X-9680Y3480D01*
X-9613Y3581D01*
X-9589Y3700D01*
X-9613Y3819D01*
X-9680Y3920D01*
X-9781Y3987D01*
X-9900Y4011D01*
D02*
G37*
G36*
X200Y8385D02*
X91Y8364D01*
X-2Y8302D01*
X-64Y8209D01*
X-85Y8100D01*
X-64Y7991D01*
X-2Y7898D01*
X91Y7836D01*
X200Y7815D01*
X309Y7836D01*
X402Y7898D01*
X464Y7991D01*
X485Y8100D01*
X464Y8209D01*
X402Y8302D01*
X309Y8364D01*
X200Y8385D01*
D02*
G37*
G36*
X2600Y6006D02*
X2483Y5983D01*
X2384Y5916D01*
X2317Y5817D01*
X2294Y5700D01*
X2317Y5583D01*
X2384Y5484D01*
X2483Y5417D01*
X2600Y5394D01*
X2717Y5417D01*
X2816Y5484D01*
X2883Y5583D01*
X2906Y5700D01*
X2883Y5817D01*
X2816Y5916D01*
X2717Y5983D01*
X2600Y6006D01*
D02*
G37*
G36*
X9000Y2806D02*
X8883Y2783D01*
X8784Y2716D01*
X8717Y2617D01*
X8694Y2500D01*
X8717Y2383D01*
X8784Y2284D01*
X8883Y2217D01*
X9000Y2194D01*
X9117Y2217D01*
X9216Y2284D01*
X9283Y2383D01*
X9306Y2500D01*
X9283Y2617D01*
X9216Y2716D01*
X9117Y2783D01*
X9000Y2806D01*
D02*
G37*
G36*
X-9900Y2011D02*
X-10019Y1987D01*
X-10120Y1920D01*
X-10187Y1819D01*
X-10211Y1700D01*
X-10187Y1581D01*
X-10120Y1480D01*
X-10019Y1413D01*
X-9900Y1389D01*
X-9781Y1413D01*
X-9680Y1480D01*
X-9613Y1581D01*
X-9589Y1700D01*
X-9613Y1819D01*
X-9680Y1920D01*
X-9781Y1987D01*
X-9900Y2011D01*
D02*
G37*
G36*
Y1011D02*
X-10019Y987D01*
X-10120Y920D01*
X-10187Y819D01*
X-10211Y700D01*
X-10187Y581D01*
X-10120Y480D01*
X-10019Y413D01*
X-9900Y389D01*
X-9781Y413D01*
X-9680Y480D01*
X-9613Y581D01*
X-9589Y700D01*
X-9613Y819D01*
X-9680Y920D01*
X-9781Y987D01*
X-9900Y1011D01*
D02*
G37*
G36*
X-3500Y2011D02*
X-3619Y1987D01*
X-3720Y1920D01*
X-3787Y1819D01*
X-3811Y1700D01*
X-3787Y1581D01*
X-3720Y1480D01*
X-3619Y1413D01*
X-3500Y1389D01*
X-3381Y1413D01*
X-3280Y1480D01*
X-3213Y1581D01*
X-3189Y1700D01*
X-3213Y1819D01*
X-3280Y1920D01*
X-3381Y1987D01*
X-3500Y2011D01*
D02*
G37*
G36*
X8200Y2806D02*
X8083Y2783D01*
X7984Y2716D01*
X7917Y2617D01*
X7894Y2500D01*
X7917Y2383D01*
X7984Y2284D01*
X8083Y2217D01*
X8200Y2194D01*
X8317Y2217D01*
X8416Y2284D01*
X8483Y2383D01*
X8506Y2500D01*
X8483Y2617D01*
X8416Y2716D01*
X8317Y2783D01*
X8200Y2806D01*
D02*
G37*
G36*
Y2006D02*
X8083Y1983D01*
X7984Y1916D01*
X7917Y1817D01*
X7894Y1700D01*
X7917Y1583D01*
X7984Y1484D01*
X8083Y1417D01*
X8200Y1394D01*
X8317Y1417D01*
X8416Y1484D01*
X8483Y1583D01*
X8506Y1700D01*
X8483Y1817D01*
X8416Y1916D01*
X8317Y1983D01*
X8200Y2006D01*
D02*
G37*
%LPD*%
D16*
X-4800Y-8200D02*
D03*
Y-9000D02*
D03*
X-2000Y-7200D02*
D03*
Y-8000D02*
D03*
X7800Y-8600D02*
D03*
Y-7800D02*
D03*
X7800Y-6000D02*
D03*
Y-6800D02*
D03*
Y-9600D02*
D03*
Y-10400D02*
D03*
X-2000Y-4900D02*
D03*
Y-4100D02*
D03*
X-3100Y7700D02*
D03*
Y8500D02*
D03*
X10500Y-4900D02*
D03*
Y-4100D02*
D03*
X9600D02*
D03*
Y-4900D02*
D03*
X8700Y-4100D02*
D03*
Y-4900D02*
D03*
X7800D02*
D03*
Y-4100D02*
D03*
D17*
X-3900Y-8200D02*
D03*
X-3100D02*
D03*
X-6100Y-9100D02*
D03*
X-6900D02*
D03*
X-8100Y6400D02*
D03*
X-8900D02*
D03*
X-1000Y-8000D02*
D03*
X-200D02*
D03*
X-1000Y-7100D02*
D03*
X-200D02*
D03*
X-1000Y-10200D02*
D03*
X-200D02*
D03*
X-1200Y10500D02*
D03*
X-2000D02*
D03*
X-100D02*
D03*
X700D02*
D03*
X2900D02*
D03*
X2100D02*
D03*
X-6900Y-8200D02*
D03*
X-6100D02*
D03*
X5700Y10500D02*
D03*
X6500D02*
D03*
X-9200Y-8900D02*
D03*
X-10000D02*
D03*
X4700Y10500D02*
D03*
X3900D02*
D03*
X-9200Y-8000D02*
D03*
X-10000D02*
D03*
X-4700Y6400D02*
D03*
X-5500D02*
D03*
X9300Y10500D02*
D03*
X10100D02*
D03*
X-3900Y6400D02*
D03*
X-3100D02*
D03*
X8300Y10500D02*
D03*
X7500D02*
D03*
X-7300Y6400D02*
D03*
X-6500D02*
D03*
X10000Y-5900D02*
D03*
X9200D02*
D03*
X10000Y-6800D02*
D03*
X9200D02*
D03*
X-9700Y6400D02*
D03*
X-10500D02*
D03*
X-200Y-5000D02*
D03*
X-1000D02*
D03*
Y-4100D02*
D03*
X-200D02*
D03*
D29*
X1700Y10100D02*
X2100Y10500D01*
X800Y10100D02*
X1700D01*
X-4500Y6100D02*
X-3900D01*
X550Y9750D02*
X800Y9500D01*
X550Y9750D02*
Y9750D01*
X-10400Y-1600D02*
X-9100Y-300D01*
X-10400Y-5900D02*
Y-1600D01*
Y-5900D02*
X-9200Y-7100D01*
X400Y9900D02*
X700Y10200D01*
X-400Y9900D02*
X400D01*
X-1000Y9300D02*
X-400Y9900D01*
X-2400Y6600D02*
X-2000Y6200D01*
X-4700Y5900D02*
X-4500Y6100D01*
X-3000Y10500D02*
X-2000D01*
X-3800Y9700D02*
X-3000Y10500D01*
X-6000Y6400D02*
X-5500D01*
X-6500D02*
X-6000D01*
X-5700Y7800D02*
X-5200D01*
X-6400D02*
X-5700D01*
X-6650Y8050D02*
X-6400Y7800D01*
X-6950Y8050D02*
X-6650D01*
X3400Y3300D02*
X4200Y2500D01*
X700Y10200D02*
Y10500D01*
X-2000Y6200D02*
X-1900Y6100D01*
X-8300Y4700D02*
Y5200D01*
X-7800Y5700D01*
X-7300D01*
X-7175Y5575D01*
Y3875D02*
Y5575D01*
X4200Y3300D02*
X5000Y2500D01*
X3400Y3300D02*
X4200Y4100D01*
X3400Y4900D02*
X4200Y4100D01*
Y2500D02*
X5000Y1700D01*
X-8800Y4200D02*
X-8300Y4700D01*
X-7300Y5700D02*
Y6400D01*
X-9200Y-8000D02*
Y-7100D01*
X-5600Y5000D02*
X-4700Y5900D01*
Y6400D01*
Y5100D02*
X-3900Y5900D01*
X4600Y5300D02*
X5000Y4900D01*
X4500Y5300D02*
X4600D01*
X6725Y-10100D02*
Y-9375D01*
X6800Y-9300D01*
X-3900Y5900D02*
Y6100D01*
Y6400D01*
X-8300Y-6300D02*
X-6900Y-7700D01*
Y-8200D02*
Y-7700D01*
X-2400Y6600D02*
Y9500D01*
X-2000Y9900D01*
Y10500D01*
X9000Y-3100D02*
X9800Y-2300D01*
X9000Y-3100D02*
X9000D01*
X4200Y4100D02*
X5000Y3300D01*
X700Y10200D02*
X800Y10100D01*
X400Y9900D02*
X550Y9750D01*
X1350D02*
X1700Y10100D01*
X550Y9750D02*
X1350D01*
X1100Y9500D02*
X1350Y9750D01*
X800Y9500D02*
X1100D01*
X800D02*
X900Y9600D01*
D30*
X-4121Y6400D02*
X-4000Y6521D01*
X-3900Y9600D02*
X-3800Y9700D01*
X-3900Y7300D02*
Y9600D01*
X-4000Y7200D02*
X-3900Y7300D01*
X-4000Y6521D02*
Y7200D01*
D31*
X10000Y-5900D02*
Y-4900D01*
X7800Y-9600D02*
Y-8600D01*
X575Y-10400D02*
X875Y-10100D01*
X0Y-10400D02*
X575D01*
X-200Y-10200D02*
X0Y-10400D01*
X1400Y10500D02*
X1800D01*
X700D02*
X1400D01*
X-4700Y6400D02*
X-4121D01*
X-1200Y10500D02*
X-100D01*
X-9000Y-9100D02*
X-8500D01*
X-9200Y-8900D02*
Y-8000D01*
Y-8900D02*
X-9000Y-9100D01*
X-4121Y6400D02*
X-3900D01*
X6500Y10500D02*
X7500D01*
X7800Y-9600D02*
X7800D01*
X7900Y-5900D02*
X9200D01*
X7800Y-6000D02*
X7900Y-5900D01*
X9200Y-6800D02*
Y-5900D01*
X9600Y-4100D02*
X10500D01*
X7800Y-4900D02*
X8700D01*
X9600D01*
X10000Y-6800D02*
Y-5900D01*
X9600Y-4900D02*
X10000D01*
X10500D01*
X875Y-10100D02*
X1525D01*
X2000D01*
X7800Y-4100D02*
X8700D01*
X9600D01*
X-1000Y-8000D02*
Y-7100D01*
X-8500Y-9100D02*
X-6900D01*
Y-8200D01*
X-4800Y-8200D02*
X-3900D01*
X-3500Y-9500D02*
X-3100Y-9900D01*
X-3100Y6400D02*
X-3100Y6400D01*
X-3100Y6400D02*
Y7050D01*
Y7700D01*
D33*
X6725Y-6225D02*
X7300Y-6800D01*
X6725Y-6225D02*
Y-4500D01*
X7154Y7700D02*
X7800D01*
X6754Y7300D02*
X7154Y7700D01*
X6600Y7300D02*
X6754D01*
X2200Y8500D02*
X3000D01*
X3400Y8900D01*
X10800Y4440D02*
Y5100D01*
X10200Y5700D02*
X10800Y5100D01*
X9800Y5700D02*
X10200D01*
X10500Y4300D02*
Y4800D01*
X10000Y5300D02*
X10500Y4800D01*
X9400Y5300D02*
X10000D01*
X9000Y5700D02*
X9400Y5300D01*
X10800Y4440D02*
X11430Y3810D01*
X10410Y6100D02*
X11430Y5080D01*
X7800Y6100D02*
X10410D01*
X7400Y5700D02*
X7800Y6100D01*
X8600Y6900D02*
X10710D01*
X8200Y6500D02*
X8600Y6900D01*
X11280Y6500D02*
X11430Y6350D01*
X9800Y6500D02*
X11280D01*
X10710Y6900D02*
X11430Y7620D01*
Y8776D02*
Y8890D01*
X9954Y7300D02*
X11430Y8776D01*
X9800Y7300D02*
X9954D01*
X10400Y9130D02*
X11430Y10160D01*
X10400Y8100D02*
Y9130D01*
X10000Y7700D02*
X10400Y8100D01*
X9400Y7700D02*
X10000D01*
X9000Y7300D02*
X9400Y7700D01*
X9400Y8500D02*
X9800Y8100D01*
X9400Y8500D02*
Y9200D01*
X9600Y9400D01*
X9900D01*
X10690Y10190D01*
Y10900D01*
X10160Y11430D02*
X10690Y10900D01*
X8600Y8500D02*
X9000Y8100D01*
X8600Y8500D02*
Y9200D01*
X8800Y9400D01*
Y11340D01*
X8890Y11430D01*
X1800Y6500D02*
X2200Y6900D01*
X1800Y6500D02*
X1800D01*
X3800Y6100D02*
X4200Y5700D01*
X3000Y6900D02*
Y6900D01*
X2600Y7300D02*
X3000Y6900D01*
X-9575Y-2775D02*
X-9100Y-2300D01*
X-9575Y-5525D02*
Y-2775D01*
Y-5525D02*
X-9300Y-5800D01*
X-5600Y-8700D02*
Y-7900D01*
X-7700Y-5800D02*
X-5600Y-7900D01*
X-9300Y-5800D02*
X-7700D01*
X-2000Y-7100D02*
X-1500Y-6600D01*
X-2000Y-7200D02*
Y-7100D01*
X4125Y-5275D02*
Y-4500D01*
X3800Y-5600D02*
X4125Y-5275D01*
X3475Y-5125D02*
Y-4500D01*
X3300Y-5300D02*
X3475Y-5125D01*
X2825Y-10100D02*
Y-9525D01*
X2400Y-9100D02*
X2825Y-9525D01*
X800Y-9100D02*
X2400D01*
X300Y-9600D02*
X800Y-9100D01*
X300Y-9700D02*
Y-9600D01*
X5425Y-5380D02*
Y-4500D01*
X6625Y-6575D02*
X7800Y-7750D01*
X6620Y-6575D02*
X6625D01*
X7800Y-7800D02*
Y-7750D01*
X7700Y-10400D02*
X7800D01*
X3300Y-6400D02*
Y-5900D01*
X2825Y-5425D02*
X3300Y-5900D01*
X2825Y-5425D02*
Y-4500D01*
X2175Y-5375D02*
X2800Y-6000D01*
X2175Y-5375D02*
Y-4500D01*
X7000Y4500D02*
Y6900D01*
X7400Y7300D01*
X7300Y-6800D02*
X7800D01*
X4775Y-4500D02*
X4800Y-4525D01*
Y-6000D02*
Y-4525D01*
X-600Y8900D02*
X-100Y9400D01*
X-6950Y8550D02*
X-6150D01*
X-6950Y9550D02*
X-6050D01*
X-5550Y9050D01*
X-1000Y-2700D02*
Y1100D01*
X-2700Y-4900D02*
Y-4550D01*
X-200Y1300D02*
X200Y1700D01*
X-800Y1300D02*
X-200D01*
X-6950Y9050D02*
X-6150D01*
X-7150D02*
X-6950D01*
X-8750Y10150D02*
Y10350D01*
Y7050D02*
X-8100Y6400D01*
X-8750Y7050D02*
Y7250D01*
X-9250Y6750D02*
X-8900Y6400D01*
X-9250Y6750D02*
Y7250D01*
X-10050Y9550D02*
Y9950D01*
X-10650Y8550D02*
X-10050D01*
X-9650Y10350D02*
X-9250D01*
X-10700Y8500D02*
X-10650Y8550D01*
X-9800Y10500D02*
X-9650Y10350D01*
X-10200Y10100D02*
X-10050Y9950D01*
X-3700Y-3750D02*
X-3550Y-3900D01*
X-3400D01*
X-3300Y-3800D01*
X-3200D01*
X-3100Y-3900D01*
Y-4150D02*
Y-3900D01*
X-3200Y-4250D02*
X-3100Y-4150D01*
X-3200Y-4350D02*
Y-4250D01*
Y-4350D02*
X-3100Y-4450D01*
X-2800D01*
X-2600Y-5000D02*
X-2100D01*
X-2700Y-4900D02*
X-2600Y-5000D01*
X-2100D02*
X-2000Y-4900D01*
X-3700Y-3750D02*
Y-1900D01*
X-2800Y-4450D02*
X-2700Y-4550D01*
X-4300Y-1300D02*
X-3700Y-1900D01*
X-3300Y-3200D02*
Y-1500D01*
Y-3200D02*
X-2400Y-4100D01*
X-2000D01*
X-2200Y-3000D02*
X-2100Y-2900D01*
X-2200Y-3400D02*
Y-3000D01*
Y-3400D02*
X-2100Y-3500D01*
Y-4000D02*
Y-3500D01*
Y-2900D02*
Y-2700D01*
Y-4000D02*
X-2000Y-4100D01*
X-2300Y-2500D02*
X-2100Y-2700D01*
X-2300Y-2500D02*
Y-2300D01*
X-2100Y-2100D01*
Y-1900D01*
X-2300Y-1700D02*
X-2100Y-1900D01*
X-2300Y-1700D02*
Y-1500D01*
X-2100Y-1300D01*
Y-1100D01*
X-2300Y-900D02*
X-2100Y-1100D01*
X-2300Y-900D02*
Y-700D01*
X-2100Y-500D01*
Y-300D01*
X-2300Y-100D02*
X-2100Y-300D01*
X-2300Y-100D02*
Y100D01*
X-2100Y300D01*
Y500D01*
X-2300Y700D02*
X-2100Y500D01*
X-2300Y700D02*
Y900D01*
X-2100Y1100D01*
Y1300D01*
X-2300Y1500D02*
X-2100Y1300D01*
X-2300Y1500D02*
Y1700D01*
X-2100Y1900D01*
X-1600D01*
X-1400Y1700D01*
X-1000Y1100D02*
X-800Y1300D01*
X-1500Y-3200D02*
X-1000Y-2700D01*
X-1500Y-4500D02*
Y-3200D01*
X-1900Y-4900D02*
X-1500Y-4500D01*
X-2000Y-4900D02*
X-1900D01*
X-9100Y2700D02*
X-8700Y3100D01*
Y4100D01*
X-8800Y4200D02*
X-8700Y4100D01*
X-4700Y4500D02*
Y5100D01*
X4000Y-7400D02*
X5400Y-6000D01*
X1500Y-7000D02*
X3800D01*
X4800Y-6000D01*
X875Y-6975D02*
Y-4500D01*
Y-6975D02*
X1300Y-7400D01*
X4000D01*
X500Y-7200D02*
Y-7053D01*
X47Y-6600D02*
X500Y-7053D01*
X-1500Y-6600D02*
X47D01*
X6245Y-6200D02*
X6620Y-6575D01*
X-6000Y-9100D02*
X-5600Y-8700D01*
X-6100Y-9100D02*
X-6000D01*
X6800Y-8700D02*
Y-7800D01*
X7200Y-9900D02*
X7700Y-10400D01*
X7200Y-9900D02*
Y-9100D01*
X6800Y-8700D02*
X7200Y-9100D01*
X5425Y-5380D02*
X6245Y-6200D01*
X-11430Y8890D02*
X-11270Y9050D01*
X-10050D01*
X-8900Y6300D02*
Y6400D01*
X-10700Y4500D02*
X-8900Y6300D01*
X-10700Y3900D02*
Y4500D01*
X9800Y4900D02*
X10250Y4450D01*
X10800Y1900D02*
Y2700D01*
Y1900D02*
X11430Y1270D01*
X9800Y4100D02*
X10200Y3700D01*
X10500Y4300D02*
X10800Y4000D01*
Y3170D02*
X11430Y2540D01*
X10800Y3170D02*
Y4000D01*
X10500Y3000D02*
X10800Y2700D01*
X10250Y4150D02*
Y4450D01*
Y4150D02*
X10500Y3900D01*
Y3000D02*
Y3900D01*
X9800Y2500D02*
X10250Y2050D01*
X10200Y2800D02*
Y3700D01*
Y2800D02*
X10525Y2475D01*
X10800Y-640D02*
X11430Y-1270D01*
X10800Y-640D02*
Y100D01*
X10250Y650D02*
X10800Y100D01*
X9800Y700D02*
Y900D01*
Y700D02*
X10500Y0D01*
Y-900D02*
Y0D01*
Y-900D02*
X10800Y-1200D01*
Y-1910D02*
Y-1200D01*
Y-1910D02*
X11430Y-2540D01*
X10250Y650D02*
Y2050D01*
X10525Y905D02*
Y2475D01*
Y905D02*
X11430Y0D01*
X9800Y100D02*
X10200Y-300D01*
Y-1100D02*
Y-300D01*
Y-1100D02*
X10500Y-1400D01*
Y-2880D02*
Y-1400D01*
Y-2880D02*
X11430Y-3810D01*
X8200Y4100D02*
X8600Y4500D01*
X9400D01*
X9400Y-1900D02*
X9800Y-1500D01*
X9400Y-1900D02*
X9400D01*
X5400Y8500D02*
X6200D01*
X6600Y8100D01*
X6200Y7500D02*
X6400Y7700D01*
X6800D01*
X7000Y7900D01*
Y9300D01*
X6200Y5500D02*
Y7500D01*
Y5500D02*
X6600Y5100D01*
Y4900D02*
Y5100D01*
X6200Y4500D02*
X6600Y4100D01*
X6200Y4500D02*
Y5146D01*
X6046Y5300D02*
X6200Y5146D01*
X5600Y5300D02*
X6046D01*
X5400Y5500D02*
X5600Y5300D01*
X5400Y5500D02*
Y6700D01*
X5200Y6900D02*
X5400Y6700D01*
X4800Y6900D02*
X5200D01*
X4600Y7100D02*
X4800Y6900D01*
X4600Y7100D02*
Y9300D01*
X3400Y11020D02*
X3810Y11430D01*
X3400Y10200D02*
Y11020D01*
Y10200D02*
X3600Y10000D01*
X5500D01*
X6600Y8900D01*
X5000D02*
Y9500D01*
X4800Y9700D02*
X5000Y9500D01*
X2900Y9700D02*
X4800D01*
X3700Y9400D02*
X4200Y8900D01*
X2600D02*
Y8900D01*
X2600Y9400D02*
X3700D01*
X2200Y9800D02*
X2600Y9400D01*
X2100D02*
X2600Y8900D01*
X1800Y9400D02*
X2100D01*
X2800Y9800D02*
X2900Y9700D01*
X-5100Y-1300D02*
X-4700Y-900D01*
X-3900D01*
X-3300Y-1500D01*
D34*
X-5500Y-9700D02*
X-4800Y-9000D01*
X-6500Y-9700D02*
X-5500D01*
X-6900Y-9300D02*
X-6500Y-9700D01*
X-6900Y-9300D02*
Y-9100D01*
X-9100Y-300D02*
Y700D01*
X-3500Y-300D02*
X-3500Y-300D01*
X-200Y-4150D02*
Y-4100D01*
X-1000Y-4950D02*
X-200Y-4150D01*
X-1000Y-5000D02*
Y-4950D01*
X-9700Y7600D02*
X-8500Y8800D01*
X-9700Y6400D02*
Y7600D01*
X-9400Y4200D02*
X-8800D01*
X-9900Y4700D02*
X-9400Y4200D01*
X-3100Y-9100D02*
Y-8200D01*
X-4300Y-9500D02*
X-3900Y-9900D01*
X-4300Y-9500D02*
X-3900Y-9100D01*
X-4100Y-8900D02*
X-3900Y-9100D01*
X-4700Y-8900D02*
X-4100D01*
X-4800Y-9000D02*
X-4700Y-8900D01*
X-3100Y-8200D02*
Y-7800D01*
X-3400Y-7500D02*
X-3100Y-7800D01*
D35*
X200Y7300D02*
X600Y6900D01*
Y2300D02*
Y6900D01*
X400Y2100D02*
X600Y2300D01*
X-200Y2100D02*
X400D01*
X-600Y1700D02*
X-200Y2100D01*
X1100Y9500D02*
X1400Y9200D01*
Y2900D02*
Y9200D01*
X1000Y2500D02*
X1400Y2900D01*
X-434Y6100D02*
X-200Y5866D01*
Y3700D02*
Y5866D01*
Y-2700D02*
Y-300D01*
X-600Y3300D02*
X-200Y3700D01*
X-1900Y6100D02*
X-434D01*
X5400Y-1700D02*
Y1300D01*
X-1000Y6900D02*
X-600Y6500D01*
X-1000Y6900D02*
Y9300D01*
X5800Y4100D02*
X6200Y3700D01*
X6000Y2900D02*
X6200Y2700D01*
X4600Y-3300D02*
X5400D01*
X-4700Y4100D02*
X-4300Y3700D01*
X-4700Y4100D02*
Y4500D01*
X-4800Y2200D02*
X-4300Y1700D01*
X-5300Y2200D02*
X-4800D01*
X-5600Y2500D02*
X-5300Y2200D01*
X600Y-1900D02*
X1000Y-1500D01*
X600Y-2700D02*
Y-1900D01*
X-1000Y-4100D02*
Y-3500D01*
X-200Y-2700D01*
X-600Y100D02*
X-200Y-300D01*
X6200Y-3300D02*
X7000Y-2500D01*
Y3500D01*
X6800Y3700D02*
X7000Y3500D01*
X6200Y3700D02*
X6800D01*
X5000Y3300D02*
X5400Y2900D01*
X2200Y2100D02*
X2600Y2500D01*
X7400Y900D02*
X7800Y500D01*
X8600D01*
X9000Y100D01*
X3800Y7700D02*
X4200Y8100D01*
X3800Y6900D02*
Y7700D01*
X3400Y6500D02*
X3800Y6900D01*
X4600Y-300D02*
X5000Y100D01*
X4600Y-1100D02*
Y-300D01*
X4200Y-1500D02*
X4600Y-1100D01*
X7400Y8100D02*
Y8900D01*
X2600Y4100D02*
X3000Y3700D01*
Y2100D02*
Y3700D01*
Y2100D02*
X3400Y1700D01*
X-5600Y2500D02*
Y5000D01*
X7400Y-1500D02*
X7800Y-1900D01*
Y-4100D02*
Y-1900D01*
Y-4100D02*
X7800D01*
X8600Y-300D02*
X9000Y100D01*
X8600Y-4000D02*
Y-300D01*
Y-4000D02*
X8700Y-4100D01*
X5400Y4500D02*
X5800Y4100D01*
X4200D02*
X4600Y4500D01*
X5400Y-3300D02*
X6200Y-2500D01*
Y2700D01*
X5400Y2900D02*
X6000D01*
X4600Y-3300D02*
Y-2100D01*
X4800Y-1900D01*
X5200D01*
X5400Y-1700D01*
X5000Y1700D02*
X5400Y1300D01*
X3100Y-3300D02*
X3800Y-2600D01*
X8600Y3700D02*
X9000Y3300D01*
X7800Y3700D02*
X8600D01*
X7400Y4100D02*
X7800Y3700D01*
X3800Y-2600D02*
Y300D01*
X4000Y500D01*
X4400D01*
X4600Y700D01*
Y1300D01*
X5000Y1700D01*
X2200Y-3300D02*
X3000Y-2500D01*
Y1100D01*
X2800Y1300D02*
X3000Y1100D01*
X2400Y1300D02*
X2800D01*
X2200Y1500D02*
X2400Y1300D01*
X2200Y1500D02*
Y2100D01*
X4600Y4500D02*
X5400D01*
X9240Y-12080D02*
X9810D01*
X7970D02*
X8540D01*
X6700D02*
X7270D01*
X5430D02*
X6000D01*
X4160D02*
X4730D01*
X2890D02*
X3460D01*
X1620D02*
X2190D01*
X350D02*
X920D01*
X-920D02*
X-350D01*
X-2190D02*
X-1620D01*
X-3460D02*
X-2890D01*
X-4730D02*
X-4160D01*
X-6000D02*
X-5430D01*
X-7270D02*
X-6700D01*
X-8540D02*
X-7970D01*
X-9810D02*
X-9240D01*
X-12480Y-10510D02*
X-12080D01*
X-12580Y-10410D02*
X-12480Y-10510D01*
X-12580Y-10410D02*
Y-9910D01*
X-12480Y-9810D01*
X-12080D01*
X-12480Y-9240D02*
X-12080D01*
X-12580Y-9140D02*
X-12480Y-9240D01*
X-12580Y-9140D02*
Y-8640D01*
X-12480Y-8540D01*
X-12080D01*
X-12480Y-7970D02*
X-12080D01*
X-12580Y-7870D02*
X-12480Y-7970D01*
X-12580Y-7870D02*
Y-7370D01*
X-12480Y-7270D01*
X-12080D01*
X-12480Y-6700D02*
X-12080D01*
X-12580Y-6600D02*
X-12480Y-6700D01*
X-12580Y-6600D02*
Y-6100D01*
X-12480Y-6000D01*
X-12080D01*
X-12480Y-5430D02*
X-12080D01*
X-12580Y-5330D02*
X-12480Y-5430D01*
X-12580Y-5330D02*
Y-4830D01*
X-12480Y-4730D01*
X-12080D01*
X-12480Y-4160D02*
X-12080D01*
X-12580Y-4060D02*
X-12480Y-4160D01*
X-12580Y-4060D02*
Y-3560D01*
X-12480Y-3460D01*
X-12080D01*
X-12480Y-2890D02*
X-12080D01*
X-12580Y-2790D02*
X-12480Y-2890D01*
X-12580Y-2790D02*
Y-2290D01*
X-12480Y-2190D01*
X-12080D01*
X-12480Y-1620D02*
X-12080D01*
X-12580Y-1520D02*
X-12480Y-1620D01*
X-12580Y-1520D02*
Y-1020D01*
X-12480Y-920D01*
X-12080D01*
X-12480Y-350D02*
X-12080D01*
X-12580Y-250D02*
X-12480Y-350D01*
X-12580Y-250D02*
Y250D01*
X-12480Y350D01*
X-12080D01*
X-12480Y920D02*
X-12080D01*
X-12580Y1020D02*
X-12480Y920D01*
X-12580Y1020D02*
Y1520D01*
X-12480Y1620D01*
X-12080D01*
X-12480Y2190D02*
X-12080D01*
X-12580Y2290D02*
X-12480Y2190D01*
X-12580Y2290D02*
Y2790D01*
X-12480Y2890D01*
X-12080D01*
X-12480Y3460D02*
X-12080D01*
X-12580Y3560D02*
X-12480Y3460D01*
X-12580Y3560D02*
Y4060D01*
X-12480Y4160D01*
X-12080D01*
X-12480Y4730D02*
X-12080D01*
X-12580Y4830D02*
X-12480Y4730D01*
X-12580Y4830D02*
Y5330D01*
X-12480Y5430D01*
X-12080D01*
X-12480Y6000D02*
X-12080D01*
X-12580Y6100D02*
X-12480Y6000D01*
X-12580Y6100D02*
Y6600D01*
X-12480Y6700D01*
X-12080D01*
X-12480Y7270D02*
X-12080D01*
X-12580Y7370D02*
X-12480Y7270D01*
X-12580Y7370D02*
Y7870D01*
X-12480Y7970D01*
X-12080D01*
X-12480Y8540D02*
X-12080D01*
X-12580Y8640D02*
X-12480Y8540D01*
X-12580Y8640D02*
Y9140D01*
X-12480Y9240D01*
X-12080D01*
X-12480Y9810D02*
X-12080D01*
X-12580Y9910D02*
X-12480Y9810D01*
X-12580Y9910D02*
Y10410D01*
X-12480Y10510D01*
X-12080D01*
X-10510Y12080D02*
Y12480D01*
X-10410Y12580D01*
X-9910D01*
X-9810Y12480D01*
Y12080D02*
Y12480D01*
X-9240Y12080D02*
Y12480D01*
X-9140Y12580D01*
X-8640D01*
X-8540Y12480D01*
Y12080D02*
Y12480D01*
X-7970Y12080D02*
Y12480D01*
X-7870Y12580D01*
X-7370D01*
X-7270Y12480D01*
Y12080D02*
Y12480D01*
X-6700Y12080D02*
Y12480D01*
X-6600Y12580D01*
X-6100D01*
X-6000Y12480D01*
Y12080D02*
Y12480D01*
X-5430Y12080D02*
Y12480D01*
X-5330Y12580D01*
X-4830D01*
X-4730Y12480D01*
Y12080D02*
Y12480D01*
X-4160Y12080D02*
Y12480D01*
X-4060Y12580D01*
X-3560D01*
X-3460Y12480D01*
Y12080D02*
Y12480D01*
X-2890Y12080D02*
Y12480D01*
X-2790Y12580D01*
X-2290D01*
X-2190Y12480D01*
Y12080D02*
Y12480D01*
X-1620Y12080D02*
Y12480D01*
X-1520Y12580D01*
X-1020D01*
X-920Y12480D01*
Y12080D02*
Y12480D01*
X-350Y12080D02*
Y12480D01*
X-250Y12580D01*
X250D01*
X350Y12480D01*
Y12080D02*
Y12480D01*
X920Y12080D02*
Y12480D01*
X1020Y12580D01*
X1520D01*
X1620Y12480D01*
Y12080D02*
Y12480D01*
X2190Y12080D02*
Y12480D01*
X2290Y12580D01*
X2790D01*
X2890Y12480D01*
Y12080D02*
Y12480D01*
X3460Y12080D02*
Y12480D01*
X3560Y12580D01*
X4060D01*
X4160Y12480D01*
Y12080D02*
Y12480D01*
X4730Y12080D02*
Y12480D01*
X4830Y12580D01*
X5330D01*
X5430Y12480D01*
Y12080D02*
Y12480D01*
X6000Y12080D02*
Y12480D01*
X6100Y12580D01*
X6600D01*
X6700Y12480D01*
Y12080D02*
Y12480D01*
X7270Y12080D02*
Y12480D01*
X7370Y12580D01*
X7870D01*
X7970Y12480D01*
Y12080D02*
Y12480D01*
X8540Y12080D02*
Y12480D01*
X8640Y12580D01*
X9140D01*
X9240Y12480D01*
Y12080D02*
Y12480D01*
X9810Y12080D02*
Y12480D01*
X9910Y12580D01*
X10410D01*
X10510Y12480D01*
Y12080D02*
Y12480D01*
X12080Y10510D02*
X12480D01*
X12580Y10410D01*
Y9910D02*
Y10410D01*
X12480Y9810D02*
X12580Y9910D01*
X12080Y9810D02*
X12480D01*
X12080Y9240D02*
X12480D01*
X12580Y9140D01*
Y8640D02*
Y9140D01*
X12480Y8540D02*
X12580Y8640D01*
X12080Y8540D02*
X12480D01*
X12080Y7970D02*
X12480D01*
X12580Y7870D01*
Y7370D02*
Y7870D01*
X12480Y7270D02*
X12580Y7370D01*
X12080Y7270D02*
X12480D01*
X12080Y6700D02*
X12480D01*
X12580Y6600D01*
Y6100D02*
Y6600D01*
X12480Y6000D02*
X12580Y6100D01*
X12080Y6000D02*
X12480D01*
X12080Y5430D02*
X12480D01*
X12580Y5330D01*
Y4830D02*
Y5330D01*
X12480Y4730D02*
X12580Y4830D01*
X12080Y4730D02*
X12480D01*
X12080Y4160D02*
X12480D01*
X12580Y4060D01*
Y3560D02*
Y4060D01*
X12480Y3460D02*
X12580Y3560D01*
X12080Y3460D02*
X12480D01*
X12080Y2890D02*
X12480D01*
X12580Y2790D01*
Y2290D02*
Y2790D01*
X12480Y2190D02*
X12580Y2290D01*
X12080Y2190D02*
X12480D01*
X12080Y1620D02*
X12480D01*
X12580Y1520D01*
Y1020D02*
Y1520D01*
X12480Y920D02*
X12580Y1020D01*
X12080Y920D02*
X12480D01*
X12080Y350D02*
X12480D01*
X12580Y250D01*
Y-250D02*
Y250D01*
X12480Y-350D02*
X12580Y-250D01*
X12080Y-350D02*
X12480D01*
X12080Y-920D02*
X12480D01*
X12580Y-1020D01*
Y-1520D02*
Y-1020D01*
X12480Y-1620D02*
X12580Y-1520D01*
X12080Y-1620D02*
X12480D01*
X12080Y-2190D02*
X12480D01*
X12580Y-2290D01*
Y-2790D02*
Y-2290D01*
X12480Y-2890D02*
X12580Y-2790D01*
X12080Y-2890D02*
X12480D01*
X12080Y-3460D02*
X12480D01*
X12580Y-3560D01*
Y-4060D02*
Y-3560D01*
X12480Y-4160D02*
X12580Y-4060D01*
X12080Y-4160D02*
X12480D01*
X12080Y-4730D02*
X12480D01*
X12580Y-4830D01*
Y-5330D02*
Y-4830D01*
X12480Y-5430D02*
X12580Y-5330D01*
X12080Y-5430D02*
X12480D01*
X12080Y-6000D02*
X12480D01*
X12580Y-6100D01*
Y-6600D02*
Y-6100D01*
X12480Y-6700D02*
X12580Y-6600D01*
X12080Y-6700D02*
X12480D01*
X12080Y-7270D02*
X12480D01*
X12580Y-7370D01*
Y-7870D02*
Y-7370D01*
X12480Y-7970D02*
X12580Y-7870D01*
X12080Y-7970D02*
X12480D01*
X12080Y-8540D02*
X12480D01*
X12580Y-8640D01*
Y-9140D02*
Y-8640D01*
X12480Y-9240D02*
X12580Y-9140D01*
X12080Y-9240D02*
X12480D01*
X12080Y-9810D02*
X12480D01*
X12580Y-9910D01*
Y-10410D02*
Y-9910D01*
X12480Y-10510D02*
X12580Y-10410D01*
X12080Y-10510D02*
X12480D01*
X10510Y-12480D02*
Y-12080D01*
X10410Y-12580D02*
X10510Y-12480D01*
X9910Y-12580D02*
X10410D01*
X9810Y-12480D02*
X9910Y-12580D01*
X9810Y-12480D02*
Y-12080D01*
X9240Y-12480D02*
Y-12080D01*
X9140Y-12580D02*
X9240Y-12480D01*
X8640Y-12580D02*
X9140D01*
X8540Y-12480D02*
X8640Y-12580D01*
X8540Y-12480D02*
Y-12080D01*
X7970Y-12480D02*
Y-12080D01*
X7870Y-12580D02*
X7970Y-12480D01*
X7370Y-12580D02*
X7870D01*
X7270Y-12480D02*
X7370Y-12580D01*
X7270Y-12480D02*
Y-12080D01*
X6700Y-12480D02*
Y-12080D01*
X6600Y-12580D02*
X6700Y-12480D01*
X6100Y-12580D02*
X6600D01*
X6000Y-12480D02*
X6100Y-12580D01*
X6000Y-12480D02*
Y-12080D01*
X5430Y-12480D02*
Y-12080D01*
X5330Y-12580D02*
X5430Y-12480D01*
X4830Y-12580D02*
X5330D01*
X4730Y-12480D02*
X4830Y-12580D01*
X4730Y-12480D02*
Y-12080D01*
X4160Y-12480D02*
Y-12080D01*
X4060Y-12580D02*
X4160Y-12480D01*
X3560Y-12580D02*
X4060D01*
X3460Y-12480D02*
X3560Y-12580D01*
X3460Y-12480D02*
Y-12080D01*
X2890Y-12480D02*
Y-12080D01*
X2790Y-12580D02*
X2890Y-12480D01*
X2290Y-12580D02*
X2790D01*
X2190Y-12480D02*
X2290Y-12580D01*
X2190Y-12480D02*
Y-12080D01*
X1620Y-12480D02*
Y-12080D01*
X1520Y-12580D02*
X1620Y-12480D01*
X1020Y-12580D02*
X1520D01*
X920Y-12480D02*
X1020Y-12580D01*
X920Y-12480D02*
Y-12080D01*
X350Y-12480D02*
Y-12080D01*
X250Y-12580D02*
X350Y-12480D01*
X-250Y-12580D02*
X250D01*
X-350Y-12480D02*
X-250Y-12580D01*
X-350Y-12480D02*
Y-12080D01*
X-920Y-12480D02*
Y-12080D01*
X-1020Y-12580D02*
X-920Y-12480D01*
X-1520Y-12580D02*
X-1020D01*
X-1620Y-12480D02*
X-1520Y-12580D01*
X-1620Y-12480D02*
Y-12080D01*
X-2190Y-12480D02*
Y-12080D01*
X-2290Y-12580D02*
X-2190Y-12480D01*
X-2790Y-12580D02*
X-2290D01*
X-2890Y-12480D02*
X-2790Y-12580D01*
X-2890Y-12480D02*
Y-12080D01*
X-3460Y-12480D02*
Y-12080D01*
X-3560Y-12580D02*
X-3460Y-12480D01*
X-4060Y-12580D02*
X-3560D01*
X-4160Y-12480D02*
X-4060Y-12580D01*
X-4160Y-12480D02*
Y-12080D01*
X-4730Y-12480D02*
Y-12080D01*
X-4830Y-12580D02*
X-4730Y-12480D01*
X-5330Y-12580D02*
X-4830D01*
X-5430Y-12480D02*
X-5330Y-12580D01*
X-5430Y-12480D02*
Y-12080D01*
X-6000Y-12480D02*
Y-12080D01*
X-6100Y-12580D02*
X-6000Y-12480D01*
X-6600Y-12580D02*
X-6100D01*
X-6700Y-12480D02*
X-6600Y-12580D01*
X-6700Y-12480D02*
Y-12080D01*
X-7270Y-12480D02*
Y-12080D01*
X-7370Y-12580D02*
X-7270Y-12480D01*
X-7870Y-12580D02*
X-7370D01*
X-7970Y-12480D02*
X-7870Y-12580D01*
X-7970Y-12480D02*
Y-12080D01*
X-8540Y-12480D02*
Y-12080D01*
X-8640Y-12580D02*
X-8540Y-12480D01*
X-9140Y-12580D02*
X-8640D01*
X-9240Y-12480D02*
X-9140Y-12580D01*
X-9240Y-12480D02*
Y-12080D01*
X-9810Y-12480D02*
Y-12080D01*
X-9910Y-12580D02*
X-9810Y-12480D01*
X-10410Y-12580D02*
X-9910D01*
X-10510Y-12480D02*
X-10410Y-12580D01*
X-10510Y-12480D02*
Y-12080D01*
X-12446Y-10465D02*
X-12090D01*
X-12573Y-10338D02*
X-12446Y-10465D01*
X-12573Y-10338D02*
Y-9982D01*
X-12446Y-9855D01*
X-12090D01*
X-12080Y-9810D02*
Y-9240D01*
Y-8540D02*
Y-7970D01*
Y-7270D02*
Y-6700D01*
Y-6000D02*
Y-5430D01*
Y-4730D02*
Y-4160D01*
Y-3460D02*
Y-2890D01*
Y-2190D02*
Y-1620D01*
Y-920D02*
Y-350D01*
Y350D02*
Y920D01*
Y1620D02*
Y2190D01*
Y2890D02*
Y3460D01*
Y4160D02*
Y4730D01*
Y5430D02*
Y6000D01*
Y6700D02*
Y7270D01*
Y7970D02*
Y8540D01*
Y9240D02*
Y9810D01*
X-9810Y12080D02*
X-9240D01*
X-8540D02*
X-7970D01*
X-7270D02*
X-6700D01*
X-6000D02*
X-5430D01*
X-4730D02*
X-4160D01*
X-3460D02*
X-2890D01*
X-2190D02*
X-1620D01*
X-920D02*
X-350D01*
X350D02*
X920D01*
X1620D02*
X2190D01*
X2890D02*
X3460D01*
X4160D02*
X4730D01*
X5430D02*
X6000D01*
X6700D02*
X7270D01*
X7970D02*
X8540D01*
X9240D02*
X9810D01*
X12080Y9240D02*
Y9810D01*
Y7970D02*
Y8540D01*
Y6700D02*
Y7270D01*
Y5430D02*
Y6000D01*
Y4160D02*
Y4730D01*
Y2890D02*
Y3460D01*
Y1620D02*
Y2190D01*
Y350D02*
Y920D01*
Y-920D02*
Y-350D01*
Y-2190D02*
Y-1620D01*
Y-3460D02*
Y-2890D01*
Y-4730D02*
Y-4160D01*
Y-6000D02*
Y-5430D01*
Y-7270D02*
Y-6700D01*
Y-8540D02*
Y-7970D01*
Y-9810D02*
Y-9240D01*
X10510Y-12080D02*
X12080D01*
Y-10510D01*
X10510Y12080D02*
X12080D01*
Y10510D02*
Y12080D01*
X-12080Y10510D02*
Y12080D01*
X-10510D01*
X-12080Y-10510D02*
X-10510Y-12080D01*
D36*
X7400Y10400D02*
X7500Y10300D01*
X-0Y-5000D02*
X400Y-4600D01*
X-4300Y700D02*
X-3800Y1200D01*
X-3100D01*
X-8500Y8800D02*
X-7750Y8050D01*
X-6950D01*
X400Y-2900D02*
X600Y-2700D01*
X400Y-4600D02*
Y-2900D01*
X-200Y-5000D02*
X-0D01*
X7400Y10400D02*
X7500Y10500D01*
X-10500Y6400D02*
Y7800D01*
X-10250Y8050D01*
X-10050D01*
X7400Y8900D02*
X7500Y9000D01*
Y10300D01*
D39*
X-11880Y-10160D02*
D03*
Y-8890D02*
D03*
Y-7620D02*
D03*
Y-6350D02*
D03*
Y-5080D02*
D03*
Y-3810D02*
D03*
Y-2540D02*
D03*
Y-1270D02*
D03*
Y1270D02*
D03*
Y2540D02*
D03*
Y3810D02*
D03*
Y5080D02*
D03*
Y6350D02*
D03*
Y7620D02*
D03*
Y8890D02*
D03*
Y10160D02*
D03*
X11880D02*
D03*
Y8890D02*
D03*
Y7620D02*
D03*
Y6350D02*
D03*
Y5080D02*
D03*
Y3810D02*
D03*
Y2540D02*
D03*
Y1270D02*
D03*
Y0D02*
D03*
Y-1270D02*
D03*
Y-2540D02*
D03*
Y-3810D02*
D03*
Y-5080D02*
D03*
Y-6350D02*
D03*
Y-7620D02*
D03*
Y-8890D02*
D03*
Y-10160D02*
D03*
D40*
X-11880Y0D02*
D03*
D41*
X-10160Y11880D02*
D03*
X-8890D02*
D03*
X-7620D02*
D03*
X-6350D02*
D03*
X-5080D02*
D03*
X-3810D02*
D03*
X-2540D02*
D03*
X-1270D02*
D03*
X-0D02*
D03*
X1270D02*
D03*
X2540D02*
D03*
X3810D02*
D03*
X5080D02*
D03*
X6350D02*
D03*
X7620D02*
D03*
X8890D02*
D03*
X10160D02*
D03*
Y-11880D02*
D03*
X8890D02*
D03*
X7620D02*
D03*
X6350D02*
D03*
X5080D02*
D03*
X3810D02*
D03*
X2540D02*
D03*
X1270D02*
D03*
X-0D02*
D03*
X-1270D02*
D03*
X-2540D02*
D03*
X-3810D02*
D03*
X-5080D02*
D03*
X-6350D02*
D03*
X-7620D02*
D03*
X-8890D02*
D03*
X-10160D02*
D03*
D42*
X-8010Y-10116D02*
D03*
Y-8084D02*
D03*
X-390Y-9100D02*
D03*
D43*
X200Y5700D02*
D03*
Y6500D02*
D03*
Y4900D02*
D03*
Y4100D02*
D03*
X1000Y8900D02*
D03*
Y5700D02*
D03*
Y3300D02*
D03*
Y8100D02*
D03*
X1800Y7300D02*
D03*
X1000Y6500D02*
D03*
Y4900D02*
D03*
X1800Y8900D02*
D03*
Y3300D02*
D03*
Y4900D02*
D03*
Y4100D02*
D03*
X4200Y4900D02*
D03*
X-6000Y-5900D02*
D03*
X-1000Y-4100D02*
D03*
X7800Y7700D02*
D03*
X7000Y9300D02*
D03*
X6600Y6500D02*
D03*
Y5700D02*
D03*
X2200Y8500D02*
D03*
X8200Y8100D02*
D03*
Y8900D02*
D03*
X4450Y-11075D02*
D03*
X6600Y1700D02*
D03*
X7400Y3300D02*
D03*
Y2500D02*
D03*
Y1700D02*
D03*
X8200Y2500D02*
D03*
Y1700D02*
D03*
Y3300D02*
D03*
X9000Y2500D02*
D03*
Y900D02*
D03*
Y-700D02*
D03*
Y-1500D02*
D03*
Y6500D02*
D03*
X-8700Y1200D02*
D03*
X-9100Y-5300D02*
D03*
X-400Y-5600D02*
D03*
X-2100Y-6200D02*
D03*
X-3400Y-7500D02*
D03*
X-6500Y-5400D02*
D03*
X1800Y2500D02*
D03*
X-7400Y1600D02*
D03*
X-2000Y3700D02*
D03*
X-3500Y-300D02*
D03*
X-2900Y-100D02*
D03*
X-5100Y-6300D02*
D03*
X2600Y4900D02*
D03*
X3400Y4100D02*
D03*
Y2500D02*
D03*
X-6400Y-3600D02*
D03*
X-4300Y-4300D02*
D03*
X-7000Y700D02*
D03*
X-6700Y-1200D02*
D03*
X-600Y900D02*
D03*
X-6600Y1200D02*
D03*
X-5700Y-4000D02*
D03*
X-600Y2500D02*
D03*
X-1400D02*
D03*
X-600Y1700D02*
D03*
X-6100Y-8200D02*
D03*
X-10000Y-8000D02*
D03*
Y-8900D02*
D03*
X-7000Y-10850D02*
D03*
X-1660Y-10460D02*
D03*
X-6200Y-10200D02*
D03*
X-4900D02*
D03*
X3800Y-5600D02*
D03*
X3300Y-5300D02*
D03*
X-2300Y-10200D02*
D03*
X300Y-9700D02*
D03*
X6775Y-6200D02*
D03*
X7400Y100D02*
D03*
X3300Y-6400D02*
D03*
X2800Y-6000D02*
D03*
X7000Y4500D02*
D03*
X5000Y100D02*
D03*
X5400Y-6000D02*
D03*
X9000Y8900D02*
D03*
X4800Y-6000D02*
D03*
X-100Y9400D02*
D03*
X3800Y6100D02*
D03*
X-4900Y7100D02*
D03*
X3000Y6900D02*
D03*
X-8250Y7450D02*
D03*
X-200Y6900D02*
D03*
X-3100Y8500D02*
D03*
X-4600Y7800D02*
D03*
X2200Y6900D02*
D03*
X-9525Y11000D02*
D03*
X-3900Y4200D02*
D03*
X-3500Y4700D02*
D03*
X-5100D02*
D03*
X-3100Y1200D02*
D03*
X-200Y-5000D02*
D03*
X-1400Y-1500D02*
D03*
X200Y-700D02*
D03*
X-9000Y9300D02*
D03*
X-7750Y10150D02*
D03*
X-6150Y8550D02*
D03*
X-6150Y9050D02*
D03*
X-5550Y9050D02*
D03*
X-8100Y6400D02*
D03*
X-10500D02*
D03*
X-8750Y10150D02*
D03*
X-7000Y10800D02*
D03*
X-9800Y10500D02*
D03*
X-10200Y10100D02*
D03*
X-10700Y8500D02*
D03*
X-4700Y3200D02*
D03*
X-8300Y2700D02*
D03*
X-1400Y6500D02*
D03*
X-8300Y1700D02*
D03*
X-5100Y2700D02*
D03*
X-1400Y4100D02*
D03*
X-5100Y1700D02*
D03*
X-600Y4100D02*
D03*
X-1800Y6900D02*
D03*
X-8300Y3700D02*
D03*
X-9100Y4700D02*
D03*
X-600Y5700D02*
D03*
X-6100Y3200D02*
D03*
X-9100Y-1300D02*
D03*
X-8300D02*
D03*
X600Y1300D02*
D03*
X-9100Y-2300D02*
D03*
X-8300D02*
D03*
X-5100D02*
D03*
X1000Y100D02*
D03*
X600Y-1100D02*
D03*
X-4300Y-2300D02*
D03*
X-1400Y900D02*
D03*
X-5800Y-500D02*
D03*
X-1400Y100D02*
D03*
X-6200Y-900D02*
D03*
X2600Y3300D02*
D03*
X-5100Y-4300D02*
D03*
X4200Y8100D02*
D03*
X2900Y10500D02*
D03*
X4700D02*
D03*
X5700D02*
D03*
X8300D02*
D03*
X10100D02*
D03*
X3900D02*
D03*
X6500D02*
D03*
X4200Y3300D02*
D03*
X2600Y4100D02*
D03*
Y1700D02*
D03*
X7400Y6500D02*
D03*
X9300Y10500D02*
D03*
X-1200D02*
D03*
X-10600Y-7800D02*
D03*
Y-7400D02*
D03*
Y-7000D02*
D03*
X-4200Y-7300D02*
D03*
X-5000D02*
D03*
X-4600D02*
D03*
X-5400D02*
D03*
X4500Y5300D02*
D03*
X3400Y6500D02*
D03*
X9200Y-6800D02*
D03*
X10000Y-5900D02*
D03*
Y-6800D02*
D03*
X10500Y-4900D02*
D03*
X8700D02*
D03*
X7800D02*
D03*
X10500Y-4100D02*
D03*
X-200Y-10200D02*
D03*
X-1000D02*
D03*
X-200Y-8000D02*
D03*
Y-7100D02*
D03*
X-2000Y-8000D02*
D03*
X2200Y-6000D02*
D03*
X-5200Y7800D02*
D03*
X-5700D02*
D03*
X5800Y2500D02*
D03*
X7800Y-4100D02*
D03*
X8700D02*
D03*
X7400Y4100D02*
D03*
X9000Y3300D02*
D03*
X7400Y900D02*
D03*
X9000Y100D02*
D03*
X6800Y-7800D02*
D03*
Y-3300D02*
D03*
X9000Y-2300D02*
D03*
X1500Y-7000D02*
D03*
X500Y-7200D02*
D03*
X-1000Y-8000D02*
D03*
X6245Y-6200D02*
D03*
X5800Y900D02*
D03*
X3800Y1300D02*
D03*
X8200Y900D02*
D03*
X10000Y-7600D02*
D03*
X-1400Y-700D02*
D03*
X1000Y900D02*
D03*
X1400Y-2900D02*
D03*
X-9100Y-4300D02*
D03*
X-4800Y-8200D02*
D03*
X-2000Y-5600D02*
D03*
X2600Y8100D02*
D03*
X-1400Y-2300D02*
D03*
X2600Y-1500D02*
D03*
X-600Y4900D02*
D03*
X5800Y-1500D02*
D03*
X6600Y900D02*
D03*
X9000Y4900D02*
D03*
Y1700D02*
D03*
X8200Y5700D02*
D03*
Y7300D02*
D03*
X9800Y8900D02*
D03*
X5800Y7300D02*
D03*
Y8100D02*
D03*
X6800Y-9300D02*
D03*
X7800Y-9100D02*
D03*
X7800Y-8600D02*
D03*
X500Y-8100D02*
D03*
X4200Y6500D02*
D03*
X3400Y5700D02*
D03*
X2600D02*
D03*
Y6500D02*
D03*
X-3100Y7050D02*
D03*
X4400Y-8200D02*
D03*
X5000Y8100D02*
D03*
X-10700Y5100D02*
D03*
X-10700Y3900D02*
D03*
X8200Y-700D02*
D03*
X9000Y-3100D02*
D03*
X7400Y4900D02*
D03*
X8200D02*
D03*
X9000Y4100D02*
D03*
X9800Y3300D02*
D03*
X9400Y4500D02*
D03*
X3400Y7300D02*
D03*
X8400Y-9800D02*
D03*
X9400Y-1900D02*
D03*
X9200Y-5900D02*
D03*
X-1200Y-9100D02*
D03*
X5400Y8500D02*
D03*
X4600Y9300D02*
D03*
X6600Y2500D02*
D03*
X9700Y9900D02*
D03*
X5800Y8900D02*
D03*
X2800Y9800D02*
D03*
X1800Y9400D02*
D03*
X-1900Y9100D02*
D03*
X5000Y4100D02*
D03*
X-1000Y-5000D02*
D03*
X2200Y9800D02*
D03*
D44*
X1400Y10500D02*
D03*
X-8500Y-9100D02*
D03*
X-3800Y9700D02*
D03*
D45*
X-6000Y6400D02*
D03*
X-7175Y3875D02*
D03*
X6200Y-3300D02*
D03*
X4600D02*
D03*
X3100D02*
D03*
X2200D02*
D03*
D46*
X-9900Y-2300D02*
X-9400Y-1800D01*
X-9900Y-5700D02*
Y-2300D01*
Y-5700D02*
X-9300Y-6300D01*
X-6100Y1700D02*
Y3200D01*
X-8700Y-1600D02*
Y1200D01*
X-8900Y-1800D02*
X-8700Y-1600D01*
X-9400Y-1800D02*
X-8900D01*
X-9300Y-6300D02*
X-9100D01*
X-2900Y-5600D02*
X-2000D01*
X-3100Y-6200D02*
X-2100D01*
X-3800Y-6900D02*
X-3100Y-6200D01*
X-6100Y-6900D02*
X-3800D01*
X-7700Y-5300D02*
X-6100Y-6900D01*
X-8300Y-5300D02*
X-7700D01*
X-4000Y-6700D02*
X-2900Y-5600D01*
X-5900Y-6700D02*
X-4000D01*
X-8300Y-4300D02*
X-5900Y-6700D01*
X-8300Y-3600D02*
Y-3300D01*
Y-3600D02*
X-6500Y-5400D01*
X-7700Y1300D02*
X-7400Y1600D01*
X-7700Y-2400D02*
Y1300D01*
X-8100Y-2800D02*
X-7700Y-2400D01*
X-8600Y-2800D02*
X-8100D01*
X-9100Y-3300D02*
X-8600Y-2800D01*
X-2000Y3700D02*
X-1200D01*
X-1000Y3500D01*
Y3000D02*
Y3500D01*
Y3000D02*
X-900Y2900D01*
X-200D01*
X200Y2500D01*
X-6700Y-3300D02*
Y-1200D01*
Y-3300D02*
X-6400Y-3600D01*
X-6600Y500D02*
Y1200D01*
X-7100Y-0D02*
X-6600Y500D01*
X-7100Y-3700D02*
Y-0D01*
X-7400Y300D02*
X-7000Y700D01*
X-7400Y-3900D02*
Y300D01*
X-7100Y-3700D02*
X-5500Y-5300D01*
X-5300Y-3800D02*
X-4800D01*
X-6200Y-2900D02*
X-5300Y-3800D01*
X-4800D02*
X-4300Y-3300D01*
X-7400Y-3900D02*
X-5500Y-5800D01*
X-4800D01*
X-4300Y-5300D01*
X-5500D02*
X-5100D01*
X-5700Y-4500D02*
Y-4000D01*
X-5400Y-4800D02*
X-4100D01*
X-5700Y-4500D02*
X-5400Y-4800D01*
X-4100D02*
X-3800Y-5100D01*
X-4300Y-6300D02*
X-3800Y-5800D01*
Y-5100D01*
X-6100Y1700D02*
X-5100Y700D01*
X-2700Y2000D02*
X-1400Y3300D01*
X-2700Y800D02*
Y2000D01*
X-5050Y7250D02*
X-4900Y7100D01*
X-7750Y7250D02*
X-5050D01*
X-4600Y7800D02*
Y8700D01*
X-6350Y10450D02*
X-4600Y8700D01*
X-7145Y10450D02*
X-6350D01*
X-1800Y6900D02*
Y6900D01*
X-1400Y7300D01*
X-600D02*
X-200Y6900D01*
X-7595Y10900D02*
X-7145Y10450D01*
X-8000Y10900D02*
X-7595D01*
X-8250Y10650D02*
X-8000Y10900D01*
X-8250Y10350D02*
Y10650D01*
X-5100Y3600D02*
X-4700Y3200D01*
X-5100Y3600D02*
Y3700D01*
X600Y-1100D02*
Y500D01*
X200Y900D02*
X600Y500D01*
X-4300Y4700D02*
X-3800Y5200D01*
X-5800Y-2600D02*
X-5100Y-3300D01*
X-5800Y-2600D02*
Y-500D01*
X-6200Y-2900D02*
Y-900D01*
X1400Y500D02*
X1800Y900D01*
X1400Y-2900D02*
Y500D01*
X600Y1300D02*
X1400D01*
X1800Y1700D01*
X-3800Y5200D02*
X-3100D01*
X-2800Y4900D01*
X-1400D01*
X-5100Y-300D02*
X-4500Y300D01*
X-3200D01*
X-2700Y800D01*
D47*
X-3100Y-9100D02*
D03*
Y-9900D02*
D03*
X-3900D02*
D03*
Y-9100D02*
D03*
D48*
X-3500Y-9500D02*
D03*
D49*
X-10050Y8050D02*
D03*
Y8550D02*
D03*
Y9050D02*
D03*
Y9550D02*
D03*
X-6950D02*
D03*
Y9050D02*
D03*
Y8550D02*
D03*
Y8050D02*
D03*
D50*
X-9250Y10350D02*
D03*
X-8750D02*
D03*
X-8250D02*
D03*
X-7750D02*
D03*
Y7250D02*
D03*
X-8250D02*
D03*
X-8750D02*
D03*
X-9250D02*
D03*
D51*
X-8500Y8800D02*
D03*
D52*
X9800Y8900D02*
D03*
X9000D02*
D03*
X8200D02*
D03*
X7400D02*
D03*
X6600D02*
D03*
X5800D02*
D03*
X5000D02*
D03*
X4200D02*
D03*
X3400D02*
D03*
X2600D02*
D03*
X1800D02*
D03*
X1000D02*
D03*
X200D02*
D03*
X-600D02*
D03*
X-1400D02*
D03*
X9800Y8100D02*
D03*
X9000D02*
D03*
X8200D02*
D03*
X7400D02*
D03*
X6600D02*
D03*
X5800D02*
D03*
X5000D02*
D03*
X4200D02*
D03*
X3400D02*
D03*
X2600D02*
D03*
X1800D02*
D03*
X1000D02*
D03*
X200D02*
D03*
X-600D02*
D03*
X-1400D02*
D03*
X9800Y7300D02*
D03*
X9000D02*
D03*
X8200D02*
D03*
X7400D02*
D03*
X6600D02*
D03*
X5800D02*
D03*
X5000D02*
D03*
X4200D02*
D03*
X3400D02*
D03*
X2600D02*
D03*
X1800D02*
D03*
X1000D02*
D03*
X200D02*
D03*
X-600D02*
D03*
X-1400D02*
D03*
X9800Y6500D02*
D03*
X9000D02*
D03*
X8200D02*
D03*
X7400D02*
D03*
X6600D02*
D03*
X5800D02*
D03*
X5000D02*
D03*
X4200D02*
D03*
X3400D02*
D03*
X2600D02*
D03*
X1800D02*
D03*
X1000D02*
D03*
X200D02*
D03*
X-600D02*
D03*
X-1400D02*
D03*
X9800Y5700D02*
D03*
X9000D02*
D03*
X8200D02*
D03*
X7400D02*
D03*
X6600D02*
D03*
X5800D02*
D03*
X5000D02*
D03*
X4200D02*
D03*
X3400D02*
D03*
X2600D02*
D03*
X1800D02*
D03*
X1000D02*
D03*
X200D02*
D03*
X-600D02*
D03*
X-1400D02*
D03*
X9800Y4900D02*
D03*
X9000D02*
D03*
X8200D02*
D03*
X7400D02*
D03*
X6600D02*
D03*
X5800D02*
D03*
X5000D02*
D03*
X4200D02*
D03*
X3400D02*
D03*
X2600D02*
D03*
X1800D02*
D03*
X1000D02*
D03*
X200D02*
D03*
X-600D02*
D03*
X-1400D02*
D03*
X9800Y4100D02*
D03*
X9000D02*
D03*
X8200D02*
D03*
X7400D02*
D03*
X6600D02*
D03*
X5800D02*
D03*
X5000D02*
D03*
X4200D02*
D03*
X3400D02*
D03*
X2600D02*
D03*
X1800D02*
D03*
X1000D02*
D03*
X200D02*
D03*
X-600D02*
D03*
X-1400D02*
D03*
X9800Y3300D02*
D03*
X9000D02*
D03*
X8200D02*
D03*
X7400D02*
D03*
X6600D02*
D03*
X5800D02*
D03*
X5000D02*
D03*
X4200D02*
D03*
X3400D02*
D03*
X2600D02*
D03*
X1800D02*
D03*
X1000D02*
D03*
X200D02*
D03*
X-600D02*
D03*
X-1400D02*
D03*
X9800Y2500D02*
D03*
X9000D02*
D03*
X8200D02*
D03*
X7400D02*
D03*
X6600D02*
D03*
X5800D02*
D03*
X5000D02*
D03*
X4200D02*
D03*
X3400D02*
D03*
X2600D02*
D03*
X1800D02*
D03*
X1000D02*
D03*
X200D02*
D03*
X-600D02*
D03*
X-1400D02*
D03*
X9800Y1700D02*
D03*
X9000D02*
D03*
X8200D02*
D03*
X7400D02*
D03*
X6600D02*
D03*
X5800D02*
D03*
X5000D02*
D03*
X4200D02*
D03*
X3400D02*
D03*
X2600D02*
D03*
X1800D02*
D03*
X1000D02*
D03*
X200D02*
D03*
X-600D02*
D03*
X-1400D02*
D03*
X9800Y900D02*
D03*
X9000D02*
D03*
X8200D02*
D03*
X7400D02*
D03*
X6600D02*
D03*
X5800D02*
D03*
X5000D02*
D03*
X4200D02*
D03*
X3400D02*
D03*
X2600D02*
D03*
X1800D02*
D03*
X1000D02*
D03*
X200D02*
D03*
X-600D02*
D03*
X-1400D02*
D03*
X9800Y100D02*
D03*
X9000D02*
D03*
X8200D02*
D03*
X7400D02*
D03*
X6600D02*
D03*
X5800D02*
D03*
X5000D02*
D03*
X4200D02*
D03*
X3400D02*
D03*
X2600D02*
D03*
X1800D02*
D03*
X1000D02*
D03*
X200D02*
D03*
X-600D02*
D03*
X-1400D02*
D03*
X9800Y-700D02*
D03*
X9000D02*
D03*
X8200D02*
D03*
X7400D02*
D03*
X6600D02*
D03*
X5800D02*
D03*
X5000D02*
D03*
X4200D02*
D03*
X3400D02*
D03*
X2600D02*
D03*
X1800D02*
D03*
X1000D02*
D03*
X200D02*
D03*
X-600D02*
D03*
X-1400D02*
D03*
X9800Y-1500D02*
D03*
X9000D02*
D03*
X8200D02*
D03*
X7400D02*
D03*
X6600D02*
D03*
X5800D02*
D03*
X5000D02*
D03*
X4200D02*
D03*
X3400D02*
D03*
X2600D02*
D03*
X1800D02*
D03*
X1000D02*
D03*
X200D02*
D03*
X-600D02*
D03*
X-1400D02*
D03*
X9800Y-2300D02*
D03*
X9000D02*
D03*
X8200D02*
D03*
X7400D02*
D03*
X6600D02*
D03*
X5800D02*
D03*
X5000D02*
D03*
X4200D02*
D03*
X3400D02*
D03*
X2600D02*
D03*
X1800D02*
D03*
X1000D02*
D03*
X200D02*
D03*
X-600D02*
D03*
X-1400D02*
D03*
D53*
X-9900Y-300D02*
D03*
Y700D02*
D03*
Y1700D02*
D03*
Y2700D02*
D03*
Y3700D02*
D03*
Y4700D02*
D03*
X-9100Y-6300D02*
D03*
Y-5300D02*
D03*
Y-4300D02*
D03*
Y-3300D02*
D03*
Y-2300D02*
D03*
Y-1300D02*
D03*
Y-300D02*
D03*
Y700D02*
D03*
Y1700D02*
D03*
Y2700D02*
D03*
Y3700D02*
D03*
Y4700D02*
D03*
X-8300Y-6300D02*
D03*
Y-5300D02*
D03*
Y-4300D02*
D03*
Y-3300D02*
D03*
Y-2300D02*
D03*
Y-1300D02*
D03*
Y-300D02*
D03*
Y700D02*
D03*
Y1700D02*
D03*
Y2700D02*
D03*
Y3700D02*
D03*
Y4700D02*
D03*
X-5100Y-6300D02*
D03*
Y-5300D02*
D03*
Y-4300D02*
D03*
Y-3300D02*
D03*
Y-2300D02*
D03*
Y-1300D02*
D03*
Y-300D02*
D03*
Y700D02*
D03*
Y1700D02*
D03*
Y2700D02*
D03*
Y3700D02*
D03*
Y4700D02*
D03*
X-4300Y-6300D02*
D03*
Y-5300D02*
D03*
Y-4300D02*
D03*
Y-3300D02*
D03*
Y-2300D02*
D03*
Y-1300D02*
D03*
Y-300D02*
D03*
Y700D02*
D03*
Y1700D02*
D03*
Y2700D02*
D03*
Y3700D02*
D03*
Y4700D02*
D03*
X-3500Y-300D02*
D03*
Y700D02*
D03*
Y1700D02*
D03*
Y2700D02*
D03*
Y3700D02*
D03*
Y4700D02*
D03*
D54*
X6725Y-10100D02*
D03*
X6075D02*
D03*
X5425D02*
D03*
X4775D02*
D03*
X4125D02*
D03*
X3475D02*
D03*
X2825D02*
D03*
X2175D02*
D03*
X1525D02*
D03*
X875D02*
D03*
X6725Y-4500D02*
D03*
X6075D02*
D03*
X5425D02*
D03*
X4775D02*
D03*
X4125D02*
D03*
X3475D02*
D03*
X2825D02*
D03*
X2175D02*
D03*
X1525D02*
D03*
X875D02*
D03*
M02*
