G04 Layer_Physical_Order=2*
G04 Layer_Color=36540*
%FSLAX43Y43*%
%MOMM*%
G71*
G01*
G75*
%ADD30C,0.700*%
%ADD31C,0.500*%
%ADD33C,0.150*%
%ADD35C,0.200*%
G04:AMPARAMS|DCode=39|XSize=0.7mm|YSize=1.6mm|CornerRadius=0.175mm|HoleSize=0mm|Usage=FLASHONLY|Rotation=90.000|XOffset=0mm|YOffset=0mm|HoleType=Round|Shape=RoundedRectangle|*
%AMROUNDEDRECTD39*
21,1,0.700,1.250,0,0,90.0*
21,1,0.350,1.600,0,0,90.0*
1,1,0.350,0.625,0.175*
1,1,0.350,0.625,-0.175*
1,1,0.350,-0.625,-0.175*
1,1,0.350,-0.625,0.175*
%
%ADD39ROUNDEDRECTD39*%
%ADD40R,1.600X0.700*%
G04:AMPARAMS|DCode=41|XSize=0.7mm|YSize=1.6mm|CornerRadius=0.175mm|HoleSize=0mm|Usage=FLASHONLY|Rotation=0.000|XOffset=0mm|YOffset=0mm|HoleType=Round|Shape=RoundedRectangle|*
%AMROUNDEDRECTD41*
21,1,0.700,1.250,0,0,0.0*
21,1,0.350,1.600,0,0,0.0*
1,1,0.350,0.175,-0.625*
1,1,0.350,-0.175,-0.625*
1,1,0.350,-0.175,0.625*
1,1,0.350,0.175,0.625*
%
%ADD41ROUNDEDRECTD41*%
%ADD43C,0.400*%
%ADD44C,0.800*%
%ADD45C,0.500*%
%ADD46C,0.100*%
G36*
X4238Y1950D02*
Y0D01*
X3175D01*
Y2847D01*
X3292Y2895D01*
X4238Y1950D01*
D02*
G37*
G36*
X1917Y-7117D02*
X1984Y-7216D01*
X2083Y-7283D01*
X2200Y-7306D01*
X2311Y-7284D01*
X2319Y-7283D01*
X2438Y-7355D01*
Y-8833D01*
X1064Y-10207D01*
X1000Y-10194D01*
X883Y-10217D01*
X784Y-10284D01*
X717Y-10383D01*
X694Y-10500D01*
X713Y-10595D01*
X669Y-10678D01*
X634Y-10722D01*
X274D01*
X126Y-10574D01*
X68Y-10535D01*
X67Y-10535D01*
X44Y-10482D01*
X29Y-10398D01*
X83Y-10317D01*
X106Y-10200D01*
X83Y-10083D01*
X65Y-10056D01*
X156Y-9965D01*
X183Y-9983D01*
X300Y-10006D01*
X417Y-9983D01*
X516Y-9916D01*
X583Y-9817D01*
X606Y-9700D01*
X583Y-9583D01*
X516Y-9484D01*
X417Y-9417D01*
X300Y-9394D01*
X277Y-9399D01*
X253Y-9383D01*
X180Y-9289D01*
X217Y-9100D01*
X171Y-8868D01*
X39Y-8671D01*
X-158Y-8539D01*
X-390Y-8493D01*
X-622Y-8539D01*
X-819Y-8671D01*
X-903Y-8796D01*
X-965Y-8863D01*
X-1066Y-8829D01*
X-1083Y-8817D01*
X-1200Y-8794D01*
X-1317Y-8817D01*
X-1416Y-8884D01*
X-1442Y-8922D01*
X-2175D01*
X-2243Y-8935D01*
X-2301Y-8974D01*
X-3849Y-10522D01*
X-4350D01*
X-4418Y-10535D01*
X-4476Y-10574D01*
X-4882Y-10979D01*
X-4905Y-10975D01*
X-5255D01*
X-5362Y-10996D01*
X-5453Y-11057D01*
X-5514Y-11148D01*
X-5535Y-11255D01*
Y-11430D01*
X-5895D01*
Y-11255D01*
X-5916Y-11148D01*
X-5922Y-11139D01*
Y-10874D01*
X-5321Y-10273D01*
X-5183Y-10315D01*
X-5183Y-10317D01*
X-5116Y-10416D01*
X-5017Y-10483D01*
X-4900Y-10506D01*
X-4783Y-10483D01*
X-4684Y-10416D01*
X-4617Y-10317D01*
X-4594Y-10200D01*
X-4617Y-10083D01*
X-4684Y-9984D01*
X-4783Y-9917D01*
X-4785Y-9917D01*
X-4827Y-9779D01*
X-4126Y-9078D01*
X-3300D01*
X-3232Y-9065D01*
X-3174Y-9026D01*
X-2974Y-8826D01*
X-2935Y-8768D01*
X-2922Y-8700D01*
Y-8574D01*
X-2421Y-8073D01*
X-2283Y-8115D01*
X-2283Y-8117D01*
X-2216Y-8216D01*
X-2117Y-8283D01*
X-2000Y-8306D01*
X-1883Y-8283D01*
X-1784Y-8216D01*
X-1717Y-8117D01*
X-1694Y-8000D01*
X-1717Y-7883D01*
X-1769Y-7805D01*
X-1745Y-7725D01*
X-1713Y-7678D01*
X-487D01*
X-455Y-7725D01*
X-431Y-7805D01*
X-483Y-7883D01*
X-506Y-8000D01*
X-483Y-8117D01*
X-416Y-8216D01*
X-317Y-8283D01*
X-200Y-8306D01*
X-83Y-8283D01*
X16Y-8216D01*
X83Y-8117D01*
X106Y-8000D01*
X83Y-7883D01*
X31Y-7805D01*
X55Y-7725D01*
X87Y-7678D01*
X100D01*
X168Y-7665D01*
X226Y-7626D01*
X674Y-7178D01*
X1258D01*
X1284Y-7216D01*
X1383Y-7283D01*
X1500Y-7306D01*
X1617Y-7283D01*
X1716Y-7216D01*
X1783Y-7117D01*
X1785Y-7104D01*
X1915D01*
X1917Y-7117D01*
D02*
G37*
G36*
X-3175Y-18D02*
X-3229Y-51D01*
X-3302Y-71D01*
X-3383Y-17D01*
X-3500Y6D01*
X-3617Y-17D01*
X-3716Y-84D01*
X-3783Y-183D01*
X-3806Y-300D01*
X-3783Y-417D01*
X-3716Y-516D01*
X-3617Y-583D01*
X-3500Y-606D01*
X-3383Y-583D01*
X-3302Y-529D01*
X-3229Y-549D01*
X-3175Y-582D01*
Y-5080D01*
X-520D01*
X-450Y-5190D01*
X-482Y-5299D01*
X-493Y-5313D01*
X-517Y-5317D01*
X-616Y-5384D01*
X-683Y-5483D01*
X-699Y-5566D01*
X-812Y-5604D01*
X-826Y-5604D01*
X-858Y-5558D01*
X-1015Y-5453D01*
X-1200Y-5416D01*
X-1385Y-5453D01*
X-1542Y-5558D01*
X-1574Y-5604D01*
X-1588Y-5604D01*
X-1701Y-5566D01*
X-1717Y-5483D01*
X-1784Y-5384D01*
X-1883Y-5317D01*
X-2000Y-5294D01*
X-2117Y-5317D01*
X-2216Y-5384D01*
X-2283Y-5483D01*
X-2306Y-5600D01*
X-2283Y-5717D01*
X-2233Y-5791D01*
X-2226Y-5848D01*
X-2255Y-5943D01*
X-2316Y-5984D01*
X-2383Y-6083D01*
X-2406Y-6200D01*
X-2383Y-6317D01*
X-2316Y-6416D01*
X-2217Y-6483D01*
X-2100Y-6506D01*
X-1983Y-6483D01*
X-1884Y-6416D01*
X-1817Y-6317D01*
X-1794Y-6200D01*
X-1817Y-6083D01*
X-1846Y-6040D01*
X-1822Y-5898D01*
X-1806Y-5888D01*
X-1789Y-5890D01*
X-1721Y-5917D01*
X-1672Y-5962D01*
X-1647Y-6085D01*
X-1542Y-6242D01*
X-1385Y-6347D01*
X-1200Y-6384D01*
X-1015Y-6347D01*
X-858Y-6242D01*
X-753Y-6085D01*
X-716Y-5900D01*
X-718Y-5890D01*
X-660Y-5848D01*
X-601Y-5827D01*
X-517Y-5883D01*
X-400Y-5906D01*
X-283Y-5883D01*
X-184Y-5816D01*
X-117Y-5717D01*
X-94Y-5600D01*
X-117Y-5483D01*
X-155Y-5426D01*
X-118Y-5301D01*
X-107Y-5287D01*
X-83Y-5283D01*
X16Y-5216D01*
X83Y-5117D01*
X90Y-5080D01*
X2724D01*
X2773Y-5197D01*
X2485Y-5485D01*
X2438Y-5600D01*
Y-5645D01*
X2319Y-5716D01*
X2311Y-5716D01*
X2200Y-5694D01*
X2083Y-5717D01*
X1984Y-5784D01*
X1917Y-5883D01*
X1894Y-6000D01*
X1917Y-6117D01*
X1984Y-6216D01*
X2083Y-6283D01*
X2200Y-6306D01*
X2311Y-6284D01*
X2319Y-6283D01*
X2438Y-6355D01*
Y-6645D01*
X2319Y-6716D01*
X2311Y-6716D01*
X2200Y-6694D01*
X2185Y-6697D01*
X1844Y-6356D01*
X1778Y-6312D01*
X1700Y-6296D01*
X-300D01*
X-300Y-6296D01*
X-378Y-6312D01*
X-444Y-6356D01*
X-984Y-6896D01*
X-2200D01*
X-2278Y-6912D01*
X-2344Y-6956D01*
X-2344Y-6956D01*
X-2984Y-7595D01*
X-3101Y-7533D01*
X-3094Y-7500D01*
X-3117Y-7383D01*
X-3184Y-7284D01*
X-3283Y-7217D01*
X-3400Y-7194D01*
X-3517Y-7217D01*
X-3616Y-7284D01*
X-3683Y-7383D01*
X-3706Y-7500D01*
X-3776Y-7561D01*
X-3860Y-7548D01*
X-3918Y-7418D01*
X-3917Y-7417D01*
X-3894Y-7300D01*
X-3917Y-7183D01*
X-3984Y-7084D01*
X-4083Y-7017D01*
X-4200Y-6994D01*
X-4317Y-7017D01*
X-4400Y-7073D01*
X-4483Y-7017D01*
X-4600Y-6994D01*
X-4717Y-7017D01*
X-4800Y-7073D01*
X-4883Y-7017D01*
X-5000Y-6994D01*
X-5117Y-7017D01*
X-5200Y-7073D01*
X-5283Y-7017D01*
X-5400Y-6994D01*
X-5517Y-7017D01*
X-5616Y-7084D01*
X-5669Y-7163D01*
X-5759Y-7155D01*
X-5796Y-7142D01*
Y-6125D01*
X-5784Y-6116D01*
X-5717Y-6017D01*
X-5694Y-5900D01*
X-5717Y-5783D01*
X-5784Y-5684D01*
X-5883Y-5617D01*
X-6000Y-5594D01*
X-6117Y-5617D01*
X-6216Y-5684D01*
X-6283Y-5783D01*
X-6306Y-5900D01*
X-6283Y-6017D01*
X-6216Y-6116D01*
X-6204Y-6125D01*
Y-7500D01*
X-6188Y-7578D01*
X-6144Y-7644D01*
X-5844Y-7944D01*
X-5778Y-7988D01*
X-5700Y-8004D01*
X-3866D01*
X-3866Y-8004D01*
X-3866Y-8004D01*
X-3784D01*
X-3694Y-8094D01*
X-3694Y-8094D01*
X-3628Y-8138D01*
X-3550Y-8154D01*
X-3186D01*
X-3133Y-8281D01*
X-3226Y-8374D01*
X-3265Y-8432D01*
X-3278Y-8500D01*
Y-8626D01*
X-3374Y-8722D01*
X-4200D01*
X-4268Y-8735D01*
X-4326Y-8774D01*
X-5771Y-10218D01*
X-5811Y-10212D01*
X-5900Y-10168D01*
X-5917Y-10083D01*
X-5984Y-9984D01*
X-6083Y-9917D01*
X-6200Y-9894D01*
X-6317Y-9917D01*
X-6416Y-9984D01*
X-6483Y-10083D01*
X-6506Y-10200D01*
X-6483Y-10317D01*
X-6416Y-10416D01*
X-6317Y-10483D01*
X-6232Y-10500D01*
X-6188Y-10589D01*
X-6182Y-10629D01*
X-6226Y-10674D01*
X-6265Y-10732D01*
X-6278Y-10800D01*
Y-10975D01*
X-6525D01*
X-6592Y-10988D01*
X-6682Y-10920D01*
X-6702Y-10890D01*
X-6694Y-10850D01*
X-6717Y-10733D01*
X-6784Y-10634D01*
X-6883Y-10567D01*
X-6997Y-10545D01*
Y-7325D01*
X-7010Y-7257D01*
X-7049Y-7199D01*
X-7222Y-7026D01*
Y-1201D01*
X-7175Y-1081D01*
X-7058Y-1058D01*
X-6959Y-991D01*
X-6892Y-892D01*
X-6869Y-775D01*
X-6892Y-658D01*
X-6959Y-559D01*
X-7058Y-492D01*
X-7175Y-469D01*
X-7292Y-492D01*
X-7391Y-559D01*
X-7458Y-658D01*
X-7480Y-773D01*
X-7497Y-784D01*
X-7514Y-793D01*
X-7641Y-718D01*
Y-400D01*
X-7676Y-224D01*
X-7776Y-76D01*
X-7941Y90D01*
Y2910D01*
X-7435Y3416D01*
X-7175D01*
X-6999Y3451D01*
X-6851Y3551D01*
X-6751Y3699D01*
X-6716Y3875D01*
X-6751Y4051D01*
X-6851Y4199D01*
X-6999Y4299D01*
X-7175Y4334D01*
X-7625D01*
X-7801Y4299D01*
X-7949Y4199D01*
X-8714Y3435D01*
X-8757Y3440D01*
X-8841Y3478D01*
Y6200D01*
X-8876Y6376D01*
X-8976Y6524D01*
X-9225Y6774D01*
X-9229Y6795D01*
X-9271Y6858D01*
X-9203Y6985D01*
X-6233D01*
X-6165Y6858D01*
X-6180Y6837D01*
X-6207Y6700D01*
X-6180Y6563D01*
X-6102Y6448D01*
X-5987Y6370D01*
X-5850Y6343D01*
X-4550D01*
X-4413Y6370D01*
X-4298Y6448D01*
X-4220Y6563D01*
X-4193Y6700D01*
X-4220Y6837D01*
X-4235Y6858D01*
X-4167Y6985D01*
X-3175D01*
Y-18D01*
D02*
G37*
G36*
X7620Y-2228D02*
X6845Y-3003D01*
X6800Y-2994D01*
X6683Y-3017D01*
X6584Y-3084D01*
X6517Y-3183D01*
X6494Y-3300D01*
X6517Y-3417D01*
X6584Y-3516D01*
X6683Y-3583D01*
X6800Y-3606D01*
X6917Y-3583D01*
X7016Y-3516D01*
X7083Y-3417D01*
X7106Y-3300D01*
X7097Y-3255D01*
X7503Y-2850D01*
X7620Y-2898D01*
Y-3810D01*
X6985Y-4445D01*
X5953D01*
Y-635D01*
X7620D01*
Y-2228D01*
D02*
G37*
G36*
X-10817Y3617D02*
X-10700Y3594D01*
X-10586Y3617D01*
X-10583Y3617D01*
X-10459Y3548D01*
Y-3810D01*
X-10524Y-3876D01*
X-10524Y-3876D01*
X-10616Y-4012D01*
X-10624Y-4024D01*
X-10624Y-4024D01*
X-10624Y-4024D01*
X-10624Y-4024D01*
X-10624Y-4024D01*
X-10657Y-4189D01*
X-10659Y-4200D01*
X-10659Y-4200D01*
X-10659Y-4200D01*
X-10659Y-4200D01*
Y-6300D01*
X-10624Y-6476D01*
X-10559Y-6573D01*
X-10576Y-6623D01*
X-10624Y-6699D01*
X-10717Y-6717D01*
X-10816Y-6784D01*
X-10883Y-6883D01*
X-10906Y-7000D01*
X-10883Y-7117D01*
X-10827Y-7200D01*
X-10883Y-7283D01*
X-10906Y-7400D01*
X-10883Y-7517D01*
X-10827Y-7600D01*
X-10883Y-7683D01*
X-10906Y-7800D01*
X-10883Y-7917D01*
X-10816Y-8016D01*
X-10717Y-8083D01*
X-10629Y-8100D01*
X-10587Y-8182D01*
X-10579Y-8230D01*
X-10780Y-8431D01*
X-11430D01*
Y-6805D01*
X-11255D01*
X-11148Y-6784D01*
X-11057Y-6723D01*
X-10996Y-6632D01*
X-10975Y-6525D01*
Y-6175D01*
X-10996Y-6068D01*
X-11057Y-5977D01*
X-11148Y-5916D01*
X-11255Y-5895D01*
X-11430D01*
Y-5535D01*
X-11255D01*
X-11148Y-5514D01*
X-11057Y-5453D01*
X-10996Y-5362D01*
X-10975Y-5255D01*
Y-4905D01*
X-10996Y-4798D01*
X-11057Y-4707D01*
X-11148Y-4646D01*
X-11255Y-4625D01*
X-11430D01*
Y-4265D01*
X-11255D01*
X-11148Y-4244D01*
X-11057Y-4183D01*
X-10996Y-4092D01*
X-10975Y-3985D01*
Y-3635D01*
X-10996Y-3528D01*
X-11057Y-3437D01*
X-11148Y-3376D01*
X-11255Y-3355D01*
X-11430D01*
Y-2995D01*
X-11255D01*
X-11148Y-2974D01*
X-11057Y-2913D01*
X-10996Y-2822D01*
X-10975Y-2715D01*
Y-2365D01*
X-10996Y-2258D01*
X-11057Y-2167D01*
X-11148Y-2106D01*
X-11255Y-2085D01*
X-11430D01*
Y-1725D01*
X-11255D01*
X-11148Y-1704D01*
X-11057Y-1643D01*
X-10996Y-1552D01*
X-10975Y-1445D01*
Y-1095D01*
X-10996Y-988D01*
X-11057Y-897D01*
X-11148Y-836D01*
X-11255Y-815D01*
X-11430D01*
Y815D01*
X-11255D01*
X-11148Y836D01*
X-11057Y897D01*
X-10996Y988D01*
X-10975Y1095D01*
Y1445D01*
X-10996Y1552D01*
X-11057Y1643D01*
X-11148Y1704D01*
X-11255Y1725D01*
X-11430D01*
Y2085D01*
X-11255D01*
X-11148Y2106D01*
X-11057Y2167D01*
X-10996Y2258D01*
X-10975Y2365D01*
Y2715D01*
X-10996Y2822D01*
X-11057Y2913D01*
X-11148Y2974D01*
X-11255Y2995D01*
X-11430D01*
Y3355D01*
X-11255D01*
X-11148Y3376D01*
X-11057Y3437D01*
X-10996Y3528D01*
X-10986Y3578D01*
X-10870Y3637D01*
X-10848Y3638D01*
X-10817Y3617D01*
D02*
G37*
G36*
X11430Y10615D02*
X11255D01*
X11148Y10594D01*
X11057Y10533D01*
X10996Y10442D01*
X10975Y10335D01*
Y9985D01*
X10996Y9878D01*
X11057Y9787D01*
X11148Y9726D01*
X11255Y9705D01*
X11430D01*
Y9345D01*
X11255D01*
X11148Y9324D01*
X11057Y9263D01*
X10996Y9172D01*
X10975Y9065D01*
Y8715D01*
X10996Y8608D01*
X11057Y8517D01*
X11148Y8456D01*
X11255Y8435D01*
X11430D01*
Y8075D01*
X11255D01*
X11148Y8054D01*
X11057Y7993D01*
X10996Y7902D01*
X10975Y7795D01*
Y7445D01*
X10996Y7338D01*
X11057Y7247D01*
X11148Y7186D01*
X11255Y7165D01*
X11430D01*
Y6805D01*
X11255D01*
X11148Y6784D01*
X11057Y6723D01*
X10996Y6632D01*
X10975Y6525D01*
Y6175D01*
X10996Y6068D01*
X11057Y5977D01*
X11148Y5916D01*
X11255Y5895D01*
X11430D01*
Y5535D01*
X11255D01*
X11148Y5514D01*
X11057Y5453D01*
X10996Y5362D01*
X10975Y5255D01*
Y4905D01*
X10996Y4798D01*
X11057Y4707D01*
X11148Y4646D01*
X11255Y4625D01*
X11430D01*
Y4265D01*
X11255D01*
X11148Y4244D01*
X11057Y4183D01*
X10996Y4092D01*
X10975Y3985D01*
Y3635D01*
X10996Y3528D01*
X11057Y3437D01*
X11148Y3376D01*
X11255Y3355D01*
X11430D01*
Y2995D01*
X11255D01*
X11148Y2974D01*
X11057Y2913D01*
X10996Y2822D01*
X10975Y2715D01*
Y2365D01*
X10996Y2258D01*
X11057Y2167D01*
X11148Y2106D01*
X11255Y2085D01*
X11430D01*
Y1725D01*
X11255D01*
X11148Y1704D01*
X11057Y1643D01*
X10996Y1552D01*
X10975Y1445D01*
Y1095D01*
X10996Y988D01*
X11057Y897D01*
X11148Y836D01*
X11255Y815D01*
X11430D01*
Y455D01*
X11255D01*
X11148Y434D01*
X11057Y373D01*
X10996Y282D01*
X10975Y175D01*
Y-175D01*
X10996Y-282D01*
X11057Y-373D01*
X11148Y-434D01*
X11255Y-455D01*
X11430D01*
Y-815D01*
X11255D01*
X11148Y-836D01*
X11057Y-897D01*
X10996Y-988D01*
X10975Y-1095D01*
Y-1445D01*
X10996Y-1552D01*
X11057Y-1643D01*
X11148Y-1704D01*
X11255Y-1725D01*
X11430D01*
Y-2085D01*
X11255D01*
X11148Y-2106D01*
X11057Y-2167D01*
X10996Y-2258D01*
X10975Y-2365D01*
Y-2715D01*
X10996Y-2822D01*
X11057Y-2913D01*
X11148Y-2974D01*
X11255Y-2995D01*
X11430D01*
Y-3355D01*
X11255D01*
X11148Y-3376D01*
X11057Y-3437D01*
X10996Y-3528D01*
X10975Y-3635D01*
Y-3985D01*
X10996Y-4092D01*
X11057Y-4183D01*
X11148Y-4244D01*
X11255Y-4265D01*
X11430D01*
Y-4625D01*
X11255D01*
X11232Y-4629D01*
X10976Y-4374D01*
X10918Y-4335D01*
X10864Y-4324D01*
X10828Y-4277D01*
X10787Y-4195D01*
X10806Y-4100D01*
X10783Y-3983D01*
X10716Y-3884D01*
X10617Y-3817D01*
X10500Y-3794D01*
X10396Y-3815D01*
X10335Y-3786D01*
X10274Y-3747D01*
X10264Y-3654D01*
X10794Y-3123D01*
X10833Y-3065D01*
X10846Y-2997D01*
Y3832D01*
X10833Y3900D01*
X10794Y3958D01*
X9326Y5426D01*
X9268Y5465D01*
X9200Y5478D01*
X7800D01*
X7732Y5465D01*
X7674Y5426D01*
X7445Y5197D01*
X7400Y5206D01*
X7283Y5183D01*
X7184Y5116D01*
X7117Y5017D01*
X7094Y4900D01*
X7117Y4783D01*
X7184Y4684D01*
X7283Y4617D01*
X7400Y4594D01*
X7517Y4617D01*
X7616Y4684D01*
X7683Y4783D01*
X7706Y4900D01*
X7697Y4945D01*
X7793Y5040D01*
X7910Y4978D01*
X7894Y4900D01*
X7917Y4783D01*
X7984Y4684D01*
X8083Y4617D01*
X8200Y4594D01*
X8317Y4617D01*
X8416Y4684D01*
X8483Y4783D01*
X8506Y4900D01*
X8487Y4995D01*
X8531Y5078D01*
X8566Y5122D01*
X9126D01*
X9327Y4921D01*
X9285Y4783D01*
X9283Y4783D01*
X9184Y4716D01*
X9117Y4617D01*
X9094Y4500D01*
X9000Y4406D01*
X8883Y4383D01*
X8784Y4316D01*
X8717Y4217D01*
X8694Y4100D01*
X8717Y3983D01*
X8784Y3884D01*
X8883Y3817D01*
X9000Y3794D01*
X9117Y3817D01*
X9216Y3884D01*
X9283Y3983D01*
X9306Y4100D01*
X9400Y4194D01*
X9517Y4217D01*
X9616Y4284D01*
X9683Y4383D01*
X9683Y4385D01*
X9821Y4427D01*
X10490Y3758D01*
Y-2923D01*
X9924Y-3489D01*
X9885Y-3547D01*
X9872Y-3615D01*
Y-4250D01*
X9885Y-4318D01*
X9924Y-4376D01*
X10174Y-4626D01*
X10232Y-4665D01*
X10300Y-4678D01*
X10776D01*
X10979Y-4882D01*
X10975Y-4905D01*
Y-5255D01*
X10996Y-5362D01*
X11057Y-5453D01*
X11148Y-5514D01*
X11255Y-5535D01*
X11430D01*
Y-5895D01*
X11255D01*
X11148Y-5916D01*
X11057Y-5977D01*
X10996Y-6068D01*
X10975Y-6175D01*
Y-6525D01*
X10996Y-6632D01*
X11057Y-6723D01*
X11148Y-6784D01*
X11255Y-6805D01*
X11430D01*
Y-7165D01*
X11255D01*
X11148Y-7186D01*
X11057Y-7247D01*
X10996Y-7338D01*
X10975Y-7445D01*
Y-7795D01*
X10996Y-7902D01*
X11057Y-7993D01*
X11148Y-8054D01*
X11255Y-8075D01*
X11430D01*
Y-9705D01*
X11255D01*
X11148Y-9726D01*
X11057Y-9787D01*
X10996Y-9878D01*
X10975Y-9985D01*
Y-10335D01*
X10996Y-10442D01*
X11057Y-10533D01*
X11148Y-10594D01*
X11255Y-10615D01*
X11430D01*
Y-11430D01*
X10615D01*
Y-11255D01*
X10594Y-11148D01*
X10533Y-11057D01*
X10442Y-10996D01*
X10335Y-10975D01*
X9985D01*
X9878Y-10996D01*
X9787Y-11057D01*
X9726Y-11148D01*
X9705Y-11255D01*
Y-11430D01*
X9345D01*
Y-11255D01*
X9324Y-11148D01*
X9263Y-11057D01*
X9172Y-10996D01*
X9065Y-10975D01*
X8715D01*
X8608Y-10996D01*
X8517Y-11057D01*
X8456Y-11148D01*
X8435Y-11255D01*
Y-11430D01*
X8075D01*
Y-11255D01*
X8054Y-11148D01*
X7993Y-11057D01*
X7902Y-10996D01*
X7795Y-10975D01*
X7445D01*
X7338Y-10996D01*
X7247Y-11057D01*
X7186Y-11148D01*
X7165Y-11255D01*
Y-11430D01*
X6805D01*
Y-11255D01*
X6784Y-11148D01*
X6723Y-11057D01*
X6721Y-10902D01*
X6740Y-10878D01*
X6900D01*
X6968Y-10865D01*
X7026Y-10826D01*
X7979Y-9873D01*
X8117Y-9915D01*
X8117Y-9917D01*
X8184Y-10016D01*
X8283Y-10083D01*
X8400Y-10106D01*
X8517Y-10083D01*
X8616Y-10016D01*
X8683Y-9917D01*
X8706Y-9800D01*
X8683Y-9683D01*
X8616Y-9584D01*
X8517Y-9517D01*
X8515Y-9517D01*
X8473Y-9379D01*
X9955Y-7897D01*
X10000Y-7906D01*
X10117Y-7883D01*
X10216Y-7816D01*
X10283Y-7717D01*
X10306Y-7600D01*
X10283Y-7483D01*
X10216Y-7384D01*
X10117Y-7317D01*
X10000Y-7294D01*
X9883Y-7317D01*
X9784Y-7384D01*
X9717Y-7483D01*
X9694Y-7600D01*
X9703Y-7645D01*
X8229Y-9118D01*
X8189Y-9112D01*
X8100Y-9068D01*
X8083Y-8983D01*
X8056Y-8943D01*
X8016Y-8816D01*
X8083Y-8717D01*
X8106Y-8600D01*
X8083Y-8483D01*
X8016Y-8384D01*
X7917Y-8317D01*
X7800Y-8294D01*
X7683Y-8317D01*
X7584Y-8384D01*
X7517Y-8483D01*
X7494Y-8600D01*
X7517Y-8717D01*
X7544Y-8757D01*
X7584Y-8884D01*
X7517Y-8983D01*
X7494Y-9100D01*
X7517Y-9217D01*
X7584Y-9316D01*
X7683Y-9383D01*
X7768Y-9400D01*
X7812Y-9489D01*
X7818Y-9529D01*
X6826Y-10522D01*
X4130D01*
X4020Y-10502D01*
X3991Y-10424D01*
X3983Y-10383D01*
X3916Y-10284D01*
X3817Y-10217D01*
X3700Y-10194D01*
X3637Y-10143D01*
Y-5992D01*
X4550Y-5080D01*
X5188D01*
X5241Y-5207D01*
X4745Y-5703D01*
X4700Y-5694D01*
X4583Y-5717D01*
X4484Y-5784D01*
X4417Y-5883D01*
X4394Y-6000D01*
X4417Y-6117D01*
X4484Y-6216D01*
X4583Y-6283D01*
X4700Y-6306D01*
X4817Y-6283D01*
X4916Y-6216D01*
X4983Y-6117D01*
X5006Y-6000D01*
X4997Y-5955D01*
X5479Y-5473D01*
X5597Y-5522D01*
Y-6751D01*
X4445Y-7903D01*
X4400Y-7894D01*
X4283Y-7917D01*
X4184Y-7984D01*
X4117Y-8083D01*
X4094Y-8200D01*
X4117Y-8317D01*
X4184Y-8416D01*
X4283Y-8483D01*
X4400Y-8506D01*
X4517Y-8483D01*
X4616Y-8416D01*
X4683Y-8317D01*
X4706Y-8200D01*
X4697Y-8155D01*
X5901Y-6951D01*
X5940Y-6893D01*
X5953Y-6825D01*
Y-6515D01*
X6080Y-6451D01*
X6128Y-6483D01*
X6245Y-6506D01*
X6362Y-6483D01*
X6423Y-6442D01*
X6510Y-6425D01*
X6597Y-6442D01*
X6658Y-6483D01*
X6775Y-6506D01*
X6892Y-6483D01*
X6991Y-6416D01*
X7058Y-6317D01*
X7081Y-6200D01*
X7058Y-6083D01*
X6991Y-5984D01*
X6892Y-5917D01*
X6775Y-5894D01*
X6658Y-5917D01*
X6597Y-5958D01*
X6510Y-5975D01*
X6423Y-5958D01*
X6362Y-5917D01*
X6245Y-5894D01*
X6128Y-5917D01*
X6080Y-5949D01*
X5953Y-5885D01*
Y-5080D01*
X8255D01*
Y-2478D01*
X8758D01*
X8784Y-2516D01*
X8883Y-2583D01*
X9000Y-2606D01*
X9117Y-2583D01*
X9216Y-2516D01*
X9283Y-2417D01*
X9306Y-2300D01*
X9283Y-2183D01*
X9216Y-2084D01*
X9117Y-2017D01*
X9000Y-1994D01*
X8883Y-2017D01*
X8784Y-2084D01*
X8758Y-2122D01*
X8255D01*
Y0D01*
X5953D01*
Y6525D01*
X5940Y6593D01*
X5901Y6651D01*
X5178Y7374D01*
Y7858D01*
X5216Y7884D01*
X5283Y7983D01*
X5306Y8100D01*
X5283Y8217D01*
X5216Y8316D01*
X5117Y8383D01*
X5000Y8406D01*
X4883Y8383D01*
X4784Y8316D01*
X4717Y8217D01*
X4694Y8100D01*
X4717Y7983D01*
X4784Y7884D01*
X4822Y7858D01*
Y7300D01*
X4835Y7232D01*
X4874Y7174D01*
X5597Y6451D01*
Y3922D01*
X5479Y3873D01*
X4497Y4855D01*
X4506Y4900D01*
X4612Y5016D01*
X4617Y5017D01*
X4716Y5084D01*
X4783Y5183D01*
X4806Y5300D01*
X4783Y5417D01*
X4716Y5516D01*
X4617Y5583D01*
X4500Y5606D01*
X4383Y5583D01*
X4284Y5516D01*
X4217Y5417D01*
X4194Y5300D01*
X4088Y5184D01*
X4083Y5183D01*
X3984Y5116D01*
X3917Y5017D01*
X3894Y4900D01*
X3917Y4783D01*
X3984Y4684D01*
X4083Y4617D01*
X4200Y4594D01*
X4245Y4603D01*
X5322Y3526D01*
Y0D01*
X5162D01*
Y3100D01*
X5115Y3215D01*
X3762Y4567D01*
Y5283D01*
X4315Y5835D01*
X4362Y5950D01*
Y6248D01*
X4416Y6284D01*
X4483Y6383D01*
X4506Y6500D01*
X4483Y6617D01*
X4416Y6716D01*
X4317Y6783D01*
X4200Y6806D01*
X4083Y6783D01*
X3984Y6716D01*
X3917Y6617D01*
X3894Y6500D01*
X3863Y6469D01*
X3736Y6469D01*
X3706Y6500D01*
X3683Y6617D01*
X3616Y6716D01*
X3517Y6783D01*
X3400Y6806D01*
X3306Y6900D01*
X3400Y6994D01*
X3517Y7017D01*
X3616Y7084D01*
X3683Y7183D01*
X3706Y7300D01*
X3683Y7417D01*
X3616Y7516D01*
X3517Y7583D01*
X3400Y7606D01*
X3302Y7586D01*
X3245Y7611D01*
X3175Y7663D01*
Y11430D01*
X3355D01*
Y11255D01*
X3376Y11148D01*
X3437Y11057D01*
X3528Y10996D01*
X3635Y10975D01*
X3985D01*
X4092Y10996D01*
X4183Y11057D01*
X4244Y11148D01*
X4265Y11255D01*
Y11430D01*
X4625D01*
Y11255D01*
X4646Y11148D01*
X4707Y11057D01*
X4798Y10996D01*
X4905Y10975D01*
X5255D01*
X5278Y10979D01*
X5484Y10774D01*
X5542Y10735D01*
X5610Y10722D01*
X6135D01*
X6169Y10678D01*
X6213Y10595D01*
X6194Y10500D01*
X6217Y10383D01*
X6284Y10284D01*
X6383Y10217D01*
X6500Y10194D01*
X6617Y10217D01*
X6716Y10284D01*
X6783Y10383D01*
X6806Y10500D01*
X6787Y10595D01*
X6831Y10678D01*
X6866Y10722D01*
X8626D01*
X9403Y9945D01*
X9394Y9900D01*
X9417Y9783D01*
X9484Y9684D01*
X9583Y9617D01*
X9700Y9594D01*
X9817Y9617D01*
X9916Y9684D01*
X9983Y9783D01*
X10006Y9900D01*
X9983Y10017D01*
X9916Y10116D01*
X9817Y10183D01*
X9700Y10206D01*
X9655Y10197D01*
X8995Y10857D01*
X9044Y10975D01*
X9065D01*
X9172Y10996D01*
X9263Y11057D01*
X9324Y11148D01*
X9345Y11255D01*
Y11430D01*
X9705D01*
Y11255D01*
X9726Y11148D01*
X9787Y11057D01*
X9878Y10996D01*
X9985Y10975D01*
X10335D01*
X10442Y10996D01*
X10533Y11057D01*
X10594Y11148D01*
X10615Y11255D01*
Y11430D01*
X11430D01*
Y10615D01*
D02*
G37*
G36*
X2085Y11255D02*
X2106Y11148D01*
X2167Y11057D01*
X2258Y10996D01*
X2365Y10975D01*
X2540D01*
Y10060D01*
X2434Y10022D01*
X2413Y10018D01*
X2317Y10083D01*
X2200Y10106D01*
X2083Y10083D01*
X1984Y10016D01*
X1917Y9917D01*
X1894Y9800D01*
X1800Y9706D01*
X1683Y9683D01*
X1584Y9616D01*
X1517Y9517D01*
X1494Y9400D01*
X1517Y9283D01*
X1584Y9184D01*
X1544Y9057D01*
X1517Y9017D01*
X1494Y8900D01*
X1517Y8783D01*
X1584Y8684D01*
X1683Y8617D01*
X1800Y8594D01*
X1894Y8500D01*
X1917Y8383D01*
X1984Y8284D01*
X2083Y8217D01*
X2200Y8194D01*
X2317Y8217D01*
X2413Y8282D01*
X2434Y8278D01*
X2540Y8240D01*
Y7160D01*
X2434Y7122D01*
X2413Y7118D01*
X2317Y7183D01*
X2200Y7206D01*
X2106Y7300D01*
X2083Y7417D01*
X2016Y7516D01*
X1917Y7583D01*
X1800Y7606D01*
X1683Y7583D01*
X1584Y7516D01*
X1517Y7417D01*
X1494Y7300D01*
X1517Y7183D01*
X1584Y7084D01*
X1683Y7017D01*
X1800Y6994D01*
X1894Y6900D01*
X1917Y6783D01*
X1984Y6684D01*
X2083Y6617D01*
X2200Y6594D01*
X2253Y6541D01*
X2258Y6388D01*
X1429Y5558D01*
X1291Y5587D01*
X1285Y5594D01*
X1306Y5700D01*
X1283Y5817D01*
X1216Y5916D01*
X1117Y5983D01*
X1000Y6006D01*
X883Y5983D01*
X784Y5916D01*
X717Y5817D01*
X694Y5700D01*
X717Y5583D01*
X784Y5484D01*
X883Y5417D01*
X1000Y5394D01*
X1117Y5417D01*
X1161Y5447D01*
X1264Y5363D01*
X1238Y5300D01*
Y3800D01*
X1285Y3685D01*
X1385Y3585D01*
X1457Y3555D01*
X1516Y3429D01*
X1517Y3422D01*
X1516Y3411D01*
X1494Y3300D01*
X1517Y3183D01*
X1584Y3084D01*
X1683Y3017D01*
X1800Y2994D01*
X1917Y3017D01*
X2016Y3084D01*
X2083Y3183D01*
X2104Y3292D01*
X2118Y3307D01*
X2221Y3370D01*
X2300Y3338D01*
X2540D01*
Y1994D01*
X2483Y1983D01*
X2384Y1916D01*
X2317Y1817D01*
X2294Y1700D01*
X2317Y1583D01*
X2384Y1484D01*
X2483Y1417D01*
X2540Y1406D01*
Y-635D01*
X4238D01*
Y-1833D01*
X3385Y-2685D01*
X3338Y-2800D01*
Y-4445D01*
X-2540D01*
Y7620D01*
X-4318D01*
X-4405Y7747D01*
X-4394Y7800D01*
X-4417Y7917D01*
X-4484Y8016D01*
X-4583Y8083D01*
X-4700Y8106D01*
X-4817Y8083D01*
X-4916Y8016D01*
X-4984D01*
X-5083Y8083D01*
X-5200Y8106D01*
X-5317Y8083D01*
X-5416Y8016D01*
X-5484D01*
X-5583Y8083D01*
X-5700Y8106D01*
X-5817Y8083D01*
X-5916Y8016D01*
X-5983Y7917D01*
X-6006Y7800D01*
X-5995Y7747D01*
X-6082Y7620D01*
X-10975D01*
Y7795D01*
X-10996Y7902D01*
X-11057Y7993D01*
X-11148Y8054D01*
X-11255Y8075D01*
X-11430D01*
Y8435D01*
X-11255D01*
X-11148Y8456D01*
X-11057Y8517D01*
X-10996Y8608D01*
X-10975Y8715D01*
Y9065D01*
X-10996Y9172D01*
X-11057Y9263D01*
X-11148Y9324D01*
X-11255Y9345D01*
X-11430D01*
Y9705D01*
X-11255D01*
X-11148Y9726D01*
X-11057Y9787D01*
X-10996Y9878D01*
X-10975Y9985D01*
Y10335D01*
X-10996Y10442D01*
X-11057Y10533D01*
X-11148Y10594D01*
X-11255Y10615D01*
X-11430D01*
Y11430D01*
X-10615D01*
Y11255D01*
X-10594Y11148D01*
X-10533Y11057D01*
X-10442Y10996D01*
X-10335Y10975D01*
X-9985D01*
X-9878Y10996D01*
X-9787Y11057D01*
X-9726Y11148D01*
X-9705Y11255D01*
Y11430D01*
X-9345D01*
Y11255D01*
X-9324Y11148D01*
X-9263Y11057D01*
X-9172Y10996D01*
X-9065Y10975D01*
X-8715D01*
X-8608Y10996D01*
X-8517Y11057D01*
X-8456Y11148D01*
X-8435Y11255D01*
Y11430D01*
X-8075D01*
Y11255D01*
X-8054Y11148D01*
X-7993Y11057D01*
X-7902Y10996D01*
X-7795Y10975D01*
X-7445D01*
X-7389Y10986D01*
X-7355Y10964D01*
X-7291Y10890D01*
X-7289Y10886D01*
X-7306Y10800D01*
X-7283Y10683D01*
X-7216Y10584D01*
X-7117Y10517D01*
X-7000Y10494D01*
X-6883Y10517D01*
X-6784Y10584D01*
X-6717Y10683D01*
X-6694Y10800D01*
X-6714Y10897D01*
X-6666Y10955D01*
X-6615Y10993D01*
X-6525Y10975D01*
X-6175D01*
X-6068Y10996D01*
X-5977Y11057D01*
X-5916Y11148D01*
X-5895Y11255D01*
Y11430D01*
X-5535D01*
Y11255D01*
X-5514Y11148D01*
X-5453Y11057D01*
X-5362Y10996D01*
X-5255Y10975D01*
X-4905D01*
X-4798Y10996D01*
X-4707Y11057D01*
X-4646Y11148D01*
X-4625Y11255D01*
Y11430D01*
X-4265D01*
Y11255D01*
X-4244Y11148D01*
X-4183Y11057D01*
X-4092Y10996D01*
X-3985Y10975D01*
X-3635D01*
X-3528Y10996D01*
X-3437Y11057D01*
X-3376Y11148D01*
X-3355Y11255D01*
Y11430D01*
X-2995D01*
Y11255D01*
X-2974Y11148D01*
X-2913Y11057D01*
X-2822Y10996D01*
X-2715Y10975D01*
X-2365D01*
X-2258Y10996D01*
X-2167Y11057D01*
X-2106Y11148D01*
X-2085Y11255D01*
Y11430D01*
X-1725D01*
Y11255D01*
X-1704Y11148D01*
X-1643Y11057D01*
X-1552Y10996D01*
X-1445Y10975D01*
X-1095D01*
X-988Y10996D01*
X-897Y11057D01*
X-836Y11148D01*
X-815Y11255D01*
Y11430D01*
X-455D01*
Y11255D01*
X-434Y11148D01*
X-373Y11057D01*
X-282Y10996D01*
X-175Y10975D01*
X175D01*
X282Y10996D01*
X373Y11057D01*
X434Y11148D01*
X455Y11255D01*
Y11430D01*
X815D01*
Y11255D01*
X836Y11148D01*
X897Y11057D01*
X988Y10996D01*
X1095Y10975D01*
X1445D01*
X1552Y10996D01*
X1643Y11057D01*
X1704Y11148D01*
X1725Y11255D01*
Y11430D01*
X2085D01*
Y11255D01*
D02*
G37*
G36*
X-1416Y-9316D02*
X-1317Y-9383D01*
X-1200Y-9406D01*
X-1083Y-9383D01*
X-1066Y-9371D01*
X-965Y-9337D01*
X-903Y-9404D01*
X-819Y-9529D01*
X-622Y-9661D01*
X-390Y-9707D01*
X-158Y-9661D01*
X-123Y-9638D01*
X-49Y-9677D01*
X-4Y-9711D01*
X17Y-9817D01*
X35Y-9844D01*
X-56Y-9935D01*
X-83Y-9917D01*
X-200Y-9894D01*
X-317Y-9917D01*
X-416Y-9984D01*
X-483Y-10083D01*
X-506Y-10200D01*
X-483Y-10317D01*
X-431Y-10395D01*
X-455Y-10474D01*
X-487Y-10522D01*
X-1237D01*
X-1354Y-10460D01*
X-1377Y-10343D01*
X-1444Y-10244D01*
X-1543Y-10177D01*
X-1660Y-10154D01*
X-1777Y-10177D01*
X-1873Y-10241D01*
X-1899Y-10235D01*
X-1968Y-10210D01*
X-1995Y-10193D01*
X-2017Y-10083D01*
X-2084Y-9984D01*
X-2183Y-9917D01*
X-2300Y-9894D01*
X-2417Y-9917D01*
X-2516Y-9984D01*
X-2583Y-10083D01*
X-2606Y-10200D01*
X-2583Y-10317D01*
X-2516Y-10416D01*
X-2417Y-10483D01*
X-2300Y-10506D01*
X-2183Y-10483D01*
X-2087Y-10419D01*
X-2061Y-10425D01*
X-1992Y-10450D01*
X-1965Y-10467D01*
X-1943Y-10577D01*
X-1876Y-10676D01*
X-1777Y-10743D01*
X-1660Y-10766D01*
X-1615Y-10757D01*
X-1546Y-10826D01*
X-1501Y-10856D01*
X-1497Y-10907D01*
X-1515Y-10988D01*
X-1552Y-10996D01*
X-1643Y-11057D01*
X-1704Y-11148D01*
X-1725Y-11255D01*
Y-11430D01*
X-2085D01*
Y-11255D01*
X-2106Y-11148D01*
X-2167Y-11057D01*
X-2258Y-10996D01*
X-2365Y-10975D01*
X-2715D01*
X-2822Y-10996D01*
X-2913Y-11057D01*
X-2974Y-11148D01*
X-2995Y-11255D01*
Y-11430D01*
X-3355D01*
Y-11255D01*
X-3376Y-11148D01*
X-3437Y-11057D01*
X-3528Y-10996D01*
X-3635Y-10975D01*
X-3657D01*
X-3681Y-10848D01*
X-3649Y-10826D01*
X-2101Y-9278D01*
X-1442D01*
X-1416Y-9316D01*
D02*
G37*
G36*
X-9224Y-9424D02*
X-9076Y-9524D01*
X-8900Y-9559D01*
X-8713D01*
X-8695Y-9571D01*
X-8527Y-9604D01*
X-8481Y-9689D01*
X-8471Y-9733D01*
X-8571Y-9884D01*
X-8617Y-10116D01*
X-8571Y-10348D01*
X-8439Y-10545D01*
X-8242Y-10677D01*
X-8010Y-10723D01*
X-7778Y-10677D01*
X-7581Y-10545D01*
X-7480Y-10395D01*
X-7353Y-10434D01*
Y-10675D01*
X-7340Y-10743D01*
X-7301Y-10801D01*
X-7338Y-10915D01*
X-7409Y-10982D01*
X-7445Y-10975D01*
X-7795D01*
X-7902Y-10996D01*
X-7993Y-11057D01*
X-8054Y-11148D01*
X-8075Y-11255D01*
Y-11430D01*
X-9391D01*
X-9468Y-11303D01*
X-9441Y-11170D01*
Y-9378D01*
X-9357Y-9340D01*
X-9314Y-9335D01*
X-9224Y-9424D01*
D02*
G37*
%LPC*%
G36*
X3800Y1606D02*
X3683Y1583D01*
X3584Y1516D01*
X3517Y1417D01*
X3494Y1300D01*
X3517Y1183D01*
X3584Y1084D01*
X3683Y1017D01*
X3800Y994D01*
X3917Y1017D01*
X4016Y1084D01*
X4083Y1183D01*
X4106Y1300D01*
X4083Y1417D01*
X4016Y1516D01*
X3917Y1583D01*
X3800Y1606D01*
D02*
G37*
G36*
X9000Y1206D02*
X8883Y1183D01*
X8784Y1116D01*
X8717Y1017D01*
X8694Y900D01*
X8717Y783D01*
X8784Y684D01*
X8883Y617D01*
X9000Y594D01*
X9117Y617D01*
X9216Y684D01*
X9283Y783D01*
X9306Y900D01*
X9283Y1017D01*
X9216Y1116D01*
X9117Y1183D01*
X9000Y1206D01*
D02*
G37*
G36*
X-600Y2006D02*
X-717Y1983D01*
X-816Y1916D01*
X-883Y1817D01*
X-906Y1700D01*
X-883Y1583D01*
X-816Y1484D01*
X-717Y1417D01*
X-600Y1394D01*
X-483Y1417D01*
X-384Y1484D01*
X-317Y1583D01*
X-294Y1700D01*
X-317Y1817D01*
X-384Y1916D01*
X-483Y1983D01*
X-600Y2006D01*
D02*
G37*
G36*
X8200D02*
X8083Y1983D01*
X7984Y1916D01*
X7917Y1817D01*
X7894Y1700D01*
X7917Y1583D01*
X7984Y1484D01*
X8083Y1417D01*
X8200Y1394D01*
X8317Y1417D01*
X8416Y1484D01*
X8483Y1583D01*
X8506Y1700D01*
X8483Y1817D01*
X8416Y1916D01*
X8317Y1983D01*
X8200Y2006D01*
D02*
G37*
G36*
X7400Y2806D02*
X7283Y2783D01*
X7184Y2716D01*
X7117Y2617D01*
X7094Y2500D01*
X7117Y2383D01*
X7184Y2284D01*
X7283Y2217D01*
X7400Y2194D01*
X7517Y2217D01*
X7616Y2284D01*
X7683Y2383D01*
X7706Y2500D01*
X7683Y2617D01*
X7616Y2716D01*
X7517Y2783D01*
X7400Y2806D01*
D02*
G37*
G36*
X6600Y2006D02*
X6483Y1983D01*
X6384Y1916D01*
X6317Y1817D01*
X6294Y1700D01*
X6317Y1583D01*
X6384Y1484D01*
X6483Y1417D01*
X6600Y1394D01*
X6717Y1417D01*
X6816Y1484D01*
X6883Y1583D01*
X6906Y1700D01*
X6883Y1817D01*
X6816Y1916D01*
X6717Y1983D01*
X6600Y2006D01*
D02*
G37*
G36*
X7400D02*
X7283Y1983D01*
X7184Y1916D01*
X7117Y1817D01*
X7094Y1700D01*
X7117Y1583D01*
X7184Y1484D01*
X7283Y1417D01*
X7400Y1394D01*
X7517Y1417D01*
X7616Y1484D01*
X7683Y1583D01*
X7706Y1700D01*
X7683Y1817D01*
X7616Y1916D01*
X7517Y1983D01*
X7400Y2006D01*
D02*
G37*
G36*
X-1400Y-1194D02*
X-1517Y-1217D01*
X-1616Y-1284D01*
X-1683Y-1383D01*
X-1706Y-1500D01*
X-1683Y-1617D01*
X-1616Y-1716D01*
X-1517Y-1783D01*
X-1400Y-1806D01*
X-1283Y-1783D01*
X-1184Y-1716D01*
X-1117Y-1617D01*
X-1094Y-1500D01*
X-1117Y-1383D01*
X-1184Y-1284D01*
X-1283Y-1217D01*
X-1400Y-1194D01*
D02*
G37*
G36*
X2600D02*
X2483Y-1217D01*
X2384Y-1284D01*
X2317Y-1383D01*
X2294Y-1500D01*
X2317Y-1617D01*
X2384Y-1716D01*
X2483Y-1783D01*
X2600Y-1806D01*
X2717Y-1783D01*
X2816Y-1716D01*
X2883Y-1617D01*
X2906Y-1500D01*
X2883Y-1383D01*
X2816Y-1284D01*
X2717Y-1217D01*
X2600Y-1194D01*
D02*
G37*
G36*
X9200Y-6494D02*
X9083Y-6517D01*
X8984Y-6584D01*
X8917Y-6683D01*
X8894Y-6800D01*
X8917Y-6917D01*
X8984Y-7016D01*
X9083Y-7083D01*
X9200Y-7106D01*
X9317Y-7083D01*
X9416Y-7016D01*
X9483Y-6917D01*
X9506Y-6800D01*
X9483Y-6683D01*
X9416Y-6584D01*
X9317Y-6517D01*
X9200Y-6494D01*
D02*
G37*
G36*
Y-5594D02*
X9083Y-5617D01*
X8984Y-5684D01*
X8917Y-5783D01*
X8894Y-5900D01*
X8917Y-6017D01*
X8984Y-6116D01*
X9083Y-6183D01*
X9200Y-6206D01*
X9317Y-6183D01*
X9416Y-6116D01*
X9483Y-6017D01*
X9506Y-5900D01*
X9483Y-5783D01*
X9416Y-5684D01*
X9317Y-5617D01*
X9200Y-5594D01*
D02*
G37*
G36*
X200Y-394D02*
X83Y-417D01*
X-16Y-484D01*
X-83Y-583D01*
X-106Y-700D01*
X-83Y-817D01*
X-16Y-916D01*
X83Y-983D01*
X200Y-1006D01*
X317Y-983D01*
X416Y-916D01*
X483Y-817D01*
X506Y-700D01*
X483Y-583D01*
X416Y-484D01*
X317Y-417D01*
X200Y-394D01*
D02*
G37*
G36*
X9000D02*
X8883Y-417D01*
X8784Y-484D01*
X8717Y-583D01*
X8694Y-700D01*
X8717Y-817D01*
X8784Y-916D01*
X8883Y-983D01*
X9000Y-1006D01*
X9117Y-983D01*
X9216Y-916D01*
X9283Y-817D01*
X9306Y-700D01*
X9283Y-583D01*
X9216Y-484D01*
X9117Y-417D01*
X9000Y-394D01*
D02*
G37*
G36*
Y-1194D02*
X8883Y-1217D01*
X8784Y-1284D01*
X8717Y-1383D01*
X8694Y-1500D01*
X8717Y-1617D01*
X8784Y-1716D01*
X8883Y-1783D01*
X9000Y-1806D01*
X9117Y-1783D01*
X9216Y-1716D01*
X9283Y-1617D01*
X9306Y-1500D01*
X9283Y-1383D01*
X9216Y-1284D01*
X9117Y-1217D01*
X9000Y-1194D01*
D02*
G37*
G36*
X-1400Y-394D02*
X-1517Y-417D01*
X-1616Y-484D01*
X-1683Y-583D01*
X-1706Y-700D01*
X-1683Y-817D01*
X-1616Y-916D01*
X-1517Y-983D01*
X-1400Y-1006D01*
X-1283Y-983D01*
X-1184Y-916D01*
X-1117Y-817D01*
X-1094Y-700D01*
X-1117Y-583D01*
X-1184Y-484D01*
X-1283Y-417D01*
X-1400Y-394D01*
D02*
G37*
G36*
X8200Y2806D02*
X8083Y2783D01*
X7984Y2716D01*
X7917Y2617D01*
X7894Y2500D01*
X7917Y2383D01*
X7984Y2284D01*
X8083Y2217D01*
X8200Y2194D01*
X8317Y2217D01*
X8416Y2284D01*
X8483Y2383D01*
X8506Y2500D01*
X8483Y2617D01*
X8416Y2716D01*
X8317Y2783D01*
X8200Y2806D01*
D02*
G37*
G36*
Y9206D02*
X8083Y9183D01*
X7984Y9116D01*
X7917Y9017D01*
X7894Y8900D01*
X7917Y8783D01*
X7984Y8684D01*
X8083Y8617D01*
X8200Y8594D01*
X8317Y8617D01*
X8416Y8684D01*
X8483Y8783D01*
X8506Y8900D01*
X8483Y9017D01*
X8416Y9116D01*
X8317Y9183D01*
X8200Y9206D01*
D02*
G37*
G36*
X-1900Y9406D02*
X-2017Y9383D01*
X-2116Y9316D01*
X-2183Y9217D01*
X-2206Y9100D01*
X-2183Y8983D01*
X-2116Y8884D01*
X-2017Y8817D01*
X-1900Y8794D01*
X-1783Y8817D01*
X-1684Y8884D01*
X-1617Y8983D01*
X-1594Y9100D01*
X-1617Y9217D01*
X-1684Y9316D01*
X-1783Y9383D01*
X-1900Y9406D01*
D02*
G37*
G36*
X4200Y8406D02*
X4083Y8383D01*
X3984Y8316D01*
X3917Y8217D01*
X3894Y8100D01*
X3917Y7983D01*
X3984Y7884D01*
X4083Y7817D01*
X4200Y7794D01*
X4317Y7817D01*
X4416Y7884D01*
X4483Y7983D01*
X4506Y8100D01*
X4483Y8217D01*
X4416Y8316D01*
X4317Y8383D01*
X4200Y8406D01*
D02*
G37*
G36*
X8200D02*
X8083Y8383D01*
X7984Y8316D01*
X7917Y8217D01*
X7894Y8100D01*
X7800Y8006D01*
X7683Y7983D01*
X7584Y7916D01*
X7517Y7817D01*
X7494Y7700D01*
X7517Y7583D01*
X7584Y7484D01*
X7683Y7417D01*
X7800Y7394D01*
X7917Y7417D01*
X8016Y7484D01*
X8083Y7583D01*
X8106Y7700D01*
X8200Y7794D01*
X8317Y7817D01*
X8416Y7884D01*
X8483Y7983D01*
X8506Y8100D01*
X8483Y8217D01*
X8416Y8316D01*
X8317Y8383D01*
X8200Y8406D01*
D02*
G37*
G36*
X1000D02*
X883Y8383D01*
X784Y8316D01*
X717Y8217D01*
X694Y8100D01*
X717Y7983D01*
X784Y7884D01*
X883Y7817D01*
X1000Y7794D01*
X1117Y7817D01*
X1216Y7884D01*
X1283Y7983D01*
X1306Y8100D01*
X1283Y8217D01*
X1216Y8316D01*
X1117Y8383D01*
X1000Y8406D01*
D02*
G37*
G36*
X-1200Y10806D02*
X-1317Y10783D01*
X-1416Y10716D01*
X-1483Y10617D01*
X-1506Y10500D01*
X-1483Y10383D01*
X-1416Y10284D01*
X-1317Y10217D01*
X-1200Y10194D01*
X-1083Y10217D01*
X-984Y10284D01*
X-917Y10383D01*
X-894Y10500D01*
X-917Y10617D01*
X-984Y10716D01*
X-1083Y10783D01*
X-1200Y10806D01*
D02*
G37*
G36*
X3900D02*
X3783Y10783D01*
X3684Y10716D01*
X3617Y10617D01*
X3594Y10500D01*
X3617Y10383D01*
X3684Y10284D01*
X3783Y10217D01*
X3900Y10194D01*
X4017Y10217D01*
X4116Y10284D01*
X4183Y10383D01*
X4206Y10500D01*
X4183Y10617D01*
X4116Y10716D01*
X4017Y10783D01*
X3900Y10806D01*
D02*
G37*
G36*
X-8750Y10456D02*
X-8867Y10433D01*
X-8966Y10366D01*
X-9033Y10267D01*
X-9056Y10150D01*
X-9033Y10033D01*
X-8966Y9934D01*
X-8867Y9867D01*
X-8750Y9844D01*
X-8633Y9867D01*
X-8534Y9934D01*
X-8467Y10033D01*
X-8444Y10150D01*
X-8467Y10267D01*
X-8534Y10366D01*
X-8633Y10433D01*
X-8750Y10456D01*
D02*
G37*
G36*
X-9000Y9606D02*
X-9117Y9583D01*
X-9216Y9516D01*
X-9283Y9417D01*
X-9306Y9300D01*
X-9283Y9183D01*
X-9216Y9084D01*
X-9117Y9017D01*
X-9000Y8994D01*
X-8883Y9017D01*
X-8784Y9084D01*
X-8717Y9183D01*
X-8694Y9300D01*
X-8717Y9417D01*
X-8784Y9516D01*
X-8883Y9583D01*
X-9000Y9606D01*
D02*
G37*
G36*
X-3800Y10210D02*
X-3995Y10171D01*
X-4160Y10060D01*
X-4271Y9895D01*
X-4310Y9700D01*
X-4271Y9505D01*
X-4160Y9340D01*
X-3995Y9229D01*
X-3800Y9190D01*
X-3605Y9229D01*
X-3440Y9340D01*
X-3329Y9505D01*
X-3290Y9700D01*
X-3329Y9895D01*
X-3440Y10060D01*
X-3605Y10171D01*
X-3800Y10210D01*
D02*
G37*
G36*
X9000Y6806D02*
X8883Y6783D01*
X8784Y6716D01*
X8717Y6617D01*
X8694Y6500D01*
X8717Y6383D01*
X8784Y6284D01*
X8883Y6217D01*
X9000Y6194D01*
X9117Y6217D01*
X9216Y6284D01*
X9283Y6383D01*
X9306Y6500D01*
X9283Y6617D01*
X9216Y6716D01*
X9117Y6783D01*
X9000Y6806D01*
D02*
G37*
G36*
X8200Y3606D02*
X8083Y3583D01*
X7984Y3516D01*
X7917Y3417D01*
X7894Y3300D01*
X7917Y3183D01*
X7984Y3084D01*
X8083Y3017D01*
X8200Y2994D01*
X8317Y3017D01*
X8416Y3084D01*
X8483Y3183D01*
X8506Y3300D01*
X8483Y3417D01*
X8416Y3516D01*
X8317Y3583D01*
X8200Y3606D01*
D02*
G37*
G36*
X9800D02*
X9683Y3583D01*
X9584Y3516D01*
X9517Y3417D01*
X9494Y3300D01*
X9517Y3183D01*
X9584Y3084D01*
X9683Y3017D01*
X9800Y2994D01*
X9917Y3017D01*
X10016Y3084D01*
X10083Y3183D01*
X10106Y3300D01*
X10083Y3417D01*
X10016Y3516D01*
X9917Y3583D01*
X9800Y3606D01*
D02*
G37*
G36*
X7400D02*
X7283Y3583D01*
X7184Y3516D01*
X7117Y3417D01*
X7094Y3300D01*
X7117Y3183D01*
X7184Y3084D01*
X7283Y3017D01*
X7400Y2994D01*
X7517Y3017D01*
X7616Y3084D01*
X7683Y3183D01*
X7706Y3300D01*
X7683Y3417D01*
X7616Y3516D01*
X7517Y3583D01*
X7400Y3606D01*
D02*
G37*
G36*
X9000Y2806D02*
X8883Y2783D01*
X8784Y2716D01*
X8717Y2617D01*
X8694Y2500D01*
X8717Y2383D01*
X8784Y2284D01*
X8883Y2217D01*
X9000Y2194D01*
X9117Y2217D01*
X9216Y2284D01*
X9283Y2383D01*
X9306Y2500D01*
X9283Y2617D01*
X9216Y2716D01*
X9117Y2783D01*
X9000Y2806D01*
D02*
G37*
G36*
X1000Y3606D02*
X883Y3583D01*
X784Y3516D01*
X717Y3417D01*
X694Y3300D01*
X717Y3183D01*
X784Y3084D01*
X883Y3017D01*
X1000Y2994D01*
X1117Y3017D01*
X1216Y3084D01*
X1283Y3183D01*
X1306Y3300D01*
X1283Y3417D01*
X1216Y3516D01*
X1117Y3583D01*
X1000Y3606D01*
D02*
G37*
G36*
X6600Y6806D02*
X6483Y6783D01*
X6384Y6716D01*
X6317Y6617D01*
X6294Y6500D01*
X6317Y6383D01*
X6384Y6284D01*
X6483Y6217D01*
X6600Y6194D01*
X6717Y6217D01*
X6816Y6284D01*
X6883Y6383D01*
X6906Y6500D01*
X6883Y6617D01*
X6816Y6716D01*
X6717Y6783D01*
X6600Y6806D01*
D02*
G37*
G36*
X7400D02*
X7283Y6783D01*
X7184Y6716D01*
X7117Y6617D01*
X7094Y6500D01*
X7117Y6383D01*
X7184Y6284D01*
X7283Y6217D01*
X7400Y6194D01*
X7517Y6217D01*
X7616Y6284D01*
X7683Y6383D01*
X7706Y6500D01*
X7683Y6617D01*
X7616Y6716D01*
X7517Y6783D01*
X7400Y6806D01*
D02*
G37*
G36*
X200Y6006D02*
X83Y5983D01*
X-16Y5916D01*
X-83Y5817D01*
X-106Y5700D01*
X-83Y5583D01*
X-16Y5484D01*
X83Y5417D01*
X200Y5394D01*
X317Y5417D01*
X416Y5484D01*
X483Y5583D01*
X506Y5700D01*
X483Y5817D01*
X416Y5916D01*
X317Y5983D01*
X200Y6006D01*
D02*
G37*
G36*
X7400Y4406D02*
X7283Y4383D01*
X7184Y4316D01*
X7117Y4217D01*
X7094Y4100D01*
X7117Y3983D01*
X7184Y3884D01*
X7283Y3817D01*
X7400Y3794D01*
X7517Y3817D01*
X7616Y3884D01*
X7683Y3983D01*
X7706Y4100D01*
X7683Y4217D01*
X7616Y4316D01*
X7517Y4383D01*
X7400Y4406D01*
D02*
G37*
G36*
X-3900Y4506D02*
X-4017Y4483D01*
X-4116Y4416D01*
X-4183Y4317D01*
X-4206Y4200D01*
X-4183Y4083D01*
X-4116Y3984D01*
X-4017Y3917D01*
X-3900Y3894D01*
X-3783Y3917D01*
X-3684Y3984D01*
X-3617Y4083D01*
X-3594Y4200D01*
X-3617Y4317D01*
X-3684Y4416D01*
X-3783Y4483D01*
X-3900Y4506D01*
D02*
G37*
%LPD*%
D30*
X-9600Y-6800D02*
Y-4200D01*
X-10300Y6600D02*
X-10000Y6300D01*
X-10200Y-4200D02*
X-10200Y-4200D01*
Y-6300D02*
Y-4200D01*
X-9900Y-8200D02*
Y-7100D01*
Y-8900D02*
Y-8200D01*
X-10590Y-8890D02*
X-9900Y-8200D01*
X-10767Y-9068D02*
X-10590Y-8890D01*
X-10500D01*
X-11210D02*
X-10590D01*
X-11033Y-9068D02*
X-10500Y-9600D01*
X-11210Y-8890D02*
X-11033Y-9068D01*
X-10767D01*
X-9900Y-6600D02*
Y-4500D01*
Y-7100D02*
Y-6600D01*
X-9800Y-6700D01*
X-10200Y-6300D02*
X-9900Y-6600D01*
Y-7100D02*
X-9600Y-6800D01*
X-10500Y-9600D02*
Y-8890D01*
Y-11090D02*
Y-9600D01*
X-11430Y-8890D02*
X-11210D01*
X-10500D02*
X-9910D01*
X-10500Y-11090D02*
X-10160Y-11430D01*
X-9900Y-11170D02*
Y-8900D01*
X-9910Y-8890D02*
X-9900Y-8900D01*
X-10100Y-4300D02*
X-9900Y-4500D01*
X-10160Y-11430D02*
X-9900Y-11170D01*
X-9000Y-9000D02*
Y-7600D01*
Y-9000D02*
X-8900Y-9100D01*
X-8500D01*
X-9600Y-4200D02*
X-9500Y-4300D01*
X-10300Y6600D02*
X-10200Y6500D01*
X-10000Y-4000D02*
Y6300D01*
X-10200Y-4200D02*
X-10200Y-4200D01*
X-10100Y-4300D01*
X-10200Y-4200D02*
X-10200Y-4200D01*
X-10000Y-4000D01*
X-10200Y-4200D02*
X-10100Y-4300D01*
X-10200Y-4200D02*
X-10200Y-4200D01*
X-10200Y-4200D02*
Y-4200D01*
Y-4200D01*
X-9500Y-4300D02*
X-9300Y-4100D01*
Y6200D01*
X-8400Y-100D02*
Y3100D01*
Y-100D02*
X-8100Y-400D01*
Y-6700D02*
Y-400D01*
X-9000Y-7600D02*
X-8100Y-6700D01*
X-8400Y3100D02*
X-7625Y3875D01*
X-7175D01*
X-9700Y6600D02*
X-9600Y6500D01*
X-9700Y6600D02*
X-9300Y6200D01*
D31*
X-5850Y6700D02*
X-4550D01*
X7800Y-4900D02*
X8700D01*
D33*
X5500Y-5200D02*
Y3600D01*
X5775Y-6825D02*
Y6525D01*
X4400Y-8200D02*
X5775Y-6825D01*
X5000Y7300D02*
X5775Y6525D01*
X4700Y-6000D02*
X5500Y-5200D01*
X8700Y10900D02*
X9700Y9900D01*
X5610Y10900D02*
X8700D01*
X-1420Y-10700D02*
X0D01*
X-1660Y-10460D02*
X-1420Y-10700D01*
X-7175Y-10675D02*
X-7000Y-10850D01*
X6800Y-3300D02*
X7800Y-2300D01*
X9000D01*
X-7175Y-10675D02*
Y-7325D01*
X0Y-10700D02*
X200Y-10900D01*
X-7400Y-7100D02*
X-7175Y-7325D01*
X-7400Y-7100D02*
Y-1000D01*
X-7175Y-775D01*
X10850Y-4500D02*
X11430Y-5080D01*
X10300Y-4500D02*
X10850D01*
X10050Y-4250D02*
X10300Y-4500D01*
X7800Y5300D02*
X9200D01*
X7400Y4900D02*
X7800Y5300D01*
X5000Y7300D02*
Y8100D01*
X-3100Y-8500D02*
X-2100Y-7500D01*
X-3100Y-8700D02*
Y-8500D01*
X-3300Y-8900D02*
X-3100Y-8700D01*
X-4200Y-8900D02*
X-3300D01*
X-6350Y-11430D02*
X-6100Y-11180D01*
Y-10800D01*
X-4200Y-8900D01*
X-2100Y-7500D02*
X100D01*
X600Y-7000D01*
X1500D01*
X-2175Y-9100D02*
X-1200D01*
X-5080Y-11430D02*
X-4350Y-10700D01*
X-3775D01*
X-2175Y-9100D01*
X5080Y11430D02*
X5610Y10900D01*
X6900Y-10700D02*
X10000Y-7600D01*
X200Y-10900D02*
X3900D01*
X4100Y-10700D01*
X6900D01*
X10050Y-4250D02*
Y-3615D01*
X10668Y-2997D01*
X9200Y5300D02*
X10668Y3832D01*
Y-2997D02*
Y3832D01*
X4200Y4900D02*
X5500Y3600D01*
D35*
X-6000Y-7500D02*
Y-5900D01*
X-2200Y-7100D02*
X-900D01*
X-300Y-6500D01*
X1700D01*
X2200Y-7000D01*
X-6000Y-7500D02*
X-5700Y-7800D01*
X-3866D01*
X-3866Y-7800D01*
X-3866Y-7800D02*
X-3700D01*
X-3550Y-7950D01*
X-3050D01*
X-2200Y-7100D01*
X9240Y-12080D02*
X9810D01*
X7970D02*
X8540D01*
X6700D02*
X7270D01*
X5430D02*
X6000D01*
X4160D02*
X4730D01*
X2890D02*
X3460D01*
X1620D02*
X2190D01*
X350D02*
X920D01*
X-920D02*
X-350D01*
X-2190D02*
X-1620D01*
X-3460D02*
X-2890D01*
X-4730D02*
X-4160D01*
X-6000D02*
X-5430D01*
X-7270D02*
X-6700D01*
X-8540D02*
X-7970D01*
X-9810D02*
X-9240D01*
X-12480Y-10510D02*
X-12080D01*
X-12580Y-10410D02*
X-12480Y-10510D01*
X-12580Y-10410D02*
Y-9910D01*
X-12480Y-9810D01*
X-12080D01*
X-12480Y-9240D02*
X-12080D01*
X-12580Y-9140D02*
X-12480Y-9240D01*
X-12580Y-9140D02*
Y-8640D01*
X-12480Y-8540D01*
X-12080D01*
X-12480Y-7970D02*
X-12080D01*
X-12580Y-7870D02*
X-12480Y-7970D01*
X-12580Y-7870D02*
Y-7370D01*
X-12480Y-7270D01*
X-12080D01*
X-12480Y-6700D02*
X-12080D01*
X-12580Y-6600D02*
X-12480Y-6700D01*
X-12580Y-6600D02*
Y-6100D01*
X-12480Y-6000D01*
X-12080D01*
X-12480Y-5430D02*
X-12080D01*
X-12580Y-5330D02*
X-12480Y-5430D01*
X-12580Y-5330D02*
Y-4830D01*
X-12480Y-4730D01*
X-12080D01*
X-12480Y-4160D02*
X-12080D01*
X-12580Y-4060D02*
X-12480Y-4160D01*
X-12580Y-4060D02*
Y-3560D01*
X-12480Y-3460D01*
X-12080D01*
X-12480Y-2890D02*
X-12080D01*
X-12580Y-2790D02*
X-12480Y-2890D01*
X-12580Y-2790D02*
Y-2290D01*
X-12480Y-2190D01*
X-12080D01*
X-12480Y-1620D02*
X-12080D01*
X-12580Y-1520D02*
X-12480Y-1620D01*
X-12580Y-1520D02*
Y-1020D01*
X-12480Y-920D01*
X-12080D01*
X-12480Y-350D02*
X-12080D01*
X-12580Y-250D02*
X-12480Y-350D01*
X-12580Y-250D02*
Y250D01*
X-12480Y350D01*
X-12080D01*
X-12480Y920D02*
X-12080D01*
X-12580Y1020D02*
X-12480Y920D01*
X-12580Y1020D02*
Y1520D01*
X-12480Y1620D01*
X-12080D01*
X-12480Y2190D02*
X-12080D01*
X-12580Y2290D02*
X-12480Y2190D01*
X-12580Y2290D02*
Y2790D01*
X-12480Y2890D01*
X-12080D01*
X-12480Y3460D02*
X-12080D01*
X-12580Y3560D02*
X-12480Y3460D01*
X-12580Y3560D02*
Y4060D01*
X-12480Y4160D01*
X-12080D01*
X-12480Y4730D02*
X-12080D01*
X-12580Y4830D02*
X-12480Y4730D01*
X-12580Y4830D02*
Y5330D01*
X-12480Y5430D01*
X-12080D01*
X-12480Y6000D02*
X-12080D01*
X-12580Y6100D02*
X-12480Y6000D01*
X-12580Y6100D02*
Y6600D01*
X-12480Y6700D01*
X-12080D01*
X-12480Y7270D02*
X-12080D01*
X-12580Y7370D02*
X-12480Y7270D01*
X-12580Y7370D02*
Y7870D01*
X-12480Y7970D01*
X-12080D01*
X-12480Y8540D02*
X-12080D01*
X-12580Y8640D02*
X-12480Y8540D01*
X-12580Y8640D02*
Y9140D01*
X-12480Y9240D01*
X-12080D01*
X-12480Y9810D02*
X-12080D01*
X-12580Y9910D02*
X-12480Y9810D01*
X-12580Y9910D02*
Y10410D01*
X-12480Y10510D01*
X-12080D01*
X-10510Y12080D02*
Y12480D01*
X-10410Y12580D01*
X-9910D01*
X-9810Y12480D01*
Y12080D02*
Y12480D01*
X-9240Y12080D02*
Y12480D01*
X-9140Y12580D01*
X-8640D01*
X-8540Y12480D01*
Y12080D02*
Y12480D01*
X-7970Y12080D02*
Y12480D01*
X-7870Y12580D01*
X-7370D01*
X-7270Y12480D01*
Y12080D02*
Y12480D01*
X-6700Y12080D02*
Y12480D01*
X-6600Y12580D01*
X-6100D01*
X-6000Y12480D01*
Y12080D02*
Y12480D01*
X-5430Y12080D02*
Y12480D01*
X-5330Y12580D01*
X-4830D01*
X-4730Y12480D01*
Y12080D02*
Y12480D01*
X-4160Y12080D02*
Y12480D01*
X-4060Y12580D01*
X-3560D01*
X-3460Y12480D01*
Y12080D02*
Y12480D01*
X-2890Y12080D02*
Y12480D01*
X-2790Y12580D01*
X-2290D01*
X-2190Y12480D01*
Y12080D02*
Y12480D01*
X-1620Y12080D02*
Y12480D01*
X-1520Y12580D01*
X-1020D01*
X-920Y12480D01*
Y12080D02*
Y12480D01*
X-350Y12080D02*
Y12480D01*
X-250Y12580D01*
X250D01*
X350Y12480D01*
Y12080D02*
Y12480D01*
X920Y12080D02*
Y12480D01*
X1020Y12580D01*
X1520D01*
X1620Y12480D01*
Y12080D02*
Y12480D01*
X2190Y12080D02*
Y12480D01*
X2290Y12580D01*
X2790D01*
X2890Y12480D01*
Y12080D02*
Y12480D01*
X3460Y12080D02*
Y12480D01*
X3560Y12580D01*
X4060D01*
X4160Y12480D01*
Y12080D02*
Y12480D01*
X4730Y12080D02*
Y12480D01*
X4830Y12580D01*
X5330D01*
X5430Y12480D01*
Y12080D02*
Y12480D01*
X6000Y12080D02*
Y12480D01*
X6100Y12580D01*
X6600D01*
X6700Y12480D01*
Y12080D02*
Y12480D01*
X7270Y12080D02*
Y12480D01*
X7370Y12580D01*
X7870D01*
X7970Y12480D01*
Y12080D02*
Y12480D01*
X8540Y12080D02*
Y12480D01*
X8640Y12580D01*
X9140D01*
X9240Y12480D01*
Y12080D02*
Y12480D01*
X9810Y12080D02*
Y12480D01*
X9910Y12580D01*
X10410D01*
X10510Y12480D01*
Y12080D02*
Y12480D01*
X12080Y10510D02*
X12480D01*
X12580Y10410D01*
Y9910D02*
Y10410D01*
X12480Y9810D02*
X12580Y9910D01*
X12080Y9810D02*
X12480D01*
X12080Y9240D02*
X12480D01*
X12580Y9140D01*
Y8640D02*
Y9140D01*
X12480Y8540D02*
X12580Y8640D01*
X12080Y8540D02*
X12480D01*
X12080Y7970D02*
X12480D01*
X12580Y7870D01*
Y7370D02*
Y7870D01*
X12480Y7270D02*
X12580Y7370D01*
X12080Y7270D02*
X12480D01*
X12080Y6700D02*
X12480D01*
X12580Y6600D01*
Y6100D02*
Y6600D01*
X12480Y6000D02*
X12580Y6100D01*
X12080Y6000D02*
X12480D01*
X12080Y5430D02*
X12480D01*
X12580Y5330D01*
Y4830D02*
Y5330D01*
X12480Y4730D02*
X12580Y4830D01*
X12080Y4730D02*
X12480D01*
X12080Y4160D02*
X12480D01*
X12580Y4060D01*
Y3560D02*
Y4060D01*
X12480Y3460D02*
X12580Y3560D01*
X12080Y3460D02*
X12480D01*
X12080Y2890D02*
X12480D01*
X12580Y2790D01*
Y2290D02*
Y2790D01*
X12480Y2190D02*
X12580Y2290D01*
X12080Y2190D02*
X12480D01*
X12080Y1620D02*
X12480D01*
X12580Y1520D01*
Y1020D02*
Y1520D01*
X12480Y920D02*
X12580Y1020D01*
X12080Y920D02*
X12480D01*
X12080Y350D02*
X12480D01*
X12580Y250D01*
Y-250D02*
Y250D01*
X12480Y-350D02*
X12580Y-250D01*
X12080Y-350D02*
X12480D01*
X12080Y-920D02*
X12480D01*
X12580Y-1020D01*
Y-1520D02*
Y-1020D01*
X12480Y-1620D02*
X12580Y-1520D01*
X12080Y-1620D02*
X12480D01*
X12080Y-2190D02*
X12480D01*
X12580Y-2290D01*
Y-2790D02*
Y-2290D01*
X12480Y-2890D02*
X12580Y-2790D01*
X12080Y-2890D02*
X12480D01*
X12080Y-3460D02*
X12480D01*
X12580Y-3560D01*
Y-4060D02*
Y-3560D01*
X12480Y-4160D02*
X12580Y-4060D01*
X12080Y-4160D02*
X12480D01*
X12080Y-4730D02*
X12480D01*
X12580Y-4830D01*
Y-5330D02*
Y-4830D01*
X12480Y-5430D02*
X12580Y-5330D01*
X12080Y-5430D02*
X12480D01*
X12080Y-6000D02*
X12480D01*
X12580Y-6100D01*
Y-6600D02*
Y-6100D01*
X12480Y-6700D02*
X12580Y-6600D01*
X12080Y-6700D02*
X12480D01*
X12080Y-7270D02*
X12480D01*
X12580Y-7370D01*
Y-7870D02*
Y-7370D01*
X12480Y-7970D02*
X12580Y-7870D01*
X12080Y-7970D02*
X12480D01*
X12080Y-8540D02*
X12480D01*
X12580Y-8640D01*
Y-9140D02*
Y-8640D01*
X12480Y-9240D02*
X12580Y-9140D01*
X12080Y-9240D02*
X12480D01*
X12080Y-9810D02*
X12480D01*
X12580Y-9910D01*
Y-10410D02*
Y-9910D01*
X12480Y-10510D02*
X12580Y-10410D01*
X12080Y-10510D02*
X12480D01*
X10510Y-12480D02*
Y-12080D01*
X10410Y-12580D02*
X10510Y-12480D01*
X9910Y-12580D02*
X10410D01*
X9810Y-12480D02*
X9910Y-12580D01*
X9810Y-12480D02*
Y-12080D01*
X9240Y-12480D02*
Y-12080D01*
X9140Y-12580D02*
X9240Y-12480D01*
X8640Y-12580D02*
X9140D01*
X8540Y-12480D02*
X8640Y-12580D01*
X8540Y-12480D02*
Y-12080D01*
X7970Y-12480D02*
Y-12080D01*
X7870Y-12580D02*
X7970Y-12480D01*
X7370Y-12580D02*
X7870D01*
X7270Y-12480D02*
X7370Y-12580D01*
X7270Y-12480D02*
Y-12080D01*
X6700Y-12480D02*
Y-12080D01*
X6600Y-12580D02*
X6700Y-12480D01*
X6100Y-12580D02*
X6600D01*
X6000Y-12480D02*
X6100Y-12580D01*
X6000Y-12480D02*
Y-12080D01*
X5430Y-12480D02*
Y-12080D01*
X5330Y-12580D02*
X5430Y-12480D01*
X4830Y-12580D02*
X5330D01*
X4730Y-12480D02*
X4830Y-12580D01*
X4730Y-12480D02*
Y-12080D01*
X4160Y-12480D02*
Y-12080D01*
X4060Y-12580D02*
X4160Y-12480D01*
X3560Y-12580D02*
X4060D01*
X3460Y-12480D02*
X3560Y-12580D01*
X3460Y-12480D02*
Y-12080D01*
X2890Y-12480D02*
Y-12080D01*
X2790Y-12580D02*
X2890Y-12480D01*
X2290Y-12580D02*
X2790D01*
X2190Y-12480D02*
X2290Y-12580D01*
X2190Y-12480D02*
Y-12080D01*
X1620Y-12480D02*
Y-12080D01*
X1520Y-12580D02*
X1620Y-12480D01*
X1020Y-12580D02*
X1520D01*
X920Y-12480D02*
X1020Y-12580D01*
X920Y-12480D02*
Y-12080D01*
X350Y-12480D02*
Y-12080D01*
X250Y-12580D02*
X350Y-12480D01*
X-250Y-12580D02*
X250D01*
X-350Y-12480D02*
X-250Y-12580D01*
X-350Y-12480D02*
Y-12080D01*
X-920Y-12480D02*
Y-12080D01*
X-1020Y-12580D02*
X-920Y-12480D01*
X-1520Y-12580D02*
X-1020D01*
X-1620Y-12480D02*
X-1520Y-12580D01*
X-1620Y-12480D02*
Y-12080D01*
X-2190Y-12480D02*
Y-12080D01*
X-2290Y-12580D02*
X-2190Y-12480D01*
X-2790Y-12580D02*
X-2290D01*
X-2890Y-12480D02*
X-2790Y-12580D01*
X-2890Y-12480D02*
Y-12080D01*
X-3460Y-12480D02*
Y-12080D01*
X-3560Y-12580D02*
X-3460Y-12480D01*
X-4060Y-12580D02*
X-3560D01*
X-4160Y-12480D02*
X-4060Y-12580D01*
X-4160Y-12480D02*
Y-12080D01*
X-4730Y-12480D02*
Y-12080D01*
X-4830Y-12580D02*
X-4730Y-12480D01*
X-5330Y-12580D02*
X-4830D01*
X-5430Y-12480D02*
X-5330Y-12580D01*
X-5430Y-12480D02*
Y-12080D01*
X-6000Y-12480D02*
Y-12080D01*
X-6100Y-12580D02*
X-6000Y-12480D01*
X-6600Y-12580D02*
X-6100D01*
X-6700Y-12480D02*
X-6600Y-12580D01*
X-6700Y-12480D02*
Y-12080D01*
X-7270Y-12480D02*
Y-12080D01*
X-7370Y-12580D02*
X-7270Y-12480D01*
X-7870Y-12580D02*
X-7370D01*
X-7970Y-12480D02*
X-7870Y-12580D01*
X-7970Y-12480D02*
Y-12080D01*
X-8540Y-12480D02*
Y-12080D01*
X-8640Y-12580D02*
X-8540Y-12480D01*
X-9140Y-12580D02*
X-8640D01*
X-9240Y-12480D02*
X-9140Y-12580D01*
X-9240Y-12480D02*
Y-12080D01*
X-9810Y-12480D02*
Y-12080D01*
X-9910Y-12580D02*
X-9810Y-12480D01*
X-10410Y-12580D02*
X-9910D01*
X-10510Y-12480D02*
X-10410Y-12580D01*
X-10510Y-12480D02*
Y-12080D01*
X-12446Y-10465D02*
X-12090D01*
X-12573Y-10338D02*
X-12446Y-10465D01*
X-12573Y-10338D02*
Y-9982D01*
X-12446Y-9855D01*
X-12090D01*
X-12080Y-9810D02*
Y-9240D01*
Y-8540D02*
Y-7970D01*
Y-7270D02*
Y-6700D01*
Y-6000D02*
Y-5430D01*
Y-4730D02*
Y-4160D01*
Y-3460D02*
Y-2890D01*
Y-2190D02*
Y-1620D01*
Y-920D02*
Y-350D01*
Y350D02*
Y920D01*
Y1620D02*
Y2190D01*
Y2890D02*
Y3460D01*
Y4160D02*
Y4730D01*
Y5430D02*
Y6000D01*
Y6700D02*
Y7270D01*
Y7970D02*
Y8540D01*
Y9240D02*
Y9810D01*
X-9810Y12080D02*
X-9240D01*
X-8540D02*
X-7970D01*
X-7270D02*
X-6700D01*
X-6000D02*
X-5430D01*
X-4730D02*
X-4160D01*
X-3460D02*
X-2890D01*
X-2190D02*
X-1620D01*
X-920D02*
X-350D01*
X350D02*
X920D01*
X1620D02*
X2190D01*
X2890D02*
X3460D01*
X4160D02*
X4730D01*
X5430D02*
X6000D01*
X6700D02*
X7270D01*
X7970D02*
X8540D01*
X9240D02*
X9810D01*
X12080Y9240D02*
Y9810D01*
Y7970D02*
Y8540D01*
Y6700D02*
Y7270D01*
Y5430D02*
Y6000D01*
Y4160D02*
Y4730D01*
Y2890D02*
Y3460D01*
Y1620D02*
Y2190D01*
Y350D02*
Y920D01*
Y-920D02*
Y-350D01*
Y-2190D02*
Y-1620D01*
Y-3460D02*
Y-2890D01*
Y-4730D02*
Y-4160D01*
Y-6000D02*
Y-5430D01*
Y-7270D02*
Y-6700D01*
Y-8540D02*
Y-7970D01*
Y-9810D02*
Y-9240D01*
X10510Y-12080D02*
X12080D01*
Y-10510D01*
X10510Y12080D02*
X12080D01*
Y10510D02*
Y12080D01*
X-12080Y10510D02*
Y12080D01*
X-10510D01*
X-12080Y-10510D02*
X-10510Y-12080D01*
D39*
X-11880Y-8890D02*
D03*
Y-7620D02*
D03*
X11880Y-5080D02*
D03*
Y-8890D02*
D03*
D40*
X-11880Y0D02*
D03*
D41*
X5080Y11880D02*
D03*
X-5080Y-11880D02*
D03*
X-6350D02*
D03*
X-8890D02*
D03*
X-10160D02*
D03*
D43*
X4200Y4900D02*
D03*
X2200Y-7000D02*
D03*
X-6000Y-5900D02*
D03*
X6600Y5700D02*
D03*
X3400Y2500D02*
D03*
X-9000Y-10400D02*
D03*
Y-9800D02*
D03*
Y-10100D02*
D03*
X-7000Y-10850D02*
D03*
X-6105Y-8465D02*
D03*
X-7175Y-775D02*
D03*
X-1660Y-10460D02*
D03*
X-9525Y11000D02*
D03*
X-3500Y4700D02*
D03*
X-3100Y1200D02*
D03*
X4700Y10500D02*
D03*
X5700D02*
D03*
X8300D02*
D03*
X10100D02*
D03*
X-5850Y6700D02*
D03*
X-4550D02*
D03*
X-10600Y-7800D02*
D03*
Y-7400D02*
D03*
Y-7000D02*
D03*
X-4200Y-7300D02*
D03*
X-5000D02*
D03*
X-4600D02*
D03*
X-5400D02*
D03*
X10000Y-5900D02*
D03*
Y-6800D02*
D03*
X10500Y-4900D02*
D03*
X8700D02*
D03*
X7800D02*
D03*
X-1000Y-10200D02*
D03*
X-5300Y5600D02*
D03*
X-4700Y7800D02*
D03*
X-7200Y9500D02*
D03*
Y10100D02*
D03*
X-7800D02*
D03*
Y9500D02*
D03*
X6800Y-3300D02*
D03*
X9000Y-2300D02*
D03*
X1500Y-7000D02*
D03*
X-1000Y-8000D02*
D03*
X10000Y-7600D02*
D03*
X-7000Y-2600D02*
D03*
X-7100Y5600D02*
D03*
X-4800Y-8200D02*
D03*
X6600Y900D02*
D03*
X9000Y4900D02*
D03*
Y1700D02*
D03*
X8200Y5700D02*
D03*
Y7300D02*
D03*
X9800Y8900D02*
D03*
X5800Y7300D02*
D03*
Y8100D02*
D03*
X4700Y-6000D02*
D03*
X6800Y-9300D02*
D03*
X1000Y-10500D02*
D03*
X1900D02*
D03*
X2800D02*
D03*
X3700D02*
D03*
X500Y-8100D02*
D03*
X4200Y6500D02*
D03*
X3400Y5700D02*
D03*
X2600D02*
D03*
Y6500D02*
D03*
X-3100Y7050D02*
D03*
X4400Y-8200D02*
D03*
X5000Y8100D02*
D03*
X8200Y-700D02*
D03*
X9000Y-3100D02*
D03*
X7400Y4900D02*
D03*
X-1200Y-9100D02*
D03*
X9700Y9900D02*
D03*
X-1000Y-5000D02*
D03*
D44*
X-8500Y-9100D02*
D03*
X-7500Y1500D02*
D03*
Y2500D02*
D03*
X-6500D02*
D03*
Y1500D02*
D03*
Y500D02*
D03*
X-7500D02*
D03*
X-5500D02*
D03*
Y1500D02*
D03*
Y2500D02*
D03*
X-10100Y-4300D02*
D03*
X-9500D02*
D03*
X-10300Y6600D02*
D03*
X-9700D02*
D03*
D45*
X-7175Y3875D02*
D03*
X6200Y-3300D02*
D03*
X3100D02*
D03*
X2200D02*
D03*
D46*
X2200Y3900D02*
Y5300D01*
Y3900D02*
X2400Y3700D01*
X3000Y4000D02*
X4800Y2200D01*
X3000Y4000D02*
Y5300D01*
X3600Y4500D02*
X5000Y3100D01*
X3600Y4500D02*
Y5350D01*
X2600Y-8900D02*
Y-5600D01*
X3500Y-4700D01*
Y-2800D01*
X4400Y-1900D01*
Y2017D01*
X2917Y3500D02*
X4400Y2017D01*
X2300Y3500D02*
X2917D01*
X4600Y-2100D02*
Y2100D01*
X3000Y3700D02*
X4600Y2100D01*
X2400Y3700D02*
X3000D01*
X4800Y-2300D02*
Y2200D01*
X2100Y3700D02*
X2300Y3500D01*
X1500Y3700D02*
X2100D01*
X1400Y3800D02*
X1500Y3700D01*
X1400Y3800D02*
Y5300D01*
X2600Y6500D01*
X2200Y5300D02*
X2600Y5700D01*
X3800Y-2900D02*
X4600Y-2100D01*
X3800Y-4800D02*
Y-2900D01*
X2875Y-5725D02*
X3800Y-4800D01*
X2875Y-9525D02*
Y-5725D01*
X3175Y-10125D02*
Y-5825D01*
X4100Y-4900D01*
Y-3000D01*
X4800Y-2300D01*
X3000Y5300D02*
X3400Y5700D01*
X5000Y-4400D02*
Y3100D01*
X3475Y-5925D02*
X5000Y-4400D01*
X3475Y-10275D02*
Y-5925D01*
X1900Y-10500D02*
X2875Y-9525D01*
X2800Y-10500D02*
X3175Y-10125D01*
X3475Y-10275D02*
X3700Y-10500D01*
X1000D02*
X2600Y-8900D01*
X4200Y5950D02*
Y6500D01*
X3600Y5350D02*
X4200Y5950D01*
M02*
