G04 Layer_Physical_Order=6*
G04 Layer_Color=57008*
%FSLAX43Y43*%
%MOMM*%
G71*
G01*
G75*
%ADD32C,1.000*%
%ADD33C,0.150*%
%ADD34C,0.250*%
%ADD35C,0.200*%
G04:AMPARAMS|DCode=39|XSize=0.7mm|YSize=1.6mm|CornerRadius=0.175mm|HoleSize=0mm|Usage=FLASHONLY|Rotation=90.000|XOffset=0mm|YOffset=0mm|HoleType=Round|Shape=RoundedRectangle|*
%AMROUNDEDRECTD39*
21,1,0.700,1.250,0,0,90.0*
21,1,0.350,1.600,0,0,90.0*
1,1,0.350,0.625,0.175*
1,1,0.350,0.625,-0.175*
1,1,0.350,-0.625,-0.175*
1,1,0.350,-0.625,0.175*
%
%ADD39ROUNDEDRECTD39*%
%ADD40R,1.600X0.700*%
G04:AMPARAMS|DCode=41|XSize=0.7mm|YSize=1.6mm|CornerRadius=0.175mm|HoleSize=0mm|Usage=FLASHONLY|Rotation=0.000|XOffset=0mm|YOffset=0mm|HoleType=Round|Shape=RoundedRectangle|*
%AMROUNDEDRECTD41*
21,1,0.700,1.250,0,0,0.0*
21,1,0.350,1.600,0,0,0.0*
1,1,0.350,0.175,-0.625*
1,1,0.350,-0.175,-0.625*
1,1,0.350,-0.175,0.625*
1,1,0.350,0.175,0.625*
%
%ADD41ROUNDEDRECTD41*%
%ADD43C,0.400*%
%ADD46C,0.100*%
G36*
X-2111Y10749D02*
X-2053Y10710D01*
X-1985Y10697D01*
X-1049D01*
X874Y8774D01*
X932Y8735D01*
X1000Y8722D01*
X1558D01*
X1584Y8684D01*
X1683Y8617D01*
X1800Y8594D01*
X1894Y8500D01*
X1913Y8405D01*
X1869Y8322D01*
X1834Y8278D01*
X1600D01*
X1532Y8265D01*
X1474Y8226D01*
X1421Y8173D01*
X1283Y8215D01*
X1283Y8217D01*
X1216Y8316D01*
X1117Y8383D01*
X1000Y8406D01*
X883Y8383D01*
X784Y8316D01*
X717Y8217D01*
X717Y8215D01*
X579Y8173D01*
X-74Y8826D01*
X-132Y8865D01*
X-200Y8878D01*
X-1535D01*
X-1569Y8922D01*
X-1613Y9005D01*
X-1594Y9100D01*
X-1617Y9217D01*
X-1684Y9316D01*
X-1783Y9383D01*
X-1900Y9406D01*
X-1945Y9397D01*
X-2122Y9574D01*
Y10200D01*
X-2135Y10268D01*
X-2174Y10326D01*
X-2695Y10848D01*
X-2643Y10975D01*
X-2365D01*
X-2342Y10979D01*
X-2111Y10749D01*
D02*
G37*
G36*
X1856Y6939D02*
X1894Y6900D01*
X1917Y6783D01*
X1984Y6684D01*
X2083Y6617D01*
X2200Y6594D01*
X2294Y6500D01*
X2317Y6383D01*
X2384Y6284D01*
X2483Y6217D01*
X2600Y6194D01*
X2717Y6217D01*
X2816Y6284D01*
X2883Y6383D01*
X2906Y6500D01*
X3000Y6594D01*
X3094Y6500D01*
X3117Y6383D01*
X3184Y6284D01*
X3283Y6217D01*
X3400Y6194D01*
X3431Y6164D01*
X3431Y6037D01*
X3400Y6006D01*
X3283Y5983D01*
X3184Y5916D01*
X3117Y5817D01*
X3094Y5700D01*
X3117Y5583D01*
X3184Y5484D01*
X3283Y5417D01*
X3400Y5394D01*
X3517Y5417D01*
X3616Y5484D01*
X3683Y5583D01*
X3706Y5700D01*
X3800Y5794D01*
X3917Y5817D01*
X4016Y5884D01*
X4083Y5983D01*
X4106Y6100D01*
X4200Y6194D01*
X4317Y6217D01*
X4416Y6284D01*
X4483Y6383D01*
X4500Y6468D01*
X4589Y6512D01*
X4629Y6518D01*
X5974Y5174D01*
X6032Y5135D01*
X6100Y5122D01*
X7034D01*
X7069Y5078D01*
X7113Y4995D01*
X7094Y4900D01*
X7117Y4783D01*
X7184Y4684D01*
X7283Y4617D01*
X7400Y4594D01*
X7517Y4617D01*
X7616Y4684D01*
X7683Y4783D01*
X7706Y4900D01*
X7690Y4979D01*
X7772Y5078D01*
X7828D01*
X7910Y4979D01*
X7894Y4900D01*
X7917Y4783D01*
X7984Y4684D01*
X8083Y4617D01*
X8200Y4594D01*
X8295Y4613D01*
X8378Y4569D01*
X8422Y4535D01*
Y3666D01*
X8378Y3631D01*
X8295Y3587D01*
X8200Y3606D01*
X8083Y3583D01*
X7984Y3516D01*
X7917Y3417D01*
X7894Y3300D01*
X7917Y3183D01*
X7984Y3084D01*
X8083Y3017D01*
X8200Y2994D01*
X8279Y3010D01*
X8378Y2928D01*
Y2872D01*
X8279Y2790D01*
X8200Y2806D01*
X8083Y2783D01*
X7984Y2716D01*
X7917Y2617D01*
X7894Y2500D01*
X7903Y2455D01*
X7807Y2360D01*
X7690Y2422D01*
X7706Y2500D01*
X7683Y2617D01*
X7616Y2716D01*
X7517Y2783D01*
X7400Y2806D01*
X7283Y2783D01*
X7184Y2716D01*
X7117Y2617D01*
X7094Y2500D01*
X7117Y2383D01*
X7184Y2284D01*
X7283Y2217D01*
X7400Y2194D01*
X7473Y2209D01*
X7571Y2134D01*
X7585Y2111D01*
X7583Y2069D01*
X7471Y1992D01*
X7400Y2006D01*
X7283Y1983D01*
X7184Y1916D01*
X7117Y1817D01*
X7094Y1700D01*
X7117Y1583D01*
X7184Y1484D01*
X7283Y1417D01*
X7400Y1394D01*
X7495Y1413D01*
X7578Y1369D01*
X7622Y1335D01*
Y1174D01*
X5074Y-1374D01*
X5035Y-1432D01*
X5022Y-1500D01*
Y-3072D01*
X4895Y-3111D01*
X4852Y-3048D01*
X4737Y-2970D01*
X4600Y-2943D01*
X4463Y-2970D01*
X4348Y-3048D01*
X4270Y-3163D01*
X4243Y-3300D01*
X4270Y-3437D01*
X4348Y-3552D01*
X4463Y-3630D01*
X4600Y-3657D01*
X4737Y-3630D01*
X4852Y-3552D01*
X4895Y-3489D01*
X5022Y-3528D01*
Y-6026D01*
X1144Y-9904D01*
X1105Y-9962D01*
X1092Y-10030D01*
Y-10975D01*
X988Y-10996D01*
X897Y-11057D01*
X836Y-11148D01*
X815Y-11255D01*
Y-11430D01*
X455D01*
Y-11255D01*
X434Y-11148D01*
X373Y-11057D01*
X282Y-10996D01*
X175Y-10975D01*
X144D01*
X95Y-10857D01*
X426Y-10526D01*
X465Y-10468D01*
X478Y-10400D01*
Y-9942D01*
X516Y-9916D01*
X583Y-9817D01*
X606Y-9700D01*
X583Y-9583D01*
X516Y-9484D01*
X417Y-9417D01*
X300Y-9394D01*
X277Y-9399D01*
X253Y-9383D01*
X180Y-9289D01*
X217Y-9100D01*
X171Y-8868D01*
X39Y-8671D01*
X-158Y-8539D01*
X-390Y-8493D01*
X-622Y-8539D01*
X-819Y-8671D01*
X-903Y-8796D01*
X-965Y-8863D01*
X-1066Y-8829D01*
X-1083Y-8817D01*
X-1200Y-8794D01*
X-1317Y-8817D01*
X-1416Y-8884D01*
X-1483Y-8983D01*
X-1506Y-9100D01*
X-1483Y-9217D01*
X-1416Y-9316D01*
X-1317Y-9383D01*
X-1200Y-9406D01*
X-1083Y-9383D01*
X-1066Y-9371D01*
X-965Y-9337D01*
X-903Y-9404D01*
X-819Y-9529D01*
X-622Y-9661D01*
X-390Y-9707D01*
X-158Y-9661D01*
X-123Y-9638D01*
X-49Y-9677D01*
X-4Y-9711D01*
X17Y-9817D01*
X35Y-9844D01*
X-56Y-9935D01*
X-83Y-9917D01*
X-200Y-9894D01*
X-317Y-9917D01*
X-416Y-9984D01*
X-483Y-10083D01*
X-506Y-10200D01*
X-483Y-10317D01*
X-416Y-10416D01*
X-317Y-10483D01*
X-309Y-10484D01*
X-244Y-10622D01*
X-255Y-10642D01*
X-293Y-10672D01*
X-1299D01*
X-1371Y-10545D01*
X-1354Y-10460D01*
X-1377Y-10343D01*
X-1444Y-10244D01*
X-1482Y-10218D01*
Y-10040D01*
X-1495Y-9972D01*
X-1534Y-9914D01*
X-1874Y-9574D01*
X-1932Y-9535D01*
X-2000Y-9522D01*
X-3826D01*
X-5022Y-8326D01*
Y-8150D01*
X-5035Y-8082D01*
X-5074Y-8024D01*
X-5369Y-7729D01*
X-5327Y-7591D01*
X-5283Y-7583D01*
X-5200Y-7527D01*
X-5117Y-7583D01*
X-5000Y-7606D01*
X-4883Y-7583D01*
X-4800Y-7527D01*
X-4717Y-7583D01*
X-4600Y-7606D01*
X-4483Y-7583D01*
X-4400Y-7527D01*
X-4317Y-7583D01*
X-4200Y-7606D01*
X-4083Y-7583D01*
X-3984Y-7516D01*
X-3917Y-7417D01*
X-3894Y-7300D01*
X-3917Y-7183D01*
X-3984Y-7084D01*
X-4083Y-7017D01*
X-4200Y-6994D01*
X-4317Y-7017D01*
X-4400Y-7073D01*
X-4483Y-7017D01*
X-4600Y-6994D01*
X-4717Y-7017D01*
X-4800Y-7073D01*
X-4883Y-7017D01*
X-5000Y-6994D01*
X-5117Y-7017D01*
X-5200Y-7073D01*
X-5283Y-7017D01*
X-5400Y-6994D01*
X-5517Y-7017D01*
X-5595Y-7069D01*
X-5674Y-7045D01*
X-5722Y-7013D01*
Y-6800D01*
X-5735Y-6732D01*
X-5774Y-6674D01*
X-6140Y-6307D01*
X-6078Y-6190D01*
X-6000Y-6206D01*
X-5883Y-6183D01*
X-5784Y-6116D01*
X-5717Y-6017D01*
X-5694Y-5900D01*
X-5717Y-5783D01*
X-5784Y-5684D01*
X-5883Y-5617D01*
X-6000Y-5594D01*
X-6117Y-5617D01*
X-6216Y-5684D01*
X-6283Y-5783D01*
X-6306Y-5900D01*
X-6290Y-5978D01*
X-6407Y-6040D01*
X-10979Y-1468D01*
X-10975Y-1445D01*
Y-1095D01*
X-10996Y-988D01*
X-11057Y-897D01*
X-11148Y-836D01*
X-11255Y-815D01*
X-11430D01*
Y815D01*
X-11255D01*
X-11148Y836D01*
X-11057Y897D01*
X-10996Y988D01*
X-10975Y1095D01*
Y1445D01*
X-10996Y1552D01*
X-11057Y1643D01*
X-11148Y1704D01*
X-11255Y1725D01*
X-11430D01*
Y2085D01*
X-11255D01*
X-11148Y2106D01*
X-11057Y2167D01*
X-10996Y2258D01*
X-10975Y2365D01*
Y2715D01*
X-10996Y2822D01*
X-11057Y2913D01*
X-11148Y2974D01*
X-11255Y2995D01*
X-11430D01*
Y3355D01*
X-11255D01*
X-11148Y3376D01*
X-11057Y3437D01*
X-10996Y3528D01*
X-10986Y3578D01*
X-10870Y3637D01*
X-10848Y3638D01*
X-10817Y3617D01*
X-10700Y3594D01*
X-10655Y3603D01*
X-9526Y2474D01*
X-9468Y2435D01*
X-9400Y2422D01*
X-4500D01*
X-4432Y2435D01*
X-4374Y2474D01*
X-126Y6722D01*
X1400D01*
X1468Y6735D01*
X1526Y6774D01*
X1694Y6942D01*
X1856Y6939D01*
D02*
G37*
G36*
X-7678Y-7274D02*
Y-7437D01*
X-7714Y-7468D01*
X-7805Y-7518D01*
X-8010Y-7477D01*
X-8242Y-7523D01*
X-8439Y-7655D01*
X-8571Y-7852D01*
X-8617Y-8084D01*
X-8571Y-8316D01*
X-8471Y-8467D01*
X-8481Y-8511D01*
X-8527Y-8596D01*
X-8695Y-8629D01*
X-8861Y-8740D01*
X-8971Y-8905D01*
X-9010Y-9100D01*
X-8971Y-9295D01*
X-8861Y-9460D01*
X-8695Y-9571D01*
X-8527Y-9604D01*
X-8481Y-9689D01*
X-8471Y-9733D01*
X-8571Y-9884D01*
X-8617Y-10116D01*
X-8571Y-10348D01*
X-8439Y-10545D01*
X-8242Y-10677D01*
X-8010Y-10723D01*
X-7778Y-10677D01*
X-7581Y-10545D01*
X-7449Y-10348D01*
X-7403Y-10116D01*
X-7449Y-9884D01*
X-7581Y-9687D01*
X-7778Y-9555D01*
X-8010Y-9509D01*
X-8021Y-9511D01*
X-8097Y-9397D01*
X-8029Y-9295D01*
X-7990Y-9100D01*
X-8029Y-8905D01*
X-8097Y-8803D01*
X-8021Y-8689D01*
X-8010Y-8691D01*
X-7778Y-8645D01*
X-7581Y-8513D01*
X-7449Y-8316D01*
X-7403Y-8084D01*
X-7406Y-8068D01*
X-7294Y-8008D01*
X-6378Y-8924D01*
Y-9958D01*
X-6416Y-9984D01*
X-6483Y-10083D01*
X-6506Y-10200D01*
X-6483Y-10317D01*
X-6416Y-10416D01*
X-6317Y-10483D01*
X-6200Y-10506D01*
X-6083Y-10483D01*
X-5984Y-10416D01*
X-5917Y-10317D01*
X-5894Y-10200D01*
X-5917Y-10083D01*
X-5984Y-9984D01*
X-6022Y-9958D01*
Y-9497D01*
X-5904Y-9448D01*
X-5197Y-10155D01*
X-5206Y-10200D01*
X-5183Y-10317D01*
X-5116Y-10416D01*
X-5017Y-10483D01*
X-4900Y-10506D01*
X-4783Y-10483D01*
X-4684Y-10416D01*
X-4638Y-10348D01*
X-4496Y-10310D01*
X-4230Y-10576D01*
X-4172Y-10615D01*
X-4104Y-10628D01*
X-3777D01*
X-3542Y-10864D01*
X-3605Y-10981D01*
X-3635Y-10975D01*
X-3985D01*
X-4092Y-10996D01*
X-4183Y-11057D01*
X-4244Y-11148D01*
X-4265Y-11255D01*
Y-11430D01*
X-4625D01*
Y-11255D01*
X-4646Y-11148D01*
X-4707Y-11057D01*
X-4798Y-10996D01*
X-4905Y-10975D01*
X-5255D01*
X-5362Y-10996D01*
X-5453Y-11057D01*
X-5514Y-11148D01*
X-5535Y-11255D01*
Y-11430D01*
X-5895D01*
Y-11255D01*
X-5916Y-11148D01*
X-5977Y-11057D01*
X-6068Y-10996D01*
X-6175Y-10975D01*
X-6525D01*
X-6592Y-10988D01*
X-6682Y-10920D01*
X-6702Y-10890D01*
X-6694Y-10850D01*
X-6717Y-10733D01*
X-6784Y-10634D01*
X-6883Y-10567D01*
X-7000Y-10544D01*
X-7117Y-10567D01*
X-7216Y-10634D01*
X-7283Y-10733D01*
X-7306Y-10850D01*
X-7300Y-10880D01*
X-7409Y-10982D01*
X-7445Y-10975D01*
X-7795D01*
X-7902Y-10996D01*
X-7993Y-11057D01*
X-8054Y-11148D01*
X-8075Y-11255D01*
Y-11430D01*
X-9548D01*
X-9548Y-11430D01*
Y-9440D01*
X-9595Y-9206D01*
X-9727Y-9007D01*
X-10277Y-8457D01*
X-10476Y-8325D01*
X-10710Y-8278D01*
X-11430D01*
Y-6805D01*
X-11255D01*
X-11148Y-6784D01*
X-11057Y-6723D01*
X-10996Y-6632D01*
X-10975Y-6528D01*
X-8424D01*
X-7678Y-7274D01*
D02*
G37*
G36*
X-8075Y11255D02*
X-8054Y11148D01*
X-7993Y11057D01*
X-7902Y10996D01*
X-7795Y10975D01*
X-7445D01*
X-7389Y10986D01*
X-7355Y10964D01*
X-7291Y10890D01*
X-7289Y10886D01*
X-7306Y10800D01*
X-7283Y10683D01*
X-7216Y10584D01*
X-7117Y10517D01*
X-7000Y10494D01*
X-6883Y10517D01*
X-6784Y10584D01*
X-6717Y10683D01*
X-6694Y10800D01*
X-6714Y10897D01*
X-6666Y10955D01*
X-6615Y10993D01*
X-6525Y10975D01*
X-6175D01*
X-6152Y10979D01*
X-5446Y10274D01*
X-5388Y10235D01*
X-5320Y10222D01*
X-4148D01*
X-4109Y10095D01*
X-4160Y10060D01*
X-4271Y9895D01*
X-4310Y9700D01*
X-4271Y9505D01*
X-4160Y9340D01*
X-3995Y9229D01*
X-3800Y9190D01*
X-3605Y9229D01*
X-3440Y9340D01*
X-3405Y9391D01*
X-3278Y9352D01*
Y9100D01*
X-3265Y9032D01*
X-3226Y8974D01*
X-2426Y8174D01*
X-2368Y8135D01*
X-2300Y8122D01*
X-374D01*
X542Y7205D01*
X498Y7081D01*
X496Y7078D01*
X-200D01*
X-268Y7065D01*
X-326Y7026D01*
X-4574Y2778D01*
X-9326D01*
X-10403Y3855D01*
X-10394Y3900D01*
X-10417Y4017D01*
X-10484Y4116D01*
X-10583Y4183D01*
X-10700Y4206D01*
X-10817Y4183D01*
X-10885Y4137D01*
X-10927Y4120D01*
X-11041Y4159D01*
X-11057Y4183D01*
X-11148Y4244D01*
X-11255Y4265D01*
X-11430D01*
Y4625D01*
X-11255D01*
X-11148Y4646D01*
X-11057Y4707D01*
X-10996Y4798D01*
X-10975Y4905D01*
Y5255D01*
X-10996Y5362D01*
X-11057Y5453D01*
X-11148Y5514D01*
X-11255Y5535D01*
X-11430D01*
Y5895D01*
X-11255D01*
X-11148Y5916D01*
X-11057Y5977D01*
X-10996Y6068D01*
X-10975Y6175D01*
Y6525D01*
X-10996Y6632D01*
X-11057Y6723D01*
X-11148Y6784D01*
X-11255Y6805D01*
X-11430D01*
Y7165D01*
X-11255D01*
X-11148Y7186D01*
X-11057Y7247D01*
X-10996Y7338D01*
X-10975Y7445D01*
Y7795D01*
X-10996Y7902D01*
X-11057Y7993D01*
X-11148Y8054D01*
X-11255Y8075D01*
X-11430D01*
Y8435D01*
X-11255D01*
X-11148Y8456D01*
X-11057Y8517D01*
X-10996Y8608D01*
X-10975Y8715D01*
Y9065D01*
X-10996Y9172D01*
X-11057Y9263D01*
X-11148Y9324D01*
X-11255Y9345D01*
X-11430D01*
Y9705D01*
X-11255D01*
X-11148Y9726D01*
X-11057Y9787D01*
X-10996Y9878D01*
X-10975Y9985D01*
Y10335D01*
X-10996Y10442D01*
X-11057Y10533D01*
X-11148Y10594D01*
X-11255Y10615D01*
X-11430D01*
Y11430D01*
X-10615D01*
Y11255D01*
X-10594Y11148D01*
X-10533Y11057D01*
X-10442Y10996D01*
X-10335Y10975D01*
X-9985D01*
X-9947Y10982D01*
X-9876Y10993D01*
X-9809Y10890D01*
X-9808Y10883D01*
X-9741Y10784D01*
X-9703Y10758D01*
Y9125D01*
X-9690Y9057D01*
X-9651Y8999D01*
X-4726Y4074D01*
X-4668Y4035D01*
X-4600Y4022D01*
X-4142D01*
X-4116Y3984D01*
X-4017Y3917D01*
X-3900Y3894D01*
X-3783Y3917D01*
X-3684Y3984D01*
X-3617Y4083D01*
X-3594Y4200D01*
X-3617Y4317D01*
X-3684Y4416D01*
X-3783Y4483D01*
X-3900Y4506D01*
X-4017Y4483D01*
X-4116Y4416D01*
X-4142Y4378D01*
X-4526D01*
X-9347Y9199D01*
Y10758D01*
X-9309Y10784D01*
X-9242Y10883D01*
X-9241Y10890D01*
X-9174Y10993D01*
X-9103Y10982D01*
X-9065Y10975D01*
X-8715D01*
X-8608Y10996D01*
X-8517Y11057D01*
X-8456Y11148D01*
X-8435Y11255D01*
Y11430D01*
X-8075D01*
Y11255D01*
D02*
G37*
G36*
X11430Y10615D02*
X11255D01*
X11148Y10594D01*
X11057Y10533D01*
X10996Y10442D01*
X10975Y10335D01*
Y9985D01*
X10996Y9878D01*
X11057Y9787D01*
X11148Y9726D01*
X11255Y9705D01*
X11430D01*
Y9345D01*
X11255D01*
X11148Y9324D01*
X11057Y9263D01*
X10996Y9172D01*
X10975Y9065D01*
Y8715D01*
X10996Y8608D01*
X11057Y8517D01*
X11148Y8456D01*
X11255Y8435D01*
X11430D01*
Y8075D01*
X11255D01*
X11148Y8054D01*
X11057Y7993D01*
X10996Y7902D01*
X10975Y7795D01*
Y7445D01*
X10996Y7338D01*
X11057Y7247D01*
X11148Y7186D01*
X11255Y7165D01*
X11430D01*
Y6805D01*
X11255D01*
X11148Y6784D01*
X11057Y6723D01*
X10996Y6632D01*
X10975Y6525D01*
Y6175D01*
X10996Y6068D01*
X11057Y5977D01*
X11148Y5916D01*
X11255Y5895D01*
X11430D01*
Y5535D01*
X11255D01*
X11148Y5514D01*
X11057Y5453D01*
X10996Y5362D01*
X10975Y5255D01*
Y4905D01*
X10996Y4798D01*
X11057Y4707D01*
X11148Y4646D01*
X11255Y4625D01*
X11430D01*
Y4265D01*
X11255D01*
X11148Y4244D01*
X11057Y4183D01*
X10996Y4092D01*
X10975Y3985D01*
Y3635D01*
X10996Y3528D01*
X11057Y3437D01*
X11148Y3376D01*
X11255Y3355D01*
X11430D01*
Y2995D01*
X11255D01*
X11148Y2974D01*
X11057Y2913D01*
X10996Y2822D01*
X10975Y2715D01*
Y2365D01*
X10996Y2258D01*
X11057Y2167D01*
X11148Y2106D01*
X11255Y2085D01*
X11430D01*
Y1725D01*
X11255D01*
X11148Y1704D01*
X11057Y1643D01*
X10996Y1552D01*
X10975Y1445D01*
Y1095D01*
X10996Y988D01*
X11057Y897D01*
X11148Y836D01*
X11255Y815D01*
X11430D01*
Y455D01*
X11255D01*
X11148Y434D01*
X11057Y373D01*
X10996Y282D01*
X10975Y175D01*
Y-175D01*
X10996Y-282D01*
X11057Y-373D01*
X11148Y-434D01*
X11255Y-455D01*
X11430D01*
Y-815D01*
X11255D01*
X11148Y-836D01*
X11057Y-897D01*
X10996Y-988D01*
X10975Y-1095D01*
Y-1445D01*
X10996Y-1552D01*
X11057Y-1643D01*
X11148Y-1704D01*
X11255Y-1725D01*
X11430D01*
Y-2085D01*
X11255D01*
X11148Y-2106D01*
X11057Y-2167D01*
X10996Y-2258D01*
X10975Y-2365D01*
Y-2715D01*
X10996Y-2822D01*
X11057Y-2913D01*
X11148Y-2974D01*
X11255Y-2995D01*
X11430D01*
Y-3355D01*
X11255D01*
X11148Y-3376D01*
X11057Y-3437D01*
X10996Y-3528D01*
X10975Y-3635D01*
Y-3985D01*
X10996Y-4092D01*
X11057Y-4183D01*
X11148Y-4244D01*
X11255Y-4265D01*
X11430D01*
Y-4625D01*
X11255D01*
X11148Y-4646D01*
X11057Y-4707D01*
X10996Y-4798D01*
X10975Y-4905D01*
Y-5255D01*
X10996Y-5362D01*
X11057Y-5453D01*
X11148Y-5514D01*
X11255Y-5535D01*
X11430D01*
Y-5895D01*
X11255D01*
X11148Y-5916D01*
X11057Y-5977D01*
X10996Y-6068D01*
X10975Y-6175D01*
Y-6525D01*
X10996Y-6632D01*
X11057Y-6723D01*
X11148Y-6784D01*
X11255Y-6805D01*
X11430D01*
Y-7165D01*
X11255D01*
X11148Y-7186D01*
X11057Y-7247D01*
X10996Y-7338D01*
X10975Y-7445D01*
Y-7795D01*
X10996Y-7902D01*
X11057Y-7993D01*
X11148Y-8054D01*
X11255Y-8075D01*
X11430D01*
Y-9705D01*
X11255D01*
X11148Y-9726D01*
X11057Y-9787D01*
X10996Y-9878D01*
X10975Y-9985D01*
Y-10335D01*
X10996Y-10442D01*
X11057Y-10533D01*
X11148Y-10594D01*
X11255Y-10615D01*
X11430D01*
Y-11430D01*
X10615D01*
Y-11255D01*
X10594Y-11148D01*
X10533Y-11057D01*
X10442Y-10996D01*
X10335Y-10975D01*
X9985D01*
X9878Y-10996D01*
X9787Y-11057D01*
X9726Y-11148D01*
X9705Y-11255D01*
Y-11430D01*
X9345D01*
Y-11255D01*
X9324Y-11148D01*
X9263Y-11057D01*
X9172Y-10996D01*
X9065Y-10975D01*
X8715D01*
X8608Y-10996D01*
X8517Y-11057D01*
X8456Y-11148D01*
X8435Y-11255D01*
Y-11430D01*
X8075D01*
Y-11255D01*
X8054Y-11148D01*
X7993Y-11057D01*
X7902Y-10996D01*
X7795Y-10975D01*
X7445D01*
X7338Y-10996D01*
X7247Y-11057D01*
X7186Y-11148D01*
X7165Y-11255D01*
Y-11430D01*
X6805D01*
Y-11255D01*
X6784Y-11148D01*
X6723Y-11057D01*
X6632Y-10996D01*
X6525Y-10975D01*
X6175D01*
X6068Y-10996D01*
X5977Y-11057D01*
X5916Y-11148D01*
X5895Y-11255D01*
Y-11430D01*
X5535D01*
Y-11255D01*
X5514Y-11148D01*
X5453Y-11057D01*
X5362Y-10996D01*
X5255Y-10975D01*
X4905D01*
X4798Y-10996D01*
X4700Y-10909D01*
X4666Y-10859D01*
X4628Y-10833D01*
Y-8924D01*
X6371Y-7181D01*
X6410Y-7124D01*
X6423Y-7055D01*
Y-6532D01*
X6546Y-6432D01*
X6597Y-6442D01*
X6658Y-6483D01*
X6775Y-6506D01*
X6892Y-6483D01*
X6991Y-6416D01*
X7058Y-6317D01*
X7081Y-6200D01*
X7058Y-6083D01*
X6991Y-5984D01*
X6892Y-5917D01*
X6775Y-5894D01*
X6658Y-5917D01*
X6597Y-5958D01*
X6510Y-5975D01*
X6423Y-5958D01*
X6362Y-5917D01*
X6245Y-5894D01*
X6128Y-5917D01*
X6028Y-5984D01*
X5962Y-6083D01*
X5939Y-6200D01*
X5962Y-6317D01*
X6028Y-6416D01*
X6066Y-6442D01*
Y-6981D01*
X4829Y-8218D01*
X4789Y-8212D01*
X4700Y-8168D01*
X4683Y-8083D01*
X4616Y-7984D01*
X4517Y-7917D01*
X4432Y-7900D01*
X4388Y-7811D01*
X4382Y-7771D01*
X5726Y-6426D01*
X5765Y-6368D01*
X5778Y-6300D01*
Y-3528D01*
X5905Y-3489D01*
X5948Y-3552D01*
X6063Y-3630D01*
X6200Y-3657D01*
X6337Y-3630D01*
X6452Y-3552D01*
X6454Y-3550D01*
X6584Y-3516D01*
X6607Y-3532D01*
X6683Y-3583D01*
X6800Y-3606D01*
X6917Y-3583D01*
X7016Y-3516D01*
X7083Y-3417D01*
X7106Y-3300D01*
X7083Y-3183D01*
X7016Y-3084D01*
X6917Y-3017D01*
X6800Y-2994D01*
X6683Y-3017D01*
X6607Y-3068D01*
X6584Y-3084D01*
X6454Y-3050D01*
X6452Y-3048D01*
X6337Y-2970D01*
X6200Y-2943D01*
X6063Y-2970D01*
X5948Y-3048D01*
X5905Y-3111D01*
X5778Y-3072D01*
Y-1774D01*
X8295Y742D01*
X8419Y698D01*
X8422Y696D01*
Y-926D01*
X8149Y-1199D01*
X8110Y-1257D01*
X8097Y-1325D01*
Y-8293D01*
X7970Y-8352D01*
X7917Y-8317D01*
X7800Y-8294D01*
X7683Y-8317D01*
X7584Y-8384D01*
X7517Y-8483D01*
X7494Y-8600D01*
X7517Y-8717D01*
X7544Y-8757D01*
X7584Y-8884D01*
X7517Y-8983D01*
X7494Y-9100D01*
X7517Y-9217D01*
X7584Y-9316D01*
X7683Y-9383D01*
X7800Y-9406D01*
X7917Y-9383D01*
X7970Y-9347D01*
X8097Y-9407D01*
Y-9675D01*
X8108Y-9731D01*
X8094Y-9800D01*
X8117Y-9917D01*
X8184Y-10016D01*
X8283Y-10083D01*
X8400Y-10106D01*
X8517Y-10083D01*
X8616Y-10016D01*
X8683Y-9917D01*
X8706Y-9800D01*
X8683Y-9683D01*
X8616Y-9584D01*
X8517Y-9517D01*
X8453Y-9505D01*
Y-1399D01*
X8726Y-1126D01*
X8765Y-1068D01*
X8767Y-1058D01*
X8859Y-998D01*
X8883Y-989D01*
X8905Y-987D01*
X9000Y-1006D01*
X9117Y-983D01*
X9216Y-916D01*
X9283Y-817D01*
X9306Y-700D01*
X9283Y-583D01*
X9216Y-484D01*
X9117Y-417D01*
X9000Y-394D01*
X8905Y-413D01*
X8822Y-369D01*
X8778Y-335D01*
Y535D01*
X8822Y569D01*
X8905Y613D01*
X9000Y594D01*
X9117Y617D01*
X9216Y684D01*
X9283Y783D01*
X9306Y900D01*
X9283Y1017D01*
X9216Y1116D01*
X9117Y1183D01*
X9000Y1206D01*
X8905Y1187D01*
X8822Y1231D01*
X8778Y1266D01*
Y2135D01*
X8822Y2169D01*
X8905Y2213D01*
X9000Y2194D01*
X9117Y2217D01*
X9216Y2284D01*
X9283Y2383D01*
X9306Y2500D01*
X9283Y2617D01*
X9216Y2716D01*
X9117Y2783D01*
X9000Y2806D01*
X8905Y2787D01*
X8822Y2831D01*
X8778Y2866D01*
Y3735D01*
X8822Y3769D01*
X8905Y3813D01*
X9000Y3794D01*
X9117Y3817D01*
X9216Y3884D01*
X9283Y3983D01*
X9306Y4100D01*
X9400Y4194D01*
X9517Y4217D01*
X9616Y4284D01*
X9683Y4383D01*
X9706Y4500D01*
X9683Y4617D01*
X9616Y4716D01*
X9517Y4783D01*
X9400Y4806D01*
X9283Y4783D01*
X9184Y4716D01*
X9117Y4617D01*
X9094Y4500D01*
X9000Y4406D01*
X8905Y4387D01*
X8822Y4431D01*
X8778Y4465D01*
Y5100D01*
X8765Y5168D01*
X8726Y5226D01*
X8526Y5426D01*
X8468Y5465D01*
X8400Y5478D01*
X6174D01*
X4226Y7426D01*
X4168Y7465D01*
X4100Y7478D01*
X3642D01*
X3616Y7516D01*
X3517Y7583D01*
X3476Y7591D01*
X3434Y7729D01*
X3771Y8066D01*
X3909Y8024D01*
X3917Y7983D01*
X3984Y7884D01*
X4083Y7817D01*
X4200Y7794D01*
X4317Y7817D01*
X4416Y7884D01*
X4483Y7983D01*
X4506Y8100D01*
X4483Y8217D01*
X4431Y8295D01*
X4455Y8375D01*
X4487Y8422D01*
X4713D01*
X4745Y8375D01*
X4769Y8295D01*
X4717Y8217D01*
X4694Y8100D01*
X4717Y7983D01*
X4784Y7884D01*
X4883Y7817D01*
X5000Y7794D01*
X5117Y7817D01*
X5216Y7884D01*
X5283Y7983D01*
X5306Y8100D01*
X5283Y8217D01*
X5231Y8295D01*
X5255Y8375D01*
X5287Y8422D01*
X6026D01*
X6474Y7974D01*
X6532Y7935D01*
X6600Y7922D01*
X7435D01*
X7469Y7878D01*
X7513Y7795D01*
X7494Y7700D01*
X7517Y7583D01*
X7584Y7484D01*
X7683Y7417D01*
X7800Y7394D01*
X7917Y7417D01*
X8016Y7484D01*
X8083Y7583D01*
X8106Y7700D01*
X8200Y7794D01*
X8317Y7817D01*
X8416Y7884D01*
X8483Y7983D01*
X8506Y8100D01*
X8483Y8217D01*
X8416Y8316D01*
X8317Y8383D01*
X8200Y8406D01*
X8083Y8383D01*
X7984Y8316D01*
X7958Y8278D01*
X6674D01*
X6348Y8604D01*
X6397Y8722D01*
X7958D01*
X7984Y8684D01*
X8083Y8617D01*
X8200Y8594D01*
X8317Y8617D01*
X8416Y8684D01*
X8483Y8783D01*
X8506Y8900D01*
X8483Y9017D01*
X8416Y9116D01*
X8317Y9183D01*
X8200Y9206D01*
X8083Y9183D01*
X7984Y9116D01*
X7958Y9078D01*
X3800D01*
X3732Y9065D01*
X3674Y9026D01*
X2926Y8278D01*
X2566D01*
X2531Y8322D01*
X2487Y8405D01*
X2506Y8500D01*
X2483Y8617D01*
X2416Y8716D01*
X2317Y8783D01*
X2200Y8806D01*
X2106Y8900D01*
X2083Y9017D01*
X2016Y9116D01*
X2056Y9243D01*
X2083Y9283D01*
X2106Y9400D01*
X2200Y9494D01*
X2317Y9517D01*
X2416Y9584D01*
X2483Y9683D01*
X2506Y9800D01*
X2483Y9917D01*
X2416Y10016D01*
X2317Y10083D01*
X2200Y10106D01*
X2083Y10083D01*
X1984Y10016D01*
X1958Y9978D01*
X974D01*
X178Y10774D01*
Y10975D01*
X282Y10996D01*
X373Y11057D01*
X434Y11148D01*
X455Y11255D01*
Y11430D01*
X815D01*
Y11255D01*
X836Y11148D01*
X897Y11057D01*
X988Y10996D01*
X1095Y10975D01*
X1445D01*
X1552Y10996D01*
X1643Y11057D01*
X1704Y11148D01*
X1725Y11255D01*
Y11430D01*
X2085D01*
Y11255D01*
X2106Y11148D01*
X2167Y11057D01*
X2258Y10996D01*
X2365Y10975D01*
X2715D01*
X2822Y10996D01*
X2913Y11057D01*
X2974Y11148D01*
X2995Y11255D01*
Y11430D01*
X3355D01*
Y11255D01*
X3376Y11148D01*
X3437Y11057D01*
X3528Y10996D01*
X3635Y10975D01*
X3985D01*
X4092Y10996D01*
X4183Y11057D01*
X4244Y11148D01*
X4265Y11255D01*
Y11430D01*
X4625D01*
Y11255D01*
X4646Y11148D01*
X4707Y11057D01*
X4798Y10996D01*
X4905Y10975D01*
X5255D01*
X5362Y10996D01*
X5453Y11057D01*
X5514Y11148D01*
X5535Y11255D01*
Y11430D01*
X5895D01*
Y11255D01*
X5916Y11148D01*
X5977Y11057D01*
X6068Y10996D01*
X6175Y10975D01*
X6525D01*
X6632Y10996D01*
X6723Y11057D01*
X6784Y11148D01*
X6805Y11255D01*
Y11430D01*
X7165D01*
Y11255D01*
X7186Y11148D01*
X7247Y11057D01*
X7338Y10996D01*
X7445Y10975D01*
X7795D01*
X7902Y10996D01*
X7993Y11057D01*
X8054Y11148D01*
X8075Y11255D01*
Y11430D01*
X8435D01*
Y11255D01*
X8456Y11148D01*
X8517Y11057D01*
X8608Y10996D01*
X8715Y10975D01*
X9065D01*
X9172Y10996D01*
X9263Y11057D01*
X9324Y11148D01*
X9345Y11255D01*
Y11430D01*
X9705D01*
Y11255D01*
X9726Y11148D01*
X9787Y11057D01*
X9878Y10996D01*
X9985Y10975D01*
X10335D01*
X10442Y10996D01*
X10533Y11057D01*
X10594Y11148D01*
X10615Y11255D01*
Y11430D01*
X11430D01*
Y10615D01*
D02*
G37*
%LPC*%
G36*
X3100Y-2943D02*
X2963Y-2970D01*
X2848Y-3048D01*
X2770Y-3163D01*
X2743Y-3300D01*
X2770Y-3437D01*
X2848Y-3552D01*
X2963Y-3630D01*
X3100Y-3657D01*
X3237Y-3630D01*
X3352Y-3552D01*
X3430Y-3437D01*
X3457Y-3300D01*
X3430Y-3163D01*
X3352Y-3048D01*
X3237Y-2970D01*
X3100Y-2943D01*
D02*
G37*
G36*
X1000Y3606D02*
X883Y3583D01*
X784Y3516D01*
X717Y3417D01*
X694Y3300D01*
X717Y3183D01*
X784Y3084D01*
X838Y3048D01*
Y-4433D01*
X227Y-5044D01*
X149Y-5016D01*
X103Y-4987D01*
X83Y-4883D01*
X16Y-4784D01*
X-83Y-4717D01*
X-200Y-4694D01*
X-317Y-4717D01*
X-416Y-4784D01*
X-483Y-4883D01*
X-506Y-5000D01*
X-483Y-5117D01*
X-445Y-5174D01*
X-482Y-5299D01*
X-493Y-5313D01*
X-517Y-5317D01*
X-616Y-5384D01*
X-683Y-5483D01*
X-699Y-5566D01*
X-812Y-5604D01*
X-826Y-5604D01*
X-858Y-5558D01*
X-1015Y-5453D01*
X-1200Y-5416D01*
X-1385Y-5453D01*
X-1542Y-5558D01*
X-1574Y-5604D01*
X-1588Y-5604D01*
X-1701Y-5566D01*
X-1717Y-5483D01*
X-1784Y-5384D01*
X-1883Y-5317D01*
X-2000Y-5294D01*
X-2117Y-5317D01*
X-2216Y-5384D01*
X-2283Y-5483D01*
X-2306Y-5600D01*
X-2283Y-5717D01*
X-2233Y-5791D01*
X-2226Y-5848D01*
X-2255Y-5943D01*
X-2316Y-5984D01*
X-2383Y-6083D01*
X-2406Y-6200D01*
X-2383Y-6317D01*
X-2316Y-6416D01*
X-2217Y-6483D01*
X-2100Y-6506D01*
X-1983Y-6483D01*
X-1884Y-6416D01*
X-1817Y-6317D01*
X-1794Y-6200D01*
X-1817Y-6083D01*
X-1846Y-6040D01*
X-1822Y-5898D01*
X-1806Y-5888D01*
X-1789Y-5890D01*
X-1721Y-5917D01*
X-1672Y-5962D01*
X-1647Y-6085D01*
X-1542Y-6242D01*
X-1385Y-6347D01*
X-1200Y-6384D01*
X-1015Y-6347D01*
X-858Y-6242D01*
X-753Y-6085D01*
X-716Y-5900D01*
X-718Y-5890D01*
X-660Y-5848D01*
X-601Y-5827D01*
X-517Y-5883D01*
X-400Y-5906D01*
X-283Y-5883D01*
X-184Y-5816D01*
X-148Y-5762D01*
X-100D01*
X15Y-5715D01*
X1115Y-4615D01*
X1162Y-4500D01*
Y3048D01*
X1216Y3084D01*
X1283Y3183D01*
X1306Y3300D01*
X1283Y3417D01*
X1216Y3516D01*
X1117Y3583D01*
X1000Y3606D01*
D02*
G37*
G36*
X10500Y-3794D02*
X10383Y-3817D01*
X10284Y-3884D01*
X10217Y-3983D01*
X10194Y-4100D01*
X10217Y-4217D01*
X10284Y-4316D01*
X10383Y-4383D01*
X10500Y-4406D01*
X10617Y-4383D01*
X10716Y-4316D01*
X10783Y-4217D01*
X10806Y-4100D01*
X10783Y-3983D01*
X10716Y-3884D01*
X10617Y-3817D01*
X10500Y-3794D01*
D02*
G37*
G36*
X2200Y-2943D02*
X2063Y-2970D01*
X1948Y-3048D01*
X1870Y-3163D01*
X1843Y-3300D01*
X1870Y-3437D01*
X1948Y-3552D01*
X2063Y-3630D01*
X2200Y-3657D01*
X2337Y-3630D01*
X2452Y-3552D01*
X2530Y-3437D01*
X2557Y-3300D01*
X2530Y-3163D01*
X2452Y-3048D01*
X2337Y-2970D01*
X2200Y-2943D01*
D02*
G37*
G36*
X9000Y-1194D02*
X8883Y-1217D01*
X8784Y-1284D01*
X8717Y-1383D01*
X8694Y-1500D01*
X8717Y-1617D01*
X8784Y-1716D01*
X8883Y-1783D01*
X9000Y-1806D01*
X9117Y-1783D01*
X9216Y-1716D01*
X9283Y-1617D01*
X9306Y-1500D01*
X9283Y-1383D01*
X9216Y-1284D01*
X9117Y-1217D01*
X9000Y-1194D01*
D02*
G37*
G36*
X200Y6006D02*
X83Y5983D01*
X-16Y5916D01*
X-83Y5817D01*
X-106Y5700D01*
X-83Y5583D01*
X-29Y5503D01*
Y995D01*
X-1423Y-399D01*
X-1517Y-417D01*
X-1597Y-471D01*
X-3005D01*
X-3199Y-277D01*
X-3217Y-183D01*
X-3284Y-84D01*
X-3383Y-17D01*
X-3500Y6D01*
X-3617Y-17D01*
X-3716Y-84D01*
X-3783Y-183D01*
X-3806Y-300D01*
X-3783Y-417D01*
X-3716Y-516D01*
X-3617Y-583D01*
X-3523Y-601D01*
X-3262Y-862D01*
X-3188Y-912D01*
X-3100Y-929D01*
X-1597D01*
X-1517Y-983D01*
X-1400Y-1006D01*
X-1283Y-983D01*
X-1184Y-916D01*
X-1117Y-817D01*
X-1099Y-723D01*
X362Y738D01*
X362Y738D01*
X412Y812D01*
X429Y900D01*
Y5503D01*
X483Y5583D01*
X506Y5700D01*
X483Y5817D01*
X416Y5916D01*
X317Y5983D01*
X200Y6006D01*
D02*
G37*
G36*
X9000Y-1994D02*
X8883Y-2017D01*
X8784Y-2084D01*
X8717Y-2183D01*
X8694Y-2300D01*
X8717Y-2417D01*
X8784Y-2516D01*
X8883Y-2583D01*
X9000Y-2606D01*
X9117Y-2583D01*
X9216Y-2516D01*
X9283Y-2417D01*
X9306Y-2300D01*
X9283Y-2183D01*
X9216Y-2084D01*
X9117Y-2017D01*
X9000Y-1994D01*
D02*
G37*
G36*
X-1400Y-1194D02*
X-1517Y-1217D01*
X-1616Y-1284D01*
X-1683Y-1383D01*
X-1706Y-1500D01*
X-1683Y-1617D01*
X-1616Y-1716D01*
X-1517Y-1783D01*
X-1400Y-1806D01*
X-1283Y-1783D01*
X-1184Y-1716D01*
X-1117Y-1617D01*
X-1094Y-1500D01*
X-1117Y-1383D01*
X-1184Y-1284D01*
X-1283Y-1217D01*
X-1400Y-1194D01*
D02*
G37*
G36*
X9200Y-5594D02*
X9083Y-5617D01*
X8984Y-5684D01*
X8917Y-5783D01*
X8894Y-5900D01*
X8917Y-6017D01*
X8984Y-6116D01*
X9083Y-6183D01*
X9200Y-6206D01*
X9317Y-6183D01*
X9416Y-6116D01*
X9483Y-6017D01*
X9506Y-5900D01*
X9483Y-5783D01*
X9416Y-5684D01*
X9317Y-5617D01*
X9200Y-5594D01*
D02*
G37*
G36*
X-10600Y-6694D02*
X-10717Y-6717D01*
X-10816Y-6784D01*
X-10883Y-6883D01*
X-10906Y-7000D01*
X-10883Y-7117D01*
X-10827Y-7200D01*
X-10883Y-7283D01*
X-10906Y-7400D01*
X-10883Y-7517D01*
X-10827Y-7600D01*
X-10883Y-7683D01*
X-10906Y-7800D01*
X-10883Y-7917D01*
X-10816Y-8016D01*
X-10717Y-8083D01*
X-10600Y-8106D01*
X-10483Y-8083D01*
X-10384Y-8016D01*
X-10317Y-7917D01*
X-10294Y-7800D01*
X-10317Y-7683D01*
X-10373Y-7600D01*
X-10317Y-7517D01*
X-10294Y-7400D01*
X-10317Y-7283D01*
X-10373Y-7200D01*
X-10317Y-7117D01*
X-10294Y-7000D01*
X-10317Y-6883D01*
X-10384Y-6784D01*
X-10483Y-6717D01*
X-10600Y-6694D01*
D02*
G37*
G36*
X10000Y-7294D02*
X9883Y-7317D01*
X9784Y-7384D01*
X9717Y-7483D01*
X9694Y-7600D01*
X9717Y-7717D01*
X9784Y-7816D01*
X9883Y-7883D01*
X10000Y-7906D01*
X10117Y-7883D01*
X10216Y-7816D01*
X10283Y-7717D01*
X10306Y-7600D01*
X10283Y-7483D01*
X10216Y-7384D01*
X10117Y-7317D01*
X10000Y-7294D01*
D02*
G37*
G36*
X-2000Y-7694D02*
X-2117Y-7717D01*
X-2216Y-7784D01*
X-2283Y-7883D01*
X-2306Y-8000D01*
X-2283Y-8117D01*
X-2216Y-8216D01*
X-2117Y-8283D01*
X-2000Y-8306D01*
X-1883Y-8283D01*
X-1784Y-8216D01*
X-1717Y-8117D01*
X-1694Y-8000D01*
X-1717Y-7883D01*
X-1784Y-7784D01*
X-1883Y-7717D01*
X-2000Y-7694D01*
D02*
G37*
G36*
X-200D02*
X-317Y-7717D01*
X-416Y-7784D01*
X-483Y-7883D01*
X-506Y-8000D01*
X-483Y-8117D01*
X-416Y-8216D01*
X-317Y-8283D01*
X-200Y-8306D01*
X-83Y-8283D01*
X16Y-8216D01*
X83Y-8117D01*
X106Y-8000D01*
X83Y-7883D01*
X16Y-7784D01*
X-83Y-7717D01*
X-200Y-7694D01*
D02*
G37*
G36*
X-3400Y-7194D02*
X-3517Y-7217D01*
X-3616Y-7284D01*
X-3683Y-7383D01*
X-3706Y-7500D01*
X-3683Y-7617D01*
X-3616Y-7716D01*
X-3517Y-7783D01*
X-3400Y-7806D01*
X-3283Y-7783D01*
X-3184Y-7716D01*
X-3117Y-7617D01*
X-3094Y-7500D01*
X-3117Y-7383D01*
X-3184Y-7284D01*
X-3283Y-7217D01*
X-3400Y-7194D01*
D02*
G37*
G36*
X9200Y-6494D02*
X9083Y-6517D01*
X8984Y-6584D01*
X8917Y-6683D01*
X8894Y-6800D01*
X8917Y-6917D01*
X8984Y-7016D01*
X9083Y-7083D01*
X9200Y-7106D01*
X9317Y-7083D01*
X9416Y-7016D01*
X9483Y-6917D01*
X9506Y-6800D01*
X9483Y-6683D01*
X9416Y-6584D01*
X9317Y-6517D01*
X9200Y-6494D01*
D02*
G37*
G36*
X2200Y-5694D02*
X2083Y-5717D01*
X1984Y-5784D01*
X1917Y-5883D01*
X1894Y-6000D01*
X1917Y-6117D01*
X1984Y-6216D01*
X2083Y-6283D01*
X2200Y-6306D01*
X2317Y-6283D01*
X2416Y-6216D01*
X2483Y-6117D01*
X2506Y-6000D01*
X2483Y-5883D01*
X2416Y-5784D01*
X2317Y-5717D01*
X2200Y-5694D01*
D02*
G37*
G36*
X-200Y-6794D02*
X-317Y-6817D01*
X-416Y-6884D01*
X-483Y-6983D01*
X-506Y-7100D01*
X-483Y-7217D01*
X-416Y-7316D01*
X-317Y-7383D01*
X-200Y-7406D01*
X-83Y-7383D01*
X16Y-7316D01*
X83Y-7217D01*
X106Y-7100D01*
X83Y-6983D01*
X16Y-6884D01*
X-83Y-6817D01*
X-200Y-6794D01*
D02*
G37*
G36*
X1500Y-6694D02*
X1383Y-6717D01*
X1284Y-6784D01*
X1217Y-6883D01*
X1194Y-7000D01*
X1217Y-7117D01*
X1284Y-7216D01*
X1383Y-7283D01*
X1500Y-7306D01*
X1617Y-7283D01*
X1716Y-7216D01*
X1783Y-7117D01*
X1806Y-7000D01*
X1783Y-6883D01*
X1716Y-6784D01*
X1617Y-6717D01*
X1500Y-6694D01*
D02*
G37*
G36*
X6600Y6806D02*
X6483Y6783D01*
X6384Y6716D01*
X6317Y6617D01*
X6294Y6500D01*
X6317Y6383D01*
X6384Y6284D01*
X6483Y6217D01*
X6600Y6194D01*
X6717Y6217D01*
X6816Y6284D01*
X6883Y6383D01*
X6906Y6500D01*
X6883Y6617D01*
X6816Y6716D01*
X6717Y6783D01*
X6600Y6806D01*
D02*
G37*
G36*
X7400D02*
X7283Y6783D01*
X7184Y6716D01*
X7117Y6617D01*
X7094Y6500D01*
X7117Y6383D01*
X7184Y6284D01*
X7283Y6217D01*
X7400Y6194D01*
X7517Y6217D01*
X7616Y6284D01*
X7683Y6383D01*
X7706Y6500D01*
X7683Y6617D01*
X7616Y6716D01*
X7517Y6783D01*
X7400Y6806D01*
D02*
G37*
G36*
X1000Y6006D02*
X883Y5983D01*
X784Y5916D01*
X717Y5817D01*
X694Y5700D01*
X717Y5583D01*
X784Y5484D01*
X883Y5417D01*
X1000Y5394D01*
X1117Y5417D01*
X1216Y5484D01*
X1283Y5583D01*
X1306Y5700D01*
X1283Y5817D01*
X1216Y5916D01*
X1117Y5983D01*
X1000Y6006D01*
D02*
G37*
G36*
X2600D02*
X2483Y5983D01*
X2384Y5916D01*
X2317Y5817D01*
X2294Y5700D01*
X2317Y5583D01*
X2384Y5484D01*
X2483Y5417D01*
X2600Y5394D01*
X2717Y5417D01*
X2816Y5484D01*
X2883Y5583D01*
X2906Y5700D01*
X2883Y5817D01*
X2816Y5916D01*
X2717Y5983D01*
X2600Y6006D01*
D02*
G37*
G36*
X9000Y6806D02*
X8883Y6783D01*
X8784Y6716D01*
X8717Y6617D01*
X8694Y6500D01*
X8717Y6383D01*
X8784Y6284D01*
X8883Y6217D01*
X9000Y6194D01*
X9117Y6217D01*
X9216Y6284D01*
X9283Y6383D01*
X9306Y6500D01*
X9283Y6617D01*
X9216Y6716D01*
X9117Y6783D01*
X9000Y6806D01*
D02*
G37*
G36*
X-8750Y10456D02*
X-8867Y10433D01*
X-8966Y10366D01*
X-9033Y10267D01*
X-9056Y10150D01*
X-9033Y10033D01*
X-8966Y9934D01*
X-8867Y9867D01*
X-8750Y9844D01*
X-8633Y9867D01*
X-8534Y9934D01*
X-8467Y10033D01*
X-8444Y10150D01*
X-8467Y10267D01*
X-8534Y10366D01*
X-8633Y10433D01*
X-8750Y10456D01*
D02*
G37*
G36*
X3900Y10806D02*
X3783Y10783D01*
X3684Y10716D01*
X3617Y10617D01*
X3594Y10500D01*
X3617Y10383D01*
X3684Y10284D01*
X3783Y10217D01*
X3900Y10194D01*
X4017Y10217D01*
X4116Y10284D01*
X4183Y10383D01*
X4206Y10500D01*
X4183Y10617D01*
X4116Y10716D01*
X4017Y10783D01*
X3900Y10806D01*
D02*
G37*
G36*
X6500D02*
X6383Y10783D01*
X6284Y10716D01*
X6217Y10617D01*
X6194Y10500D01*
X6217Y10383D01*
X6284Y10284D01*
X6383Y10217D01*
X6500Y10194D01*
X6617Y10217D01*
X6716Y10284D01*
X6783Y10383D01*
X6806Y10500D01*
X6783Y10617D01*
X6716Y10716D01*
X6617Y10783D01*
X6500Y10806D01*
D02*
G37*
G36*
X9700Y10206D02*
X9583Y10183D01*
X9484Y10116D01*
X9417Y10017D01*
X9394Y9900D01*
X9417Y9783D01*
X9484Y9684D01*
X9583Y9617D01*
X9700Y9594D01*
X9817Y9617D01*
X9916Y9684D01*
X9983Y9783D01*
X10006Y9900D01*
X9983Y10017D01*
X9916Y10116D01*
X9817Y10183D01*
X9700Y10206D01*
D02*
G37*
G36*
X4500Y5606D02*
X4383Y5583D01*
X4284Y5516D01*
X4217Y5417D01*
X4194Y5300D01*
X4088Y5184D01*
X4083Y5183D01*
X3984Y5116D01*
X3917Y5017D01*
X3894Y4900D01*
X3917Y4783D01*
X3984Y4684D01*
X4083Y4617D01*
X4200Y4594D01*
X4317Y4617D01*
X4416Y4684D01*
X4483Y4783D01*
X4506Y4900D01*
X4612Y5016D01*
X4617Y5017D01*
X4716Y5084D01*
X4783Y5183D01*
X4806Y5300D01*
X4783Y5417D01*
X4716Y5516D01*
X4617Y5583D01*
X4500Y5606D01*
D02*
G37*
G36*
X1800Y3606D02*
X1683Y3583D01*
X1584Y3516D01*
X1517Y3417D01*
X1494Y3300D01*
X1517Y3183D01*
X1584Y3084D01*
X1683Y3017D01*
X1800Y2994D01*
X1917Y3017D01*
X2016Y3084D01*
X2083Y3183D01*
X2106Y3300D01*
X2083Y3417D01*
X2016Y3516D01*
X1917Y3583D01*
X1800Y3606D01*
D02*
G37*
G36*
X7400D02*
X7283Y3583D01*
X7184Y3516D01*
X7117Y3417D01*
X7094Y3300D01*
X7117Y3183D01*
X7184Y3084D01*
X7283Y3017D01*
X7400Y2994D01*
X7517Y3017D01*
X7616Y3084D01*
X7683Y3183D01*
X7706Y3300D01*
X7683Y3417D01*
X7616Y3516D01*
X7517Y3583D01*
X7400Y3606D01*
D02*
G37*
G36*
X3800Y1606D02*
X3683Y1583D01*
X3584Y1516D01*
X3517Y1417D01*
X3494Y1300D01*
X3517Y1183D01*
X3584Y1084D01*
X3683Y1017D01*
X3800Y994D01*
X3917Y1017D01*
X4016Y1084D01*
X4083Y1183D01*
X4106Y1300D01*
X4083Y1417D01*
X4016Y1516D01*
X3917Y1583D01*
X3800Y1606D01*
D02*
G37*
G36*
X6600Y2006D02*
X6483Y1983D01*
X6384Y1916D01*
X6317Y1817D01*
X6294Y1700D01*
X6317Y1583D01*
X6384Y1484D01*
X6483Y1417D01*
X6600Y1394D01*
X6717Y1417D01*
X6816Y1484D01*
X6883Y1583D01*
X6906Y1700D01*
X6883Y1817D01*
X6816Y1916D01*
X6717Y1983D01*
X6600Y2006D01*
D02*
G37*
G36*
X9800Y3606D02*
X9683Y3583D01*
X9584Y3516D01*
X9517Y3417D01*
X9494Y3300D01*
X9517Y3183D01*
X9584Y3084D01*
X9683Y3017D01*
X9800Y2994D01*
X9917Y3017D01*
X10016Y3084D01*
X10083Y3183D01*
X10106Y3300D01*
X10083Y3417D01*
X10016Y3516D01*
X9917Y3583D01*
X9800Y3606D01*
D02*
G37*
G36*
X2600Y4406D02*
X2483Y4383D01*
X2384Y4316D01*
X2317Y4217D01*
X2294Y4100D01*
X2317Y3983D01*
X2384Y3884D01*
X2483Y3817D01*
X2600Y3794D01*
X2717Y3817D01*
X2816Y3884D01*
X2883Y3983D01*
X2906Y4100D01*
X2883Y4217D01*
X2816Y4316D01*
X2717Y4383D01*
X2600Y4406D01*
D02*
G37*
G36*
X7400D02*
X7283Y4383D01*
X7184Y4316D01*
X7117Y4217D01*
X7094Y4100D01*
X7117Y3983D01*
X7184Y3884D01*
X7283Y3817D01*
X7400Y3794D01*
X7517Y3817D01*
X7616Y3884D01*
X7683Y3983D01*
X7706Y4100D01*
X7683Y4217D01*
X7616Y4316D01*
X7517Y4383D01*
X7400Y4406D01*
D02*
G37*
G36*
X-7175Y4232D02*
X-7312Y4205D01*
X-7427Y4127D01*
X-7505Y4012D01*
X-7532Y3875D01*
X-7505Y3738D01*
X-7427Y3623D01*
X-7312Y3545D01*
X-7175Y3518D01*
X-7038Y3545D01*
X-6923Y3623D01*
X-6845Y3738D01*
X-6818Y3875D01*
X-6845Y4012D01*
X-6923Y4127D01*
X-7038Y4205D01*
X-7175Y4232D01*
D02*
G37*
G36*
X1800Y4406D02*
X1683Y4383D01*
X1584Y4316D01*
X1517Y4217D01*
X1494Y4100D01*
X1517Y3983D01*
X1584Y3884D01*
X1683Y3817D01*
X1800Y3794D01*
X1917Y3817D01*
X2016Y3884D01*
X2083Y3983D01*
X2106Y4100D01*
X2083Y4217D01*
X2016Y4316D01*
X1917Y4383D01*
X1800Y4406D01*
D02*
G37*
%LPD*%
D32*
X-10160Y-11430D02*
Y-9440D01*
X-10710Y-8890D02*
X-10160Y-9440D01*
X-11430Y-8890D02*
X-10710D01*
D33*
X1200Y7700D02*
X1600Y8100D01*
Y7700D02*
X3154D01*
X1200Y7300D02*
X1600Y7700D01*
X900Y9400D02*
X1800D01*
X900Y9800D02*
X2200D01*
X-0Y10700D02*
X900Y9800D01*
X-200Y6900D02*
X1400D01*
X-4500Y2600D02*
X-200Y6900D01*
X-9400Y2600D02*
X-4500D01*
X1400Y6900D02*
X1800Y7300D01*
X-0Y10700D02*
Y11430D01*
X-1130D02*
X900Y9400D01*
X-975Y10875D02*
X1000Y8900D01*
X1800D01*
X-2540Y11430D02*
X-1985Y10875D01*
X-975D01*
X-1270Y11430D02*
X-1130D01*
X6600Y8100D02*
X8200D01*
X6100Y8600D02*
X6600Y8100D01*
X-3500Y10400D02*
X-3100Y10000D01*
X-5320Y10400D02*
X-3500D01*
X-6350Y11430D02*
X-5320Y10400D01*
X4054Y8600D02*
X6100D01*
X-2300Y9500D02*
X-1900Y9100D01*
X-3100D02*
Y10000D01*
X-5080Y11430D02*
X-4450Y10800D01*
X-3400D01*
X-2700Y10100D01*
Y9300D02*
Y10100D01*
X-2300Y9500D02*
Y10200D01*
X-3810Y11430D02*
X-3580Y11200D01*
X-3300D01*
X-2300Y10200D01*
X3154Y7700D02*
X4054Y8600D01*
X800Y7700D02*
X1200D01*
X-200Y8700D02*
X800Y7700D01*
X-2100Y8700D02*
X-200D01*
X-2700Y9300D02*
X-2100Y8700D01*
X700Y7300D02*
X1200D01*
X-300Y8300D02*
X700Y7300D01*
X-2300Y8300D02*
X-300D01*
X-3100Y9100D02*
X-2300Y8300D01*
X8200Y900D02*
Y1700D01*
X5600Y-1700D02*
X8200Y900D01*
X5600Y-6300D02*
Y-1700D01*
X5200Y-6100D02*
Y-1500D01*
X1270Y-10030D02*
X5200Y-6100D01*
X1270Y-11430D02*
Y-10030D01*
X5200Y-1500D02*
X7800Y1100D01*
X2540Y-9360D02*
X5600Y-6300D01*
X7800Y1100D02*
Y2100D01*
X8200Y2500D01*
X2540Y-11430D02*
Y-9360D01*
X-10700Y3900D02*
X-9400Y2600D01*
X-11430Y-1270D02*
X-5900Y-6800D01*
X-2000Y-9700D02*
X-1660Y-10040D01*
Y-10460D02*
Y-10040D01*
X-150Y-10850D02*
X300Y-10400D01*
Y-9700D01*
X-4600Y4200D02*
X-3900D01*
X-9525Y9125D02*
X-4600Y4200D01*
X-9525Y9125D02*
Y11000D01*
X8275Y-9675D02*
X8400Y-9800D01*
X8275Y-9675D02*
Y-1325D01*
X8600Y-1000D01*
Y5100D01*
X8400Y5300D02*
X8600Y5100D01*
X6100Y5300D02*
X8400D01*
X4100Y7300D02*
X6100Y5300D01*
X3400Y7300D02*
X4100D01*
X4450Y-11075D02*
Y-8850D01*
X6245Y-7055D01*
Y-6200D01*
X-3304Y-10850D02*
X-150D01*
X-3704Y-10450D02*
X-3304Y-10850D01*
X-3900Y-9700D02*
X-2000D01*
X-5200Y-8400D02*
X-3900Y-9700D01*
X-5950Y-9150D02*
X-4900Y-10200D01*
X-4104Y-10450D02*
X-3704D01*
X-5700Y-8854D02*
X-4104Y-10450D01*
X-5450Y-8625D02*
X-3875Y-10200D01*
X-2300D01*
X-11430Y-3810D02*
X-9890D01*
X-5700Y-8854D02*
Y-8493D01*
X-5200Y-8400D02*
Y-8150D01*
X-5450Y-8625D02*
Y-8325D01*
X-11430Y-5080D02*
X-9120D01*
X-5950Y-9150D02*
Y-8675D01*
X-11430Y-6350D02*
X-8350D01*
X-6200Y-10200D02*
Y-8850D01*
X-5900Y-7450D02*
X-5200Y-8150D01*
X-5900Y-7450D02*
Y-6800D01*
X-6300Y-7475D02*
X-5450Y-8325D01*
X-6300Y-7475D02*
Y-6900D01*
X-10660Y-2540D02*
X-6300Y-6900D01*
X-11430Y-2540D02*
X-10660D01*
X-9890Y-3810D02*
X-6700Y-7000D01*
Y-7493D02*
Y-7000D01*
Y-7493D02*
X-5700Y-8493D01*
X-7100Y-7525D02*
X-5950Y-8675D01*
X-7100Y-7525D02*
Y-7100D01*
X-9120Y-5080D02*
X-7100Y-7100D01*
X-8350Y-6350D02*
X-7500Y-7200D01*
Y-7550D02*
Y-7200D01*
Y-7550D02*
X-6200Y-8850D01*
X3800Y8900D02*
X8200D01*
X1600Y8100D02*
X3000D01*
X3800Y8900D01*
D34*
X-3100Y-700D02*
X-1400D01*
X200Y900D02*
Y5700D01*
X-1400Y-700D02*
X200Y900D01*
X-3500Y-300D02*
X-3100Y-700D01*
D35*
X9240Y-12080D02*
X9810D01*
X7970D02*
X8540D01*
X6700D02*
X7270D01*
X5430D02*
X6000D01*
X4160D02*
X4730D01*
X2890D02*
X3460D01*
X1620D02*
X2190D01*
X350D02*
X920D01*
X-920D02*
X-350D01*
X-2190D02*
X-1620D01*
X-3460D02*
X-2890D01*
X-4730D02*
X-4160D01*
X-6000D02*
X-5430D01*
X-7270D02*
X-6700D01*
X-8540D02*
X-7970D01*
X-9810D02*
X-9240D01*
X-12480Y-10510D02*
X-12080D01*
X-12580Y-10410D02*
X-12480Y-10510D01*
X-12580Y-10410D02*
Y-9910D01*
X-12480Y-9810D01*
X-12080D01*
X-12480Y-9240D02*
X-12080D01*
X-12580Y-9140D02*
X-12480Y-9240D01*
X-12580Y-9140D02*
Y-8640D01*
X-12480Y-8540D01*
X-12080D01*
X-12480Y-7970D02*
X-12080D01*
X-12580Y-7870D02*
X-12480Y-7970D01*
X-12580Y-7870D02*
Y-7370D01*
X-12480Y-7270D01*
X-12080D01*
X-12480Y-6700D02*
X-12080D01*
X-12580Y-6600D02*
X-12480Y-6700D01*
X-12580Y-6600D02*
Y-6100D01*
X-12480Y-6000D01*
X-12080D01*
X-12480Y-5430D02*
X-12080D01*
X-12580Y-5330D02*
X-12480Y-5430D01*
X-12580Y-5330D02*
Y-4830D01*
X-12480Y-4730D01*
X-12080D01*
X-12480Y-4160D02*
X-12080D01*
X-12580Y-4060D02*
X-12480Y-4160D01*
X-12580Y-4060D02*
Y-3560D01*
X-12480Y-3460D01*
X-12080D01*
X-12480Y-2890D02*
X-12080D01*
X-12580Y-2790D02*
X-12480Y-2890D01*
X-12580Y-2790D02*
Y-2290D01*
X-12480Y-2190D01*
X-12080D01*
X-12480Y-1620D02*
X-12080D01*
X-12580Y-1520D02*
X-12480Y-1620D01*
X-12580Y-1520D02*
Y-1020D01*
X-12480Y-920D01*
X-12080D01*
X-12480Y-350D02*
X-12080D01*
X-12580Y-250D02*
X-12480Y-350D01*
X-12580Y-250D02*
Y250D01*
X-12480Y350D01*
X-12080D01*
X-12480Y920D02*
X-12080D01*
X-12580Y1020D02*
X-12480Y920D01*
X-12580Y1020D02*
Y1520D01*
X-12480Y1620D01*
X-12080D01*
X-12480Y2190D02*
X-12080D01*
X-12580Y2290D02*
X-12480Y2190D01*
X-12580Y2290D02*
Y2790D01*
X-12480Y2890D01*
X-12080D01*
X-12480Y3460D02*
X-12080D01*
X-12580Y3560D02*
X-12480Y3460D01*
X-12580Y3560D02*
Y4060D01*
X-12480Y4160D01*
X-12080D01*
X-12480Y4730D02*
X-12080D01*
X-12580Y4830D02*
X-12480Y4730D01*
X-12580Y4830D02*
Y5330D01*
X-12480Y5430D01*
X-12080D01*
X-12480Y6000D02*
X-12080D01*
X-12580Y6100D02*
X-12480Y6000D01*
X-12580Y6100D02*
Y6600D01*
X-12480Y6700D01*
X-12080D01*
X-12480Y7270D02*
X-12080D01*
X-12580Y7370D02*
X-12480Y7270D01*
X-12580Y7370D02*
Y7870D01*
X-12480Y7970D01*
X-12080D01*
X-12480Y8540D02*
X-12080D01*
X-12580Y8640D02*
X-12480Y8540D01*
X-12580Y8640D02*
Y9140D01*
X-12480Y9240D01*
X-12080D01*
X-12480Y9810D02*
X-12080D01*
X-12580Y9910D02*
X-12480Y9810D01*
X-12580Y9910D02*
Y10410D01*
X-12480Y10510D01*
X-12080D01*
X-10510Y12080D02*
Y12480D01*
X-10410Y12580D01*
X-9910D01*
X-9810Y12480D01*
Y12080D02*
Y12480D01*
X-9240Y12080D02*
Y12480D01*
X-9140Y12580D01*
X-8640D01*
X-8540Y12480D01*
Y12080D02*
Y12480D01*
X-7970Y12080D02*
Y12480D01*
X-7870Y12580D01*
X-7370D01*
X-7270Y12480D01*
Y12080D02*
Y12480D01*
X-6700Y12080D02*
Y12480D01*
X-6600Y12580D01*
X-6100D01*
X-6000Y12480D01*
Y12080D02*
Y12480D01*
X-5430Y12080D02*
Y12480D01*
X-5330Y12580D01*
X-4830D01*
X-4730Y12480D01*
Y12080D02*
Y12480D01*
X-4160Y12080D02*
Y12480D01*
X-4060Y12580D01*
X-3560D01*
X-3460Y12480D01*
Y12080D02*
Y12480D01*
X-2890Y12080D02*
Y12480D01*
X-2790Y12580D01*
X-2290D01*
X-2190Y12480D01*
Y12080D02*
Y12480D01*
X-1620Y12080D02*
Y12480D01*
X-1520Y12580D01*
X-1020D01*
X-920Y12480D01*
Y12080D02*
Y12480D01*
X-350Y12080D02*
Y12480D01*
X-250Y12580D01*
X250D01*
X350Y12480D01*
Y12080D02*
Y12480D01*
X920Y12080D02*
Y12480D01*
X1020Y12580D01*
X1520D01*
X1620Y12480D01*
Y12080D02*
Y12480D01*
X2190Y12080D02*
Y12480D01*
X2290Y12580D01*
X2790D01*
X2890Y12480D01*
Y12080D02*
Y12480D01*
X3460Y12080D02*
Y12480D01*
X3560Y12580D01*
X4060D01*
X4160Y12480D01*
Y12080D02*
Y12480D01*
X4730Y12080D02*
Y12480D01*
X4830Y12580D01*
X5330D01*
X5430Y12480D01*
Y12080D02*
Y12480D01*
X6000Y12080D02*
Y12480D01*
X6100Y12580D01*
X6600D01*
X6700Y12480D01*
Y12080D02*
Y12480D01*
X7270Y12080D02*
Y12480D01*
X7370Y12580D01*
X7870D01*
X7970Y12480D01*
Y12080D02*
Y12480D01*
X8540Y12080D02*
Y12480D01*
X8640Y12580D01*
X9140D01*
X9240Y12480D01*
Y12080D02*
Y12480D01*
X9810Y12080D02*
Y12480D01*
X9910Y12580D01*
X10410D01*
X10510Y12480D01*
Y12080D02*
Y12480D01*
X12080Y10510D02*
X12480D01*
X12580Y10410D01*
Y9910D02*
Y10410D01*
X12480Y9810D02*
X12580Y9910D01*
X12080Y9810D02*
X12480D01*
X12080Y9240D02*
X12480D01*
X12580Y9140D01*
Y8640D02*
Y9140D01*
X12480Y8540D02*
X12580Y8640D01*
X12080Y8540D02*
X12480D01*
X12080Y7970D02*
X12480D01*
X12580Y7870D01*
Y7370D02*
Y7870D01*
X12480Y7270D02*
X12580Y7370D01*
X12080Y7270D02*
X12480D01*
X12080Y6700D02*
X12480D01*
X12580Y6600D01*
Y6100D02*
Y6600D01*
X12480Y6000D02*
X12580Y6100D01*
X12080Y6000D02*
X12480D01*
X12080Y5430D02*
X12480D01*
X12580Y5330D01*
Y4830D02*
Y5330D01*
X12480Y4730D02*
X12580Y4830D01*
X12080Y4730D02*
X12480D01*
X12080Y4160D02*
X12480D01*
X12580Y4060D01*
Y3560D02*
Y4060D01*
X12480Y3460D02*
X12580Y3560D01*
X12080Y3460D02*
X12480D01*
X12080Y2890D02*
X12480D01*
X12580Y2790D01*
Y2290D02*
Y2790D01*
X12480Y2190D02*
X12580Y2290D01*
X12080Y2190D02*
X12480D01*
X12080Y1620D02*
X12480D01*
X12580Y1520D01*
Y1020D02*
Y1520D01*
X12480Y920D02*
X12580Y1020D01*
X12080Y920D02*
X12480D01*
X12080Y350D02*
X12480D01*
X12580Y250D01*
Y-250D02*
Y250D01*
X12480Y-350D02*
X12580Y-250D01*
X12080Y-350D02*
X12480D01*
X12080Y-920D02*
X12480D01*
X12580Y-1020D01*
Y-1520D02*
Y-1020D01*
X12480Y-1620D02*
X12580Y-1520D01*
X12080Y-1620D02*
X12480D01*
X12080Y-2190D02*
X12480D01*
X12580Y-2290D01*
Y-2790D02*
Y-2290D01*
X12480Y-2890D02*
X12580Y-2790D01*
X12080Y-2890D02*
X12480D01*
X12080Y-3460D02*
X12480D01*
X12580Y-3560D01*
Y-4060D02*
Y-3560D01*
X12480Y-4160D02*
X12580Y-4060D01*
X12080Y-4160D02*
X12480D01*
X12080Y-4730D02*
X12480D01*
X12580Y-4830D01*
Y-5330D02*
Y-4830D01*
X12480Y-5430D02*
X12580Y-5330D01*
X12080Y-5430D02*
X12480D01*
X12080Y-6000D02*
X12480D01*
X12580Y-6100D01*
Y-6600D02*
Y-6100D01*
X12480Y-6700D02*
X12580Y-6600D01*
X12080Y-6700D02*
X12480D01*
X12080Y-7270D02*
X12480D01*
X12580Y-7370D01*
Y-7870D02*
Y-7370D01*
X12480Y-7970D02*
X12580Y-7870D01*
X12080Y-7970D02*
X12480D01*
X12080Y-8540D02*
X12480D01*
X12580Y-8640D01*
Y-9140D02*
Y-8640D01*
X12480Y-9240D02*
X12580Y-9140D01*
X12080Y-9240D02*
X12480D01*
X12080Y-9810D02*
X12480D01*
X12580Y-9910D01*
Y-10410D02*
Y-9910D01*
X12480Y-10510D02*
X12580Y-10410D01*
X12080Y-10510D02*
X12480D01*
X10510Y-12480D02*
Y-12080D01*
X10410Y-12580D02*
X10510Y-12480D01*
X9910Y-12580D02*
X10410D01*
X9810Y-12480D02*
X9910Y-12580D01*
X9810Y-12480D02*
Y-12080D01*
X9240Y-12480D02*
Y-12080D01*
X9140Y-12580D02*
X9240Y-12480D01*
X8640Y-12580D02*
X9140D01*
X8540Y-12480D02*
X8640Y-12580D01*
X8540Y-12480D02*
Y-12080D01*
X7970Y-12480D02*
Y-12080D01*
X7870Y-12580D02*
X7970Y-12480D01*
X7370Y-12580D02*
X7870D01*
X7270Y-12480D02*
X7370Y-12580D01*
X7270Y-12480D02*
Y-12080D01*
X6700Y-12480D02*
Y-12080D01*
X6600Y-12580D02*
X6700Y-12480D01*
X6100Y-12580D02*
X6600D01*
X6000Y-12480D02*
X6100Y-12580D01*
X6000Y-12480D02*
Y-12080D01*
X5430Y-12480D02*
Y-12080D01*
X5330Y-12580D02*
X5430Y-12480D01*
X4830Y-12580D02*
X5330D01*
X4730Y-12480D02*
X4830Y-12580D01*
X4730Y-12480D02*
Y-12080D01*
X4160Y-12480D02*
Y-12080D01*
X4060Y-12580D02*
X4160Y-12480D01*
X3560Y-12580D02*
X4060D01*
X3460Y-12480D02*
X3560Y-12580D01*
X3460Y-12480D02*
Y-12080D01*
X2890Y-12480D02*
Y-12080D01*
X2790Y-12580D02*
X2890Y-12480D01*
X2290Y-12580D02*
X2790D01*
X2190Y-12480D02*
X2290Y-12580D01*
X2190Y-12480D02*
Y-12080D01*
X1620Y-12480D02*
Y-12080D01*
X1520Y-12580D02*
X1620Y-12480D01*
X1020Y-12580D02*
X1520D01*
X920Y-12480D02*
X1020Y-12580D01*
X920Y-12480D02*
Y-12080D01*
X350Y-12480D02*
Y-12080D01*
X250Y-12580D02*
X350Y-12480D01*
X-250Y-12580D02*
X250D01*
X-350Y-12480D02*
X-250Y-12580D01*
X-350Y-12480D02*
Y-12080D01*
X-920Y-12480D02*
Y-12080D01*
X-1020Y-12580D02*
X-920Y-12480D01*
X-1520Y-12580D02*
X-1020D01*
X-1620Y-12480D02*
X-1520Y-12580D01*
X-1620Y-12480D02*
Y-12080D01*
X-2190Y-12480D02*
Y-12080D01*
X-2290Y-12580D02*
X-2190Y-12480D01*
X-2790Y-12580D02*
X-2290D01*
X-2890Y-12480D02*
X-2790Y-12580D01*
X-2890Y-12480D02*
Y-12080D01*
X-3460Y-12480D02*
Y-12080D01*
X-3560Y-12580D02*
X-3460Y-12480D01*
X-4060Y-12580D02*
X-3560D01*
X-4160Y-12480D02*
X-4060Y-12580D01*
X-4160Y-12480D02*
Y-12080D01*
X-4730Y-12480D02*
Y-12080D01*
X-4830Y-12580D02*
X-4730Y-12480D01*
X-5330Y-12580D02*
X-4830D01*
X-5430Y-12480D02*
X-5330Y-12580D01*
X-5430Y-12480D02*
Y-12080D01*
X-6000Y-12480D02*
Y-12080D01*
X-6100Y-12580D02*
X-6000Y-12480D01*
X-6600Y-12580D02*
X-6100D01*
X-6700Y-12480D02*
X-6600Y-12580D01*
X-6700Y-12480D02*
Y-12080D01*
X-7270Y-12480D02*
Y-12080D01*
X-7370Y-12580D02*
X-7270Y-12480D01*
X-7870Y-12580D02*
X-7370D01*
X-7970Y-12480D02*
X-7870Y-12580D01*
X-7970Y-12480D02*
Y-12080D01*
X-8540Y-12480D02*
Y-12080D01*
X-8640Y-12580D02*
X-8540Y-12480D01*
X-9140Y-12580D02*
X-8640D01*
X-9240Y-12480D02*
X-9140Y-12580D01*
X-9240Y-12480D02*
Y-12080D01*
X-9810Y-12480D02*
Y-12080D01*
X-9910Y-12580D02*
X-9810Y-12480D01*
X-10410Y-12580D02*
X-9910D01*
X-10510Y-12480D02*
X-10410Y-12580D01*
X-10510Y-12480D02*
Y-12080D01*
X-12446Y-10465D02*
X-12090D01*
X-12573Y-10338D02*
X-12446Y-10465D01*
X-12573Y-10338D02*
Y-9982D01*
X-12446Y-9855D01*
X-12090D01*
X-12080Y-9810D02*
Y-9240D01*
Y-8540D02*
Y-7970D01*
Y-7270D02*
Y-6700D01*
Y-6000D02*
Y-5430D01*
Y-4730D02*
Y-4160D01*
Y-3460D02*
Y-2890D01*
Y-2190D02*
Y-1620D01*
Y-920D02*
Y-350D01*
Y350D02*
Y920D01*
Y1620D02*
Y2190D01*
Y2890D02*
Y3460D01*
Y4160D02*
Y4730D01*
Y5430D02*
Y6000D01*
Y6700D02*
Y7270D01*
Y7970D02*
Y8540D01*
Y9240D02*
Y9810D01*
X-9810Y12080D02*
X-9240D01*
X-8540D02*
X-7970D01*
X-7270D02*
X-6700D01*
X-6000D02*
X-5430D01*
X-4730D02*
X-4160D01*
X-3460D02*
X-2890D01*
X-2190D02*
X-1620D01*
X-920D02*
X-350D01*
X350D02*
X920D01*
X1620D02*
X2190D01*
X2890D02*
X3460D01*
X4160D02*
X4730D01*
X5430D02*
X6000D01*
X6700D02*
X7270D01*
X7970D02*
X8540D01*
X9240D02*
X9810D01*
X12080Y9240D02*
Y9810D01*
Y7970D02*
Y8540D01*
Y6700D02*
Y7270D01*
Y5430D02*
Y6000D01*
Y4160D02*
Y4730D01*
Y2890D02*
Y3460D01*
Y1620D02*
Y2190D01*
Y350D02*
Y920D01*
Y-920D02*
Y-350D01*
Y-2190D02*
Y-1620D01*
Y-3460D02*
Y-2890D01*
Y-4730D02*
Y-4160D01*
Y-6000D02*
Y-5430D01*
Y-7270D02*
Y-6700D01*
Y-8540D02*
Y-7970D01*
Y-9810D02*
Y-9240D01*
X10510Y-12080D02*
X12080D01*
Y-10510D01*
X10510Y12080D02*
X12080D01*
Y10510D02*
Y12080D01*
X-12080Y10510D02*
Y12080D01*
X-10510D01*
X-12080Y-10510D02*
X-10510Y-12080D01*
D39*
X-11880Y-8890D02*
D03*
Y-7620D02*
D03*
Y-6350D02*
D03*
Y-5080D02*
D03*
Y-3810D02*
D03*
Y-2540D02*
D03*
Y-1270D02*
D03*
X11880Y-8890D02*
D03*
D40*
X-11880Y0D02*
D03*
D41*
X-6350Y11880D02*
D03*
X-5080D02*
D03*
X-3810D02*
D03*
X-2540D02*
D03*
X-1270D02*
D03*
X-0D02*
D03*
X2540Y-11880D02*
D03*
X1270D02*
D03*
X-8890D02*
D03*
X-10160D02*
D03*
D43*
X200Y5700D02*
D03*
X1000Y3300D02*
D03*
X1800Y7300D02*
D03*
Y8900D02*
D03*
X6600Y5700D02*
D03*
X8200Y8100D02*
D03*
Y8900D02*
D03*
X4450Y-11075D02*
D03*
X8200Y2500D02*
D03*
Y1700D02*
D03*
X-400Y-5600D02*
D03*
X-3500Y-300D02*
D03*
X-2900Y-100D02*
D03*
X2600Y4900D02*
D03*
X3400Y4100D02*
D03*
Y2500D02*
D03*
X-600Y1700D02*
D03*
X-1660Y-10460D02*
D03*
X-6200Y-10200D02*
D03*
X-4900D02*
D03*
X-2300D02*
D03*
X300Y-9700D02*
D03*
X-9525Y11000D02*
D03*
X-3900Y4200D02*
D03*
X-3500Y4700D02*
D03*
X-3100Y1200D02*
D03*
X200Y-700D02*
D03*
X-9000Y9300D02*
D03*
X2900Y10500D02*
D03*
X4700D02*
D03*
X5700D02*
D03*
X8300D02*
D03*
X10100D02*
D03*
X4200Y3300D02*
D03*
X2600Y1700D02*
D03*
X-1200Y10500D02*
D03*
X-10600Y-7800D02*
D03*
Y-7400D02*
D03*
Y-7000D02*
D03*
X-4200Y-7300D02*
D03*
X-5000D02*
D03*
X-4600D02*
D03*
X-5400D02*
D03*
X10000Y-5900D02*
D03*
Y-6800D02*
D03*
X10500Y-4900D02*
D03*
X8700D02*
D03*
X7800D02*
D03*
X-1000Y-10200D02*
D03*
X-5200Y7800D02*
D03*
X-5700D02*
D03*
X-1000Y-8000D02*
D03*
X6245Y-6200D02*
D03*
X-1400Y-700D02*
D03*
X-4800Y-8200D02*
D03*
X2600Y-1500D02*
D03*
X6600Y900D02*
D03*
X9000Y4900D02*
D03*
Y1700D02*
D03*
X8200Y5700D02*
D03*
Y7300D02*
D03*
X9800Y8900D02*
D03*
X5800Y7300D02*
D03*
Y8100D02*
D03*
X6800Y-9300D02*
D03*
X500Y-8100D02*
D03*
X-3100Y7050D02*
D03*
X-10700Y5100D02*
D03*
X-10700Y3900D02*
D03*
X8200Y-700D02*
D03*
X9000Y-3100D02*
D03*
X3400Y7300D02*
D03*
X8400Y-9800D02*
D03*
X1800Y9400D02*
D03*
X-1900Y9100D02*
D03*
X-1000Y-5000D02*
D03*
X2200Y9800D02*
D03*
D46*
X-100Y-5600D02*
X1000Y-4500D01*
Y3300D01*
X-400Y-5600D02*
X-100D01*
M02*
