G04 Layer_Physical_Order=7*
G04 Layer_Color=16737945*
%FSLAX43Y43*%
%MOMM*%
G71*
G01*
G75*
%ADD29C,0.400*%
%ADD30C,0.700*%
%ADD31C,0.500*%
%ADD33C,0.150*%
%ADD35C,0.200*%
G04:AMPARAMS|DCode=39|XSize=0.7mm|YSize=1.6mm|CornerRadius=0.175mm|HoleSize=0mm|Usage=FLASHONLY|Rotation=90.000|XOffset=0mm|YOffset=0mm|HoleType=Round|Shape=RoundedRectangle|*
%AMROUNDEDRECTD39*
21,1,0.700,1.250,0,0,90.0*
21,1,0.350,1.600,0,0,90.0*
1,1,0.350,0.625,0.175*
1,1,0.350,0.625,-0.175*
1,1,0.350,-0.625,-0.175*
1,1,0.350,-0.625,0.175*
%
%ADD39ROUNDEDRECTD39*%
%ADD40R,1.600X0.700*%
G04:AMPARAMS|DCode=41|XSize=0.7mm|YSize=1.6mm|CornerRadius=0.175mm|HoleSize=0mm|Usage=FLASHONLY|Rotation=0.000|XOffset=0mm|YOffset=0mm|HoleType=Round|Shape=RoundedRectangle|*
%AMROUNDEDRECTD41*
21,1,0.700,1.250,0,0,0.0*
21,1,0.350,1.600,0,0,0.0*
1,1,0.350,0.175,-0.625*
1,1,0.350,-0.175,-0.625*
1,1,0.350,-0.175,0.625*
1,1,0.350,0.175,0.625*
%
%ADD41ROUNDEDRECTD41*%
%ADD43C,0.400*%
%ADD44C,0.800*%
%ADD45C,0.500*%
%ADD46C,0.100*%
G36*
X7400Y3743D02*
X7973D01*
X8027Y3677D01*
X8000Y3527D01*
X7984Y3516D01*
X7917Y3417D01*
X7894Y3300D01*
X7917Y3183D01*
X7984Y3084D01*
X8083Y3017D01*
X8200Y2994D01*
X8317Y3017D01*
X8416Y3084D01*
X8463Y3153D01*
X8604Y3191D01*
X8748Y3048D01*
X8891Y2904D01*
X8853Y2763D01*
X8784Y2716D01*
X8717Y2617D01*
X8694Y2500D01*
X8717Y2383D01*
X8784Y2284D01*
X8883Y2217D01*
X9000Y2194D01*
X9117Y2217D01*
X9216Y2284D01*
X9263Y2353D01*
X9404Y2391D01*
X10143Y1652D01*
Y875D01*
X10026Y827D01*
X9426Y1426D01*
X9368Y1465D01*
X9300Y1478D01*
X8600D01*
X8560Y1471D01*
X8492Y1543D01*
X8476Y1573D01*
X8483Y1583D01*
X8506Y1700D01*
X8483Y1817D01*
X8416Y1916D01*
X8317Y1983D01*
X8200Y2006D01*
X8083Y1983D01*
X7984Y1916D01*
X7917Y1817D01*
X7894Y1700D01*
X7917Y1583D01*
X7984Y1484D01*
X8083Y1417D01*
X8200Y1394D01*
X8278Y1410D01*
X8340Y1293D01*
X8245Y1197D01*
X8200Y1206D01*
X8083Y1183D01*
X7984Y1116D01*
X7917Y1017D01*
X7914Y998D01*
X7776Y957D01*
X7616Y1116D01*
X7517Y1183D01*
X7400Y1206D01*
X7321Y1190D01*
X7222Y1272D01*
X7222Y1328D01*
X7321Y1410D01*
X7400Y1394D01*
X7517Y1417D01*
X7616Y1484D01*
X7683Y1583D01*
X7706Y1700D01*
X7683Y1817D01*
X7616Y1916D01*
X7517Y1983D01*
X7400Y2006D01*
X7321Y1990D01*
X7222Y2072D01*
Y2128D01*
X7321Y2210D01*
X7400Y2194D01*
X7517Y2217D01*
X7616Y2284D01*
X7683Y2383D01*
X7706Y2500D01*
X7683Y2617D01*
X7616Y2716D01*
X7517Y2783D01*
X7400Y2806D01*
X7321Y2790D01*
X7222Y2872D01*
Y2928D01*
X7321Y3010D01*
X7400Y2994D01*
X7517Y3017D01*
X7616Y3084D01*
X7683Y3183D01*
X7706Y3300D01*
X7683Y3417D01*
X7616Y3516D01*
X7517Y3583D01*
X7400Y3606D01*
X7366Y3599D01*
X7286Y3673D01*
X7375Y3748D01*
X7400Y3743D01*
D02*
G37*
G36*
X-2620Y4933D02*
X-2619Y4911D01*
X-3471Y4058D01*
X-3609Y4087D01*
X-3615Y4094D01*
X-3594Y4200D01*
X-3617Y4317D01*
X-3684Y4416D01*
X-3783Y4483D01*
X-3900Y4506D01*
X-4017Y4483D01*
X-4116Y4416D01*
X-4183Y4317D01*
X-4206Y4200D01*
X-4184Y4089D01*
X-4183Y4081D01*
X-4255Y3962D01*
X-4700D01*
X-4815Y3915D01*
X-5671Y3058D01*
X-5809Y3087D01*
X-5815Y3094D01*
X-5794Y3200D01*
X-5807Y3264D01*
X-5385Y3685D01*
X-5338Y3800D01*
Y4728D01*
X-5028Y5038D01*
X-2650D01*
X-2620Y4933D01*
D02*
G37*
G36*
X4357Y8735D02*
X4425Y8722D01*
X5035D01*
X5069Y8678D01*
X5113Y8595D01*
X5094Y8500D01*
X5000Y8406D01*
X4883Y8383D01*
X4784Y8316D01*
X4717Y8217D01*
X4694Y8100D01*
X4717Y7983D01*
X4784Y7884D01*
X4883Y7817D01*
X5000Y7794D01*
X5070Y7808D01*
X5197Y7729D01*
Y3549D01*
X4096Y2448D01*
X3978Y2497D01*
Y4535D01*
X4022Y4569D01*
X4105Y4613D01*
X4200Y4594D01*
X4317Y4617D01*
X4416Y4684D01*
X4483Y4783D01*
X4506Y4900D01*
X4612Y5016D01*
X4617Y5017D01*
X4716Y5084D01*
X4783Y5183D01*
X4806Y5300D01*
X4783Y5417D01*
X4716Y5516D01*
X4617Y5583D01*
X4532Y5600D01*
X4488Y5689D01*
X4482Y5729D01*
X4726Y5974D01*
X4765Y6032D01*
X4778Y6100D01*
Y7500D01*
X4765Y7568D01*
X4726Y7626D01*
X4551Y7801D01*
X4493Y7840D01*
X4476Y7883D01*
X4530Y7963D01*
X4557Y8100D01*
X4530Y8237D01*
X4452Y8352D01*
X4172Y8633D01*
X4182Y8715D01*
X4264Y8756D01*
X4307Y8768D01*
X4357Y8735D01*
D02*
G37*
G36*
X7443Y-2848D02*
Y-4100D01*
X7470Y-4237D01*
X7548Y-4352D01*
X7663Y-4430D01*
X7800Y-4457D01*
X7937Y-4430D01*
X7945Y-4424D01*
X8072Y-4492D01*
Y-4976D01*
X7674Y-5374D01*
X7673Y-5375D01*
X7527D01*
X7526Y-5374D01*
X6978Y-4826D01*
Y-3542D01*
X7016Y-3516D01*
X7083Y-3417D01*
X7106Y-3300D01*
X7083Y-3183D01*
X7016Y-3084D01*
X6917Y-3017D01*
X6800Y-2994D01*
X6683Y-3017D01*
X6607Y-3068D01*
X6584Y-3084D01*
X6454Y-3050D01*
X6452Y-3048D01*
X6337Y-2970D01*
X6200Y-2943D01*
X4642D01*
X4587Y-2832D01*
X4585Y-2821D01*
X4626Y-2780D01*
X4665Y-2722D01*
X4678Y-2654D01*
Y-263D01*
X4805Y-210D01*
X7443Y-2848D01*
D02*
G37*
G36*
X10996Y-4092D02*
X11057Y-4183D01*
X11148Y-4244D01*
X11255Y-4265D01*
X11430D01*
Y-4625D01*
X11255D01*
X11148Y-4646D01*
X11057Y-4707D01*
X10996Y-4798D01*
X10975Y-4905D01*
Y-5255D01*
X10996Y-5362D01*
X11057Y-5453D01*
X11148Y-5514D01*
X11255Y-5535D01*
X11430D01*
Y-5895D01*
X11255D01*
X11148Y-5916D01*
X11057Y-5977D01*
X10996Y-6068D01*
X10975Y-6175D01*
Y-6525D01*
X10996Y-6632D01*
X11057Y-6723D01*
X11148Y-6784D01*
X11255Y-6805D01*
X11430D01*
Y-7165D01*
X11255D01*
X11148Y-7186D01*
X11057Y-7247D01*
X10996Y-7338D01*
X10975Y-7445D01*
Y-7795D01*
X10996Y-7902D01*
X11057Y-7993D01*
X11148Y-8054D01*
X11255Y-8075D01*
X11430D01*
Y-9705D01*
X11255D01*
X11148Y-9726D01*
X11057Y-9787D01*
X10996Y-9878D01*
X10975Y-9985D01*
Y-10335D01*
X10996Y-10442D01*
X11057Y-10533D01*
X11148Y-10594D01*
X11255Y-10615D01*
X11430D01*
Y-11430D01*
X10615D01*
Y-11255D01*
X10594Y-11148D01*
X10533Y-11057D01*
X10442Y-10996D01*
X10335Y-10975D01*
X9985D01*
X9878Y-10996D01*
X9787Y-11057D01*
X9726Y-11148D01*
X9705Y-11255D01*
Y-11430D01*
X9345D01*
Y-11255D01*
X9324Y-11148D01*
X9263Y-11057D01*
X9172Y-10996D01*
X9065Y-10975D01*
X8715D01*
X8608Y-10996D01*
X8517Y-11057D01*
X8456Y-11148D01*
X8435Y-11255D01*
Y-11430D01*
X8075D01*
Y-11255D01*
X8054Y-11148D01*
X7993Y-11057D01*
X7902Y-10996D01*
X7795Y-10975D01*
X7445D01*
X7338Y-10996D01*
X7247Y-11057D01*
X7186Y-11148D01*
X7165Y-11255D01*
Y-11430D01*
X6805D01*
Y-11255D01*
X6784Y-11148D01*
X6723Y-11057D01*
X6632Y-10996D01*
X6525Y-10975D01*
X6175D01*
X6068Y-10996D01*
X5977Y-11057D01*
X5916Y-11148D01*
X5895Y-11255D01*
Y-11430D01*
X5535D01*
Y-11255D01*
X5514Y-11148D01*
X5453Y-11057D01*
X5362Y-10996D01*
X5255Y-10975D01*
X4905D01*
X4798Y-10996D01*
X4700Y-10909D01*
X4666Y-10859D01*
X4567Y-10792D01*
X4450Y-10769D01*
X4405Y-10778D01*
X4376Y-10749D01*
X4318Y-10710D01*
X4250Y-10697D01*
X-1305D01*
X-1376Y-10579D01*
X-1376Y-10570D01*
X-1354Y-10460D01*
X-1377Y-10343D01*
X-1444Y-10244D01*
X-1543Y-10177D01*
X-1660Y-10154D01*
X-1777Y-10177D01*
X-1873Y-10241D01*
X-1899Y-10235D01*
X-1968Y-10210D01*
X-1995Y-10193D01*
X-2017Y-10083D01*
X-2084Y-9984D01*
X-2183Y-9917D01*
X-2300Y-9894D01*
X-2322Y-9876D01*
Y-8287D01*
X-2275Y-8255D01*
X-2195Y-8231D01*
X-2117Y-8283D01*
X-2000Y-8306D01*
X-1883Y-8283D01*
X-1784Y-8216D01*
X-1717Y-8117D01*
X-1694Y-8000D01*
X-1717Y-7883D01*
X-1769Y-7805D01*
X-1745Y-7725D01*
X-1713Y-7678D01*
X-1200D01*
X-1132Y-7665D01*
X-1074Y-7626D01*
X-621Y-7173D01*
X-483Y-7215D01*
X-483Y-7217D01*
X-416Y-7316D01*
X-317Y-7383D01*
X-200Y-7406D01*
X-83Y-7383D01*
X16Y-7316D01*
X71Y-7234D01*
X139Y-7231D01*
X204Y-7247D01*
X217Y-7317D01*
X284Y-7416D01*
X383Y-7483D01*
X500Y-7506D01*
X617Y-7483D01*
X716Y-7416D01*
X783Y-7317D01*
X806Y-7200D01*
X797Y-7155D01*
X1093Y-6860D01*
X1210Y-6922D01*
X1194Y-7000D01*
X1217Y-7117D01*
X1284Y-7216D01*
X1383Y-7283D01*
X1500Y-7306D01*
X1545Y-7297D01*
X2174Y-7926D01*
X2232Y-7965D01*
X2300Y-7978D01*
X4035D01*
X4069Y-8022D01*
X4113Y-8105D01*
X4094Y-8200D01*
X4117Y-8317D01*
X4136Y-8345D01*
X4068Y-8472D01*
X524D01*
X326Y-8274D01*
X268Y-8235D01*
X200Y-8222D01*
X165D01*
X131Y-8178D01*
X87Y-8095D01*
X106Y-8000D01*
X83Y-7883D01*
X16Y-7784D01*
X-83Y-7717D01*
X-200Y-7694D01*
X-317Y-7717D01*
X-416Y-7784D01*
X-483Y-7883D01*
X-506Y-8000D01*
X-487Y-8095D01*
X-531Y-8178D01*
X-565Y-8222D01*
X-850D01*
X-918Y-8235D01*
X-976Y-8274D01*
X-1326Y-8624D01*
X-1365Y-8682D01*
X-1378Y-8750D01*
Y-8858D01*
X-1416Y-8884D01*
X-1483Y-8983D01*
X-1506Y-9100D01*
X-1483Y-9217D01*
X-1416Y-9316D01*
X-1317Y-9383D01*
X-1200Y-9406D01*
X-1083Y-9383D01*
X-1066Y-9371D01*
X-965Y-9337D01*
X-903Y-9404D01*
X-819Y-9529D01*
X-622Y-9661D01*
X-390Y-9707D01*
X-158Y-9661D01*
X-123Y-9638D01*
X-49Y-9677D01*
X-4Y-9711D01*
X17Y-9817D01*
X35Y-9844D01*
X-56Y-9935D01*
X-83Y-9917D01*
X-200Y-9894D01*
X-317Y-9917D01*
X-416Y-9984D01*
X-483Y-10083D01*
X-506Y-10200D01*
X-483Y-10317D01*
X-416Y-10416D01*
X-317Y-10483D01*
X-200Y-10506D01*
X-83Y-10483D01*
X16Y-10416D01*
X83Y-10317D01*
X106Y-10200D01*
X83Y-10083D01*
X65Y-10056D01*
X156Y-9965D01*
X183Y-9983D01*
X300Y-10006D01*
X417Y-9983D01*
X516Y-9916D01*
X583Y-9817D01*
X606Y-9700D01*
X583Y-9583D01*
X516Y-9484D01*
X417Y-9417D01*
X300Y-9394D01*
X277Y-9399D01*
X253Y-9383D01*
X180Y-9289D01*
X217Y-9100D01*
X171Y-8868D01*
X134Y-8813D01*
X192Y-8671D01*
X214Y-8667D01*
X324Y-8776D01*
X382Y-8815D01*
X450Y-8828D01*
X6650D01*
X6718Y-8815D01*
X6776Y-8776D01*
X8771Y-6781D01*
X8811Y-6787D01*
X8900Y-6832D01*
X8917Y-6917D01*
X8984Y-7016D01*
X9083Y-7083D01*
X9200Y-7106D01*
X9317Y-7083D01*
X9416Y-7016D01*
X9483Y-6917D01*
X9506Y-6800D01*
X9483Y-6683D01*
X9458Y-6646D01*
X9467Y-6528D01*
X9498Y-6495D01*
X9526Y-6476D01*
X9726Y-6276D01*
X9765Y-6218D01*
X9778Y-6150D01*
Y-5332D01*
X9905Y-5320D01*
X9910Y-5343D01*
X9949Y-5401D01*
X10247Y-5699D01*
Y-7101D01*
X10045Y-7303D01*
X10000Y-7294D01*
X9883Y-7317D01*
X9784Y-7384D01*
X9717Y-7483D01*
X9694Y-7600D01*
X9717Y-7717D01*
X9784Y-7816D01*
X9883Y-7883D01*
X10000Y-7906D01*
X10117Y-7883D01*
X10216Y-7816D01*
X10283Y-7717D01*
X10306Y-7600D01*
X10297Y-7555D01*
X10551Y-7301D01*
X10590Y-7243D01*
X10603Y-7175D01*
Y-5625D01*
X10590Y-5557D01*
X10551Y-5499D01*
X10253Y-5201D01*
Y-4489D01*
X10311Y-4458D01*
X10380Y-4433D01*
X10500Y-4457D01*
X10637Y-4430D01*
X10752Y-4352D01*
X10830Y-4237D01*
X10857Y-4100D01*
Y-4044D01*
X10984Y-4031D01*
X10996Y-4092D01*
D02*
G37*
G36*
X-1022Y697D02*
X-1062Y600D01*
Y363D01*
X-1157Y327D01*
X-1189Y320D01*
X-1283Y383D01*
X-1400Y406D01*
X-1517Y383D01*
X-1616Y316D01*
X-1652Y262D01*
X-1700D01*
X-1815Y215D01*
X-2767Y-738D01*
X-5445D01*
X-5517Y-619D01*
X-5516Y-611D01*
X-5494Y-500D01*
X-5507Y-436D01*
X-4933Y138D01*
X-2600D01*
X-2485Y185D01*
X-1933Y738D01*
X-1652D01*
X-1616Y684D01*
X-1517Y617D01*
X-1400Y594D01*
X-1283Y617D01*
X-1184Y684D01*
X-1135Y757D01*
X-1022Y697D01*
D02*
G37*
G36*
X-455Y11255D02*
X-434Y11148D01*
X-373Y11057D01*
X-282Y10996D01*
X-266Y10863D01*
X-324Y10824D01*
X-890Y10259D01*
X-3700D01*
X-3876Y10224D01*
X-3938Y10182D01*
X-3995Y10171D01*
X-4160Y10060D01*
X-4271Y9895D01*
X-4310Y9700D01*
X-4290Y9603D01*
X-4407Y9540D01*
X-5184Y10316D01*
X-5283Y10383D01*
X-5400Y10406D01*
X-5400Y10406D01*
X-6782D01*
X-6835Y10533D01*
X-6784Y10584D01*
X-6784Y10584D01*
X-6784Y10584D01*
X-6748Y10638D01*
X-6717Y10683D01*
X-6717Y10683D01*
X-6717Y10683D01*
X-6706Y10739D01*
X-6694Y10800D01*
X-6694Y10800D01*
X-6694Y10800D01*
X-6704Y10851D01*
X-6714Y10897D01*
X-6666Y10955D01*
X-6615Y10993D01*
X-6525Y10975D01*
X-6175D01*
X-6068Y10996D01*
X-5977Y11057D01*
X-5916Y11148D01*
X-5895Y11255D01*
Y11430D01*
X-5535D01*
Y11255D01*
X-5514Y11148D01*
X-5453Y11057D01*
X-5362Y10996D01*
X-5255Y10975D01*
X-4905D01*
X-4798Y10996D01*
X-4707Y11057D01*
X-4646Y11148D01*
X-4625Y11255D01*
Y11430D01*
X-4265D01*
Y11255D01*
X-4244Y11148D01*
X-4183Y11057D01*
X-4092Y10996D01*
X-3985Y10975D01*
X-3635D01*
X-3528Y10996D01*
X-3437Y11057D01*
X-3376Y11148D01*
X-3355Y11255D01*
Y11430D01*
X-2995D01*
Y11255D01*
X-2974Y11148D01*
X-2913Y11057D01*
X-2822Y10996D01*
X-2715Y10975D01*
X-2365D01*
X-2258Y10996D01*
X-2167Y11057D01*
X-2106Y11148D01*
X-2085Y11255D01*
Y11430D01*
X-1725D01*
Y11255D01*
X-1704Y11148D01*
X-1643Y11057D01*
X-1552Y10996D01*
X-1445Y10975D01*
X-1095D01*
X-988Y10996D01*
X-897Y11057D01*
X-836Y11148D01*
X-815Y11255D01*
Y11430D01*
X-455D01*
Y11255D01*
D02*
G37*
G36*
X2258Y10996D02*
X2365Y10975D01*
X2715D01*
X2738Y10979D01*
X2944Y10774D01*
X3002Y10735D01*
X3070Y10722D01*
X3441D01*
X3509Y10595D01*
X3470Y10537D01*
X3443Y10400D01*
Y8500D01*
X3470Y8363D01*
X3548Y8248D01*
X3825Y7971D01*
X3776Y7853D01*
X2499D01*
X2273Y8079D01*
X2315Y8217D01*
X2317Y8217D01*
X2416Y8284D01*
X2483Y8383D01*
X2506Y8500D01*
X2483Y8617D01*
X2416Y8716D01*
X2317Y8783D01*
X2200Y8806D01*
X2106Y8900D01*
X2083Y9017D01*
X2016Y9116D01*
X2056Y9243D01*
X2083Y9283D01*
X2106Y9400D01*
X2200Y9494D01*
X2317Y9517D01*
X2416Y9584D01*
X2424Y9595D01*
X2576D01*
X2584Y9584D01*
X2683Y9517D01*
X2800Y9494D01*
X2917Y9517D01*
X3016Y9584D01*
X3083Y9683D01*
X3106Y9800D01*
X3083Y9917D01*
X3016Y10016D01*
X2969Y10048D01*
X2965Y10068D01*
X2926Y10126D01*
X2111Y10941D01*
X2192Y11040D01*
X2258Y10996D01*
D02*
G37*
G36*
X11430Y10615D02*
X11255D01*
X11148Y10594D01*
X11057Y10533D01*
X10996Y10442D01*
X10975Y10335D01*
Y9985D01*
X10996Y9878D01*
X11057Y9787D01*
X11148Y9726D01*
X11255Y9705D01*
X11430D01*
Y9345D01*
X11255D01*
X11148Y9324D01*
X11057Y9263D01*
X10996Y9172D01*
X10975Y9065D01*
Y8715D01*
X10996Y8608D01*
X11057Y8517D01*
X11148Y8456D01*
X11255Y8435D01*
X11430D01*
Y8075D01*
X11255D01*
X11148Y8054D01*
X11057Y7993D01*
X10996Y7902D01*
X10975Y7795D01*
Y7445D01*
X10996Y7338D01*
X11057Y7247D01*
X11148Y7186D01*
X11255Y7165D01*
X11430D01*
Y6805D01*
X11255D01*
X11148Y6784D01*
X11057Y6723D01*
X10996Y6632D01*
X10975Y6525D01*
Y6175D01*
X10996Y6068D01*
X11057Y5977D01*
X11148Y5916D01*
X11255Y5895D01*
X11430D01*
Y5535D01*
X11255D01*
X11148Y5514D01*
X11057Y5453D01*
X10996Y5362D01*
X10975Y5255D01*
Y4905D01*
X10996Y4798D01*
X11057Y4707D01*
X11148Y4646D01*
X11255Y4625D01*
X11430D01*
Y4265D01*
X11255D01*
X11148Y4244D01*
X11057Y4183D01*
X10996Y4092D01*
X10975Y3985D01*
Y3635D01*
X10996Y3528D01*
X11057Y3437D01*
X11148Y3376D01*
X11255Y3355D01*
X11430D01*
Y2995D01*
X11255D01*
X11148Y2974D01*
X11057Y2913D01*
X10996Y2822D01*
X10975Y2715D01*
Y2365D01*
X10996Y2258D01*
X11057Y2167D01*
X11148Y2106D01*
X11255Y2085D01*
X11430D01*
Y1725D01*
X11255D01*
X11148Y1704D01*
X11057Y1643D01*
X10996Y1552D01*
X10984Y1492D01*
X10857Y1504D01*
Y1800D01*
X10830Y1937D01*
X10752Y2052D01*
X9909Y2896D01*
X9947Y3037D01*
X10016Y3084D01*
X10083Y3183D01*
X10106Y3300D01*
X10083Y3417D01*
X10016Y3516D01*
X9917Y3583D01*
X9800Y3606D01*
X9683Y3583D01*
X9584Y3516D01*
X9537Y3447D01*
X9396Y3409D01*
X9252Y3552D01*
X9252Y3552D01*
X9252Y3552D01*
X9109Y3696D01*
X9147Y3837D01*
X9216Y3884D01*
X9283Y3983D01*
X9306Y4100D01*
X9400Y4194D01*
X9517Y4217D01*
X9616Y4284D01*
X9683Y4383D01*
X9706Y4500D01*
X9683Y4617D01*
X9616Y4716D01*
X9517Y4783D01*
X9400Y4806D01*
X9283Y4783D01*
X9184Y4716D01*
X9117Y4617D01*
X9094Y4500D01*
X9000Y4406D01*
X8883Y4383D01*
X8784Y4316D01*
X8737Y4247D01*
X8596Y4209D01*
X8452Y4352D01*
X8337Y4430D01*
X8337Y4430D01*
X8200Y4457D01*
X7490D01*
X7449Y4532D01*
X7499Y4614D01*
X7517Y4617D01*
X7616Y4684D01*
X7683Y4783D01*
X7706Y4900D01*
X7683Y5017D01*
X7616Y5116D01*
X7517Y5183D01*
X7515Y5183D01*
X7473Y5321D01*
X8579Y6427D01*
X8717Y6385D01*
X8717Y6383D01*
X8784Y6284D01*
X8883Y6217D01*
X9000Y6194D01*
X9117Y6217D01*
X9216Y6284D01*
X9283Y6383D01*
X9306Y6500D01*
X9283Y6617D01*
X9216Y6716D01*
X9117Y6783D01*
X9115Y6783D01*
X9073Y6921D01*
X9526Y7374D01*
X9565Y7432D01*
X9578Y7500D01*
Y9513D01*
X9675Y9599D01*
X9700Y9594D01*
X9817Y9617D01*
X9916Y9684D01*
X9983Y9783D01*
X10006Y9900D01*
X9983Y10017D01*
X9916Y10116D01*
X9817Y10183D01*
X9700Y10206D01*
X9674Y10201D01*
X9597Y10315D01*
X9630Y10363D01*
X9657Y10500D01*
X9630Y10637D01*
X9552Y10752D01*
X9437Y10830D01*
X9300Y10857D01*
X9163Y10830D01*
X9048Y10752D01*
X8252Y9957D01*
X7901D01*
X7897Y9956D01*
X7798Y10037D01*
Y10975D01*
X7902Y10996D01*
X7993Y11057D01*
X8054Y11148D01*
X8075Y11255D01*
Y11430D01*
X8435D01*
Y11255D01*
X8456Y11148D01*
X8517Y11057D01*
X8608Y10996D01*
X8715Y10975D01*
X9065D01*
X9172Y10996D01*
X9263Y11057D01*
X9324Y11148D01*
X9345Y11255D01*
Y11430D01*
X9705D01*
Y11255D01*
X9726Y11148D01*
X9787Y11057D01*
X9878Y10996D01*
X9985Y10975D01*
X10335D01*
X10442Y10996D01*
X10533Y11057D01*
X10594Y11148D01*
X10615Y11255D01*
Y11430D01*
X11430D01*
Y10615D01*
D02*
G37*
G36*
X5895Y11255D02*
X5906Y11200D01*
X5897Y11155D01*
Y10149D01*
X5226Y9478D01*
X4842D01*
X4816Y9516D01*
X4717Y9583D01*
X4600Y9606D01*
X4478Y9711D01*
Y10700D01*
X4465Y10768D01*
X4426Y10826D01*
X4288Y10965D01*
X4273Y10980D01*
X4273Y10980D01*
X4226Y11026D01*
X4193Y11048D01*
X4244Y11148D01*
X4247Y11162D01*
X4265Y11255D01*
Y11430D01*
X4625D01*
Y11255D01*
X4646Y11148D01*
X4707Y11057D01*
X4798Y10996D01*
X4905Y10975D01*
X5255D01*
X5362Y10996D01*
X5453Y11057D01*
X5514Y11148D01*
X5535Y11255D01*
Y11430D01*
X5895D01*
Y11255D01*
D02*
G37*
G36*
X-4286Y8156D02*
X-4332Y8022D01*
X-4384Y8016D01*
X-4483Y8083D01*
X-4600Y8106D01*
X-4717Y8083D01*
X-4816Y8016D01*
X-4883Y7917D01*
X-4906Y7800D01*
X-4883Y7683D01*
X-4816Y7584D01*
X-4717Y7517D01*
X-4600Y7494D01*
X-4483Y7517D01*
X-4384Y7584D01*
X-4348Y7638D01*
X-3572D01*
X-3519Y7511D01*
X-3767Y7262D01*
X-4648D01*
X-4684Y7316D01*
X-4783Y7383D01*
X-4900Y7406D01*
X-5017Y7383D01*
X-5116Y7316D01*
X-5183Y7217D01*
X-5206Y7100D01*
X-5183Y6983D01*
X-5174Y6969D01*
X-5215Y6815D01*
X-6717Y5312D01*
X-7069D01*
X-7118Y5430D01*
X-6624Y5924D01*
X-6585Y5982D01*
X-6572Y6050D01*
Y7876D01*
X-6195Y8253D01*
X-6150Y8244D01*
X-6033Y8267D01*
X-5934Y8334D01*
X-5867Y8433D01*
X-5844Y8550D01*
X-5867Y8667D01*
X-5901Y8718D01*
X-5876Y8770D01*
X-5853Y8783D01*
X-5725Y8806D01*
X-5667Y8767D01*
X-5550Y8744D01*
X-5433Y8767D01*
X-5334Y8834D01*
X-5267Y8933D01*
X-5263Y8954D01*
X-5125Y8996D01*
X-4286Y8156D01*
D02*
G37*
G36*
X1885Y5985D02*
X2000Y5938D01*
X2245D01*
X2316Y5819D01*
X2316Y5811D01*
X2294Y5700D01*
X2317Y5583D01*
X2384Y5484D01*
X2483Y5417D01*
X2600Y5394D01*
X2717Y5417D01*
X2816Y5484D01*
X2883Y5583D01*
X2906Y5700D01*
X2888Y5791D01*
X2943Y5869D01*
X2975Y5900D01*
X3025D01*
X3057Y5869D01*
X3112Y5791D01*
X3094Y5700D01*
X3117Y5583D01*
X3184Y5484D01*
X3283Y5417D01*
X3400Y5394D01*
X3517Y5417D01*
X3527Y5424D01*
X3557Y5408D01*
X3629Y5340D01*
X3622Y5300D01*
Y2374D01*
X2974Y1726D01*
X2935Y1668D01*
X2922Y1600D01*
Y1000D01*
X2935Y932D01*
X2974Y874D01*
X3822Y26D01*
Y-2326D01*
X3449Y-2699D01*
X3410Y-2757D01*
X3397Y-2825D01*
Y-2924D01*
X3270Y-2992D01*
X3237Y-2970D01*
X3100Y-2943D01*
X2963Y-2970D01*
X2848Y-3048D01*
X2770Y-3163D01*
X2743Y-3300D01*
X2770Y-3437D01*
X2848Y-3552D01*
X2963Y-3630D01*
X3100Y-3657D01*
X3237Y-3630D01*
X3270Y-3608D01*
X3397Y-3676D01*
Y-3975D01*
X3410Y-4043D01*
X3449Y-4101D01*
X4622Y-5274D01*
Y-5758D01*
X4584Y-5784D01*
X4517Y-5883D01*
X4517Y-5885D01*
X4379Y-5927D01*
X4097Y-5645D01*
X4106Y-5600D01*
X4083Y-5483D01*
X4016Y-5384D01*
X3917Y-5317D01*
X3800Y-5294D01*
X3727Y-5309D01*
X3670Y-5305D01*
X3591Y-5226D01*
X3583Y-5183D01*
X3516Y-5084D01*
X3417Y-5017D01*
X3300Y-4994D01*
X3255Y-5003D01*
X3226Y-4974D01*
X3168Y-4935D01*
X3100Y-4922D01*
X700D01*
X632Y-4935D01*
X574Y-4974D01*
X21Y-5527D01*
X-117Y-5485D01*
X-117Y-5483D01*
X-155Y-5426D01*
X-118Y-5301D01*
X-107Y-5287D01*
X-83Y-5283D01*
X16Y-5216D01*
X83Y-5117D01*
X106Y-5000D01*
X83Y-4883D01*
X16Y-4784D01*
X-83Y-4717D01*
X-200Y-4694D01*
X-317Y-4717D01*
X-416Y-4784D01*
X-483Y-4883D01*
X-506Y-5000D01*
X-483Y-5117D01*
X-473Y-5132D01*
X-565Y-5223D01*
X-650Y-5188D01*
X-1083D01*
X-1185Y-5085D01*
X-1300Y-5038D01*
X-2300D01*
X-2415Y-5085D01*
X-3817Y-6488D01*
X-7683D01*
X-8807Y-5364D01*
X-8794Y-5300D01*
X-8817Y-5183D01*
X-8884Y-5084D01*
X-8983Y-5017D01*
X-9100Y-4994D01*
X-9217Y-5017D01*
X-9316Y-5084D01*
X-9383Y-5183D01*
X-9406Y-5300D01*
X-9383Y-5417D01*
X-9316Y-5516D01*
X-9217Y-5583D01*
X-9100Y-5606D01*
X-9036Y-5593D01*
X-7865Y-6765D01*
X-7750Y-6812D01*
X-3750D01*
X-3635Y-6765D01*
X-2427Y-5556D01*
X-2349Y-5584D01*
X-2303Y-5613D01*
X-2283Y-5717D01*
X-2233Y-5791D01*
X-2226Y-5848D01*
X-2255Y-5943D01*
X-2316Y-5984D01*
X-2383Y-6083D01*
X-2406Y-6200D01*
X-2383Y-6317D01*
X-2316Y-6416D01*
X-2217Y-6483D01*
X-2100Y-6506D01*
X-1983Y-6483D01*
X-1884Y-6416D01*
X-1817Y-6317D01*
X-1794Y-6200D01*
X-1817Y-6083D01*
X-1846Y-6040D01*
X-1822Y-5898D01*
X-1806Y-5888D01*
X-1789Y-5890D01*
X-1721Y-5917D01*
X-1672Y-5962D01*
X-1647Y-6085D01*
X-1542Y-6242D01*
X-1385Y-6347D01*
X-1200Y-6384D01*
X-1015Y-6347D01*
X-908Y-6276D01*
X-827Y-6375D01*
X-1374Y-6922D01*
X-2300D01*
X-2368Y-6935D01*
X-2426Y-6974D01*
X-2971Y-7518D01*
X-3011Y-7512D01*
X-3100Y-7468D01*
X-3117Y-7383D01*
X-3184Y-7284D01*
X-3283Y-7217D01*
X-3400Y-7194D01*
X-3517Y-7217D01*
X-3616Y-7284D01*
X-3683Y-7383D01*
X-3706Y-7500D01*
X-3683Y-7617D01*
X-3616Y-7716D01*
X-3517Y-7783D01*
X-3400Y-7806D01*
X-3283Y-7783D01*
X-3205Y-7731D01*
X-3125Y-7755D01*
X-3078Y-7787D01*
Y-10190D01*
X-3205Y-10242D01*
X-3774Y-9674D01*
X-3832Y-9635D01*
X-3900Y-9622D01*
X-5800D01*
X-5868Y-9635D01*
X-5926Y-9674D01*
X-6155Y-9903D01*
X-6200Y-9894D01*
X-6317Y-9917D01*
X-6416Y-9984D01*
X-6483Y-10083D01*
X-6506Y-10200D01*
X-6483Y-10317D01*
X-6416Y-10416D01*
X-6317Y-10483D01*
X-6200Y-10506D01*
X-6083Y-10483D01*
X-5984Y-10416D01*
X-5917Y-10317D01*
X-5894Y-10200D01*
X-5903Y-10155D01*
X-5726Y-9978D01*
X-5266D01*
X-5231Y-10022D01*
X-5187Y-10105D01*
X-5206Y-10200D01*
X-5183Y-10317D01*
X-5116Y-10416D01*
X-5017Y-10483D01*
X-4900Y-10506D01*
X-4783Y-10483D01*
X-4684Y-10416D01*
X-4617Y-10317D01*
X-4594Y-10200D01*
X-4613Y-10105D01*
X-4569Y-10022D01*
X-4535Y-9978D01*
X-3974D01*
X-2991Y-10962D01*
X-2913Y-11057D01*
X-2974Y-11148D01*
X-2995Y-11255D01*
Y-11430D01*
X-3355D01*
Y-11255D01*
X-3376Y-11148D01*
X-3437Y-11057D01*
X-3528Y-10996D01*
X-3635Y-10975D01*
X-3985D01*
X-4092Y-10996D01*
X-4183Y-11057D01*
X-4244Y-11148D01*
X-4265Y-11255D01*
Y-11430D01*
X-4625D01*
Y-11255D01*
X-4646Y-11148D01*
X-4707Y-11057D01*
X-4798Y-10996D01*
X-4905Y-10975D01*
X-5255D01*
X-5362Y-10996D01*
X-5453Y-11057D01*
X-5514Y-11148D01*
X-5535Y-11255D01*
Y-11430D01*
X-5895D01*
Y-11255D01*
X-5916Y-11148D01*
X-5977Y-11057D01*
X-6068Y-10996D01*
X-6175Y-10975D01*
X-6525D01*
X-6592Y-10988D01*
X-6682Y-10920D01*
X-6702Y-10890D01*
X-6694Y-10850D01*
X-6717Y-10733D01*
X-6784Y-10634D01*
X-6883Y-10567D01*
X-7000Y-10544D01*
X-7117Y-10567D01*
X-7216Y-10634D01*
X-7283Y-10733D01*
X-7306Y-10850D01*
X-7300Y-10880D01*
X-7409Y-10982D01*
X-7445Y-10975D01*
X-7795D01*
X-7902Y-10996D01*
X-7993Y-11057D01*
X-8054Y-11148D01*
X-8075Y-11255D01*
Y-11430D01*
X-9705D01*
Y-11255D01*
X-9726Y-11148D01*
X-9787Y-11057D01*
X-9878Y-10996D01*
X-9985Y-10975D01*
X-10335D01*
X-10442Y-10996D01*
X-10533Y-11057D01*
X-11057Y-10533D01*
X-10996Y-10442D01*
X-10975Y-10335D01*
Y-9985D01*
X-10996Y-9878D01*
X-11057Y-9787D01*
X-11148Y-9726D01*
X-11255Y-9705D01*
X-11430D01*
Y-9345D01*
X-11255D01*
X-11148Y-9324D01*
X-11057Y-9263D01*
X-10996Y-9172D01*
X-10975Y-9065D01*
Y-8715D01*
X-10996Y-8608D01*
X-11057Y-8517D01*
X-11148Y-8456D01*
X-11255Y-8435D01*
X-11430D01*
Y-6805D01*
X-11255D01*
X-11148Y-6784D01*
X-11057Y-6723D01*
X-10996Y-6632D01*
X-10975Y-6525D01*
Y-6175D01*
X-10996Y-6068D01*
X-11057Y-5977D01*
X-11148Y-5916D01*
X-11255Y-5895D01*
X-11430D01*
Y-5535D01*
X-11255D01*
X-11148Y-5514D01*
X-11057Y-5453D01*
X-10996Y-5362D01*
X-10975Y-5255D01*
Y-4905D01*
X-10996Y-4798D01*
X-11057Y-4707D01*
X-11148Y-4646D01*
X-11255Y-4625D01*
X-11430D01*
Y-4265D01*
X-11255D01*
X-11148Y-4244D01*
X-11057Y-4183D01*
X-10996Y-4092D01*
X-10975Y-3985D01*
Y-3635D01*
X-10996Y-3528D01*
X-11057Y-3437D01*
X-11148Y-3376D01*
X-11255Y-3355D01*
X-11430D01*
Y-2995D01*
X-11255D01*
X-11148Y-2974D01*
X-11057Y-2913D01*
X-10996Y-2822D01*
X-10975Y-2715D01*
Y-2365D01*
X-10996Y-2258D01*
X-11057Y-2167D01*
X-11148Y-2106D01*
X-11255Y-2085D01*
X-11430D01*
Y-1725D01*
X-11255D01*
X-11148Y-1704D01*
X-11057Y-1643D01*
X-10996Y-1552D01*
X-10975Y-1445D01*
Y-1095D01*
X-10996Y-988D01*
X-11057Y-897D01*
X-11148Y-836D01*
X-11255Y-815D01*
X-11430D01*
Y815D01*
X-11255D01*
X-11148Y836D01*
X-11057Y897D01*
X-10996Y988D01*
X-10975Y1095D01*
Y1445D01*
X-10979Y1468D01*
X-9780Y2668D01*
X-9662Y2619D01*
Y-1900D01*
X-9615Y-2015D01*
X-9393Y-2236D01*
X-9406Y-2300D01*
X-9383Y-2417D01*
X-9316Y-2516D01*
X-9217Y-2583D01*
X-9100Y-2606D01*
X-8983Y-2583D01*
X-8884Y-2516D01*
X-8817Y-2417D01*
X-8794Y-2300D01*
X-8815Y-2194D01*
X-8809Y-2187D01*
X-8684Y-2161D01*
X-8596Y-2249D01*
X-8606Y-2300D01*
X-8583Y-2417D01*
X-8516Y-2516D01*
X-8417Y-2583D01*
X-8300Y-2606D01*
X-8183Y-2583D01*
X-8084Y-2516D01*
X-8017Y-2417D01*
X-7994Y-2300D01*
X-8017Y-2183D01*
X-8084Y-2084D01*
X-8183Y-2017D01*
X-8300Y-1994D01*
X-8364Y-2007D01*
X-8538Y-1833D01*
Y-1655D01*
X-8419Y-1584D01*
X-8411Y-1584D01*
X-8300Y-1606D01*
X-8236Y-1593D01*
X-8115Y-1715D01*
X-8000Y-1762D01*
X-4972D01*
X-4919Y-1889D01*
X-5036Y-2007D01*
X-5100Y-1994D01*
X-5217Y-2017D01*
X-5316Y-2084D01*
X-5383Y-2183D01*
X-5406Y-2300D01*
X-5383Y-2417D01*
X-5316Y-2516D01*
X-5217Y-2583D01*
X-5100Y-2606D01*
X-4983Y-2583D01*
X-4884Y-2516D01*
X-4817Y-2417D01*
X-4794Y-2300D01*
X-4804Y-2249D01*
X-4716Y-2161D01*
X-4591Y-2187D01*
X-4585Y-2194D01*
X-4606Y-2300D01*
X-4583Y-2417D01*
X-4516Y-2516D01*
X-4417Y-2583D01*
X-4338Y-2598D01*
X-4328Y-2611D01*
X-4391Y-2738D01*
X-4600D01*
X-4715Y-2785D01*
X-5636Y-3707D01*
X-5700Y-3694D01*
X-5817Y-3717D01*
X-5916Y-3784D01*
X-5983Y-3883D01*
X-6003Y-3987D01*
X-6049Y-4016D01*
X-6110Y-4038D01*
X-6204Y-3956D01*
X-6195Y-3824D01*
X-6184Y-3816D01*
X-6117Y-3717D01*
X-6094Y-3600D01*
X-6117Y-3483D01*
X-6184Y-3384D01*
X-6283Y-3317D01*
X-6400Y-3294D01*
X-6517Y-3317D01*
X-6616Y-3384D01*
X-6683Y-3483D01*
X-6706Y-3600D01*
X-6683Y-3717D01*
X-6616Y-3816D01*
X-6562Y-3852D01*
Y-4000D01*
X-6558Y-4011D01*
X-6643Y-4138D01*
X-8848D01*
X-8884Y-4084D01*
X-8983Y-4017D01*
X-9100Y-3994D01*
X-9217Y-4017D01*
X-9316Y-4084D01*
X-9383Y-4183D01*
X-9406Y-4300D01*
X-9383Y-4417D01*
X-9316Y-4516D01*
X-9217Y-4583D01*
X-9100Y-4606D01*
X-8983Y-4583D01*
X-8884Y-4516D01*
X-8848Y-4462D01*
X-6567D01*
X-6019Y-5011D01*
X-6072Y-5138D01*
X-6353D01*
X-6383Y-5117D01*
X-6500Y-5094D01*
X-6617Y-5117D01*
X-6716Y-5184D01*
X-6783Y-5283D01*
X-6806Y-5400D01*
X-6783Y-5517D01*
X-6716Y-5616D01*
X-6617Y-5683D01*
X-6500Y-5706D01*
X-6435Y-5693D01*
X-6399Y-5717D01*
X-6336Y-5791D01*
X-6336Y-5793D01*
X-6357Y-5900D01*
X-6330Y-6037D01*
X-6252Y-6152D01*
X-6137Y-6230D01*
X-6000Y-6257D01*
X-5863Y-6230D01*
X-5748Y-6152D01*
X-5652Y-6057D01*
X-3800D01*
X-3663Y-6030D01*
X-3548Y-5952D01*
X-2052Y-4457D01*
X-1000D01*
X-863Y-4430D01*
X-748Y-4352D01*
X-670Y-4237D01*
X-643Y-4100D01*
X-670Y-3963D01*
X-748Y-3848D01*
X-835Y-3789D01*
X-805Y-3662D01*
X1350D01*
X1465Y-3615D01*
X1725Y-3355D01*
X1862Y-3397D01*
X1870Y-3437D01*
X1948Y-3552D01*
X2063Y-3630D01*
X2200Y-3657D01*
X2337Y-3630D01*
X2452Y-3552D01*
X2530Y-3437D01*
X2557Y-3300D01*
X2530Y-3163D01*
X2452Y-3048D01*
X2396Y-3010D01*
X2356Y-2864D01*
X2359Y-2845D01*
X2384Y-2812D01*
X2850D01*
X2965Y-2765D01*
X3115Y-2615D01*
X3162Y-2500D01*
Y300D01*
X3115Y415D01*
X2915Y615D01*
X2800Y662D01*
X2467D01*
X1962Y1167D01*
Y2248D01*
X2016Y2284D01*
X2083Y2383D01*
X2106Y2500D01*
X2084Y2611D01*
X2083Y2619D01*
X2155Y2738D01*
X2200D01*
X2315Y2785D01*
X2536Y3007D01*
X2600Y2994D01*
X2717Y3017D01*
X2816Y3084D01*
X2883Y3183D01*
X2906Y3300D01*
X2883Y3417D01*
X2816Y3516D01*
X2717Y3583D01*
X2600Y3606D01*
X2483Y3583D01*
X2384Y3516D01*
X2317Y3417D01*
X2294Y3300D01*
X2304Y3249D01*
X2216Y3161D01*
X2091Y3187D01*
X2085Y3194D01*
X2106Y3300D01*
X2083Y3417D01*
X2016Y3516D01*
X1917Y3583D01*
X1800Y3606D01*
X1683Y3583D01*
X1584Y3516D01*
X1517Y3417D01*
X1494Y3300D01*
X1517Y3183D01*
X1526Y3169D01*
X1485Y3015D01*
X1285Y2815D01*
X1238Y2700D01*
Y1255D01*
X1119Y1184D01*
X1111Y1184D01*
X1000Y1206D01*
X906Y1300D01*
X883Y1417D01*
X816Y1516D01*
X717Y1583D01*
X600Y1606D01*
X483Y1583D01*
X384Y1516D01*
X317Y1417D01*
X294Y1300D01*
X307Y1236D01*
X-171Y758D01*
X-309Y787D01*
X-315Y794D01*
X-294Y900D01*
X-317Y1017D01*
X-326Y1031D01*
X-285Y1185D01*
X715Y2185D01*
X762Y2300D01*
Y2945D01*
X881Y3017D01*
X889Y3016D01*
X1000Y2994D01*
X1117Y3017D01*
X1216Y3084D01*
X1283Y3183D01*
X1306Y3300D01*
X1283Y3417D01*
X1216Y3516D01*
X1117Y3583D01*
X1000Y3606D01*
X889Y3584D01*
X881Y3584D01*
X762Y3655D01*
Y4433D01*
X936Y4607D01*
X1000Y4594D01*
X1117Y4617D01*
X1216Y4684D01*
X1283Y4783D01*
X1306Y4900D01*
X1285Y5006D01*
X1291Y5013D01*
X1416Y5039D01*
X1504Y4951D01*
X1494Y4900D01*
X1517Y4783D01*
X1584Y4684D01*
X1683Y4617D01*
X1800Y4594D01*
X1917Y4617D01*
X2016Y4684D01*
X2083Y4783D01*
X2106Y4900D01*
X2083Y5017D01*
X2016Y5116D01*
X1917Y5183D01*
X1800Y5206D01*
X1736Y5193D01*
X1515Y5415D01*
X1400Y5462D01*
X1355D01*
X1283Y5581D01*
X1284Y5589D01*
X1306Y5700D01*
X1283Y5817D01*
X1216Y5916D01*
X1117Y5983D01*
X1000Y6006D01*
X883Y5983D01*
X784Y5916D01*
X717Y5817D01*
X694Y5700D01*
X712Y5609D01*
X657Y5531D01*
X625Y5500D01*
X575D01*
X543Y5531D01*
X488Y5609D01*
X506Y5700D01*
X483Y5817D01*
X416Y5916D01*
X317Y5983D01*
X200Y6006D01*
X94Y5985D01*
X87Y5991D01*
X61Y6116D01*
X149Y6204D01*
X200Y6194D01*
X317Y6217D01*
X416Y6284D01*
X483Y6383D01*
X487Y6404D01*
X625Y6446D01*
X685Y6385D01*
X728Y6368D01*
X784Y6284D01*
X883Y6217D01*
X1000Y6194D01*
X1117Y6217D01*
X1216Y6284D01*
X1283Y6383D01*
X1287Y6404D01*
X1425Y6446D01*
X1885Y5985D01*
D02*
G37*
%LPC*%
G36*
X-8010Y-7477D02*
X-8242Y-7523D01*
X-8439Y-7655D01*
X-8571Y-7852D01*
X-8617Y-8084D01*
X-8571Y-8316D01*
X-8471Y-8467D01*
X-8481Y-8511D01*
X-8527Y-8596D01*
X-8695Y-8629D01*
X-8861Y-8740D01*
X-8971Y-8905D01*
X-9010Y-9100D01*
X-8971Y-9295D01*
X-8861Y-9460D01*
X-8695Y-9571D01*
X-8527Y-9604D01*
X-8481Y-9689D01*
X-8471Y-9733D01*
X-8571Y-9884D01*
X-8617Y-10116D01*
X-8571Y-10348D01*
X-8439Y-10545D01*
X-8242Y-10677D01*
X-8010Y-10723D01*
X-7778Y-10677D01*
X-7581Y-10545D01*
X-7449Y-10348D01*
X-7403Y-10116D01*
X-7449Y-9884D01*
X-7581Y-9687D01*
X-7778Y-9555D01*
X-8010Y-9509D01*
X-8021Y-9511D01*
X-8097Y-9397D01*
X-8029Y-9295D01*
X-7990Y-9100D01*
X-8029Y-8905D01*
X-8097Y-8803D01*
X-8021Y-8689D01*
X-8010Y-8691D01*
X-7778Y-8645D01*
X-7581Y-8513D01*
X-7449Y-8316D01*
X-7403Y-8084D01*
X-7449Y-7852D01*
X-7581Y-7655D01*
X-7778Y-7523D01*
X-8010Y-7477D01*
D02*
G37*
G36*
X8400Y-9494D02*
X8283Y-9517D01*
X8184Y-9584D01*
X8117Y-9683D01*
X8094Y-9800D01*
X8117Y-9917D01*
X8184Y-10016D01*
X8283Y-10083D01*
X8400Y-10106D01*
X8517Y-10083D01*
X8616Y-10016D01*
X8683Y-9917D01*
X8706Y-9800D01*
X8683Y-9683D01*
X8616Y-9584D01*
X8517Y-9517D01*
X8400Y-9494D01*
D02*
G37*
G36*
X-4200Y-6994D02*
X-4317Y-7017D01*
X-4400Y-7073D01*
X-4483Y-7017D01*
X-4600Y-6994D01*
X-4717Y-7017D01*
X-4800Y-7073D01*
X-4883Y-7017D01*
X-5000Y-6994D01*
X-5117Y-7017D01*
X-5200Y-7073D01*
X-5283Y-7017D01*
X-5400Y-6994D01*
X-5517Y-7017D01*
X-5616Y-7084D01*
X-5683Y-7183D01*
X-5706Y-7300D01*
X-5683Y-7417D01*
X-5616Y-7516D01*
X-5517Y-7583D01*
X-5400Y-7606D01*
X-5283Y-7583D01*
X-5200Y-7527D01*
X-5117Y-7583D01*
X-5000Y-7606D01*
X-4883Y-7583D01*
X-4800Y-7527D01*
X-4717Y-7583D01*
X-4600Y-7606D01*
X-4483Y-7583D01*
X-4400Y-7527D01*
X-4317Y-7583D01*
X-4200Y-7606D01*
X-4083Y-7583D01*
X-3984Y-7516D01*
X-3917Y-7417D01*
X-3894Y-7300D01*
X-3917Y-7183D01*
X-3984Y-7084D01*
X-4083Y-7017D01*
X-4200Y-6994D01*
D02*
G37*
G36*
X-10600Y-6694D02*
X-10717Y-6717D01*
X-10816Y-6784D01*
X-10883Y-6883D01*
X-10906Y-7000D01*
X-10883Y-7117D01*
X-10827Y-7200D01*
X-10883Y-7283D01*
X-10906Y-7400D01*
X-10883Y-7517D01*
X-10827Y-7600D01*
X-10883Y-7683D01*
X-10906Y-7800D01*
X-10883Y-7917D01*
X-10816Y-8016D01*
X-10717Y-8083D01*
X-10600Y-8106D01*
X-10483Y-8083D01*
X-10384Y-8016D01*
X-10317Y-7917D01*
X-10294Y-7800D01*
X-10317Y-7683D01*
X-10373Y-7600D01*
X-10317Y-7517D01*
X-10294Y-7400D01*
X-10317Y-7283D01*
X-10373Y-7200D01*
X-10317Y-7117D01*
X-10294Y-7000D01*
X-10317Y-6883D01*
X-10384Y-6784D01*
X-10483Y-6717D01*
X-10600Y-6694D01*
D02*
G37*
G36*
X7800Y-8294D02*
X7683Y-8317D01*
X7584Y-8384D01*
X7517Y-8483D01*
X7494Y-8600D01*
X7517Y-8717D01*
X7544Y-8757D01*
X7584Y-8884D01*
X7517Y-8983D01*
X7494Y-9100D01*
X7517Y-9217D01*
X7584Y-9316D01*
X7683Y-9383D01*
X7800Y-9406D01*
X7917Y-9383D01*
X8016Y-9316D01*
X8083Y-9217D01*
X8106Y-9100D01*
X8083Y-8983D01*
X8056Y-8943D01*
X8016Y-8816D01*
X8083Y-8717D01*
X8106Y-8600D01*
X8083Y-8483D01*
X8016Y-8384D01*
X7917Y-8317D01*
X7800Y-8294D01*
D02*
G37*
G36*
X2600Y4406D02*
X2483Y4383D01*
X2384Y4316D01*
X2317Y4217D01*
X2294Y4100D01*
X2317Y3983D01*
X2384Y3884D01*
X2483Y3817D01*
X2600Y3794D01*
X2717Y3817D01*
X2816Y3884D01*
X2883Y3983D01*
X2906Y4100D01*
X2883Y4217D01*
X2816Y4316D01*
X2717Y4383D01*
X2600Y4406D01*
D02*
G37*
G36*
X8200Y5206D02*
X8083Y5183D01*
X7984Y5116D01*
X7917Y5017D01*
X7894Y4900D01*
X7917Y4783D01*
X7984Y4684D01*
X8083Y4617D01*
X8200Y4594D01*
X8317Y4617D01*
X8416Y4684D01*
X8483Y4783D01*
X8506Y4900D01*
X8483Y5017D01*
X8416Y5116D01*
X8317Y5183D01*
X8200Y5206D01*
D02*
G37*
G36*
X1800Y4406D02*
X1683Y4383D01*
X1584Y4316D01*
X1517Y4217D01*
X1494Y4100D01*
X1517Y3983D01*
X1584Y3884D01*
X1683Y3817D01*
X1800Y3794D01*
X1917Y3817D01*
X2016Y3884D01*
X2083Y3983D01*
X2106Y4100D01*
X2083Y4217D01*
X2016Y4316D01*
X1917Y4383D01*
X1800Y4406D01*
D02*
G37*
G36*
X-3500Y6D02*
X-3617Y-17D01*
X-3716Y-84D01*
X-3783Y-183D01*
X-3806Y-300D01*
X-3783Y-417D01*
X-3716Y-516D01*
X-3617Y-583D01*
X-3500Y-606D01*
X-3383Y-583D01*
X-3284Y-516D01*
X-3217Y-417D01*
X-3194Y-300D01*
X-3217Y-183D01*
X-3284Y-84D01*
X-3383Y-17D01*
X-3500Y6D01*
D02*
G37*
G36*
X8200Y2806D02*
X8083Y2783D01*
X7984Y2716D01*
X7917Y2617D01*
X7894Y2500D01*
X7917Y2383D01*
X7984Y2284D01*
X8083Y2217D01*
X8200Y2194D01*
X8317Y2217D01*
X8416Y2284D01*
X8483Y2383D01*
X8506Y2500D01*
X8483Y2617D01*
X8416Y2716D01*
X8317Y2783D01*
X8200Y2806D01*
D02*
G37*
%LPD*%
D29*
X500Y8600D02*
X1000Y8100D01*
X-5400Y10100D02*
X-4200Y8900D01*
X-7030Y10100D02*
X-5400D01*
X-9300Y6800D02*
X-8900Y7200D01*
X-9700Y6400D02*
X-9300Y6800D01*
Y6800D02*
Y6800D01*
X-8900Y6400D02*
X-8900Y6400D01*
Y8230D02*
X-7030Y10100D01*
X-8900Y7200D02*
Y8230D01*
X-3100Y8900D02*
X-3100Y8900D01*
X-3100Y8500D02*
Y8900D01*
X-5100Y4700D02*
X-5000Y4800D01*
X-3600D01*
X-3500Y4700D01*
X-7100Y10700D02*
X-7000Y10800D01*
X-8200Y10700D02*
X-7100D01*
X-8750Y10150D02*
X-8200Y10700D01*
X-10500Y6400D02*
X-9700D01*
X-8900Y7200D02*
X-8600Y6900D01*
X-8100Y6400D01*
X-8900D02*
X-8100D01*
X-8600Y6700D02*
Y6900D01*
X-9700Y6400D02*
X-8900D01*
X-9300Y6800D02*
X-8900Y6400D01*
X-8600Y6700D01*
X-8900Y6400D02*
Y7200D01*
X7400Y900D02*
X8000Y300D01*
X8800D01*
X9000Y100D01*
X3800Y10400D02*
X3900Y10500D01*
X-2500Y8900D02*
X-2200Y8600D01*
X500D01*
X-4200Y8900D02*
X-3100D01*
X-2500D01*
D30*
X0Y10500D02*
X1400D01*
X-3800Y9700D02*
X-3700Y9800D01*
X-700D01*
X0Y10500D01*
D31*
X4600Y-3300D02*
X6200D01*
X-6000Y-5900D02*
X-5800Y-5700D01*
X-3800D01*
X-2200Y-4100D01*
X-1000D01*
X7550Y8850D02*
Y9249D01*
X7200Y8500D02*
X7550Y8850D01*
X7200Y7100D02*
Y8500D01*
X6400Y7100D02*
Y9700D01*
X7400Y6500D02*
Y6900D01*
X7200Y7100D02*
X7400Y6900D01*
X5800Y6500D02*
X6400Y7100D01*
X5800Y2500D02*
Y6500D01*
X7901Y9600D02*
X8400D01*
X7550Y9249D02*
X7901Y9600D01*
X8400D02*
X9300Y10500D01*
X5000Y100D02*
X7800Y-2700D01*
Y-4100D02*
Y-2700D01*
X-5700Y7800D02*
X-5200D01*
X-5700Y6700D02*
Y7800D01*
X-6000Y6400D02*
X-5700Y6700D01*
X8200Y4100D02*
X9000Y3300D01*
X7400Y4100D02*
X8200D01*
X9000Y3300D02*
X10500Y1800D01*
Y-4100D02*
Y1800D01*
X6400Y9700D02*
X6500Y9800D01*
Y10500D01*
X3800Y8500D02*
X4200Y8100D01*
X3800Y8500D02*
Y10400D01*
D33*
X1100Y9400D02*
X1425Y9075D01*
Y8675D02*
Y9075D01*
Y8675D02*
X2425Y7675D01*
X-100Y9400D02*
X1100D01*
X2425Y7675D02*
X4425D01*
X7620Y9920D02*
Y11430D01*
X7000Y9300D02*
X7620Y9920D01*
X9000Y7499D02*
Y8900D01*
X7576Y6075D02*
X9000Y7499D01*
X6600Y4700D02*
X9400Y7500D01*
Y9600D01*
X-3900Y-9800D02*
X-2825Y-10875D01*
X-5800Y-9800D02*
X-3900D01*
X-6200Y-10200D02*
X-5800Y-9800D01*
X-1800Y-10600D02*
X-1660Y-10460D01*
X-2600Y-10600D02*
X-1800D01*
X-2900Y-10300D02*
X-2600Y-10600D01*
X8600Y1300D02*
X9300D01*
X8200Y900D02*
X8600Y1300D01*
X-2900Y-7700D02*
X-2300Y-7100D01*
X-2900Y-10300D02*
Y-7700D01*
X-2200Y-7500D02*
X-1200D01*
X-2500Y-7800D02*
X-2200Y-7500D01*
X-2300Y-7100D02*
X-1300D01*
X700Y-5100D02*
X3100D01*
X3300Y-5300D01*
X2900Y-5500D02*
X3075Y-5675D01*
X3725D01*
X3800Y-5600D01*
X-6575Y9425D02*
X-5925D01*
X-7500Y8500D02*
X-6575Y9425D01*
X-7500Y6300D02*
Y8500D01*
X-6350Y9050D02*
X-6150D01*
X-7150Y8250D02*
X-6350Y9050D01*
X-7150Y6150D02*
Y8250D01*
X-6750Y7950D02*
X-6150Y8550D01*
X-6750Y6050D02*
Y7950D01*
X-5925Y9425D02*
X-5550Y9050D01*
X-9400Y8100D02*
Y9500D01*
X-9200Y9700D01*
X-8500D01*
X-8050Y10150D01*
X-7825Y5975D02*
X-7500Y6300D01*
X-7600Y5700D02*
X-7150Y6150D01*
X-7400Y5400D02*
X-6750Y6050D01*
X-9825Y5975D02*
X-7825D01*
X-9600Y5700D02*
X-7600D01*
X-9400Y5400D02*
X-7400D01*
X-9800Y8200D02*
Y10500D01*
X-11200Y6800D02*
X-9800Y8200D01*
X-11200Y6580D02*
Y6800D01*
X-8050Y10150D02*
X-7750D01*
X-10900Y6600D02*
X-9400Y8100D01*
X-10900Y5610D02*
Y6600D01*
X-11430Y5080D02*
X-10900Y5610D01*
X-11430Y6350D02*
X-11200Y6580D01*
X-10200Y8300D02*
Y10100D01*
X-11430Y7620D02*
X-10880D01*
X-10200Y8300D01*
X-11430Y10160D02*
X-10700Y9430D01*
Y8500D02*
Y9430D01*
X2800Y-6000D02*
X3500D01*
X3825Y-3725D02*
X5400Y-5300D01*
Y-6000D02*
Y-5300D01*
X3575Y-3975D02*
X4800Y-5200D01*
Y-6000D02*
Y-5200D01*
X3300Y-6400D02*
X4300Y-7400D01*
X3500Y-6000D02*
X4500Y-7000D01*
X3800Y-5600D02*
X4900Y-6700D01*
X7100D01*
X7400Y-6400D01*
X6800Y-4900D02*
Y-3300D01*
Y-4900D02*
X7400Y-5500D01*
Y-6400D02*
Y-5500D01*
X2300Y-7800D02*
X6800D01*
X1500Y-7000D02*
X2300Y-7800D01*
X2300Y-6500D02*
X2800Y-6000D01*
X1200Y-6500D02*
X2300D01*
X500Y-7200D02*
X1200Y-6500D01*
X800Y-5500D02*
X2900D01*
X-2500Y-10000D02*
X-2300Y-10200D01*
X-2500Y-10000D02*
Y-7800D01*
X-1200Y-7500D02*
X800Y-5500D01*
X-1300Y-7100D02*
X700Y-5100D01*
X4100Y-3525D02*
X6775Y-6200D01*
X4500Y400D02*
X4700Y600D01*
X5400D01*
X3825Y-3725D02*
Y-2975D01*
X4250Y-2550D01*
X4100Y-3525D02*
Y-3054D01*
X4500Y-2654D01*
Y400D01*
X3575Y-3975D02*
Y-2825D01*
X4000Y-2400D01*
X3100Y1600D02*
X3800Y2300D01*
X4250Y-2550D02*
Y250D01*
X3400Y1100D02*
X4250Y250D01*
X3100Y1000D02*
Y1600D01*
Y1000D02*
X4000Y100D01*
Y-2400D02*
Y100D01*
X3800Y1300D02*
X5400D01*
X5800Y900D01*
X5400Y600D02*
X5500Y500D01*
X7000Y-1100D02*
X8250Y-2350D01*
X5500Y500D02*
X6000D01*
X3800Y2300D02*
Y5300D01*
X4600Y6100D01*
Y7500D01*
X4425Y7675D02*
X4600Y7500D01*
X-11430Y1270D02*
X-9775Y2925D01*
Y5025D01*
X-9400Y5400D01*
X-11430Y2540D02*
X-10050Y3920D01*
Y5250D01*
X-9600Y5700D01*
X-10325Y5475D02*
X-9825Y5975D01*
X-10325Y4915D02*
Y5475D01*
X-11430Y3810D02*
X-10325Y4915D01*
X7400Y100D02*
X7800Y-300D01*
X8400D01*
X8600Y-500D01*
Y-3400D02*
Y-500D01*
X4500Y-7000D02*
X7300D01*
X9300Y1300D02*
X10075Y525D01*
Y-175D02*
Y525D01*
X8600Y-3400D02*
X9125Y-3925D01*
Y-5175D02*
Y-3925D01*
X7300Y-7000D02*
X7800Y-6500D01*
Y-5500D01*
X8250Y-5050D01*
Y-2350D01*
X8200Y-6100D02*
X9125Y-5175D01*
X10000Y-7600D02*
X10425Y-7175D01*
X9400Y-1900D02*
X9600Y-2100D01*
X10075Y-5275D02*
Y-175D01*
Y-5275D02*
X10425Y-5625D01*
Y-7175D02*
Y-5625D01*
X4300Y-7400D02*
X7400D01*
X8200Y-6600D01*
Y-6100D01*
X8950Y-6350D02*
X9400D01*
X9600Y-6150D01*
Y-2100D01*
X200Y-8400D02*
X450Y-8650D01*
X6650D01*
X8950Y-6350D01*
X-1200Y-9100D02*
Y-8750D01*
X-850Y-8400D01*
X200D01*
X4600Y9300D02*
X5300D01*
X6075Y10075D01*
Y11155D01*
X6350Y11430D01*
X3400Y1100D02*
Y1500D01*
X5375Y8475D02*
X5400Y8500D01*
X6000Y500D02*
X6225Y725D01*
X7575Y6075D02*
X7576D01*
X6225Y725D02*
Y4725D01*
X7575Y6075D01*
X6900Y4400D02*
X7000Y4500D01*
X6900Y3800D02*
Y4400D01*
Y3800D02*
X7000Y3700D01*
Y-1100D02*
Y3700D01*
X6600Y2500D02*
Y4700D01*
X9400Y9600D02*
X9700Y9900D01*
X4425Y8900D02*
X5800D01*
X4225Y9100D02*
X4425Y8900D01*
X4100Y10900D02*
X4300Y10700D01*
X3070Y10900D02*
X4100D01*
X2540Y11430D02*
X3070Y10900D01*
X4225Y9100D02*
Y9525D01*
X4300Y9600D01*
Y10700D01*
X1270Y11430D02*
X1370D01*
X2800Y10000D01*
X900Y9000D02*
X1000Y8900D01*
X-1800Y9000D02*
X900D01*
X-1900Y9100D02*
X-1800Y9000D01*
X-2825Y-10875D02*
X4250D01*
X4450Y-11075D01*
X5375Y3475D02*
Y8475D01*
X3400Y1500D02*
X5375Y3475D01*
X2800Y9800D02*
Y10000D01*
D35*
X9240Y-12080D02*
X9810D01*
X7970D02*
X8540D01*
X6700D02*
X7270D01*
X5430D02*
X6000D01*
X4160D02*
X4730D01*
X2890D02*
X3460D01*
X1620D02*
X2190D01*
X350D02*
X920D01*
X-920D02*
X-350D01*
X-2190D02*
X-1620D01*
X-3460D02*
X-2890D01*
X-4730D02*
X-4160D01*
X-6000D02*
X-5430D01*
X-7270D02*
X-6700D01*
X-8540D02*
X-7970D01*
X-9810D02*
X-9240D01*
X-12480Y-10510D02*
X-12080D01*
X-12580Y-10410D02*
X-12480Y-10510D01*
X-12580Y-10410D02*
Y-9910D01*
X-12480Y-9810D01*
X-12080D01*
X-12480Y-9240D02*
X-12080D01*
X-12580Y-9140D02*
X-12480Y-9240D01*
X-12580Y-9140D02*
Y-8640D01*
X-12480Y-8540D01*
X-12080D01*
X-12480Y-7970D02*
X-12080D01*
X-12580Y-7870D02*
X-12480Y-7970D01*
X-12580Y-7870D02*
Y-7370D01*
X-12480Y-7270D01*
X-12080D01*
X-12480Y-6700D02*
X-12080D01*
X-12580Y-6600D02*
X-12480Y-6700D01*
X-12580Y-6600D02*
Y-6100D01*
X-12480Y-6000D01*
X-12080D01*
X-12480Y-5430D02*
X-12080D01*
X-12580Y-5330D02*
X-12480Y-5430D01*
X-12580Y-5330D02*
Y-4830D01*
X-12480Y-4730D01*
X-12080D01*
X-12480Y-4160D02*
X-12080D01*
X-12580Y-4060D02*
X-12480Y-4160D01*
X-12580Y-4060D02*
Y-3560D01*
X-12480Y-3460D01*
X-12080D01*
X-12480Y-2890D02*
X-12080D01*
X-12580Y-2790D02*
X-12480Y-2890D01*
X-12580Y-2790D02*
Y-2290D01*
X-12480Y-2190D01*
X-12080D01*
X-12480Y-1620D02*
X-12080D01*
X-12580Y-1520D02*
X-12480Y-1620D01*
X-12580Y-1520D02*
Y-1020D01*
X-12480Y-920D01*
X-12080D01*
X-12480Y-350D02*
X-12080D01*
X-12580Y-250D02*
X-12480Y-350D01*
X-12580Y-250D02*
Y250D01*
X-12480Y350D01*
X-12080D01*
X-12480Y920D02*
X-12080D01*
X-12580Y1020D02*
X-12480Y920D01*
X-12580Y1020D02*
Y1520D01*
X-12480Y1620D01*
X-12080D01*
X-12480Y2190D02*
X-12080D01*
X-12580Y2290D02*
X-12480Y2190D01*
X-12580Y2290D02*
Y2790D01*
X-12480Y2890D01*
X-12080D01*
X-12480Y3460D02*
X-12080D01*
X-12580Y3560D02*
X-12480Y3460D01*
X-12580Y3560D02*
Y4060D01*
X-12480Y4160D01*
X-12080D01*
X-12480Y4730D02*
X-12080D01*
X-12580Y4830D02*
X-12480Y4730D01*
X-12580Y4830D02*
Y5330D01*
X-12480Y5430D01*
X-12080D01*
X-12480Y6000D02*
X-12080D01*
X-12580Y6100D02*
X-12480Y6000D01*
X-12580Y6100D02*
Y6600D01*
X-12480Y6700D01*
X-12080D01*
X-12480Y7270D02*
X-12080D01*
X-12580Y7370D02*
X-12480Y7270D01*
X-12580Y7370D02*
Y7870D01*
X-12480Y7970D01*
X-12080D01*
X-12480Y8540D02*
X-12080D01*
X-12580Y8640D02*
X-12480Y8540D01*
X-12580Y8640D02*
Y9140D01*
X-12480Y9240D01*
X-12080D01*
X-12480Y9810D02*
X-12080D01*
X-12580Y9910D02*
X-12480Y9810D01*
X-12580Y9910D02*
Y10410D01*
X-12480Y10510D01*
X-12080D01*
X-10510Y12080D02*
Y12480D01*
X-10410Y12580D01*
X-9910D01*
X-9810Y12480D01*
Y12080D02*
Y12480D01*
X-9240Y12080D02*
Y12480D01*
X-9140Y12580D01*
X-8640D01*
X-8540Y12480D01*
Y12080D02*
Y12480D01*
X-7970Y12080D02*
Y12480D01*
X-7870Y12580D01*
X-7370D01*
X-7270Y12480D01*
Y12080D02*
Y12480D01*
X-6700Y12080D02*
Y12480D01*
X-6600Y12580D01*
X-6100D01*
X-6000Y12480D01*
Y12080D02*
Y12480D01*
X-5430Y12080D02*
Y12480D01*
X-5330Y12580D01*
X-4830D01*
X-4730Y12480D01*
Y12080D02*
Y12480D01*
X-4160Y12080D02*
Y12480D01*
X-4060Y12580D01*
X-3560D01*
X-3460Y12480D01*
Y12080D02*
Y12480D01*
X-2890Y12080D02*
Y12480D01*
X-2790Y12580D01*
X-2290D01*
X-2190Y12480D01*
Y12080D02*
Y12480D01*
X-1620Y12080D02*
Y12480D01*
X-1520Y12580D01*
X-1020D01*
X-920Y12480D01*
Y12080D02*
Y12480D01*
X-350Y12080D02*
Y12480D01*
X-250Y12580D01*
X250D01*
X350Y12480D01*
Y12080D02*
Y12480D01*
X920Y12080D02*
Y12480D01*
X1020Y12580D01*
X1520D01*
X1620Y12480D01*
Y12080D02*
Y12480D01*
X2190Y12080D02*
Y12480D01*
X2290Y12580D01*
X2790D01*
X2890Y12480D01*
Y12080D02*
Y12480D01*
X3460Y12080D02*
Y12480D01*
X3560Y12580D01*
X4060D01*
X4160Y12480D01*
Y12080D02*
Y12480D01*
X4730Y12080D02*
Y12480D01*
X4830Y12580D01*
X5330D01*
X5430Y12480D01*
Y12080D02*
Y12480D01*
X6000Y12080D02*
Y12480D01*
X6100Y12580D01*
X6600D01*
X6700Y12480D01*
Y12080D02*
Y12480D01*
X7270Y12080D02*
Y12480D01*
X7370Y12580D01*
X7870D01*
X7970Y12480D01*
Y12080D02*
Y12480D01*
X8540Y12080D02*
Y12480D01*
X8640Y12580D01*
X9140D01*
X9240Y12480D01*
Y12080D02*
Y12480D01*
X9810Y12080D02*
Y12480D01*
X9910Y12580D01*
X10410D01*
X10510Y12480D01*
Y12080D02*
Y12480D01*
X12080Y10510D02*
X12480D01*
X12580Y10410D01*
Y9910D02*
Y10410D01*
X12480Y9810D02*
X12580Y9910D01*
X12080Y9810D02*
X12480D01*
X12080Y9240D02*
X12480D01*
X12580Y9140D01*
Y8640D02*
Y9140D01*
X12480Y8540D02*
X12580Y8640D01*
X12080Y8540D02*
X12480D01*
X12080Y7970D02*
X12480D01*
X12580Y7870D01*
Y7370D02*
Y7870D01*
X12480Y7270D02*
X12580Y7370D01*
X12080Y7270D02*
X12480D01*
X12080Y6700D02*
X12480D01*
X12580Y6600D01*
Y6100D02*
Y6600D01*
X12480Y6000D02*
X12580Y6100D01*
X12080Y6000D02*
X12480D01*
X12080Y5430D02*
X12480D01*
X12580Y5330D01*
Y4830D02*
Y5330D01*
X12480Y4730D02*
X12580Y4830D01*
X12080Y4730D02*
X12480D01*
X12080Y4160D02*
X12480D01*
X12580Y4060D01*
Y3560D02*
Y4060D01*
X12480Y3460D02*
X12580Y3560D01*
X12080Y3460D02*
X12480D01*
X12080Y2890D02*
X12480D01*
X12580Y2790D01*
Y2290D02*
Y2790D01*
X12480Y2190D02*
X12580Y2290D01*
X12080Y2190D02*
X12480D01*
X12080Y1620D02*
X12480D01*
X12580Y1520D01*
Y1020D02*
Y1520D01*
X12480Y920D02*
X12580Y1020D01*
X12080Y920D02*
X12480D01*
X12080Y350D02*
X12480D01*
X12580Y250D01*
Y-250D02*
Y250D01*
X12480Y-350D02*
X12580Y-250D01*
X12080Y-350D02*
X12480D01*
X12080Y-920D02*
X12480D01*
X12580Y-1020D01*
Y-1520D02*
Y-1020D01*
X12480Y-1620D02*
X12580Y-1520D01*
X12080Y-1620D02*
X12480D01*
X12080Y-2190D02*
X12480D01*
X12580Y-2290D01*
Y-2790D02*
Y-2290D01*
X12480Y-2890D02*
X12580Y-2790D01*
X12080Y-2890D02*
X12480D01*
X12080Y-3460D02*
X12480D01*
X12580Y-3560D01*
Y-4060D02*
Y-3560D01*
X12480Y-4160D02*
X12580Y-4060D01*
X12080Y-4160D02*
X12480D01*
X12080Y-4730D02*
X12480D01*
X12580Y-4830D01*
Y-5330D02*
Y-4830D01*
X12480Y-5430D02*
X12580Y-5330D01*
X12080Y-5430D02*
X12480D01*
X12080Y-6000D02*
X12480D01*
X12580Y-6100D01*
Y-6600D02*
Y-6100D01*
X12480Y-6700D02*
X12580Y-6600D01*
X12080Y-6700D02*
X12480D01*
X12080Y-7270D02*
X12480D01*
X12580Y-7370D01*
Y-7870D02*
Y-7370D01*
X12480Y-7970D02*
X12580Y-7870D01*
X12080Y-7970D02*
X12480D01*
X12080Y-8540D02*
X12480D01*
X12580Y-8640D01*
Y-9140D02*
Y-8640D01*
X12480Y-9240D02*
X12580Y-9140D01*
X12080Y-9240D02*
X12480D01*
X12080Y-9810D02*
X12480D01*
X12580Y-9910D01*
Y-10410D02*
Y-9910D01*
X12480Y-10510D02*
X12580Y-10410D01*
X12080Y-10510D02*
X12480D01*
X10510Y-12480D02*
Y-12080D01*
X10410Y-12580D02*
X10510Y-12480D01*
X9910Y-12580D02*
X10410D01*
X9810Y-12480D02*
X9910Y-12580D01*
X9810Y-12480D02*
Y-12080D01*
X9240Y-12480D02*
Y-12080D01*
X9140Y-12580D02*
X9240Y-12480D01*
X8640Y-12580D02*
X9140D01*
X8540Y-12480D02*
X8640Y-12580D01*
X8540Y-12480D02*
Y-12080D01*
X7970Y-12480D02*
Y-12080D01*
X7870Y-12580D02*
X7970Y-12480D01*
X7370Y-12580D02*
X7870D01*
X7270Y-12480D02*
X7370Y-12580D01*
X7270Y-12480D02*
Y-12080D01*
X6700Y-12480D02*
Y-12080D01*
X6600Y-12580D02*
X6700Y-12480D01*
X6100Y-12580D02*
X6600D01*
X6000Y-12480D02*
X6100Y-12580D01*
X6000Y-12480D02*
Y-12080D01*
X5430Y-12480D02*
Y-12080D01*
X5330Y-12580D02*
X5430Y-12480D01*
X4830Y-12580D02*
X5330D01*
X4730Y-12480D02*
X4830Y-12580D01*
X4730Y-12480D02*
Y-12080D01*
X4160Y-12480D02*
Y-12080D01*
X4060Y-12580D02*
X4160Y-12480D01*
X3560Y-12580D02*
X4060D01*
X3460Y-12480D02*
X3560Y-12580D01*
X3460Y-12480D02*
Y-12080D01*
X2890Y-12480D02*
Y-12080D01*
X2790Y-12580D02*
X2890Y-12480D01*
X2290Y-12580D02*
X2790D01*
X2190Y-12480D02*
X2290Y-12580D01*
X2190Y-12480D02*
Y-12080D01*
X1620Y-12480D02*
Y-12080D01*
X1520Y-12580D02*
X1620Y-12480D01*
X1020Y-12580D02*
X1520D01*
X920Y-12480D02*
X1020Y-12580D01*
X920Y-12480D02*
Y-12080D01*
X350Y-12480D02*
Y-12080D01*
X250Y-12580D02*
X350Y-12480D01*
X-250Y-12580D02*
X250D01*
X-350Y-12480D02*
X-250Y-12580D01*
X-350Y-12480D02*
Y-12080D01*
X-920Y-12480D02*
Y-12080D01*
X-1020Y-12580D02*
X-920Y-12480D01*
X-1520Y-12580D02*
X-1020D01*
X-1620Y-12480D02*
X-1520Y-12580D01*
X-1620Y-12480D02*
Y-12080D01*
X-2190Y-12480D02*
Y-12080D01*
X-2290Y-12580D02*
X-2190Y-12480D01*
X-2790Y-12580D02*
X-2290D01*
X-2890Y-12480D02*
X-2790Y-12580D01*
X-2890Y-12480D02*
Y-12080D01*
X-3460Y-12480D02*
Y-12080D01*
X-3560Y-12580D02*
X-3460Y-12480D01*
X-4060Y-12580D02*
X-3560D01*
X-4160Y-12480D02*
X-4060Y-12580D01*
X-4160Y-12480D02*
Y-12080D01*
X-4730Y-12480D02*
Y-12080D01*
X-4830Y-12580D02*
X-4730Y-12480D01*
X-5330Y-12580D02*
X-4830D01*
X-5430Y-12480D02*
X-5330Y-12580D01*
X-5430Y-12480D02*
Y-12080D01*
X-6000Y-12480D02*
Y-12080D01*
X-6100Y-12580D02*
X-6000Y-12480D01*
X-6600Y-12580D02*
X-6100D01*
X-6700Y-12480D02*
X-6600Y-12580D01*
X-6700Y-12480D02*
Y-12080D01*
X-7270Y-12480D02*
Y-12080D01*
X-7370Y-12580D02*
X-7270Y-12480D01*
X-7870Y-12580D02*
X-7370D01*
X-7970Y-12480D02*
X-7870Y-12580D01*
X-7970Y-12480D02*
Y-12080D01*
X-8540Y-12480D02*
Y-12080D01*
X-8640Y-12580D02*
X-8540Y-12480D01*
X-9140Y-12580D02*
X-8640D01*
X-9240Y-12480D02*
X-9140Y-12580D01*
X-9240Y-12480D02*
Y-12080D01*
X-9810Y-12480D02*
Y-12080D01*
X-9910Y-12580D02*
X-9810Y-12480D01*
X-10410Y-12580D02*
X-9910D01*
X-10510Y-12480D02*
X-10410Y-12580D01*
X-10510Y-12480D02*
Y-12080D01*
X-12446Y-10465D02*
X-12090D01*
X-12573Y-10338D02*
X-12446Y-10465D01*
X-12573Y-10338D02*
Y-9982D01*
X-12446Y-9855D01*
X-12090D01*
X-12080Y-9810D02*
Y-9240D01*
Y-8540D02*
Y-7970D01*
Y-7270D02*
Y-6700D01*
Y-6000D02*
Y-5430D01*
Y-4730D02*
Y-4160D01*
Y-3460D02*
Y-2890D01*
Y-2190D02*
Y-1620D01*
Y-920D02*
Y-350D01*
Y350D02*
Y920D01*
Y1620D02*
Y2190D01*
Y2890D02*
Y3460D01*
Y4160D02*
Y4730D01*
Y5430D02*
Y6000D01*
Y6700D02*
Y7270D01*
Y7970D02*
Y8540D01*
Y9240D02*
Y9810D01*
X-9810Y12080D02*
X-9240D01*
X-8540D02*
X-7970D01*
X-7270D02*
X-6700D01*
X-6000D02*
X-5430D01*
X-4730D02*
X-4160D01*
X-3460D02*
X-2890D01*
X-2190D02*
X-1620D01*
X-920D02*
X-350D01*
X350D02*
X920D01*
X1620D02*
X2190D01*
X2890D02*
X3460D01*
X4160D02*
X4730D01*
X5430D02*
X6000D01*
X6700D02*
X7270D01*
X7970D02*
X8540D01*
X9240D02*
X9810D01*
X12080Y9240D02*
Y9810D01*
Y7970D02*
Y8540D01*
Y6700D02*
Y7270D01*
Y5430D02*
Y6000D01*
Y4160D02*
Y4730D01*
Y2890D02*
Y3460D01*
Y1620D02*
Y2190D01*
Y350D02*
Y920D01*
Y-920D02*
Y-350D01*
Y-2190D02*
Y-1620D01*
Y-3460D02*
Y-2890D01*
Y-4730D02*
Y-4160D01*
Y-6000D02*
Y-5430D01*
Y-7270D02*
Y-6700D01*
Y-8540D02*
Y-7970D01*
Y-9810D02*
Y-9240D01*
X10510Y-12080D02*
X12080D01*
Y-10510D01*
X10510Y12080D02*
X12080D01*
Y10510D02*
Y12080D01*
X-12080Y10510D02*
Y12080D01*
X-10510D01*
X-12080Y-10510D02*
X-10510Y-12080D01*
D39*
X-11880Y-7620D02*
D03*
Y1270D02*
D03*
Y2540D02*
D03*
Y3810D02*
D03*
Y5080D02*
D03*
Y6350D02*
D03*
Y7620D02*
D03*
Y10160D02*
D03*
X11880Y-8890D02*
D03*
D40*
X-11880Y0D02*
D03*
D41*
X1270Y11880D02*
D03*
X2540D02*
D03*
X6350D02*
D03*
X7620D02*
D03*
X-8890Y-11880D02*
D03*
D43*
X200Y6500D02*
D03*
Y4900D02*
D03*
Y4100D02*
D03*
X1000Y8900D02*
D03*
Y8100D02*
D03*
Y6500D02*
D03*
Y4900D02*
D03*
X1800D02*
D03*
X-6000Y-5900D02*
D03*
X-1000Y-4100D02*
D03*
X7000Y9300D02*
D03*
X4450Y-11075D02*
D03*
X-8700Y1200D02*
D03*
X-9100Y-5300D02*
D03*
X-400Y-5600D02*
D03*
X-6500Y-5400D02*
D03*
X1800Y2500D02*
D03*
X-7400Y1600D02*
D03*
X-2000Y3700D02*
D03*
X-2900Y-100D02*
D03*
X-5100Y-6300D02*
D03*
X2600Y4900D02*
D03*
X3400Y4100D02*
D03*
Y2500D02*
D03*
X-6400Y-3600D02*
D03*
X-4300Y-4300D02*
D03*
X-7000Y700D02*
D03*
X-6700Y-1200D02*
D03*
X-600Y900D02*
D03*
X-6600Y1200D02*
D03*
X-5700Y-4000D02*
D03*
X-600Y2500D02*
D03*
X-1400D02*
D03*
X-6100Y-8200D02*
D03*
X-10000Y-8000D02*
D03*
Y-8900D02*
D03*
X-1660Y-10460D02*
D03*
X-6200Y-10200D02*
D03*
X3800Y-5600D02*
D03*
X3300Y-5300D02*
D03*
X-2300Y-10200D02*
D03*
X6775Y-6200D02*
D03*
X7400Y100D02*
D03*
X3300Y-6400D02*
D03*
X2800Y-6000D02*
D03*
X7000Y4500D02*
D03*
X5000Y100D02*
D03*
X5400Y-6000D02*
D03*
X9000Y8900D02*
D03*
X4800Y-6000D02*
D03*
X-100Y9400D02*
D03*
X3800Y6100D02*
D03*
X-4900Y7100D02*
D03*
X3000Y6900D02*
D03*
X-8250Y7450D02*
D03*
X-200Y6900D02*
D03*
X-3100Y8500D02*
D03*
X-4600Y7800D02*
D03*
X2200Y6900D02*
D03*
X-3500Y4700D02*
D03*
X-5100D02*
D03*
X-7750Y10150D02*
D03*
X-6150Y8550D02*
D03*
X-6150Y9050D02*
D03*
X-5550Y9050D02*
D03*
X-8100Y6400D02*
D03*
X-10500D02*
D03*
X-8750Y10150D02*
D03*
X-7000Y10800D02*
D03*
X-9800Y10500D02*
D03*
X-10200Y10100D02*
D03*
X-10700Y8500D02*
D03*
X-4700Y3200D02*
D03*
X-8300Y2700D02*
D03*
X-1400Y6500D02*
D03*
X-8300Y1700D02*
D03*
X-5100Y2700D02*
D03*
X-1400Y4100D02*
D03*
X-5100Y1700D02*
D03*
X-600Y4100D02*
D03*
X-1800Y6900D02*
D03*
X-8300Y3700D02*
D03*
X-9100Y4700D02*
D03*
X-600Y5700D02*
D03*
X-6100Y3200D02*
D03*
X-9100Y-1300D02*
D03*
X-8300D02*
D03*
X600Y1300D02*
D03*
X-9100Y-2300D02*
D03*
X-8300D02*
D03*
X-5100D02*
D03*
X1000Y100D02*
D03*
X600Y-1100D02*
D03*
X-4300Y-2300D02*
D03*
X-1400Y900D02*
D03*
X-5800Y-500D02*
D03*
X-1400Y100D02*
D03*
X-6200Y-900D02*
D03*
X2600Y3300D02*
D03*
X-5100Y-4300D02*
D03*
X4200Y8100D02*
D03*
X2900Y10500D02*
D03*
X4700D02*
D03*
X5700D02*
D03*
X8300D02*
D03*
X10100D02*
D03*
X3900D02*
D03*
X6500D02*
D03*
X4200Y3300D02*
D03*
X2600Y1700D02*
D03*
X7400Y6500D02*
D03*
X9300Y10500D02*
D03*
X-1200D02*
D03*
X-10600Y-7800D02*
D03*
Y-7400D02*
D03*
Y-7000D02*
D03*
X-4200Y-7300D02*
D03*
X-5000D02*
D03*
X-4600D02*
D03*
X-5400D02*
D03*
X10000Y-5900D02*
D03*
Y-6800D02*
D03*
X10500Y-4900D02*
D03*
X7800D02*
D03*
X10500Y-4100D02*
D03*
X-1000Y-10200D02*
D03*
X-5200Y7800D02*
D03*
X-5700D02*
D03*
X5800Y2500D02*
D03*
X7800Y-4100D02*
D03*
X8700D02*
D03*
X7400Y4100D02*
D03*
X9000Y3300D02*
D03*
X7400Y900D02*
D03*
X9000Y100D02*
D03*
X6800Y-7800D02*
D03*
Y-3300D02*
D03*
X1500Y-7000D02*
D03*
X500Y-7200D02*
D03*
X-1000Y-8000D02*
D03*
X5800Y900D02*
D03*
X3800Y1300D02*
D03*
X8200Y900D02*
D03*
X10000Y-7600D02*
D03*
X1000Y900D02*
D03*
X1400Y-2900D02*
D03*
X-9100Y-4300D02*
D03*
X-4800Y-8200D02*
D03*
X2600Y8100D02*
D03*
X-1400Y-2300D02*
D03*
X-600Y4900D02*
D03*
X5800Y-1500D02*
D03*
X9000Y4900D02*
D03*
Y1700D02*
D03*
X8200Y5700D02*
D03*
X9800Y8900D02*
D03*
X6800Y-9300D02*
D03*
X500Y-8100D02*
D03*
X9400Y-1900D02*
D03*
X-1200Y-9100D02*
D03*
X5400Y8500D02*
D03*
X4600Y9300D02*
D03*
X6600Y2500D02*
D03*
X9700Y9900D02*
D03*
X5800Y8900D02*
D03*
X2800Y9800D02*
D03*
X-1900Y9100D02*
D03*
X5000Y4100D02*
D03*
X-1000Y-5000D02*
D03*
D44*
X1400Y10500D02*
D03*
X-3800Y9700D02*
D03*
D45*
X-6000Y6400D02*
D03*
X6200Y-3300D02*
D03*
X4600D02*
D03*
D46*
X1000Y7100D02*
X2000Y6100D01*
X600Y2300D02*
Y4500D01*
X-4100Y-5300D02*
X-2300Y-3500D01*
X-6400Y-5300D02*
X-4100D01*
X-6500Y-5400D02*
X-6400Y-5300D01*
X-5800Y-5000D02*
X-4200D01*
X-6500Y-4300D02*
X-5800Y-5000D01*
X-9100Y-4300D02*
X-6500D01*
X-9100Y-5300D02*
X-7750Y-6650D01*
X-3750D01*
X-1800Y5300D02*
X1400D01*
X-2300Y4800D02*
X-1800Y5300D01*
X-2500Y4800D02*
X-2300D01*
X-1800Y5700D02*
X-600D01*
X-2300Y5200D02*
X-1800Y5700D01*
X-5095Y5200D02*
X-2300D01*
X2000Y7700D02*
X2400Y7300D01*
X800Y7700D02*
X2000D01*
X2400Y7300D02*
X2600D01*
X2000Y6100D02*
X3800D01*
X1600Y6900D02*
X2200D01*
X1400Y5300D02*
X1800Y4900D01*
X-3500Y3800D02*
X-2500Y4800D01*
X-4700Y3800D02*
X-3500D01*
X-6500Y2000D02*
X-4700Y3800D01*
X-7600Y2000D02*
X-6500D01*
X-7800Y1800D02*
X-7600Y2000D01*
X-7800Y1600D02*
Y1800D01*
X-8200Y1200D02*
X-7800Y1600D01*
X-8700Y1200D02*
X-8200D01*
X-2300Y4500D02*
X-200D01*
X-3300Y3500D02*
X-2300Y4500D01*
X-4400Y3500D02*
X-3300D01*
X-2200Y4100D02*
X-1400D01*
X-3150Y3150D02*
X-2200Y4100D01*
X-4150Y3150D02*
X-3150D01*
X-4700Y3200D02*
X-4400Y3500D01*
X-4600Y2700D02*
X-4150Y3150D01*
X-6100Y3200D02*
X-5500Y3800D01*
X2200Y2900D02*
X2600Y3300D01*
X1600Y2900D02*
X2200D01*
X1400Y2700D02*
X1600Y2900D01*
X-7400Y1600D02*
X-5800D01*
X-5200Y2200D01*
X-4600D01*
X-4000Y2800D01*
X-2900D01*
X-2000Y3700D01*
X-1900Y3200D02*
X-1500D01*
X-2700Y2400D02*
X-1900Y3200D01*
X-3900Y2400D02*
X-2700D01*
X-4600Y1700D02*
X-3900Y2400D01*
X-1700Y2900D02*
X-1000D01*
X-2600Y2000D02*
X-1700Y2900D01*
X-3800Y2000D02*
X-2600D01*
X-5100Y2700D02*
X-4600D01*
X-1500Y3200D02*
X-600Y4100D01*
X-6200Y-100D02*
X-5550Y550D01*
X-7700Y-100D02*
X-6200D01*
X-8000Y200D02*
X-6400D01*
X-7000Y700D02*
X-6400D01*
X-4700Y-4700D02*
X-4300Y-4300D01*
X-5700Y-4700D02*
X-4700D01*
X-6400Y-4000D02*
X-5700Y-4700D01*
X-6400Y-4000D02*
Y-3600D01*
X-6700Y-1200D02*
X-6600Y-1300D01*
X-2600D01*
X-1600Y-300D01*
X-1100D01*
X-900Y-100D01*
Y600D01*
X-600Y900D01*
X-8300Y-1300D02*
X-8000Y-1600D01*
X-1700Y100D02*
X-1400D01*
X-2700Y-900D02*
X-1700Y100D01*
X-6200Y-900D02*
X-2700D01*
X-5100Y1700D02*
X-4600D01*
X-1000Y2900D02*
X-600Y2500D01*
X-2900Y8100D02*
X-2750Y8250D01*
X-4000Y8100D02*
X-2900D01*
X-5600Y9700D02*
X-4000Y8100D01*
X-6800Y9700D02*
X-5600D01*
X-8250Y8250D02*
X-6800Y9700D01*
X-8250Y7450D02*
Y8250D01*
X-6650Y5150D02*
X-5100Y6700D01*
X-6800Y4700D02*
X-5100Y6400D01*
X-6800Y4400D02*
X-5100Y6100D01*
X-6100Y4800D02*
X-5100Y5800D01*
X-5800Y4800D02*
X-5100Y5500D01*
X-7600Y4400D02*
X-6800D01*
X-8300Y3700D02*
X-7600Y4400D01*
X-6100Y4200D02*
Y4800D01*
X-7100Y3200D02*
X-6100Y4200D01*
X-5800Y4100D02*
Y4800D01*
X-7200Y2700D02*
X-5800Y4100D01*
X-5500Y3800D02*
Y4795D01*
X-5095Y5200D01*
X-8300Y2700D02*
X-7200D01*
X-9100Y4700D02*
X-6800D01*
X-9250Y5150D02*
X-6650D01*
X-8400Y3200D02*
X-7100D01*
X-5100Y-2300D02*
X-4700Y-1900D01*
X-8700Y2900D02*
X-8400Y3200D01*
X-8700Y2100D02*
Y2900D01*
X-9500Y4900D02*
X-9250Y5150D01*
X-8700Y2100D02*
X-8300Y1700D01*
X-200Y4500D02*
X200Y4900D01*
X-9500Y-1900D02*
Y4900D01*
Y-1900D02*
X-9100Y-2300D01*
Y-1300D02*
Y-900D01*
X-8000Y200D01*
X-8700Y-1900D02*
X-8300Y-2300D01*
X-8700Y-1900D02*
Y-1100D01*
X-7700Y-100D01*
X-400Y2100D02*
X-200Y2300D01*
Y3700D01*
X200Y4100D01*
X2600Y7300D02*
X3000Y6900D01*
X-4700Y-1900D02*
X-1200D01*
X-8000Y-1600D02*
X-2100D01*
X-1600Y-1100D01*
X1000Y-3300D02*
X1400Y-2900D01*
X-2300Y-3500D02*
X1350D01*
X-4200Y-5000D02*
X-2500Y-3300D01*
X1000D01*
X-5100Y-4300D02*
X-3900Y-3100D01*
X-4300Y-2300D02*
X-3900Y-2700D01*
X-1200D01*
X-5700Y-4000D02*
X-4600Y-2900D01*
X-1200Y-2700D02*
X-1000Y-2500D01*
X-1200Y-1900D02*
X-1000Y-1700D01*
X-1600Y-1100D02*
X-1200D01*
X-1000Y-1700D02*
Y-1200D01*
X-100Y-300D01*
X600D01*
X1000Y100D01*
X-1200Y-1100D02*
X-200Y-100D01*
Y500D01*
X600Y1300D01*
X-1000Y-2500D02*
Y-2000D01*
X-900Y-1900D01*
X-4600Y-2900D02*
X200D01*
X600Y-2500D01*
X-900Y-1900D02*
X400D01*
X600Y-1700D01*
Y-1100D01*
X600Y-2500D02*
Y-2100D01*
X-3900Y-3100D02*
X700D01*
X1350Y-3500D02*
X2200Y-2650D01*
X600Y-2100D02*
X1400Y-1300D01*
Y500D01*
X1000Y900D02*
X1400Y500D01*
X2200Y-2650D02*
X2850D01*
X3000Y-2500D01*
Y300D01*
X1800Y1100D02*
Y2500D01*
X700Y-3100D02*
X1400Y-2400D01*
Y-2100D01*
X1600Y-1900D01*
X2000D01*
X2200Y-1700D01*
X1400Y1100D02*
Y2700D01*
Y1100D02*
X2200Y300D01*
Y-1700D02*
Y300D01*
X2800Y500D02*
X3000Y300D01*
X2400Y500D02*
X2800D01*
X1800Y1100D02*
X2400Y500D01*
X600Y4500D02*
X1000Y4900D01*
X-400Y1300D02*
X600Y2300D01*
X-5100Y6100D02*
X-2600D01*
X-1800Y6900D01*
X-5100Y5500D02*
X-2400D01*
X-1800Y6100D01*
X-5100Y5800D02*
X-2500D01*
X-1800Y6500D01*
X-1400D01*
X-2800Y7800D02*
X-2600Y8000D01*
X-4600Y7800D02*
X-2800D01*
X-5100Y6400D02*
X-2800D01*
X-1950Y7250D01*
X-5100Y6700D02*
X-2900D01*
X-2100Y7500D01*
X-4900Y7100D02*
X-3700D01*
X-3300Y7500D01*
X-2700D01*
X-2450Y7750D01*
X-1800Y6100D02*
X-200D01*
X200Y6500D01*
X-1950Y7250D02*
X-550D01*
X-200Y6900D01*
X-2600Y8000D02*
X100D01*
X-2450Y7750D02*
X-50D01*
X-2100Y7500D02*
X-200D01*
X-2750Y8250D02*
X250D01*
X-200Y7500D02*
X800Y6500D01*
X1000D01*
X250Y8250D02*
X800Y7700D01*
X100Y8000D02*
X700Y7400D01*
X1100D01*
X1600Y6900D01*
X-50Y7750D02*
X600Y7100D01*
X1000D01*
X-3750Y-6650D02*
X-2300Y-5200D01*
X-1300D01*
X-650Y-5350D02*
X-400Y-5600D01*
X-1300Y-5200D02*
X-1150Y-5350D01*
X-650D01*
X-6600Y1200D02*
X-6500Y1300D01*
X-4500D01*
X-3800Y2000D01*
X-6400Y700D02*
X-6050Y1050D01*
X-4250D01*
X-3650Y1650D01*
X-6400Y200D02*
X-5800Y800D01*
X-5800Y-500D02*
X-5000Y300D01*
X-3650Y1650D02*
X-2450D01*
X-1600Y2500D01*
X-1400D01*
X-1600Y2100D02*
X-400D01*
X-5800Y800D02*
X-2900D01*
X-1600Y2100D01*
X-5550Y550D02*
X-2750D01*
X-2000Y1300D01*
X-400D01*
X-2000Y900D02*
X-1400D01*
X-2600Y300D02*
X-2000Y900D01*
X-5000Y300D02*
X-2600D01*
M02*
