G04 Layer_Color=128*
%FSLAX43Y43*%
%MOMM*%
G71*
G01*
G75*
%ADD35C,0.200*%
%ADD94C,0.051*%
D35*
X9240Y-12080D02*
X9810D01*
X7970D02*
X8540D01*
X6700D02*
X7270D01*
X5430D02*
X6000D01*
X4160D02*
X4730D01*
X2890D02*
X3460D01*
X1620D02*
X2190D01*
X350D02*
X920D01*
X-920D02*
X-350D01*
X-2190D02*
X-1620D01*
X-3460D02*
X-2890D01*
X-4730D02*
X-4160D01*
X-6000D02*
X-5430D01*
X-7270D02*
X-6700D01*
X-8540D02*
X-7970D01*
X-9810D02*
X-9240D01*
X-12480Y-10510D02*
X-12080D01*
X-12580Y-10410D02*
X-12480Y-10510D01*
X-12580Y-10410D02*
Y-9910D01*
X-12480Y-9810D01*
X-12080D01*
X-12480Y-9240D02*
X-12080D01*
X-12580Y-9140D02*
X-12480Y-9240D01*
X-12580Y-9140D02*
Y-8640D01*
X-12480Y-8540D01*
X-12080D01*
X-12480Y-7970D02*
X-12080D01*
X-12580Y-7870D02*
X-12480Y-7970D01*
X-12580Y-7870D02*
Y-7370D01*
X-12480Y-7270D01*
X-12080D01*
X-12480Y-6700D02*
X-12080D01*
X-12580Y-6600D02*
X-12480Y-6700D01*
X-12580Y-6600D02*
Y-6100D01*
X-12480Y-6000D01*
X-12080D01*
X-12480Y-5430D02*
X-12080D01*
X-12580Y-5330D02*
X-12480Y-5430D01*
X-12580Y-5330D02*
Y-4830D01*
X-12480Y-4730D01*
X-12080D01*
X-12480Y-4160D02*
X-12080D01*
X-12580Y-4060D02*
X-12480Y-4160D01*
X-12580Y-4060D02*
Y-3560D01*
X-12480Y-3460D01*
X-12080D01*
X-12480Y-2890D02*
X-12080D01*
X-12580Y-2790D02*
X-12480Y-2890D01*
X-12580Y-2790D02*
Y-2290D01*
X-12480Y-2190D01*
X-12080D01*
X-12480Y-1620D02*
X-12080D01*
X-12580Y-1520D02*
X-12480Y-1620D01*
X-12580Y-1520D02*
Y-1020D01*
X-12480Y-920D01*
X-12080D01*
X-12480Y-350D02*
X-12080D01*
X-12580Y-250D02*
X-12480Y-350D01*
X-12580Y-250D02*
Y250D01*
X-12480Y350D01*
X-12080D01*
X-12480Y920D02*
X-12080D01*
X-12580Y1020D02*
X-12480Y920D01*
X-12580Y1020D02*
Y1520D01*
X-12480Y1620D01*
X-12080D01*
X-12480Y2190D02*
X-12080D01*
X-12580Y2290D02*
X-12480Y2190D01*
X-12580Y2290D02*
Y2790D01*
X-12480Y2890D01*
X-12080D01*
X-12480Y3460D02*
X-12080D01*
X-12580Y3560D02*
X-12480Y3460D01*
X-12580Y3560D02*
Y4060D01*
X-12480Y4160D01*
X-12080D01*
X-12480Y4730D02*
X-12080D01*
X-12580Y4830D02*
X-12480Y4730D01*
X-12580Y4830D02*
Y5330D01*
X-12480Y5430D01*
X-12080D01*
X-12480Y6000D02*
X-12080D01*
X-12580Y6100D02*
X-12480Y6000D01*
X-12580Y6100D02*
Y6600D01*
X-12480Y6700D01*
X-12080D01*
X-12480Y7270D02*
X-12080D01*
X-12580Y7370D02*
X-12480Y7270D01*
X-12580Y7370D02*
Y7870D01*
X-12480Y7970D01*
X-12080D01*
X-12480Y8540D02*
X-12080D01*
X-12580Y8640D02*
X-12480Y8540D01*
X-12580Y8640D02*
Y9140D01*
X-12480Y9240D01*
X-12080D01*
X-12480Y9810D02*
X-12080D01*
X-12580Y9910D02*
X-12480Y9810D01*
X-12580Y9910D02*
Y10410D01*
X-12480Y10510D01*
X-12080D01*
X-10510Y12080D02*
Y12480D01*
X-10410Y12580D01*
X-9910D01*
X-9810Y12480D01*
Y12080D02*
Y12480D01*
X-9240Y12080D02*
Y12480D01*
X-9140Y12580D01*
X-8640D01*
X-8540Y12480D01*
Y12080D02*
Y12480D01*
X-7970Y12080D02*
Y12480D01*
X-7870Y12580D01*
X-7370D01*
X-7270Y12480D01*
Y12080D02*
Y12480D01*
X-6700Y12080D02*
Y12480D01*
X-6600Y12580D01*
X-6100D01*
X-6000Y12480D01*
Y12080D02*
Y12480D01*
X-5430Y12080D02*
Y12480D01*
X-5330Y12580D01*
X-4830D01*
X-4730Y12480D01*
Y12080D02*
Y12480D01*
X-4160Y12080D02*
Y12480D01*
X-4060Y12580D01*
X-3560D01*
X-3460Y12480D01*
Y12080D02*
Y12480D01*
X-2890Y12080D02*
Y12480D01*
X-2790Y12580D01*
X-2290D01*
X-2190Y12480D01*
Y12080D02*
Y12480D01*
X-1620Y12080D02*
Y12480D01*
X-1520Y12580D01*
X-1020D01*
X-920Y12480D01*
Y12080D02*
Y12480D01*
X-350Y12080D02*
Y12480D01*
X-250Y12580D01*
X250D01*
X350Y12480D01*
Y12080D02*
Y12480D01*
X920Y12080D02*
Y12480D01*
X1020Y12580D01*
X1520D01*
X1620Y12480D01*
Y12080D02*
Y12480D01*
X2190Y12080D02*
Y12480D01*
X2290Y12580D01*
X2790D01*
X2890Y12480D01*
Y12080D02*
Y12480D01*
X3460Y12080D02*
Y12480D01*
X3560Y12580D01*
X4060D01*
X4160Y12480D01*
Y12080D02*
Y12480D01*
X4730Y12080D02*
Y12480D01*
X4830Y12580D01*
X5330D01*
X5430Y12480D01*
Y12080D02*
Y12480D01*
X6000Y12080D02*
Y12480D01*
X6100Y12580D01*
X6600D01*
X6700Y12480D01*
Y12080D02*
Y12480D01*
X7270Y12080D02*
Y12480D01*
X7370Y12580D01*
X7870D01*
X7970Y12480D01*
Y12080D02*
Y12480D01*
X8540Y12080D02*
Y12480D01*
X8640Y12580D01*
X9140D01*
X9240Y12480D01*
Y12080D02*
Y12480D01*
X9810Y12080D02*
Y12480D01*
X9910Y12580D01*
X10410D01*
X10510Y12480D01*
Y12080D02*
Y12480D01*
X12080Y10510D02*
X12480D01*
X12580Y10410D01*
Y9910D02*
Y10410D01*
X12480Y9810D02*
X12580Y9910D01*
X12080Y9810D02*
X12480D01*
X12080Y9240D02*
X12480D01*
X12580Y9140D01*
Y8640D02*
Y9140D01*
X12480Y8540D02*
X12580Y8640D01*
X12080Y8540D02*
X12480D01*
X12080Y7970D02*
X12480D01*
X12580Y7870D01*
Y7370D02*
Y7870D01*
X12480Y7270D02*
X12580Y7370D01*
X12080Y7270D02*
X12480D01*
X12080Y6700D02*
X12480D01*
X12580Y6600D01*
Y6100D02*
Y6600D01*
X12480Y6000D02*
X12580Y6100D01*
X12080Y6000D02*
X12480D01*
X12080Y5430D02*
X12480D01*
X12580Y5330D01*
Y4830D02*
Y5330D01*
X12480Y4730D02*
X12580Y4830D01*
X12080Y4730D02*
X12480D01*
X12080Y4160D02*
X12480D01*
X12580Y4060D01*
Y3560D02*
Y4060D01*
X12480Y3460D02*
X12580Y3560D01*
X12080Y3460D02*
X12480D01*
X12080Y2890D02*
X12480D01*
X12580Y2790D01*
Y2290D02*
Y2790D01*
X12480Y2190D02*
X12580Y2290D01*
X12080Y2190D02*
X12480D01*
X12080Y1620D02*
X12480D01*
X12580Y1520D01*
Y1020D02*
Y1520D01*
X12480Y920D02*
X12580Y1020D01*
X12080Y920D02*
X12480D01*
X12080Y350D02*
X12480D01*
X12580Y250D01*
Y-250D02*
Y250D01*
X12480Y-350D02*
X12580Y-250D01*
X12080Y-350D02*
X12480D01*
X12080Y-920D02*
X12480D01*
X12580Y-1020D01*
Y-1520D02*
Y-1020D01*
X12480Y-1620D02*
X12580Y-1520D01*
X12080Y-1620D02*
X12480D01*
X12080Y-2190D02*
X12480D01*
X12580Y-2290D01*
Y-2790D02*
Y-2290D01*
X12480Y-2890D02*
X12580Y-2790D01*
X12080Y-2890D02*
X12480D01*
X12080Y-3460D02*
X12480D01*
X12580Y-3560D01*
Y-4060D02*
Y-3560D01*
X12480Y-4160D02*
X12580Y-4060D01*
X12080Y-4160D02*
X12480D01*
X12080Y-4730D02*
X12480D01*
X12580Y-4830D01*
Y-5330D02*
Y-4830D01*
X12480Y-5430D02*
X12580Y-5330D01*
X12080Y-5430D02*
X12480D01*
X12080Y-6000D02*
X12480D01*
X12580Y-6100D01*
Y-6600D02*
Y-6100D01*
X12480Y-6700D02*
X12580Y-6600D01*
X12080Y-6700D02*
X12480D01*
X12080Y-7270D02*
X12480D01*
X12580Y-7370D01*
Y-7870D02*
Y-7370D01*
X12480Y-7970D02*
X12580Y-7870D01*
X12080Y-7970D02*
X12480D01*
X12080Y-8540D02*
X12480D01*
X12580Y-8640D01*
Y-9140D02*
Y-8640D01*
X12480Y-9240D02*
X12580Y-9140D01*
X12080Y-9240D02*
X12480D01*
X12080Y-9810D02*
X12480D01*
X12580Y-9910D01*
Y-10410D02*
Y-9910D01*
X12480Y-10510D02*
X12580Y-10410D01*
X12080Y-10510D02*
X12480D01*
X10510Y-12480D02*
Y-12080D01*
X10410Y-12580D02*
X10510Y-12480D01*
X9910Y-12580D02*
X10410D01*
X9810Y-12480D02*
X9910Y-12580D01*
X9810Y-12480D02*
Y-12080D01*
X9240Y-12480D02*
Y-12080D01*
X9140Y-12580D02*
X9240Y-12480D01*
X8640Y-12580D02*
X9140D01*
X8540Y-12480D02*
X8640Y-12580D01*
X8540Y-12480D02*
Y-12080D01*
X7970Y-12480D02*
Y-12080D01*
X7870Y-12580D02*
X7970Y-12480D01*
X7370Y-12580D02*
X7870D01*
X7270Y-12480D02*
X7370Y-12580D01*
X7270Y-12480D02*
Y-12080D01*
X6700Y-12480D02*
Y-12080D01*
X6600Y-12580D02*
X6700Y-12480D01*
X6100Y-12580D02*
X6600D01*
X6000Y-12480D02*
X6100Y-12580D01*
X6000Y-12480D02*
Y-12080D01*
X5430Y-12480D02*
Y-12080D01*
X5330Y-12580D02*
X5430Y-12480D01*
X4830Y-12580D02*
X5330D01*
X4730Y-12480D02*
X4830Y-12580D01*
X4730Y-12480D02*
Y-12080D01*
X4160Y-12480D02*
Y-12080D01*
X4060Y-12580D02*
X4160Y-12480D01*
X3560Y-12580D02*
X4060D01*
X3460Y-12480D02*
X3560Y-12580D01*
X3460Y-12480D02*
Y-12080D01*
X2890Y-12480D02*
Y-12080D01*
X2790Y-12580D02*
X2890Y-12480D01*
X2290Y-12580D02*
X2790D01*
X2190Y-12480D02*
X2290Y-12580D01*
X2190Y-12480D02*
Y-12080D01*
X1620Y-12480D02*
Y-12080D01*
X1520Y-12580D02*
X1620Y-12480D01*
X1020Y-12580D02*
X1520D01*
X920Y-12480D02*
X1020Y-12580D01*
X920Y-12480D02*
Y-12080D01*
X350Y-12480D02*
Y-12080D01*
X250Y-12580D02*
X350Y-12480D01*
X-250Y-12580D02*
X250D01*
X-350Y-12480D02*
X-250Y-12580D01*
X-350Y-12480D02*
Y-12080D01*
X-920Y-12480D02*
Y-12080D01*
X-1020Y-12580D02*
X-920Y-12480D01*
X-1520Y-12580D02*
X-1020D01*
X-1620Y-12480D02*
X-1520Y-12580D01*
X-1620Y-12480D02*
Y-12080D01*
X-2190Y-12480D02*
Y-12080D01*
X-2290Y-12580D02*
X-2190Y-12480D01*
X-2790Y-12580D02*
X-2290D01*
X-2890Y-12480D02*
X-2790Y-12580D01*
X-2890Y-12480D02*
Y-12080D01*
X-3460Y-12480D02*
Y-12080D01*
X-3560Y-12580D02*
X-3460Y-12480D01*
X-4060Y-12580D02*
X-3560D01*
X-4160Y-12480D02*
X-4060Y-12580D01*
X-4160Y-12480D02*
Y-12080D01*
X-4730Y-12480D02*
Y-12080D01*
X-4830Y-12580D02*
X-4730Y-12480D01*
X-5330Y-12580D02*
X-4830D01*
X-5430Y-12480D02*
X-5330Y-12580D01*
X-5430Y-12480D02*
Y-12080D01*
X-6000Y-12480D02*
Y-12080D01*
X-6100Y-12580D02*
X-6000Y-12480D01*
X-6600Y-12580D02*
X-6100D01*
X-6700Y-12480D02*
X-6600Y-12580D01*
X-6700Y-12480D02*
Y-12080D01*
X-7270Y-12480D02*
Y-12080D01*
X-7370Y-12580D02*
X-7270Y-12480D01*
X-7870Y-12580D02*
X-7370D01*
X-7970Y-12480D02*
X-7870Y-12580D01*
X-7970Y-12480D02*
Y-12080D01*
X-8540Y-12480D02*
Y-12080D01*
X-8640Y-12580D02*
X-8540Y-12480D01*
X-9140Y-12580D02*
X-8640D01*
X-9240Y-12480D02*
X-9140Y-12580D01*
X-9240Y-12480D02*
Y-12080D01*
X-9810Y-12480D02*
Y-12080D01*
X-9910Y-12580D02*
X-9810Y-12480D01*
X-10410Y-12580D02*
X-9910D01*
X-10510Y-12480D02*
X-10410Y-12580D01*
X-10510Y-12480D02*
Y-12080D01*
X-12446Y-10465D02*
X-12090D01*
X-12573Y-10338D02*
X-12446Y-10465D01*
X-12573Y-10338D02*
Y-9982D01*
X-12446Y-9855D01*
X-12090D01*
X-12080Y-9810D02*
Y-9240D01*
Y-8540D02*
Y-7970D01*
Y-7270D02*
Y-6700D01*
Y-6000D02*
Y-5430D01*
Y-4730D02*
Y-4160D01*
Y-3460D02*
Y-2890D01*
Y-2190D02*
Y-1620D01*
Y-920D02*
Y-350D01*
Y350D02*
Y920D01*
Y1620D02*
Y2190D01*
Y2890D02*
Y3460D01*
Y4160D02*
Y4730D01*
Y5430D02*
Y6000D01*
Y6700D02*
Y7270D01*
Y7970D02*
Y8540D01*
Y9240D02*
Y9810D01*
X-9810Y12080D02*
X-9240D01*
X-8540D02*
X-7970D01*
X-7270D02*
X-6700D01*
X-6000D02*
X-5430D01*
X-4730D02*
X-4160D01*
X-3460D02*
X-2890D01*
X-2190D02*
X-1620D01*
X-920D02*
X-350D01*
X350D02*
X920D01*
X1620D02*
X2190D01*
X2890D02*
X3460D01*
X4160D02*
X4730D01*
X5430D02*
X6000D01*
X6700D02*
X7270D01*
X7970D02*
X8540D01*
X9240D02*
X9810D01*
X12080Y9240D02*
Y9810D01*
Y7970D02*
Y8540D01*
Y6700D02*
Y7270D01*
Y5430D02*
Y6000D01*
Y4160D02*
Y4730D01*
Y2890D02*
Y3460D01*
Y1620D02*
Y2190D01*
Y350D02*
Y920D01*
Y-920D02*
Y-350D01*
Y-2190D02*
Y-1620D01*
Y-3460D02*
Y-2890D01*
Y-4730D02*
Y-4160D01*
Y-6000D02*
Y-5430D01*
Y-7270D02*
Y-6700D01*
Y-8540D02*
Y-7970D01*
Y-9810D02*
Y-9240D01*
X10510Y-12080D02*
X12080D01*
Y-10510D01*
X10510Y12080D02*
X12080D01*
Y10510D02*
Y12080D01*
X-12080Y10510D02*
Y12080D01*
X-10510D01*
X-12080Y-10510D02*
X-10510Y-12080D01*
D94*
X-1575Y-5900D02*
X-825D01*
X-1200Y-6275D02*
Y-5525D01*
X-11755Y-10160D02*
X-11105D01*
X-11430Y-10485D02*
Y-9835D01*
X-11755Y-8890D02*
X-11105D01*
X-11430Y-9215D02*
Y-8565D01*
X-11755Y-7620D02*
X-11105D01*
X-11430Y-7945D02*
Y-7295D01*
X-11755Y-6350D02*
X-11105D01*
X-11430Y-6675D02*
Y-6025D01*
X-11755Y-5080D02*
X-11105D01*
X-11430Y-5405D02*
Y-4755D01*
X-11755Y-3810D02*
X-11105D01*
X-11430Y-4135D02*
Y-3485D01*
X-11755Y-2540D02*
X-11105D01*
X-11430Y-2865D02*
Y-2215D01*
X-11755Y-1270D02*
X-11105D01*
X-11430Y-1595D02*
Y-945D01*
X-11755Y0D02*
X-11105D01*
X-11430Y-325D02*
Y325D01*
X-11755Y1270D02*
X-11105D01*
X-11430Y945D02*
Y1595D01*
X-11755Y2540D02*
X-11105D01*
X-11430Y2215D02*
Y2865D01*
X-11755Y3810D02*
X-11105D01*
X-11430Y3485D02*
Y4135D01*
X-11755Y5080D02*
X-11105D01*
X-11430Y4755D02*
Y5405D01*
X-11755Y6350D02*
X-11105D01*
X-11430Y6025D02*
Y6675D01*
X-11755Y7620D02*
X-11105D01*
X-11430Y7295D02*
Y7945D01*
X-11755Y8890D02*
X-11105D01*
X-11430Y8565D02*
Y9215D01*
X-11755Y10160D02*
X-11105D01*
X-11430Y9835D02*
Y10485D01*
X-10485Y11430D02*
X-9835D01*
X-10160Y11105D02*
Y11755D01*
X-9215Y11430D02*
X-8565D01*
X-8890Y11105D02*
Y11755D01*
X-7945Y11430D02*
X-7295D01*
X-7620Y11105D02*
Y11755D01*
X-6675Y11430D02*
X-6025D01*
X-6350Y11105D02*
Y11755D01*
X-5405Y11430D02*
X-4755D01*
X-5080Y11105D02*
Y11755D01*
X-4135Y11430D02*
X-3485D01*
X-3810Y11105D02*
Y11755D01*
X-2865Y11430D02*
X-2215D01*
X-2540Y11105D02*
Y11755D01*
X-1595Y11430D02*
X-945D01*
X-1270Y11105D02*
Y11755D01*
X-325Y11430D02*
X325D01*
X-0Y11105D02*
Y11755D01*
X945Y11430D02*
X1595D01*
X1270Y11105D02*
Y11755D01*
X2215Y11430D02*
X2865D01*
X2540Y11105D02*
Y11755D01*
X3485Y11430D02*
X4135D01*
X3810Y11105D02*
Y11755D01*
X4755Y11430D02*
X5405D01*
X5080Y11105D02*
Y11755D01*
X6025Y11430D02*
X6675D01*
X6350Y11105D02*
Y11755D01*
X7295Y11430D02*
X7945D01*
X7620Y11105D02*
Y11755D01*
X8565Y11430D02*
X9215D01*
X8890Y11105D02*
Y11755D01*
X9835Y11430D02*
X10485D01*
X10160Y11105D02*
Y11755D01*
X11105Y10160D02*
X11755D01*
X11430Y9835D02*
Y10485D01*
X11105Y8890D02*
X11755D01*
X11430Y8565D02*
Y9215D01*
X11105Y7620D02*
X11755D01*
X11430Y7295D02*
Y7945D01*
X11105Y6350D02*
X11755D01*
X11430Y6025D02*
Y6675D01*
X11105Y5080D02*
X11755D01*
X11430Y4755D02*
Y5405D01*
X11105Y3810D02*
X11755D01*
X11430Y3485D02*
Y4135D01*
X11105Y2540D02*
X11755D01*
X11430Y2215D02*
Y2865D01*
X11105Y1270D02*
X11755D01*
X11430Y945D02*
Y1595D01*
X11105Y0D02*
X11755D01*
X11430Y-325D02*
Y325D01*
X11105Y-1270D02*
X11755D01*
X11430Y-1595D02*
Y-945D01*
X11105Y-2540D02*
X11755D01*
X11430Y-2865D02*
Y-2215D01*
X11105Y-3810D02*
X11755D01*
X11430Y-4135D02*
Y-3485D01*
X11105Y-5080D02*
X11755D01*
X11430Y-5405D02*
Y-4755D01*
X11105Y-6350D02*
X11755D01*
X11430Y-6675D02*
Y-6025D01*
X11105Y-7620D02*
X11755D01*
X11430Y-7945D02*
Y-7295D01*
X11105Y-8890D02*
X11755D01*
X11430Y-9215D02*
Y-8565D01*
X11105Y-10160D02*
X11755D01*
X11430Y-10485D02*
Y-9835D01*
X9835Y-11430D02*
X10485D01*
X10160Y-11755D02*
Y-11105D01*
X8565Y-11430D02*
X9215D01*
X8890Y-11755D02*
Y-11105D01*
X7295Y-11430D02*
X7945D01*
X7620Y-11755D02*
Y-11105D01*
X6025Y-11430D02*
X6675D01*
X6350Y-11755D02*
Y-11105D01*
X4755Y-11430D02*
X5405D01*
X5080Y-11755D02*
Y-11105D01*
X3485Y-11430D02*
X4135D01*
X3810Y-11755D02*
Y-11105D01*
X2215Y-11430D02*
X2865D01*
X2540Y-11755D02*
Y-11105D01*
X945Y-11430D02*
X1595D01*
X1270Y-11755D02*
Y-11105D01*
X-325Y-11430D02*
X325D01*
X-0Y-11755D02*
Y-11105D01*
X-1595Y-11430D02*
X-945D01*
X-1270Y-11755D02*
Y-11105D01*
X-2865Y-11430D02*
X-2215D01*
X-2540Y-11755D02*
Y-11105D01*
X-4135Y-11430D02*
X-3485D01*
X-3810Y-11755D02*
Y-11105D01*
X-5405Y-11430D02*
X-4755D01*
X-5080Y-11755D02*
Y-11105D01*
X-6675Y-11430D02*
X-6025D01*
X-6350Y-11755D02*
Y-11105D01*
X-7945Y-11430D02*
X-7295D01*
X-7620Y-11755D02*
Y-11105D01*
X-9215Y-11430D02*
X-8565D01*
X-8890Y-11755D02*
Y-11105D01*
X-10485Y-11430D02*
X-9835D01*
X-10160Y-11755D02*
Y-11105D01*
X-8505Y-10116D02*
X-7515D01*
X-8010Y-10611D02*
Y-9621D01*
X-8505Y-8084D02*
X-7515D01*
X-8010Y-8580D02*
Y-7589D01*
X-886Y-9100D02*
X105D01*
X-390Y-9595D02*
Y-8605D01*
X100Y5700D02*
X300D01*
X200Y5600D02*
Y5800D01*
X900Y5700D02*
X1100D01*
X1000Y5600D02*
Y5800D01*
X900Y3300D02*
X1100D01*
X1000Y3200D02*
Y3400D01*
X900Y8100D02*
X1100D01*
X1000Y8000D02*
Y8200D01*
X1700Y7300D02*
X1900D01*
X1800Y7200D02*
Y7400D01*
X1700Y8900D02*
X1900D01*
X1800Y8800D02*
Y9000D01*
X1700Y3300D02*
X1900D01*
X1800Y3200D02*
Y3400D01*
X1700Y4100D02*
X1900D01*
X1800Y4000D02*
Y4200D01*
X4100Y4900D02*
X4300D01*
X4200Y4800D02*
Y5000D01*
X-6100Y-5900D02*
X-5900D01*
X-6000Y-6000D02*
Y-5800D01*
X7700Y7700D02*
X7900D01*
X7800Y7600D02*
Y7800D01*
X6500Y6500D02*
X6700D01*
X6600Y6400D02*
Y6600D01*
X6500Y5700D02*
X6700D01*
X6600Y5600D02*
Y5800D01*
X2100Y8500D02*
X2300D01*
X2200Y8400D02*
Y8600D01*
X8100Y8100D02*
X8300D01*
X8200Y8000D02*
Y8200D01*
X8100Y8900D02*
X8300D01*
X8200Y8800D02*
Y9000D01*
X4350Y-11075D02*
X4550D01*
X4450Y-11175D02*
Y-10975D01*
X6500Y1700D02*
X6700D01*
X6600Y1600D02*
Y1800D01*
X7300Y3300D02*
X7500D01*
X7400Y3200D02*
Y3400D01*
X7300Y2500D02*
X7500D01*
X7400Y2400D02*
Y2600D01*
X7300Y1700D02*
X7500D01*
X7400Y1600D02*
Y1800D01*
X8100Y2500D02*
X8300D01*
X8200Y2400D02*
Y2600D01*
X8100Y1700D02*
X8300D01*
X8200Y1600D02*
Y1800D01*
X8100Y3300D02*
X8300D01*
X8200Y3200D02*
Y3400D01*
X8900Y2500D02*
X9100D01*
X9000Y2400D02*
Y2600D01*
X8900Y900D02*
X9100D01*
X9000Y800D02*
Y1000D01*
X8900Y-700D02*
X9100D01*
X9000Y-800D02*
Y-600D01*
X8900Y-1500D02*
X9100D01*
X9000Y-1600D02*
Y-1400D01*
X8900Y6500D02*
X9100D01*
X9000Y6400D02*
Y6600D01*
X-500Y-5600D02*
X-300D01*
X-400Y-5700D02*
Y-5500D01*
X-2200Y-6200D02*
X-2000D01*
X-2100Y-6300D02*
Y-6100D01*
X-3500Y-7500D02*
X-3300D01*
X-3400Y-7600D02*
Y-7400D01*
X-3600Y-300D02*
X-3400D01*
X-3500Y-400D02*
Y-200D01*
X-3000Y-100D02*
X-2800D01*
X-2900Y-200D02*
Y0D01*
X2500Y4900D02*
X2700D01*
X2600Y4800D02*
Y5000D01*
X3300Y4100D02*
X3500D01*
X3400Y4000D02*
Y4200D01*
X3300Y2500D02*
X3500D01*
X3400Y2400D02*
Y2600D01*
X-700Y1700D02*
X-500D01*
X-600Y1600D02*
Y1800D01*
X-7100Y-10850D02*
X-6900D01*
X-7000Y-10950D02*
Y-10750D01*
X-1760Y-10460D02*
X-1560D01*
X-1660Y-10560D02*
Y-10360D01*
X-6300Y-10200D02*
X-6100D01*
X-6200Y-10300D02*
Y-10100D01*
X-5000Y-10200D02*
X-4800D01*
X-4900Y-10300D02*
Y-10100D01*
X-2400Y-10200D02*
X-2200D01*
X-2300Y-10300D02*
Y-10100D01*
X200Y-9700D02*
X400D01*
X300Y-9800D02*
Y-9600D01*
X6675Y-6200D02*
X6875D01*
X6775Y-6300D02*
Y-6100D01*
X3700Y6100D02*
X3900D01*
X3800Y6000D02*
Y6200D01*
X2900Y6900D02*
X3100D01*
X3000Y6800D02*
Y7000D01*
X2100Y6900D02*
X2300D01*
X2200Y6800D02*
Y7000D01*
X-9625Y11000D02*
X-9425D01*
X-9525Y10900D02*
Y11100D01*
X-4000Y4200D02*
X-3800D01*
X-3900Y4100D02*
Y4300D01*
X-3600Y4700D02*
X-3400D01*
X-3500Y4600D02*
Y4800D01*
X-3200Y1200D02*
X-3000D01*
X-3100Y1100D02*
Y1300D01*
X-300Y-5000D02*
X-100D01*
X-200Y-5100D02*
Y-4900D01*
X-1500Y-1500D02*
X-1300D01*
X-1400Y-1600D02*
Y-1400D01*
X100Y-700D02*
X300D01*
X200Y-800D02*
Y-600D01*
X-8700Y-9100D02*
X-8300D01*
X-8500Y-9300D02*
Y-8900D01*
X-7325Y3875D02*
X-7025D01*
X-7175Y3725D02*
Y4025D01*
X-4000Y9700D02*
X-3600D01*
X-3800Y9500D02*
Y9900D01*
X-9100Y9300D02*
X-8900D01*
X-9000Y9200D02*
Y9400D01*
X-8850Y10150D02*
X-8650D01*
X-8750Y10050D02*
Y10250D01*
X-7100Y10800D02*
X-6900D01*
X-7000Y10700D02*
Y10900D01*
X6050Y-3300D02*
X6350D01*
X6200Y-3450D02*
Y-3150D01*
X4450Y-3300D02*
X4750D01*
X4600Y-3450D02*
Y-3150D01*
X2950Y-3300D02*
X3250D01*
X3100Y-3450D02*
Y-3150D01*
X2050Y-3300D02*
X2350D01*
X2200Y-3450D02*
Y-3150D01*
X4100Y8100D02*
X4300D01*
X4200Y8000D02*
Y8200D01*
X2800Y10500D02*
X3000D01*
X2900Y10400D02*
Y10600D01*
X4600Y10500D02*
X4800D01*
X4700Y10400D02*
Y10600D01*
X5600Y10500D02*
X5800D01*
X5700Y10400D02*
Y10600D01*
X8200Y10500D02*
X8400D01*
X8300Y10400D02*
Y10600D01*
X10000Y10500D02*
X10200D01*
X10100Y10400D02*
Y10600D01*
X3800Y10500D02*
X4000D01*
X3900Y10400D02*
Y10600D01*
X6400Y10500D02*
X6600D01*
X6500Y10400D02*
Y10600D01*
X4100Y3300D02*
X4300D01*
X4200Y3200D02*
Y3400D01*
X2500Y4100D02*
X2700D01*
X2600Y4000D02*
Y4200D01*
X2500Y1700D02*
X2700D01*
X2600Y1600D02*
Y1800D01*
X7300Y6500D02*
X7500D01*
X7400Y6400D02*
Y6600D01*
X-1300Y10500D02*
X-1100D01*
X-1200Y10400D02*
Y10600D01*
X-10700Y-7800D02*
X-10500D01*
X-10600Y-7900D02*
Y-7700D01*
X-10700Y-7400D02*
X-10500D01*
X-10600Y-7500D02*
Y-7300D01*
X-10700Y-7000D02*
X-10500D01*
X-10600Y-7100D02*
Y-6900D01*
X-4300Y-7300D02*
X-4100D01*
X-4200Y-7400D02*
Y-7200D01*
X-5100Y-7300D02*
X-4900D01*
X-5000Y-7400D02*
Y-7200D01*
X-4700Y-7300D02*
X-4500D01*
X-4600Y-7400D02*
Y-7200D01*
X-5500Y-7300D02*
X-5300D01*
X-5400Y-7400D02*
Y-7200D01*
X4400Y5300D02*
X4600D01*
X4500Y5200D02*
Y5400D01*
X3300Y6500D02*
X3500D01*
X3400Y6400D02*
Y6600D01*
X9100Y-6800D02*
X9300D01*
X9200Y-6900D02*
Y-6700D01*
X9900Y-5900D02*
X10100D01*
X10000Y-6000D02*
Y-5800D01*
X9900Y-6800D02*
X10100D01*
X10000Y-6900D02*
Y-6700D01*
X10400Y-4900D02*
X10600D01*
X10500Y-5000D02*
Y-4800D01*
X8600Y-4900D02*
X8800D01*
X8700Y-5000D02*
Y-4800D01*
X7700Y-4900D02*
X7900D01*
X7800Y-5000D02*
Y-4800D01*
X10400Y-4100D02*
X10600D01*
X10500Y-4200D02*
Y-4000D01*
X-300Y-10200D02*
X-100D01*
X-200Y-10300D02*
Y-10100D01*
X-1100Y-10200D02*
X-900D01*
X-1000Y-10300D02*
Y-10100D01*
X-300Y-8000D02*
X-100D01*
X-200Y-8100D02*
Y-7900D01*
X-300Y-7100D02*
X-100D01*
X-200Y-7200D02*
Y-7000D01*
X-2100Y-8000D02*
X-1900D01*
X-2000Y-8100D02*
Y-7900D01*
X2100Y-6000D02*
X2300D01*
X2200Y-6100D02*
Y-5900D01*
X-5300Y7800D02*
X-5100D01*
X-5200Y7700D02*
Y7900D01*
X-5800Y7800D02*
X-5600D01*
X-5700Y7700D02*
Y7900D01*
X7300Y4100D02*
X7500D01*
X7400Y4000D02*
Y4200D01*
X6700Y-3300D02*
X6900D01*
X6800Y-3400D02*
Y-3200D01*
X8900Y-2300D02*
X9100D01*
X9000Y-2400D02*
Y-2200D01*
X1400Y-7000D02*
X1600D01*
X1500Y-7100D02*
Y-6900D01*
X-1100Y-8000D02*
X-900D01*
X-1000Y-8100D02*
Y-7900D01*
X6145Y-6200D02*
X6345D01*
X6245Y-6300D02*
Y-6100D01*
X3700Y1300D02*
X3900D01*
X3800Y1200D02*
Y1400D01*
X9900Y-7600D02*
X10100D01*
X10000Y-7700D02*
Y-7500D01*
X-1500Y-700D02*
X-1300D01*
X-1400Y-800D02*
Y-600D01*
X-4900Y-8200D02*
X-4700D01*
X-4800Y-8300D02*
Y-8100D01*
X-2100Y-5600D02*
X-1900D01*
X-2000Y-5700D02*
Y-5500D01*
X2500Y-1500D02*
X2700D01*
X2600Y-1600D02*
Y-1400D01*
X6500Y900D02*
X6700D01*
X6600Y800D02*
Y1000D01*
X8900Y4900D02*
X9100D01*
X9000Y4800D02*
Y5000D01*
X8900Y1700D02*
X9100D01*
X9000Y1600D02*
Y1800D01*
X8100Y5700D02*
X8300D01*
X8200Y5600D02*
Y5800D01*
X8100Y7300D02*
X8300D01*
X8200Y7200D02*
Y7400D01*
X9700Y8900D02*
X9900D01*
X9800Y8800D02*
Y9000D01*
X5700Y7300D02*
X5900D01*
X5800Y7200D02*
Y7400D01*
X5700Y8100D02*
X5900D01*
X5800Y8000D02*
Y8200D01*
X6700Y-9300D02*
X6900D01*
X6800Y-9400D02*
Y-9200D01*
X7700Y-9100D02*
X7900D01*
X7800Y-9200D02*
Y-9000D01*
X7700Y-8600D02*
X7900D01*
X7800Y-8700D02*
Y-8500D01*
X400Y-8100D02*
X600D01*
X500Y-8200D02*
Y-8000D01*
X4100Y6500D02*
X4300D01*
X4200Y6400D02*
Y6600D01*
X3300Y5700D02*
X3500D01*
X3400Y5600D02*
Y5800D01*
X2500Y5700D02*
X2700D01*
X2600Y5600D02*
Y5800D01*
X2500Y6500D02*
X2700D01*
X2600Y6400D02*
Y6600D01*
X-3200Y7050D02*
X-3000D01*
X-3100Y6950D02*
Y7150D01*
X4300Y-8200D02*
X4500D01*
X4400Y-8300D02*
Y-8100D01*
X4900Y8100D02*
X5100D01*
X5000Y8000D02*
Y8200D01*
X-10800Y5100D02*
X-10600D01*
X-10700Y5000D02*
Y5200D01*
X-10800Y3900D02*
X-10600D01*
X-10700Y3800D02*
Y4000D01*
X8100Y-700D02*
X8300D01*
X8200Y-800D02*
Y-600D01*
X8900Y-3100D02*
X9100D01*
X9000Y-3200D02*
Y-3000D01*
X7300Y4900D02*
X7500D01*
X7400Y4800D02*
Y5000D01*
X8100Y4900D02*
X8300D01*
X8200Y4800D02*
Y5000D01*
X8900Y4100D02*
X9100D01*
X9000Y4000D02*
Y4200D01*
X9700Y3300D02*
X9900D01*
X9800Y3200D02*
Y3400D01*
X9300Y4500D02*
X9500D01*
X9400Y4400D02*
Y4600D01*
X3300Y7300D02*
X3500D01*
X3400Y7200D02*
Y7400D01*
X8300Y-9800D02*
X8500D01*
X8400Y-9900D02*
Y-9700D01*
X9100Y-5900D02*
X9300D01*
X9200Y-6000D02*
Y-5800D01*
X-1300Y-9100D02*
X-1100D01*
X-1200Y-9200D02*
Y-9000D01*
X9600Y9900D02*
X9800D01*
X9700Y9800D02*
Y10000D01*
X1700Y9400D02*
X1900D01*
X1800Y9300D02*
Y9500D01*
X-2000Y9100D02*
X-1800D01*
X-1900Y9000D02*
Y9200D01*
X-1100Y-5000D02*
X-900D01*
X-1000Y-5100D02*
Y-4900D01*
X2100Y9800D02*
X2300D01*
X2200Y9700D02*
Y9900D01*
M02*
