M48
;Layer_Color=9474304
;FILE_FORMAT=4:3
METRIC,LZ
;TYPE=PLATED
T1F00S00C0.200
T2F00S00C0.300
T3F00S00C0.400
T4F00S00C0.650
T5F00S00C0.750
;TYPE=NON_PLATED
T6F00S00C0.991
%
T01
X000445Y-0011075
X00044Y-00082
X00068Y-00093
X00078Y-00091
X00078Y-00086
X00084Y-00098
X001Y-00076
X001Y-00068
X00092
Y-00059
X001
X00105Y-00049
Y-00041
X0009Y-00031
X0009Y-00023
Y-00015
Y-00007
X00082
Y00017
Y00025
Y00033
X00074
Y00025
Y00017
X00066
Y00009
X0009
Y00017
Y00025
Y00041
X00094Y00045
X0009Y00049
X00082
Y00057
X0009Y00065
X00082Y00073
Y00081
Y00089
X00098
X00097Y00099
X00101Y00105
X00083
X00065
X00057
X00047
X00039
X00029
X00022Y00098
X00018Y00094
X00018Y00089
X00022Y00085
X0001Y00081
X00018Y00073
X00022Y00069
X00026Y00065
X0003Y00069
X00034Y00065
X00042
X00038Y00061
X00034Y00057
X00026
Y00049
Y00041
X00018
Y00033
X0001
Y00057
X00045Y00053
X00042Y00049
X00034Y00041
Y00025
X00042Y00033
X00038Y00013
X00026Y00017
Y-00015
X00022Y-0006
X00015Y-0007
X0006245Y-00062
X0006775Y-00062
X00078Y-00049
X00087
X00068Y-00033
X00074Y00041
Y00049
X00066Y00057
Y00065
X00074
X00078Y00077
X00058Y00073
Y00081
X0005
X00042
X00034Y00073
X00098Y00033
X00002Y00057
X-00031Y000705
X-00035Y00047
X-00039Y00042
X-00031Y00012
X-00029Y-00001
X-00035Y-00003
X-00014Y-00007
Y-00015
X00002Y-00007
X-00006Y00017
X-00002Y-0005
X-0001
X-00004Y-00056
X-0002
X-00021Y-00062
X-0002Y-0008
X-0001
X-00002
X00005Y-00081
X-00002Y-00071
X-00012Y-00091
X-0001Y-00102
X-00002
X00003Y-00097
X-000166Y-001046
X-00023Y-00102
X-00049
X-00062
X-0007Y-001085
X-00048Y-00082
X-0005Y-00073
X-00046
X-00042
X-00034Y-00075
X-00054Y-00073
X-0006Y-00059
X-00106Y-0007
Y-00074
Y-00078
X-00107Y00039
X-00107Y00051
X-0009Y00093
X-000875Y001015
X-0009525Y0011
X-0007Y00108
X-00057Y00078
X-00052
X-00019Y00091
X-00012Y00105
T02
X00022Y-00033
X00031
X00046
X00062
X-0007175Y0003875
T03
X-00085Y-00091
X-00038Y00097
T04
X000127Y-001143
X000254
X000381
X000508
X000635
X000762
X000889
X001016
X001143Y-001016
Y-000889
Y-000762
Y-000635
Y-000508
Y-000381
Y-000254
Y-000127
Y0
Y000127
Y000254
Y000381
Y000508
Y000635
Y000762
Y000889
Y001016
X001016Y001143
X000889
X000762
X000635
X000508
X000381
X000254
X000127
X-0
X-000127
X-000254
X-000381
X-000508
X-000635
X-000762
X-000889
X-001016
X-001143Y001016
Y000889
Y000762
Y000635
Y000508
Y000381
Y000254
Y000127
Y0
Y-000127
Y-000254
Y-000381
Y-000508
Y-000635
Y-000762
Y-000889
Y-001016
X-001016Y-001143
X-000889
X-000762
X-000635
X-000508
X-000381
X-000254
X-000127
X-0
T05
X-00012Y-00059
T06
X-000801Y-0010116
Y-0008084
X-000039Y-00091
M30
