G04 Layer_Color=8388736*
%FSLAX43Y43*%
%MOMM*%
G71*
G01*
G75*
%ADD35C,0.200*%
%ADD58R,2.203X1.003*%
%ADD59R,1.203X3.903*%
%ADD60R,0.603X1.753*%
%ADD61O,0.603X1.753*%
%ADD62R,4.303X3.503*%
%ADD63R,1.203X1.803*%
%ADD64R,0.703X0.703*%
%ADD65R,0.703X0.703*%
%ADD66R,0.603X0.703*%
%ADD67R,0.603X0.603*%
%ADD68R,1.453X1.403*%
%ADD69R,1.403X1.453*%
%ADD70R,1.503X0.953*%
%ADD71R,1.803X1.003*%
%ADD72R,0.653X0.953*%
%ADD73R,2.203X1.653*%
%ADD74R,1.703X1.003*%
%ADD75C,0.990*%
%ADD76R,1.103X1.203*%
%ADD77C,0.203*%
G04:AMPARAMS|DCode=78|XSize=0.903mm|YSize=1.803mm|CornerRadius=0.277mm|HoleSize=0mm|Usage=FLASHONLY|Rotation=90.000|XOffset=0mm|YOffset=0mm|HoleType=Round|Shape=RoundedRectangle|*
%AMROUNDEDRECTD78*
21,1,0.903,1.250,0,0,90.0*
21,1,0.350,1.803,0,0,90.0*
1,1,0.553,0.625,0.175*
1,1,0.553,0.625,-0.175*
1,1,0.553,-0.625,-0.175*
1,1,0.553,-0.625,0.175*
%
%ADD78ROUNDEDRECTD78*%
%ADD79R,1.803X0.903*%
G04:AMPARAMS|DCode=80|XSize=0.903mm|YSize=1.803mm|CornerRadius=0.277mm|HoleSize=0mm|Usage=FLASHONLY|Rotation=0.000|XOffset=0mm|YOffset=0mm|HoleType=Round|Shape=RoundedRectangle|*
%AMROUNDEDRECTD80*
21,1,0.903,1.250,0,0,0.0*
21,1,0.350,1.803,0,0,0.0*
1,1,0.553,0.175,-0.625*
1,1,0.553,-0.175,-0.625*
1,1,0.553,-0.175,0.625*
1,1,0.553,0.175,0.625*
%
%ADD80ROUNDEDRECTD80*%
%ADD81C,1.194*%
%ADD82C,0.603*%
%ADD83C,0.703*%
%ADD84C,1.003*%
D35*
X9240Y-12080D02*
X9810D01*
X7970D02*
X8540D01*
X6700D02*
X7270D01*
X5430D02*
X6000D01*
X4160D02*
X4730D01*
X2890D02*
X3460D01*
X1620D02*
X2190D01*
X350D02*
X920D01*
X-920D02*
X-350D01*
X-2190D02*
X-1620D01*
X-3460D02*
X-2890D01*
X-4730D02*
X-4160D01*
X-6000D02*
X-5430D01*
X-7270D02*
X-6700D01*
X-8540D02*
X-7970D01*
X-9810D02*
X-9240D01*
X-12480Y-10510D02*
X-12080D01*
X-12580Y-10410D02*
X-12480Y-10510D01*
X-12580Y-10410D02*
Y-9910D01*
X-12480Y-9810D01*
X-12080D01*
X-12480Y-9240D02*
X-12080D01*
X-12580Y-9140D02*
X-12480Y-9240D01*
X-12580Y-9140D02*
Y-8640D01*
X-12480Y-8540D01*
X-12080D01*
X-12480Y-7970D02*
X-12080D01*
X-12580Y-7870D02*
X-12480Y-7970D01*
X-12580Y-7870D02*
Y-7370D01*
X-12480Y-7270D01*
X-12080D01*
X-12480Y-6700D02*
X-12080D01*
X-12580Y-6600D02*
X-12480Y-6700D01*
X-12580Y-6600D02*
Y-6100D01*
X-12480Y-6000D01*
X-12080D01*
X-12480Y-5430D02*
X-12080D01*
X-12580Y-5330D02*
X-12480Y-5430D01*
X-12580Y-5330D02*
Y-4830D01*
X-12480Y-4730D01*
X-12080D01*
X-12480Y-4160D02*
X-12080D01*
X-12580Y-4060D02*
X-12480Y-4160D01*
X-12580Y-4060D02*
Y-3560D01*
X-12480Y-3460D01*
X-12080D01*
X-12480Y-2890D02*
X-12080D01*
X-12580Y-2790D02*
X-12480Y-2890D01*
X-12580Y-2790D02*
Y-2290D01*
X-12480Y-2190D01*
X-12080D01*
X-12480Y-1620D02*
X-12080D01*
X-12580Y-1520D02*
X-12480Y-1620D01*
X-12580Y-1520D02*
Y-1020D01*
X-12480Y-920D01*
X-12080D01*
X-12480Y-350D02*
X-12080D01*
X-12580Y-250D02*
X-12480Y-350D01*
X-12580Y-250D02*
Y250D01*
X-12480Y350D01*
X-12080D01*
X-12480Y920D02*
X-12080D01*
X-12580Y1020D02*
X-12480Y920D01*
X-12580Y1020D02*
Y1520D01*
X-12480Y1620D01*
X-12080D01*
X-12480Y2190D02*
X-12080D01*
X-12580Y2290D02*
X-12480Y2190D01*
X-12580Y2290D02*
Y2790D01*
X-12480Y2890D01*
X-12080D01*
X-12480Y3460D02*
X-12080D01*
X-12580Y3560D02*
X-12480Y3460D01*
X-12580Y3560D02*
Y4060D01*
X-12480Y4160D01*
X-12080D01*
X-12480Y4730D02*
X-12080D01*
X-12580Y4830D02*
X-12480Y4730D01*
X-12580Y4830D02*
Y5330D01*
X-12480Y5430D01*
X-12080D01*
X-12480Y6000D02*
X-12080D01*
X-12580Y6100D02*
X-12480Y6000D01*
X-12580Y6100D02*
Y6600D01*
X-12480Y6700D01*
X-12080D01*
X-12480Y7270D02*
X-12080D01*
X-12580Y7370D02*
X-12480Y7270D01*
X-12580Y7370D02*
Y7870D01*
X-12480Y7970D01*
X-12080D01*
X-12480Y8540D02*
X-12080D01*
X-12580Y8640D02*
X-12480Y8540D01*
X-12580Y8640D02*
Y9140D01*
X-12480Y9240D01*
X-12080D01*
X-12480Y9810D02*
X-12080D01*
X-12580Y9910D02*
X-12480Y9810D01*
X-12580Y9910D02*
Y10410D01*
X-12480Y10510D01*
X-12080D01*
X-10510Y12080D02*
Y12480D01*
X-10410Y12580D01*
X-9910D01*
X-9810Y12480D01*
Y12080D02*
Y12480D01*
X-9240Y12080D02*
Y12480D01*
X-9140Y12580D01*
X-8640D01*
X-8540Y12480D01*
Y12080D02*
Y12480D01*
X-7970Y12080D02*
Y12480D01*
X-7870Y12580D01*
X-7370D01*
X-7270Y12480D01*
Y12080D02*
Y12480D01*
X-6700Y12080D02*
Y12480D01*
X-6600Y12580D01*
X-6100D01*
X-6000Y12480D01*
Y12080D02*
Y12480D01*
X-5430Y12080D02*
Y12480D01*
X-5330Y12580D01*
X-4830D01*
X-4730Y12480D01*
Y12080D02*
Y12480D01*
X-4160Y12080D02*
Y12480D01*
X-4060Y12580D01*
X-3560D01*
X-3460Y12480D01*
Y12080D02*
Y12480D01*
X-2890Y12080D02*
Y12480D01*
X-2790Y12580D01*
X-2290D01*
X-2190Y12480D01*
Y12080D02*
Y12480D01*
X-1620Y12080D02*
Y12480D01*
X-1520Y12580D01*
X-1020D01*
X-920Y12480D01*
Y12080D02*
Y12480D01*
X-350Y12080D02*
Y12480D01*
X-250Y12580D01*
X250D01*
X350Y12480D01*
Y12080D02*
Y12480D01*
X920Y12080D02*
Y12480D01*
X1020Y12580D01*
X1520D01*
X1620Y12480D01*
Y12080D02*
Y12480D01*
X2190Y12080D02*
Y12480D01*
X2290Y12580D01*
X2790D01*
X2890Y12480D01*
Y12080D02*
Y12480D01*
X3460Y12080D02*
Y12480D01*
X3560Y12580D01*
X4060D01*
X4160Y12480D01*
Y12080D02*
Y12480D01*
X4730Y12080D02*
Y12480D01*
X4830Y12580D01*
X5330D01*
X5430Y12480D01*
Y12080D02*
Y12480D01*
X6000Y12080D02*
Y12480D01*
X6100Y12580D01*
X6600D01*
X6700Y12480D01*
Y12080D02*
Y12480D01*
X7270Y12080D02*
Y12480D01*
X7370Y12580D01*
X7870D01*
X7970Y12480D01*
Y12080D02*
Y12480D01*
X8540Y12080D02*
Y12480D01*
X8640Y12580D01*
X9140D01*
X9240Y12480D01*
Y12080D02*
Y12480D01*
X9810Y12080D02*
Y12480D01*
X9910Y12580D01*
X10410D01*
X10510Y12480D01*
Y12080D02*
Y12480D01*
X12080Y10510D02*
X12480D01*
X12580Y10410D01*
Y9910D02*
Y10410D01*
X12480Y9810D02*
X12580Y9910D01*
X12080Y9810D02*
X12480D01*
X12080Y9240D02*
X12480D01*
X12580Y9140D01*
Y8640D02*
Y9140D01*
X12480Y8540D02*
X12580Y8640D01*
X12080Y8540D02*
X12480D01*
X12080Y7970D02*
X12480D01*
X12580Y7870D01*
Y7370D02*
Y7870D01*
X12480Y7270D02*
X12580Y7370D01*
X12080Y7270D02*
X12480D01*
X12080Y6700D02*
X12480D01*
X12580Y6600D01*
Y6100D02*
Y6600D01*
X12480Y6000D02*
X12580Y6100D01*
X12080Y6000D02*
X12480D01*
X12080Y5430D02*
X12480D01*
X12580Y5330D01*
Y4830D02*
Y5330D01*
X12480Y4730D02*
X12580Y4830D01*
X12080Y4730D02*
X12480D01*
X12080Y4160D02*
X12480D01*
X12580Y4060D01*
Y3560D02*
Y4060D01*
X12480Y3460D02*
X12580Y3560D01*
X12080Y3460D02*
X12480D01*
X12080Y2890D02*
X12480D01*
X12580Y2790D01*
Y2290D02*
Y2790D01*
X12480Y2190D02*
X12580Y2290D01*
X12080Y2190D02*
X12480D01*
X12080Y1620D02*
X12480D01*
X12580Y1520D01*
Y1020D02*
Y1520D01*
X12480Y920D02*
X12580Y1020D01*
X12080Y920D02*
X12480D01*
X12080Y350D02*
X12480D01*
X12580Y250D01*
Y-250D02*
Y250D01*
X12480Y-350D02*
X12580Y-250D01*
X12080Y-350D02*
X12480D01*
X12080Y-920D02*
X12480D01*
X12580Y-1020D01*
Y-1520D02*
Y-1020D01*
X12480Y-1620D02*
X12580Y-1520D01*
X12080Y-1620D02*
X12480D01*
X12080Y-2190D02*
X12480D01*
X12580Y-2290D01*
Y-2790D02*
Y-2290D01*
X12480Y-2890D02*
X12580Y-2790D01*
X12080Y-2890D02*
X12480D01*
X12080Y-3460D02*
X12480D01*
X12580Y-3560D01*
Y-4060D02*
Y-3560D01*
X12480Y-4160D02*
X12580Y-4060D01*
X12080Y-4160D02*
X12480D01*
X12080Y-4730D02*
X12480D01*
X12580Y-4830D01*
Y-5330D02*
Y-4830D01*
X12480Y-5430D02*
X12580Y-5330D01*
X12080Y-5430D02*
X12480D01*
X12080Y-6000D02*
X12480D01*
X12580Y-6100D01*
Y-6600D02*
Y-6100D01*
X12480Y-6700D02*
X12580Y-6600D01*
X12080Y-6700D02*
X12480D01*
X12080Y-7270D02*
X12480D01*
X12580Y-7370D01*
Y-7870D02*
Y-7370D01*
X12480Y-7970D02*
X12580Y-7870D01*
X12080Y-7970D02*
X12480D01*
X12080Y-8540D02*
X12480D01*
X12580Y-8640D01*
Y-9140D02*
Y-8640D01*
X12480Y-9240D02*
X12580Y-9140D01*
X12080Y-9240D02*
X12480D01*
X12080Y-9810D02*
X12480D01*
X12580Y-9910D01*
Y-10410D02*
Y-9910D01*
X12480Y-10510D02*
X12580Y-10410D01*
X12080Y-10510D02*
X12480D01*
X10510Y-12480D02*
Y-12080D01*
X10410Y-12580D02*
X10510Y-12480D01*
X9910Y-12580D02*
X10410D01*
X9810Y-12480D02*
X9910Y-12580D01*
X9810Y-12480D02*
Y-12080D01*
X9240Y-12480D02*
Y-12080D01*
X9140Y-12580D02*
X9240Y-12480D01*
X8640Y-12580D02*
X9140D01*
X8540Y-12480D02*
X8640Y-12580D01*
X8540Y-12480D02*
Y-12080D01*
X7970Y-12480D02*
Y-12080D01*
X7870Y-12580D02*
X7970Y-12480D01*
X7370Y-12580D02*
X7870D01*
X7270Y-12480D02*
X7370Y-12580D01*
X7270Y-12480D02*
Y-12080D01*
X6700Y-12480D02*
Y-12080D01*
X6600Y-12580D02*
X6700Y-12480D01*
X6100Y-12580D02*
X6600D01*
X6000Y-12480D02*
X6100Y-12580D01*
X6000Y-12480D02*
Y-12080D01*
X5430Y-12480D02*
Y-12080D01*
X5330Y-12580D02*
X5430Y-12480D01*
X4830Y-12580D02*
X5330D01*
X4730Y-12480D02*
X4830Y-12580D01*
X4730Y-12480D02*
Y-12080D01*
X4160Y-12480D02*
Y-12080D01*
X4060Y-12580D02*
X4160Y-12480D01*
X3560Y-12580D02*
X4060D01*
X3460Y-12480D02*
X3560Y-12580D01*
X3460Y-12480D02*
Y-12080D01*
X2890Y-12480D02*
Y-12080D01*
X2790Y-12580D02*
X2890Y-12480D01*
X2290Y-12580D02*
X2790D01*
X2190Y-12480D02*
X2290Y-12580D01*
X2190Y-12480D02*
Y-12080D01*
X1620Y-12480D02*
Y-12080D01*
X1520Y-12580D02*
X1620Y-12480D01*
X1020Y-12580D02*
X1520D01*
X920Y-12480D02*
X1020Y-12580D01*
X920Y-12480D02*
Y-12080D01*
X350Y-12480D02*
Y-12080D01*
X250Y-12580D02*
X350Y-12480D01*
X-250Y-12580D02*
X250D01*
X-350Y-12480D02*
X-250Y-12580D01*
X-350Y-12480D02*
Y-12080D01*
X-920Y-12480D02*
Y-12080D01*
X-1020Y-12580D02*
X-920Y-12480D01*
X-1520Y-12580D02*
X-1020D01*
X-1620Y-12480D02*
X-1520Y-12580D01*
X-1620Y-12480D02*
Y-12080D01*
X-2190Y-12480D02*
Y-12080D01*
X-2290Y-12580D02*
X-2190Y-12480D01*
X-2790Y-12580D02*
X-2290D01*
X-2890Y-12480D02*
X-2790Y-12580D01*
X-2890Y-12480D02*
Y-12080D01*
X-3460Y-12480D02*
Y-12080D01*
X-3560Y-12580D02*
X-3460Y-12480D01*
X-4060Y-12580D02*
X-3560D01*
X-4160Y-12480D02*
X-4060Y-12580D01*
X-4160Y-12480D02*
Y-12080D01*
X-4730Y-12480D02*
Y-12080D01*
X-4830Y-12580D02*
X-4730Y-12480D01*
X-5330Y-12580D02*
X-4830D01*
X-5430Y-12480D02*
X-5330Y-12580D01*
X-5430Y-12480D02*
Y-12080D01*
X-6000Y-12480D02*
Y-12080D01*
X-6100Y-12580D02*
X-6000Y-12480D01*
X-6600Y-12580D02*
X-6100D01*
X-6700Y-12480D02*
X-6600Y-12580D01*
X-6700Y-12480D02*
Y-12080D01*
X-7270Y-12480D02*
Y-12080D01*
X-7370Y-12580D02*
X-7270Y-12480D01*
X-7870Y-12580D02*
X-7370D01*
X-7970Y-12480D02*
X-7870Y-12580D01*
X-7970Y-12480D02*
Y-12080D01*
X-8540Y-12480D02*
Y-12080D01*
X-8640Y-12580D02*
X-8540Y-12480D01*
X-9140Y-12580D02*
X-8640D01*
X-9240Y-12480D02*
X-9140Y-12580D01*
X-9240Y-12480D02*
Y-12080D01*
X-9810Y-12480D02*
Y-12080D01*
X-9910Y-12580D02*
X-9810Y-12480D01*
X-10410Y-12580D02*
X-9910D01*
X-10510Y-12480D02*
X-10410Y-12580D01*
X-10510Y-12480D02*
Y-12080D01*
X-12446Y-10465D02*
X-12090D01*
X-12573Y-10338D02*
X-12446Y-10465D01*
X-12573Y-10338D02*
Y-9982D01*
X-12446Y-9855D01*
X-12090D01*
X-12080Y-9810D02*
Y-9240D01*
Y-8540D02*
Y-7970D01*
Y-7270D02*
Y-6700D01*
Y-6000D02*
Y-5430D01*
Y-4730D02*
Y-4160D01*
Y-3460D02*
Y-2890D01*
Y-2190D02*
Y-1620D01*
Y-920D02*
Y-350D01*
Y350D02*
Y920D01*
Y1620D02*
Y2190D01*
Y2890D02*
Y3460D01*
Y4160D02*
Y4730D01*
Y5430D02*
Y6000D01*
Y6700D02*
Y7270D01*
Y7970D02*
Y8540D01*
Y9240D02*
Y9810D01*
X-9810Y12080D02*
X-9240D01*
X-8540D02*
X-7970D01*
X-7270D02*
X-6700D01*
X-6000D02*
X-5430D01*
X-4730D02*
X-4160D01*
X-3460D02*
X-2890D01*
X-2190D02*
X-1620D01*
X-920D02*
X-350D01*
X350D02*
X920D01*
X1620D02*
X2190D01*
X2890D02*
X3460D01*
X4160D02*
X4730D01*
X5430D02*
X6000D01*
X6700D02*
X7270D01*
X7970D02*
X8540D01*
X9240D02*
X9810D01*
X12080Y9240D02*
Y9810D01*
Y7970D02*
Y8540D01*
Y6700D02*
Y7270D01*
Y5430D02*
Y6000D01*
Y4160D02*
Y4730D01*
Y2890D02*
Y3460D01*
Y1620D02*
Y2190D01*
Y350D02*
Y920D01*
Y-920D02*
Y-350D01*
Y-2190D02*
Y-1620D01*
Y-3460D02*
Y-2890D01*
Y-4730D02*
Y-4160D01*
Y-6000D02*
Y-5430D01*
Y-7270D02*
Y-6700D01*
Y-8540D02*
Y-7970D01*
Y-9810D02*
Y-9240D01*
X10510Y-12080D02*
X12080D01*
Y-10510D01*
X10510Y12080D02*
X12080D01*
Y10510D02*
Y12080D01*
X-12080Y10510D02*
Y12080D01*
X-10510D01*
X-12080Y-10510D02*
X-10510Y-12080D01*
D58*
X-7800Y8400D02*
D03*
Y6400D02*
D03*
D59*
X-4800Y-5200D02*
D03*
X-8200D02*
D03*
D60*
X-9775Y-1375D02*
D03*
D61*
X-9125D02*
D03*
X-8475D02*
D03*
X-7825D02*
D03*
X-7175D02*
D03*
X-6525D02*
D03*
X-5875D02*
D03*
X-5225D02*
D03*
X-9775Y4375D02*
D03*
X-9125D02*
D03*
X-8475D02*
D03*
X-7825D02*
D03*
X-7175D02*
D03*
X-6525D02*
D03*
X-5875D02*
D03*
X-5225D02*
D03*
D62*
X-7500Y1500D02*
D03*
D63*
X800Y-5900D02*
D03*
X-3200D02*
D03*
D64*
X3700Y-9700D02*
D03*
Y-10500D02*
D03*
X2800Y-9700D02*
D03*
Y-10500D02*
D03*
X1900Y-9700D02*
D03*
Y-10500D02*
D03*
X1000Y-9700D02*
D03*
Y-10500D02*
D03*
X7900Y-10600D02*
D03*
Y-9800D02*
D03*
X-4400Y1300D02*
D03*
Y2100D02*
D03*
Y400D02*
D03*
Y-400D02*
D03*
Y3000D02*
D03*
Y3800D02*
D03*
Y-1300D02*
D03*
Y-2100D02*
D03*
X3700Y-8100D02*
D03*
Y-8900D02*
D03*
X2800Y-8100D02*
D03*
Y-8900D02*
D03*
X1900Y-8100D02*
D03*
Y-8900D02*
D03*
X1000Y-8100D02*
D03*
Y-8900D02*
D03*
X-5400Y10600D02*
D03*
Y9800D02*
D03*
X-4500D02*
D03*
Y10600D02*
D03*
X7600Y-6800D02*
D03*
Y-6000D02*
D03*
X4000Y-4300D02*
D03*
Y-5100D02*
D03*
X4900Y-4300D02*
D03*
Y-5100D02*
D03*
X3100Y-4300D02*
D03*
Y-5100D02*
D03*
X2200Y-4300D02*
D03*
Y-5100D02*
D03*
X-6200Y9800D02*
D03*
Y10600D02*
D03*
D65*
X3000Y-7000D02*
D03*
X2200D02*
D03*
Y-6000D02*
D03*
X3000D02*
D03*
X6500Y-7000D02*
D03*
X5700D02*
D03*
X4700D02*
D03*
X3900D02*
D03*
X4700Y-6000D02*
D03*
X3900D02*
D03*
X-4500Y5600D02*
D03*
X-5300D02*
D03*
X-7100D02*
D03*
X-6300D02*
D03*
X-7000Y-2600D02*
D03*
X-6200D02*
D03*
X-8000Y5600D02*
D03*
X-8800D02*
D03*
X-8000Y-2600D02*
D03*
X-8800D02*
D03*
X-9700D02*
D03*
X-10500D02*
D03*
Y5600D02*
D03*
X-9700D02*
D03*
D66*
X5625Y-5800D02*
D03*
D67*
X6775Y-5400D02*
D03*
Y-6200D02*
D03*
D68*
X-9800Y-7400D02*
D03*
Y-10000D02*
D03*
D69*
X-7500Y9800D02*
D03*
X-10100D02*
D03*
D70*
X-10000Y8275D02*
D03*
Y6525D02*
D03*
X-9800Y-4225D02*
D03*
Y-5975D02*
D03*
D71*
X-5200Y7800D02*
D03*
D72*
X-4550Y8900D02*
D03*
X-5200D02*
D03*
X-5850D02*
D03*
X-4550Y6700D02*
D03*
X-5200D02*
D03*
X-5850D02*
D03*
D73*
X8150Y-3675D02*
D03*
Y10075D02*
D03*
X-150Y-3675D02*
D03*
Y10075D02*
D03*
D74*
X5550Y6405D02*
D03*
Y5305D02*
D03*
Y4205D02*
D03*
Y3105D02*
D03*
Y2005D02*
D03*
Y905D02*
D03*
Y-195D02*
D03*
Y-1295D02*
D03*
D75*
X-5470Y-9735D02*
D03*
Y-8465D02*
D03*
X-4200Y-9735D02*
D03*
Y-8465D02*
D03*
X-1660D02*
D03*
X-2930D02*
D03*
X-6740D02*
D03*
X-1660Y-9735D02*
D03*
X-2930D02*
D03*
X-6740D02*
D03*
D76*
X6550Y-8250D02*
D03*
Y-10150D02*
D03*
X5050D02*
D03*
Y-8250D02*
D03*
D77*
X-1200Y-5900D02*
D03*
D78*
X-11880Y-10160D02*
D03*
Y-8890D02*
D03*
Y-7620D02*
D03*
Y-6350D02*
D03*
Y-5080D02*
D03*
Y-3810D02*
D03*
Y-2540D02*
D03*
Y-1270D02*
D03*
Y1270D02*
D03*
Y2540D02*
D03*
Y3810D02*
D03*
Y5080D02*
D03*
Y6350D02*
D03*
Y7620D02*
D03*
Y8890D02*
D03*
Y10160D02*
D03*
X11880D02*
D03*
Y8890D02*
D03*
Y7620D02*
D03*
Y6350D02*
D03*
Y5080D02*
D03*
Y3810D02*
D03*
Y2540D02*
D03*
Y1270D02*
D03*
Y0D02*
D03*
Y-1270D02*
D03*
Y-2540D02*
D03*
Y-3810D02*
D03*
Y-5080D02*
D03*
Y-6350D02*
D03*
Y-7620D02*
D03*
Y-8890D02*
D03*
Y-10160D02*
D03*
D79*
X-11880Y0D02*
D03*
D80*
X-10160Y11880D02*
D03*
X-8890D02*
D03*
X-7620D02*
D03*
X-6350D02*
D03*
X-5080D02*
D03*
X-3810D02*
D03*
X-2540D02*
D03*
X-1270D02*
D03*
X-0D02*
D03*
X1270D02*
D03*
X2540D02*
D03*
X3810D02*
D03*
X5080D02*
D03*
X6350D02*
D03*
X7620D02*
D03*
X8890D02*
D03*
X10160D02*
D03*
Y-11880D02*
D03*
X8890D02*
D03*
X7620D02*
D03*
X6350D02*
D03*
X5080D02*
D03*
X3810D02*
D03*
X2540D02*
D03*
X1270D02*
D03*
X-0D02*
D03*
X-1270D02*
D03*
X-2540D02*
D03*
X-3810D02*
D03*
X-5080D02*
D03*
X-6350D02*
D03*
X-7620D02*
D03*
X-8890D02*
D03*
X-10160D02*
D03*
D81*
X-8010Y-10116D02*
D03*
Y-8084D02*
D03*
X-390Y-9100D02*
D03*
D82*
X2200Y-7000D02*
D03*
X-7175Y-775D02*
D03*
X6775Y-6200D02*
D03*
X8300Y10500D02*
D03*
X-5850Y6700D02*
D03*
X-4550D02*
D03*
X2200Y-6000D02*
D03*
X-5300Y5600D02*
D03*
X-5200Y7800D02*
D03*
X-4700D02*
D03*
X-5700D02*
D03*
X-7200Y9500D02*
D03*
Y10100D02*
D03*
X-7800D02*
D03*
Y9500D02*
D03*
X-7000Y-2600D02*
D03*
X-7100Y5600D02*
D03*
X4700Y-6000D02*
D03*
X1000Y-10500D02*
D03*
X1900D02*
D03*
X2800D02*
D03*
X3700D02*
D03*
X9000Y-3100D02*
D03*
D83*
X-7175Y3875D02*
D03*
D84*
X-7500Y1500D02*
D03*
Y2500D02*
D03*
X-6500D02*
D03*
Y1500D02*
D03*
Y500D02*
D03*
X-7500D02*
D03*
X-5500D02*
D03*
Y1500D02*
D03*
Y2500D02*
D03*
X-10100Y-4300D02*
D03*
X-9500D02*
D03*
X-10300Y6600D02*
D03*
X-9700D02*
D03*
M02*
