M48
;Layer_Color=9474304
;FILE_FORMAT=4:3
METRIC,LZ
;TYPE=PLATED
T1F00S00C0.200
T3F00S00C0.400
;TYPE=NON_PLATED
%
T01
X0001Y-00105
X00019
X00028
X00037
X00022Y-0007
X00047Y-0006
X-0006105Y-0008465
X-0009Y-00098
Y-00101
Y-00104
X-0007Y-00026
X-0007175Y-0000775
X-00071Y00056
X-00053
X-000585Y00067
X-000455
X-00047Y00078
X-00072Y00095
Y00101
X-00078
Y00095
T03
X-00101Y-00043
X-00095
X-00075Y00005
X-00065
X-00055
Y00015
X-00065
X-00075
Y00025
X-00065
X-00055
X-00097Y00066
X-00103
M30
