G04 Layer_Color=128*
%FSLAX43Y43*%
%MOMM*%
G71*
G01*
G75*
%ADD16R,0.500X0.500*%
%ADD17R,0.500X0.500*%
%ADD35C,0.200*%
%ADD47C,0.300*%
%ADD48P,0.707X4X180.0*%
%ADD49O,0.750X0.300*%
%ADD50O,0.300X0.750*%
%ADD51R,1.800X1.800*%
%ADD52C,0.360*%
%ADD53C,0.410*%
%ADD54O,0.350X1.400*%
D16*
X-4800Y-8200D02*
D03*
Y-9000D02*
D03*
X-2000Y-7200D02*
D03*
Y-8000D02*
D03*
X7800Y-8600D02*
D03*
Y-7800D02*
D03*
X7800Y-6000D02*
D03*
Y-6800D02*
D03*
Y-9600D02*
D03*
Y-10400D02*
D03*
X-2000Y-4900D02*
D03*
Y-4100D02*
D03*
X-3100Y7700D02*
D03*
Y8500D02*
D03*
X10500Y-4900D02*
D03*
Y-4100D02*
D03*
X9600D02*
D03*
Y-4900D02*
D03*
X8700Y-4100D02*
D03*
Y-4900D02*
D03*
X7800D02*
D03*
Y-4100D02*
D03*
D17*
X-3900Y-8200D02*
D03*
X-3100D02*
D03*
X-6100Y-9100D02*
D03*
X-6900D02*
D03*
X-8100Y6400D02*
D03*
X-8900D02*
D03*
X-1000Y-8000D02*
D03*
X-200D02*
D03*
X-1000Y-7100D02*
D03*
X-200D02*
D03*
X-1000Y-10200D02*
D03*
X-200D02*
D03*
X-1200Y10500D02*
D03*
X-2000D02*
D03*
X-100D02*
D03*
X700D02*
D03*
X2900D02*
D03*
X2100D02*
D03*
X-6900Y-8200D02*
D03*
X-6100D02*
D03*
X5700Y10500D02*
D03*
X6500D02*
D03*
X-9200Y-8900D02*
D03*
X-10000D02*
D03*
X4700Y10500D02*
D03*
X3900D02*
D03*
X-9200Y-8000D02*
D03*
X-10000D02*
D03*
X-4700Y6400D02*
D03*
X-5500D02*
D03*
X9300Y10500D02*
D03*
X10100D02*
D03*
X-3900Y6400D02*
D03*
X-3100D02*
D03*
X8300Y10500D02*
D03*
X7500D02*
D03*
X-7300Y6400D02*
D03*
X-6500D02*
D03*
X10000Y-5900D02*
D03*
X9200D02*
D03*
X10000Y-6800D02*
D03*
X9200D02*
D03*
X-9700Y6400D02*
D03*
X-10500D02*
D03*
X-200Y-5000D02*
D03*
X-1000D02*
D03*
Y-4100D02*
D03*
X-200D02*
D03*
D35*
X9240Y-12080D02*
X9810D01*
X7970D02*
X8540D01*
X6700D02*
X7270D01*
X5430D02*
X6000D01*
X4160D02*
X4730D01*
X2890D02*
X3460D01*
X1620D02*
X2190D01*
X350D02*
X920D01*
X-920D02*
X-350D01*
X-2190D02*
X-1620D01*
X-3460D02*
X-2890D01*
X-4730D02*
X-4160D01*
X-6000D02*
X-5430D01*
X-7270D02*
X-6700D01*
X-8540D02*
X-7970D01*
X-9810D02*
X-9240D01*
X-12480Y-10510D02*
X-12080D01*
X-12580Y-10410D02*
X-12480Y-10510D01*
X-12580Y-10410D02*
Y-9910D01*
X-12480Y-9810D01*
X-12080D01*
X-12480Y-9240D02*
X-12080D01*
X-12580Y-9140D02*
X-12480Y-9240D01*
X-12580Y-9140D02*
Y-8640D01*
X-12480Y-8540D01*
X-12080D01*
X-12480Y-7970D02*
X-12080D01*
X-12580Y-7870D02*
X-12480Y-7970D01*
X-12580Y-7870D02*
Y-7370D01*
X-12480Y-7270D01*
X-12080D01*
X-12480Y-6700D02*
X-12080D01*
X-12580Y-6600D02*
X-12480Y-6700D01*
X-12580Y-6600D02*
Y-6100D01*
X-12480Y-6000D01*
X-12080D01*
X-12480Y-5430D02*
X-12080D01*
X-12580Y-5330D02*
X-12480Y-5430D01*
X-12580Y-5330D02*
Y-4830D01*
X-12480Y-4730D01*
X-12080D01*
X-12480Y-4160D02*
X-12080D01*
X-12580Y-4060D02*
X-12480Y-4160D01*
X-12580Y-4060D02*
Y-3560D01*
X-12480Y-3460D01*
X-12080D01*
X-12480Y-2890D02*
X-12080D01*
X-12580Y-2790D02*
X-12480Y-2890D01*
X-12580Y-2790D02*
Y-2290D01*
X-12480Y-2190D01*
X-12080D01*
X-12480Y-1620D02*
X-12080D01*
X-12580Y-1520D02*
X-12480Y-1620D01*
X-12580Y-1520D02*
Y-1020D01*
X-12480Y-920D01*
X-12080D01*
X-12480Y-350D02*
X-12080D01*
X-12580Y-250D02*
X-12480Y-350D01*
X-12580Y-250D02*
Y250D01*
X-12480Y350D01*
X-12080D01*
X-12480Y920D02*
X-12080D01*
X-12580Y1020D02*
X-12480Y920D01*
X-12580Y1020D02*
Y1520D01*
X-12480Y1620D01*
X-12080D01*
X-12480Y2190D02*
X-12080D01*
X-12580Y2290D02*
X-12480Y2190D01*
X-12580Y2290D02*
Y2790D01*
X-12480Y2890D01*
X-12080D01*
X-12480Y3460D02*
X-12080D01*
X-12580Y3560D02*
X-12480Y3460D01*
X-12580Y3560D02*
Y4060D01*
X-12480Y4160D01*
X-12080D01*
X-12480Y4730D02*
X-12080D01*
X-12580Y4830D02*
X-12480Y4730D01*
X-12580Y4830D02*
Y5330D01*
X-12480Y5430D01*
X-12080D01*
X-12480Y6000D02*
X-12080D01*
X-12580Y6100D02*
X-12480Y6000D01*
X-12580Y6100D02*
Y6600D01*
X-12480Y6700D01*
X-12080D01*
X-12480Y7270D02*
X-12080D01*
X-12580Y7370D02*
X-12480Y7270D01*
X-12580Y7370D02*
Y7870D01*
X-12480Y7970D01*
X-12080D01*
X-12480Y8540D02*
X-12080D01*
X-12580Y8640D02*
X-12480Y8540D01*
X-12580Y8640D02*
Y9140D01*
X-12480Y9240D01*
X-12080D01*
X-12480Y9810D02*
X-12080D01*
X-12580Y9910D02*
X-12480Y9810D01*
X-12580Y9910D02*
Y10410D01*
X-12480Y10510D01*
X-12080D01*
X-10510Y12080D02*
Y12480D01*
X-10410Y12580D01*
X-9910D01*
X-9810Y12480D01*
Y12080D02*
Y12480D01*
X-9240Y12080D02*
Y12480D01*
X-9140Y12580D01*
X-8640D01*
X-8540Y12480D01*
Y12080D02*
Y12480D01*
X-7970Y12080D02*
Y12480D01*
X-7870Y12580D01*
X-7370D01*
X-7270Y12480D01*
Y12080D02*
Y12480D01*
X-6700Y12080D02*
Y12480D01*
X-6600Y12580D01*
X-6100D01*
X-6000Y12480D01*
Y12080D02*
Y12480D01*
X-5430Y12080D02*
Y12480D01*
X-5330Y12580D01*
X-4830D01*
X-4730Y12480D01*
Y12080D02*
Y12480D01*
X-4160Y12080D02*
Y12480D01*
X-4060Y12580D01*
X-3560D01*
X-3460Y12480D01*
Y12080D02*
Y12480D01*
X-2890Y12080D02*
Y12480D01*
X-2790Y12580D01*
X-2290D01*
X-2190Y12480D01*
Y12080D02*
Y12480D01*
X-1620Y12080D02*
Y12480D01*
X-1520Y12580D01*
X-1020D01*
X-920Y12480D01*
Y12080D02*
Y12480D01*
X-350Y12080D02*
Y12480D01*
X-250Y12580D01*
X250D01*
X350Y12480D01*
Y12080D02*
Y12480D01*
X920Y12080D02*
Y12480D01*
X1020Y12580D01*
X1520D01*
X1620Y12480D01*
Y12080D02*
Y12480D01*
X2190Y12080D02*
Y12480D01*
X2290Y12580D01*
X2790D01*
X2890Y12480D01*
Y12080D02*
Y12480D01*
X3460Y12080D02*
Y12480D01*
X3560Y12580D01*
X4060D01*
X4160Y12480D01*
Y12080D02*
Y12480D01*
X4730Y12080D02*
Y12480D01*
X4830Y12580D01*
X5330D01*
X5430Y12480D01*
Y12080D02*
Y12480D01*
X6000Y12080D02*
Y12480D01*
X6100Y12580D01*
X6600D01*
X6700Y12480D01*
Y12080D02*
Y12480D01*
X7270Y12080D02*
Y12480D01*
X7370Y12580D01*
X7870D01*
X7970Y12480D01*
Y12080D02*
Y12480D01*
X8540Y12080D02*
Y12480D01*
X8640Y12580D01*
X9140D01*
X9240Y12480D01*
Y12080D02*
Y12480D01*
X9810Y12080D02*
Y12480D01*
X9910Y12580D01*
X10410D01*
X10510Y12480D01*
Y12080D02*
Y12480D01*
X12080Y10510D02*
X12480D01*
X12580Y10410D01*
Y9910D02*
Y10410D01*
X12480Y9810D02*
X12580Y9910D01*
X12080Y9810D02*
X12480D01*
X12080Y9240D02*
X12480D01*
X12580Y9140D01*
Y8640D02*
Y9140D01*
X12480Y8540D02*
X12580Y8640D01*
X12080Y8540D02*
X12480D01*
X12080Y7970D02*
X12480D01*
X12580Y7870D01*
Y7370D02*
Y7870D01*
X12480Y7270D02*
X12580Y7370D01*
X12080Y7270D02*
X12480D01*
X12080Y6700D02*
X12480D01*
X12580Y6600D01*
Y6100D02*
Y6600D01*
X12480Y6000D02*
X12580Y6100D01*
X12080Y6000D02*
X12480D01*
X12080Y5430D02*
X12480D01*
X12580Y5330D01*
Y4830D02*
Y5330D01*
X12480Y4730D02*
X12580Y4830D01*
X12080Y4730D02*
X12480D01*
X12080Y4160D02*
X12480D01*
X12580Y4060D01*
Y3560D02*
Y4060D01*
X12480Y3460D02*
X12580Y3560D01*
X12080Y3460D02*
X12480D01*
X12080Y2890D02*
X12480D01*
X12580Y2790D01*
Y2290D02*
Y2790D01*
X12480Y2190D02*
X12580Y2290D01*
X12080Y2190D02*
X12480D01*
X12080Y1620D02*
X12480D01*
X12580Y1520D01*
Y1020D02*
Y1520D01*
X12480Y920D02*
X12580Y1020D01*
X12080Y920D02*
X12480D01*
X12080Y350D02*
X12480D01*
X12580Y250D01*
Y-250D02*
Y250D01*
X12480Y-350D02*
X12580Y-250D01*
X12080Y-350D02*
X12480D01*
X12080Y-920D02*
X12480D01*
X12580Y-1020D01*
Y-1520D02*
Y-1020D01*
X12480Y-1620D02*
X12580Y-1520D01*
X12080Y-1620D02*
X12480D01*
X12080Y-2190D02*
X12480D01*
X12580Y-2290D01*
Y-2790D02*
Y-2290D01*
X12480Y-2890D02*
X12580Y-2790D01*
X12080Y-2890D02*
X12480D01*
X12080Y-3460D02*
X12480D01*
X12580Y-3560D01*
Y-4060D02*
Y-3560D01*
X12480Y-4160D02*
X12580Y-4060D01*
X12080Y-4160D02*
X12480D01*
X12080Y-4730D02*
X12480D01*
X12580Y-4830D01*
Y-5330D02*
Y-4830D01*
X12480Y-5430D02*
X12580Y-5330D01*
X12080Y-5430D02*
X12480D01*
X12080Y-6000D02*
X12480D01*
X12580Y-6100D01*
Y-6600D02*
Y-6100D01*
X12480Y-6700D02*
X12580Y-6600D01*
X12080Y-6700D02*
X12480D01*
X12080Y-7270D02*
X12480D01*
X12580Y-7370D01*
Y-7870D02*
Y-7370D01*
X12480Y-7970D02*
X12580Y-7870D01*
X12080Y-7970D02*
X12480D01*
X12080Y-8540D02*
X12480D01*
X12580Y-8640D01*
Y-9140D02*
Y-8640D01*
X12480Y-9240D02*
X12580Y-9140D01*
X12080Y-9240D02*
X12480D01*
X12080Y-9810D02*
X12480D01*
X12580Y-9910D01*
Y-10410D02*
Y-9910D01*
X12480Y-10510D02*
X12580Y-10410D01*
X12080Y-10510D02*
X12480D01*
X10510Y-12480D02*
Y-12080D01*
X10410Y-12580D02*
X10510Y-12480D01*
X9910Y-12580D02*
X10410D01*
X9810Y-12480D02*
X9910Y-12580D01*
X9810Y-12480D02*
Y-12080D01*
X9240Y-12480D02*
Y-12080D01*
X9140Y-12580D02*
X9240Y-12480D01*
X8640Y-12580D02*
X9140D01*
X8540Y-12480D02*
X8640Y-12580D01*
X8540Y-12480D02*
Y-12080D01*
X7970Y-12480D02*
Y-12080D01*
X7870Y-12580D02*
X7970Y-12480D01*
X7370Y-12580D02*
X7870D01*
X7270Y-12480D02*
X7370Y-12580D01*
X7270Y-12480D02*
Y-12080D01*
X6700Y-12480D02*
Y-12080D01*
X6600Y-12580D02*
X6700Y-12480D01*
X6100Y-12580D02*
X6600D01*
X6000Y-12480D02*
X6100Y-12580D01*
X6000Y-12480D02*
Y-12080D01*
X5430Y-12480D02*
Y-12080D01*
X5330Y-12580D02*
X5430Y-12480D01*
X4830Y-12580D02*
X5330D01*
X4730Y-12480D02*
X4830Y-12580D01*
X4730Y-12480D02*
Y-12080D01*
X4160Y-12480D02*
Y-12080D01*
X4060Y-12580D02*
X4160Y-12480D01*
X3560Y-12580D02*
X4060D01*
X3460Y-12480D02*
X3560Y-12580D01*
X3460Y-12480D02*
Y-12080D01*
X2890Y-12480D02*
Y-12080D01*
X2790Y-12580D02*
X2890Y-12480D01*
X2290Y-12580D02*
X2790D01*
X2190Y-12480D02*
X2290Y-12580D01*
X2190Y-12480D02*
Y-12080D01*
X1620Y-12480D02*
Y-12080D01*
X1520Y-12580D02*
X1620Y-12480D01*
X1020Y-12580D02*
X1520D01*
X920Y-12480D02*
X1020Y-12580D01*
X920Y-12480D02*
Y-12080D01*
X350Y-12480D02*
Y-12080D01*
X250Y-12580D02*
X350Y-12480D01*
X-250Y-12580D02*
X250D01*
X-350Y-12480D02*
X-250Y-12580D01*
X-350Y-12480D02*
Y-12080D01*
X-920Y-12480D02*
Y-12080D01*
X-1020Y-12580D02*
X-920Y-12480D01*
X-1520Y-12580D02*
X-1020D01*
X-1620Y-12480D02*
X-1520Y-12580D01*
X-1620Y-12480D02*
Y-12080D01*
X-2190Y-12480D02*
Y-12080D01*
X-2290Y-12580D02*
X-2190Y-12480D01*
X-2790Y-12580D02*
X-2290D01*
X-2890Y-12480D02*
X-2790Y-12580D01*
X-2890Y-12480D02*
Y-12080D01*
X-3460Y-12480D02*
Y-12080D01*
X-3560Y-12580D02*
X-3460Y-12480D01*
X-4060Y-12580D02*
X-3560D01*
X-4160Y-12480D02*
X-4060Y-12580D01*
X-4160Y-12480D02*
Y-12080D01*
X-4730Y-12480D02*
Y-12080D01*
X-4830Y-12580D02*
X-4730Y-12480D01*
X-5330Y-12580D02*
X-4830D01*
X-5430Y-12480D02*
X-5330Y-12580D01*
X-5430Y-12480D02*
Y-12080D01*
X-6000Y-12480D02*
Y-12080D01*
X-6100Y-12580D02*
X-6000Y-12480D01*
X-6600Y-12580D02*
X-6100D01*
X-6700Y-12480D02*
X-6600Y-12580D01*
X-6700Y-12480D02*
Y-12080D01*
X-7270Y-12480D02*
Y-12080D01*
X-7370Y-12580D02*
X-7270Y-12480D01*
X-7870Y-12580D02*
X-7370D01*
X-7970Y-12480D02*
X-7870Y-12580D01*
X-7970Y-12480D02*
Y-12080D01*
X-8540Y-12480D02*
Y-12080D01*
X-8640Y-12580D02*
X-8540Y-12480D01*
X-9140Y-12580D02*
X-8640D01*
X-9240Y-12480D02*
X-9140Y-12580D01*
X-9240Y-12480D02*
Y-12080D01*
X-9810Y-12480D02*
Y-12080D01*
X-9910Y-12580D02*
X-9810Y-12480D01*
X-10410Y-12580D02*
X-9910D01*
X-10510Y-12480D02*
X-10410Y-12580D01*
X-10510Y-12480D02*
Y-12080D01*
X-12446Y-10465D02*
X-12090D01*
X-12573Y-10338D02*
X-12446Y-10465D01*
X-12573Y-10338D02*
Y-9982D01*
X-12446Y-9855D01*
X-12090D01*
X-12080Y-9810D02*
Y-9240D01*
Y-8540D02*
Y-7970D01*
Y-7270D02*
Y-6700D01*
Y-6000D02*
Y-5430D01*
Y-4730D02*
Y-4160D01*
Y-3460D02*
Y-2890D01*
Y-2190D02*
Y-1620D01*
Y-920D02*
Y-350D01*
Y350D02*
Y920D01*
Y1620D02*
Y2190D01*
Y2890D02*
Y3460D01*
Y4160D02*
Y4730D01*
Y5430D02*
Y6000D01*
Y6700D02*
Y7270D01*
Y7970D02*
Y8540D01*
Y9240D02*
Y9810D01*
X-9810Y12080D02*
X-9240D01*
X-8540D02*
X-7970D01*
X-7270D02*
X-6700D01*
X-6000D02*
X-5430D01*
X-4730D02*
X-4160D01*
X-3460D02*
X-2890D01*
X-2190D02*
X-1620D01*
X-920D02*
X-350D01*
X350D02*
X920D01*
X1620D02*
X2190D01*
X2890D02*
X3460D01*
X4160D02*
X4730D01*
X5430D02*
X6000D01*
X6700D02*
X7270D01*
X7970D02*
X8540D01*
X9240D02*
X9810D01*
X12080Y9240D02*
Y9810D01*
Y7970D02*
Y8540D01*
Y6700D02*
Y7270D01*
Y5430D02*
Y6000D01*
Y4160D02*
Y4730D01*
Y2890D02*
Y3460D01*
Y1620D02*
Y2190D01*
Y350D02*
Y920D01*
Y-920D02*
Y-350D01*
Y-2190D02*
Y-1620D01*
Y-3460D02*
Y-2890D01*
Y-4730D02*
Y-4160D01*
Y-6000D02*
Y-5430D01*
Y-7270D02*
Y-6700D01*
Y-8540D02*
Y-7970D01*
Y-9810D02*
Y-9240D01*
X10510Y-12080D02*
X12080D01*
Y-10510D01*
X10510Y12080D02*
X12080D01*
Y10510D02*
Y12080D01*
X-12080Y10510D02*
Y12080D01*
X-10510D01*
X-12080Y-10510D02*
X-10510Y-12080D01*
D47*
X-3100Y-9100D02*
D03*
Y-9900D02*
D03*
X-3900D02*
D03*
Y-9100D02*
D03*
D48*
X-3500Y-9500D02*
D03*
D49*
X-10050Y8050D02*
D03*
Y8550D02*
D03*
Y9050D02*
D03*
Y9550D02*
D03*
X-6950D02*
D03*
Y9050D02*
D03*
Y8550D02*
D03*
Y8050D02*
D03*
D50*
X-9250Y10350D02*
D03*
X-8750D02*
D03*
X-8250D02*
D03*
X-7750D02*
D03*
Y7250D02*
D03*
X-8250D02*
D03*
X-8750D02*
D03*
X-9250D02*
D03*
D51*
X-8500Y8800D02*
D03*
D52*
X9800Y8900D02*
D03*
X9000D02*
D03*
X8200D02*
D03*
X7400D02*
D03*
X6600D02*
D03*
X5800D02*
D03*
X5000D02*
D03*
X4200D02*
D03*
X3400D02*
D03*
X2600D02*
D03*
X1800D02*
D03*
X1000D02*
D03*
X200D02*
D03*
X-600D02*
D03*
X-1400D02*
D03*
X9800Y8100D02*
D03*
X9000D02*
D03*
X8200D02*
D03*
X7400D02*
D03*
X6600D02*
D03*
X5800D02*
D03*
X5000D02*
D03*
X4200D02*
D03*
X3400D02*
D03*
X2600D02*
D03*
X1800D02*
D03*
X1000D02*
D03*
X200D02*
D03*
X-600D02*
D03*
X-1400D02*
D03*
X9800Y7300D02*
D03*
X9000D02*
D03*
X8200D02*
D03*
X7400D02*
D03*
X6600D02*
D03*
X5800D02*
D03*
X5000D02*
D03*
X4200D02*
D03*
X3400D02*
D03*
X2600D02*
D03*
X1800D02*
D03*
X1000D02*
D03*
X200D02*
D03*
X-600D02*
D03*
X-1400D02*
D03*
X9800Y6500D02*
D03*
X9000D02*
D03*
X8200D02*
D03*
X7400D02*
D03*
X6600D02*
D03*
X5800D02*
D03*
X5000D02*
D03*
X4200D02*
D03*
X3400D02*
D03*
X2600D02*
D03*
X1800D02*
D03*
X1000D02*
D03*
X200D02*
D03*
X-600D02*
D03*
X-1400D02*
D03*
X9800Y5700D02*
D03*
X9000D02*
D03*
X8200D02*
D03*
X7400D02*
D03*
X6600D02*
D03*
X5800D02*
D03*
X5000D02*
D03*
X4200D02*
D03*
X3400D02*
D03*
X2600D02*
D03*
X1800D02*
D03*
X1000D02*
D03*
X200D02*
D03*
X-600D02*
D03*
X-1400D02*
D03*
X9800Y4900D02*
D03*
X9000D02*
D03*
X8200D02*
D03*
X7400D02*
D03*
X6600D02*
D03*
X5800D02*
D03*
X5000D02*
D03*
X4200D02*
D03*
X3400D02*
D03*
X2600D02*
D03*
X1800D02*
D03*
X1000D02*
D03*
X200D02*
D03*
X-600D02*
D03*
X-1400D02*
D03*
X9800Y4100D02*
D03*
X9000D02*
D03*
X8200D02*
D03*
X7400D02*
D03*
X6600D02*
D03*
X5800D02*
D03*
X5000D02*
D03*
X4200D02*
D03*
X3400D02*
D03*
X2600D02*
D03*
X1800D02*
D03*
X1000D02*
D03*
X200D02*
D03*
X-600D02*
D03*
X-1400D02*
D03*
X9800Y3300D02*
D03*
X9000D02*
D03*
X8200D02*
D03*
X7400D02*
D03*
X6600D02*
D03*
X5800D02*
D03*
X5000D02*
D03*
X4200D02*
D03*
X3400D02*
D03*
X2600D02*
D03*
X1800D02*
D03*
X1000D02*
D03*
X200D02*
D03*
X-600D02*
D03*
X-1400D02*
D03*
X9800Y2500D02*
D03*
X9000D02*
D03*
X8200D02*
D03*
X7400D02*
D03*
X6600D02*
D03*
X5800D02*
D03*
X5000D02*
D03*
X4200D02*
D03*
X3400D02*
D03*
X2600D02*
D03*
X1800D02*
D03*
X1000D02*
D03*
X200D02*
D03*
X-600D02*
D03*
X-1400D02*
D03*
X9800Y1700D02*
D03*
X9000D02*
D03*
X8200D02*
D03*
X7400D02*
D03*
X6600D02*
D03*
X5800D02*
D03*
X5000D02*
D03*
X4200D02*
D03*
X3400D02*
D03*
X2600D02*
D03*
X1800D02*
D03*
X1000D02*
D03*
X200D02*
D03*
X-600D02*
D03*
X-1400D02*
D03*
X9800Y900D02*
D03*
X9000D02*
D03*
X8200D02*
D03*
X7400D02*
D03*
X6600D02*
D03*
X5800D02*
D03*
X5000D02*
D03*
X4200D02*
D03*
X3400D02*
D03*
X2600D02*
D03*
X1800D02*
D03*
X1000D02*
D03*
X200D02*
D03*
X-600D02*
D03*
X-1400D02*
D03*
X9800Y100D02*
D03*
X9000D02*
D03*
X8200D02*
D03*
X7400D02*
D03*
X6600D02*
D03*
X5800D02*
D03*
X5000D02*
D03*
X4200D02*
D03*
X3400D02*
D03*
X2600D02*
D03*
X1800D02*
D03*
X1000D02*
D03*
X200D02*
D03*
X-600D02*
D03*
X-1400D02*
D03*
X9800Y-700D02*
D03*
X9000D02*
D03*
X8200D02*
D03*
X7400D02*
D03*
X6600D02*
D03*
X5800D02*
D03*
X5000D02*
D03*
X4200D02*
D03*
X3400D02*
D03*
X2600D02*
D03*
X1800D02*
D03*
X1000D02*
D03*
X200D02*
D03*
X-600D02*
D03*
X-1400D02*
D03*
X9800Y-1500D02*
D03*
X9000D02*
D03*
X8200D02*
D03*
X7400D02*
D03*
X6600D02*
D03*
X5800D02*
D03*
X5000D02*
D03*
X4200D02*
D03*
X3400D02*
D03*
X2600D02*
D03*
X1800D02*
D03*
X1000D02*
D03*
X200D02*
D03*
X-600D02*
D03*
X-1400D02*
D03*
X9800Y-2300D02*
D03*
X9000D02*
D03*
X8200D02*
D03*
X7400D02*
D03*
X6600D02*
D03*
X5800D02*
D03*
X5000D02*
D03*
X4200D02*
D03*
X3400D02*
D03*
X2600D02*
D03*
X1800D02*
D03*
X1000D02*
D03*
X200D02*
D03*
X-600D02*
D03*
X-1400D02*
D03*
D53*
X-9900Y-300D02*
D03*
Y700D02*
D03*
Y1700D02*
D03*
Y2700D02*
D03*
Y3700D02*
D03*
Y4700D02*
D03*
X-9100Y-6300D02*
D03*
Y-5300D02*
D03*
Y-4300D02*
D03*
Y-3300D02*
D03*
Y-2300D02*
D03*
Y-1300D02*
D03*
Y-300D02*
D03*
Y700D02*
D03*
Y1700D02*
D03*
Y2700D02*
D03*
Y3700D02*
D03*
Y4700D02*
D03*
X-8300Y-6300D02*
D03*
Y-5300D02*
D03*
Y-4300D02*
D03*
Y-3300D02*
D03*
Y-2300D02*
D03*
Y-1300D02*
D03*
Y-300D02*
D03*
Y700D02*
D03*
Y1700D02*
D03*
Y2700D02*
D03*
Y3700D02*
D03*
Y4700D02*
D03*
X-5100Y-6300D02*
D03*
Y-5300D02*
D03*
Y-4300D02*
D03*
Y-3300D02*
D03*
Y-2300D02*
D03*
Y-1300D02*
D03*
Y-300D02*
D03*
Y700D02*
D03*
Y1700D02*
D03*
Y2700D02*
D03*
Y3700D02*
D03*
Y4700D02*
D03*
X-4300Y-6300D02*
D03*
Y-5300D02*
D03*
Y-4300D02*
D03*
Y-3300D02*
D03*
Y-2300D02*
D03*
Y-1300D02*
D03*
Y-300D02*
D03*
Y700D02*
D03*
Y1700D02*
D03*
Y2700D02*
D03*
Y3700D02*
D03*
Y4700D02*
D03*
X-3500Y-300D02*
D03*
Y700D02*
D03*
Y1700D02*
D03*
Y2700D02*
D03*
Y3700D02*
D03*
Y4700D02*
D03*
D54*
X6725Y-10100D02*
D03*
X6075D02*
D03*
X5425D02*
D03*
X4775D02*
D03*
X4125D02*
D03*
X3475D02*
D03*
X2825D02*
D03*
X2175D02*
D03*
X1525D02*
D03*
X875D02*
D03*
X6725Y-4500D02*
D03*
X6075D02*
D03*
X5425D02*
D03*
X4775D02*
D03*
X4125D02*
D03*
X3475D02*
D03*
X2825D02*
D03*
X2175D02*
D03*
X1525D02*
D03*
X875D02*
D03*
M02*
