G04 Layer_Color=65535*
%FSLAX43Y43*%
%MOMM*%
G71*
G01*
G75*
%ADD33C,0.150*%
%ADD34C,0.250*%
%ADD35C,0.200*%
%ADD38C,0.350*%
%ADD55C,0.254*%
%ADD56R,1.800X0.300*%
%ADD57R,0.300X1.800*%
G36*
X10555Y-5431D02*
X10567D01*
X10583Y-5432D01*
X10599Y-5433D01*
X10634Y-5436D01*
X10670Y-5441D01*
X10707Y-5448D01*
X10723Y-5453D01*
X10740Y-5457D01*
X10741D01*
X10743Y-5459D01*
X10748Y-5460D01*
X10754Y-5462D01*
X10761Y-5466D01*
X10768Y-5469D01*
X10786Y-5479D01*
X10807Y-5490D01*
X10829Y-5504D01*
X10850Y-5521D01*
X10868Y-5541D01*
Y-5542D01*
X10871Y-5543D01*
X10872Y-5546D01*
X10875Y-5550D01*
X10882Y-5563D01*
X10891Y-5578D01*
X10899Y-5599D01*
X10906Y-5623D01*
X10911Y-5650D01*
X10913Y-5680D01*
Y-5681D01*
Y-5685D01*
Y-5690D01*
X10912Y-5699D01*
X10911Y-5708D01*
X10908Y-5719D01*
X10906Y-5730D01*
X10904Y-5743D01*
X10894Y-5771D01*
X10887Y-5787D01*
X10880Y-5801D01*
X10871Y-5816D01*
X10860Y-5830D01*
X10848Y-5843D01*
X10834Y-5856D01*
X10833Y-5857D01*
X10830Y-5859D01*
X10824Y-5863D01*
X10816Y-5867D01*
X10805Y-5873D01*
X10792Y-5879D01*
X10777Y-5886D01*
X10758Y-5893D01*
X10738Y-5900D01*
X10715Y-5907D01*
X10689Y-5913D01*
X10661Y-5919D01*
X10630Y-5924D01*
X10597Y-5927D01*
X10559Y-5929D01*
X10521Y-5931D01*
X10498D01*
X10487Y-5929D01*
X10474D01*
X10459Y-5928D01*
X10442Y-5927D01*
X10407Y-5924D01*
X10371Y-5919D01*
X10334Y-5913D01*
X10318Y-5908D01*
X10302Y-5904D01*
X10300D01*
X10298Y-5902D01*
X10293Y-5900D01*
X10288Y-5898D01*
X10281Y-5895D01*
X10272Y-5892D01*
X10254Y-5883D01*
X10233Y-5871D01*
X10211Y-5857D01*
X10192Y-5840D01*
X10173Y-5820D01*
Y-5819D01*
X10171Y-5818D01*
X10168Y-5815D01*
X10166Y-5810D01*
X10159Y-5798D01*
X10149Y-5782D01*
X10141Y-5762D01*
X10134Y-5737D01*
X10130Y-5710D01*
X10127Y-5680D01*
Y-5679D01*
Y-5678D01*
Y-5674D01*
Y-5669D01*
X10128Y-5658D01*
X10131Y-5644D01*
X10133Y-5627D01*
X10138Y-5609D01*
X10145Y-5590D01*
X10153Y-5572D01*
X10154Y-5570D01*
X10158Y-5564D01*
X10163Y-5556D01*
X10171Y-5544D01*
X10181Y-5532D01*
X10194Y-5520D01*
X10208Y-5507D01*
X10224Y-5495D01*
X10227Y-5494D01*
X10233Y-5490D01*
X10243Y-5484D01*
X10256Y-5477D01*
X10272Y-5470D01*
X10292Y-5462D01*
X10315Y-5454D01*
X10339Y-5447D01*
X10340D01*
X10343Y-5446D01*
X10346D01*
X10352Y-5445D01*
X10358Y-5442D01*
X10366Y-5441D01*
X10377Y-5440D01*
X10387Y-5438D01*
X10400Y-5436D01*
X10413Y-5435D01*
X10428Y-5433D01*
X10445Y-5432D01*
X10462Y-5431D01*
X10480D01*
X10521Y-5429D01*
X10543D01*
X10555Y-5431D01*
D02*
G37*
G36*
X10536Y-9187D02*
X10551D01*
X10566Y-9188D01*
X10584Y-9189D01*
X10621Y-9194D01*
X10661Y-9200D01*
X10700Y-9208D01*
X10717Y-9213D01*
X10735Y-9219D01*
X10736D01*
X10738Y-9220D01*
X10743Y-9222D01*
X10749Y-9224D01*
X10757Y-9228D01*
X10765Y-9231D01*
X10784Y-9242D01*
X10806Y-9256D01*
X10829Y-9272D01*
X10850Y-9291D01*
X10868Y-9313D01*
Y-9315D01*
X10871Y-9316D01*
X10872Y-9319D01*
X10875Y-9325D01*
X10879Y-9331D01*
X10882Y-9338D01*
X10891Y-9356D01*
X10899Y-9378D01*
X10906Y-9402D01*
X10911Y-9432D01*
X10913Y-9462D01*
Y-9463D01*
Y-9466D01*
Y-9470D01*
X10912Y-9477D01*
Y-9484D01*
X10911Y-9494D01*
X10907Y-9515D01*
X10901Y-9538D01*
X10892Y-9563D01*
X10880Y-9586D01*
X10864Y-9610D01*
X10863Y-9611D01*
X10861Y-9612D01*
X10854Y-9619D01*
X10843Y-9628D01*
X10827Y-9640D01*
X10807Y-9652D01*
X10783Y-9662D01*
X10755Y-9672D01*
X10722Y-9678D01*
X10715Y-9587D01*
X10717D01*
X10721Y-9586D01*
X10726Y-9585D01*
X10737Y-9583D01*
X10750Y-9578D01*
X10765Y-9572D01*
X10781Y-9565D01*
X10796Y-9556D01*
X10807Y-9544D01*
X10809Y-9543D01*
X10812Y-9538D01*
X10817Y-9531D01*
X10822Y-9521D01*
X10826Y-9509D01*
X10831Y-9495D01*
X10834Y-9478D01*
X10836Y-9460D01*
Y-9457D01*
Y-9453D01*
X10834Y-9445D01*
X10833Y-9434D01*
X10831Y-9422D01*
X10827Y-9409D01*
X10823Y-9397D01*
X10816Y-9384D01*
X10815Y-9382D01*
X10812Y-9378D01*
X10807Y-9372D01*
X10802Y-9365D01*
X10795Y-9356D01*
X10785Y-9347D01*
X10775Y-9338D01*
X10763Y-9330D01*
X10762Y-9329D01*
X10757Y-9326D01*
X10749Y-9323D01*
X10738Y-9317D01*
X10726Y-9312D01*
X10710Y-9306D01*
X10693Y-9300D01*
X10673Y-9295D01*
X10672D01*
X10670Y-9293D01*
X10667D01*
X10663Y-9292D01*
X10652Y-9290D01*
X10637Y-9288D01*
X10619Y-9285D01*
X10600Y-9283D01*
X10579Y-9281D01*
X10538D01*
X10541Y-9282D01*
X10545Y-9286D01*
X10555Y-9292D01*
X10564Y-9302D01*
X10576Y-9312D01*
X10589Y-9326D01*
X10600Y-9341D01*
X10612Y-9359D01*
X10613Y-9361D01*
X10617Y-9367D01*
X10620Y-9378D01*
X10625Y-9391D01*
X10631Y-9406D01*
X10634Y-9423D01*
X10638Y-9443D01*
X10639Y-9464D01*
Y-9466D01*
Y-9469D01*
Y-9474D01*
X10638Y-9481D01*
X10637Y-9489D01*
X10635Y-9498D01*
X10631Y-9521D01*
X10622Y-9546D01*
X10617Y-9559D01*
X10610Y-9573D01*
X10601Y-9586D01*
X10592Y-9600D01*
X10582Y-9613D01*
X10570Y-9626D01*
X10569Y-9627D01*
X10566Y-9628D01*
X10563Y-9632D01*
X10557Y-9637D01*
X10550Y-9641D01*
X10542Y-9647D01*
X10532Y-9653D01*
X10521Y-9659D01*
X10509Y-9665D01*
X10495Y-9671D01*
X10480Y-9676D01*
X10463Y-9681D01*
X10446Y-9686D01*
X10428Y-9689D01*
X10408Y-9690D01*
X10387Y-9692D01*
X10375D01*
X10367Y-9690D01*
X10358Y-9689D01*
X10346Y-9688D01*
X10333Y-9686D01*
X10319Y-9683D01*
X10290Y-9675D01*
X10274Y-9669D01*
X10258Y-9662D01*
X10242Y-9655D01*
X10227Y-9646D01*
X10213Y-9635D01*
X10199Y-9624D01*
X10197Y-9623D01*
X10195Y-9620D01*
X10192Y-9617D01*
X10187Y-9611D01*
X10182Y-9605D01*
X10176Y-9597D01*
X10169Y-9587D01*
X10162Y-9576D01*
X10156Y-9564D01*
X10149Y-9551D01*
X10138Y-9522D01*
X10134Y-9505D01*
X10131Y-9488D01*
X10128Y-9469D01*
X10127Y-9450D01*
Y-9449D01*
Y-9447D01*
Y-9443D01*
X10128Y-9438D01*
Y-9432D01*
X10130Y-9423D01*
X10132Y-9405D01*
X10138Y-9384D01*
X10145Y-9361D01*
X10154Y-9337D01*
X10168Y-9313D01*
Y-9312D01*
X10171Y-9311D01*
X10173Y-9308D01*
X10175Y-9303D01*
X10185Y-9292D01*
X10197Y-9278D01*
X10215Y-9263D01*
X10234Y-9247D01*
X10257Y-9231D01*
X10284Y-9219D01*
X10285D01*
X10288Y-9217D01*
X10292Y-9215D01*
X10298Y-9214D01*
X10305Y-9210D01*
X10315Y-9208D01*
X10326Y-9206D01*
X10339Y-9202D01*
X10353Y-9199D01*
X10370Y-9196D01*
X10387Y-9193D01*
X10406Y-9190D01*
X10427Y-9189D01*
X10449Y-9187D01*
X10474Y-9186D01*
X10524D01*
X10536Y-9187D01*
D02*
G37*
G36*
X9562Y-9922D02*
X9568Y-9924D01*
X9578Y-9927D01*
X9587Y-9931D01*
X9600Y-9936D01*
X9613Y-9941D01*
X9627Y-9948D01*
X9658Y-9963D01*
X9690Y-9984D01*
X9720Y-10007D01*
X9734Y-10022D01*
X9747Y-10037D01*
X9748Y-10038D01*
X9750Y-10040D01*
X9753Y-10045D01*
X9758Y-10052D01*
X9763Y-10060D01*
X9768Y-10070D01*
X9774Y-10080D01*
X9780Y-10093D01*
X9786Y-10107D01*
X9792Y-10122D01*
X9798Y-10140D01*
X9802Y-10157D01*
X9811Y-10196D01*
X9812Y-10217D01*
X9813Y-10239D01*
Y-10241D01*
Y-10245D01*
Y-10251D01*
X9812Y-10260D01*
Y-10271D01*
X9811Y-10283D01*
X9808Y-10297D01*
X9807Y-10311D01*
X9800Y-10344D01*
X9792Y-10378D01*
X9779Y-10410D01*
X9772Y-10427D01*
X9763Y-10442D01*
X9761Y-10443D01*
X9760Y-10445D01*
X9757Y-10449D01*
X9753Y-10455D01*
X9741Y-10469D01*
X9725Y-10485D01*
X9705Y-10505D01*
X9679Y-10524D01*
X9650Y-10544D01*
X9616Y-10560D01*
X9615D01*
X9611Y-10561D01*
X9607Y-10564D01*
X9600Y-10566D01*
X9590Y-10570D01*
X9580Y-10573D01*
X9568Y-10577D01*
X9554Y-10580D01*
X9540Y-10584D01*
X9524Y-10587D01*
X9489Y-10594D01*
X9451Y-10599D01*
X9410Y-10600D01*
X9398D01*
X9390Y-10599D01*
X9380D01*
X9367Y-10598D01*
X9354Y-10596D01*
X9339Y-10594D01*
X9306Y-10588D01*
X9271Y-10581D01*
X9234Y-10570D01*
X9200Y-10554D01*
X9199D01*
X9197Y-10552D01*
X9192Y-10550D01*
X9185Y-10546D01*
X9178Y-10541D01*
X9170Y-10536D01*
X9150Y-10520D01*
X9128Y-10503D01*
X9106Y-10481D01*
X9083Y-10454D01*
X9065Y-10424D01*
Y-10423D01*
X9062Y-10421D01*
X9060Y-10416D01*
X9058Y-10409D01*
X9054Y-10402D01*
X9049Y-10393D01*
X9046Y-10381D01*
X9041Y-10369D01*
X9037Y-10356D01*
X9033Y-10342D01*
X9025Y-10311D01*
X9020Y-10276D01*
X9018Y-10238D01*
Y-10237D01*
Y-10233D01*
Y-10226D01*
X9019Y-10218D01*
X9020Y-10209D01*
X9021Y-10197D01*
X9023Y-10184D01*
X9025Y-10170D01*
X9032Y-10140D01*
X9042Y-10107D01*
X9049Y-10091D01*
X9058Y-10074D01*
X9067Y-10059D01*
X9078Y-10044D01*
X9079Y-10043D01*
X9080Y-10040D01*
X9083Y-10037D01*
X9088Y-10031D01*
X9094Y-10025D01*
X9102Y-10017D01*
X9110Y-10009D01*
X9120Y-10000D01*
X9131Y-9991D01*
X9143Y-9983D01*
X9157Y-9974D01*
X9172Y-9964D01*
X9188Y-9956D01*
X9205Y-9948D01*
X9243Y-9934D01*
X9266Y-10034D01*
X9265D01*
X9263Y-10036D01*
X9258Y-10037D01*
X9252Y-10039D01*
X9245Y-10043D01*
X9237Y-10046D01*
X9219Y-10054D01*
X9199Y-10065D01*
X9178Y-10079D01*
X9160Y-10094D01*
X9143Y-10113D01*
X9142Y-10115D01*
X9137Y-10122D01*
X9131Y-10133D01*
X9123Y-10148D01*
X9116Y-10166D01*
X9110Y-10188D01*
X9106Y-10212D01*
X9104Y-10241D01*
Y-10242D01*
Y-10244D01*
Y-10249D01*
X9106Y-10255D01*
Y-10263D01*
X9107Y-10271D01*
X9110Y-10292D01*
X9115Y-10315D01*
X9123Y-10340D01*
X9134Y-10365D01*
X9148Y-10388D01*
Y-10389D01*
X9150Y-10390D01*
X9156Y-10397D01*
X9165Y-10408D01*
X9178Y-10421D01*
X9195Y-10434D01*
X9213Y-10448D01*
X9237Y-10461D01*
X9263Y-10471D01*
X9264D01*
X9266Y-10472D01*
X9270Y-10474D01*
X9275Y-10475D01*
X9281Y-10477D01*
X9289Y-10478D01*
X9308Y-10483D01*
X9330Y-10488D01*
X9355Y-10491D01*
X9382Y-10493D01*
X9410Y-10495D01*
X9426D01*
X9435Y-10493D01*
X9445D01*
X9456Y-10492D01*
X9467Y-10491D01*
X9494Y-10488D01*
X9524Y-10483D01*
X9553Y-10476D01*
X9581Y-10467D01*
X9582D01*
X9585Y-10465D01*
X9588Y-10463D01*
X9593Y-10461D01*
X9607Y-10455D01*
X9622Y-10445D01*
X9641Y-10433D01*
X9658Y-10417D01*
X9676Y-10400D01*
X9691Y-10379D01*
Y-10378D01*
X9692Y-10376D01*
X9695Y-10373D01*
X9697Y-10368D01*
X9702Y-10355D01*
X9709Y-10339D01*
X9715Y-10320D01*
X9720Y-10298D01*
X9725Y-10273D01*
X9726Y-10248D01*
Y-10246D01*
Y-10244D01*
Y-10239D01*
X9725Y-10233D01*
Y-10226D01*
X9724Y-10217D01*
X9720Y-10197D01*
X9715Y-10175D01*
X9705Y-10150D01*
X9693Y-10127D01*
X9677Y-10104D01*
X9676Y-10102D01*
X9675Y-10101D01*
X9668Y-10094D01*
X9656Y-10084D01*
X9641Y-10071D01*
X9620Y-10058D01*
X9595Y-10044D01*
X9565Y-10032D01*
X9531Y-10023D01*
X9556Y-9921D01*
X9558D01*
X9562Y-9922D01*
D02*
G37*
G36*
X10900Y-5072D02*
X10298D01*
X10299Y-5073D01*
X10304Y-5078D01*
X10310Y-5086D01*
X10318Y-5097D01*
X10329Y-5110D01*
X10339Y-5125D01*
X10352Y-5142D01*
X10364Y-5162D01*
Y-5164D01*
X10365Y-5165D01*
X10370Y-5172D01*
X10375Y-5182D01*
X10382Y-5195D01*
X10391Y-5210D01*
X10398Y-5227D01*
X10406Y-5244D01*
X10413Y-5261D01*
X10320D01*
Y-5260D01*
X10319Y-5257D01*
X10317Y-5253D01*
X10313Y-5248D01*
X10310Y-5241D01*
X10306Y-5233D01*
X10296Y-5214D01*
X10283Y-5193D01*
X10268Y-5169D01*
X10250Y-5146D01*
X10231Y-5124D01*
X10230Y-5123D01*
X10229Y-5121D01*
X10222Y-5114D01*
X10211Y-5104D01*
X10199Y-5091D01*
X10182Y-5077D01*
X10165Y-5063D01*
X10146Y-5050D01*
X10127Y-5039D01*
Y-4977D01*
X10900D01*
Y-5072D01*
D02*
G37*
G36*
X10669Y-6025D02*
X10676D01*
X10695Y-6028D01*
X10715Y-6032D01*
X10738Y-6037D01*
X10762Y-6045D01*
X10785Y-6056D01*
X10786D01*
X10788Y-6057D01*
X10791Y-6059D01*
X10796Y-6062D01*
X10806Y-6069D01*
X10820Y-6078D01*
X10836Y-6091D01*
X10851Y-6106D01*
X10866Y-6123D01*
X10880Y-6142D01*
X10881Y-6145D01*
X10885Y-6152D01*
X10891Y-6164D01*
X10896Y-6178D01*
X10902Y-6196D01*
X10908Y-6217D01*
X10912Y-6241D01*
X10913Y-6265D01*
Y-6267D01*
Y-6270D01*
X10912Y-6277D01*
Y-6285D01*
X10911Y-6295D01*
X10908Y-6306D01*
X10906Y-6319D01*
X10902Y-6333D01*
X10898Y-6349D01*
X10892Y-6365D01*
X10885Y-6380D01*
X10877Y-6397D01*
X10866Y-6413D01*
X10854Y-6429D01*
X10841Y-6445D01*
X10826Y-6459D01*
X10825Y-6460D01*
X10822Y-6462D01*
X10817Y-6466D01*
X10810Y-6470D01*
X10800Y-6476D01*
X10789Y-6482D01*
X10775Y-6489D01*
X10758Y-6495D01*
X10740Y-6502D01*
X10719Y-6509D01*
X10695Y-6515D01*
X10669Y-6521D01*
X10641Y-6525D01*
X10610Y-6529D01*
X10577Y-6531D01*
X10541Y-6532D01*
X10519D01*
X10504Y-6531D01*
X10485Y-6530D01*
X10464Y-6528D01*
X10441Y-6525D01*
X10416Y-6522D01*
X10389Y-6518D01*
X10363Y-6512D01*
X10336Y-6505D01*
X10310Y-6497D01*
X10283Y-6488D01*
X10259Y-6477D01*
X10236Y-6464D01*
X10216Y-6450D01*
X10215Y-6449D01*
X10213Y-6447D01*
X10208Y-6443D01*
X10202Y-6438D01*
X10195Y-6429D01*
X10188Y-6421D01*
X10180Y-6411D01*
X10172Y-6399D01*
X10163Y-6386D01*
X10155Y-6371D01*
X10148Y-6356D01*
X10141Y-6338D01*
X10135Y-6319D01*
X10131Y-6299D01*
X10128Y-6278D01*
X10127Y-6256D01*
Y-6255D01*
Y-6253D01*
Y-6248D01*
X10128Y-6241D01*
Y-6234D01*
X10130Y-6224D01*
X10133Y-6203D01*
X10140Y-6180D01*
X10149Y-6155D01*
X10161Y-6131D01*
X10169Y-6119D01*
X10179Y-6107D01*
Y-6106D01*
X10181Y-6105D01*
X10188Y-6098D01*
X10200Y-6089D01*
X10215Y-6077D01*
X10235Y-6064D01*
X10258Y-6053D01*
X10286Y-6043D01*
X10318Y-6037D01*
X10325Y-6131D01*
X10323D01*
X10316Y-6133D01*
X10306Y-6137D01*
X10295Y-6140D01*
X10268Y-6152D01*
X10256Y-6159D01*
X10245Y-6167D01*
X10243Y-6168D01*
X10238Y-6174D01*
X10233Y-6182D01*
X10224Y-6193D01*
X10217Y-6207D01*
X10210Y-6223D01*
X10206Y-6242D01*
X10204Y-6262D01*
Y-6264D01*
Y-6270D01*
X10206Y-6278D01*
X10208Y-6289D01*
X10210Y-6302D01*
X10215Y-6316D01*
X10222Y-6329D01*
X10230Y-6343D01*
X10231Y-6345D01*
X10236Y-6350D01*
X10244Y-6358D01*
X10255Y-6367D01*
X10268Y-6379D01*
X10284Y-6391D01*
X10304Y-6402D01*
X10326Y-6413D01*
X10327D01*
X10329Y-6414D01*
X10333Y-6415D01*
X10338Y-6416D01*
X10344Y-6419D01*
X10352Y-6421D01*
X10361Y-6424D01*
X10372Y-6426D01*
X10384Y-6428D01*
X10396Y-6431D01*
X10412Y-6433D01*
X10427Y-6435D01*
X10445Y-6436D01*
X10463Y-6438D01*
X10483Y-6439D01*
X10503D01*
X10502Y-6438D01*
X10496Y-6433D01*
X10487Y-6426D01*
X10475Y-6415D01*
X10462Y-6404D01*
X10449Y-6390D01*
X10437Y-6373D01*
X10427Y-6356D01*
X10426Y-6353D01*
X10423Y-6347D01*
X10419Y-6337D01*
X10414Y-6324D01*
X10409Y-6309D01*
X10405Y-6291D01*
X10402Y-6272D01*
X10401Y-6253D01*
Y-6251D01*
Y-6248D01*
Y-6243D01*
X10402Y-6236D01*
X10404Y-6228D01*
X10405Y-6219D01*
X10409Y-6196D01*
X10419Y-6172D01*
X10423Y-6158D01*
X10430Y-6145D01*
X10439Y-6131D01*
X10448Y-6117D01*
X10459Y-6104D01*
X10471Y-6091D01*
X10473Y-6090D01*
X10475Y-6089D01*
X10478Y-6085D01*
X10484Y-6080D01*
X10491Y-6076D01*
X10500Y-6070D01*
X10509Y-6064D01*
X10519Y-6057D01*
X10532Y-6051D01*
X10545Y-6045D01*
X10560Y-6039D01*
X10576Y-6035D01*
X10593Y-6030D01*
X10611Y-6027D01*
X10631Y-6025D01*
X10651Y-6024D01*
X10662D01*
X10669Y-6025D01*
D02*
G37*
G36*
X10555Y-7997D02*
X10567D01*
X10583Y-7998D01*
X10599Y-8000D01*
X10634Y-8003D01*
X10670Y-8008D01*
X10707Y-8015D01*
X10723Y-8019D01*
X10740Y-8024D01*
X10741D01*
X10743Y-8025D01*
X10748Y-8027D01*
X10754Y-8029D01*
X10761Y-8032D01*
X10768Y-8036D01*
X10786Y-8045D01*
X10807Y-8057D01*
X10829Y-8071D01*
X10850Y-8087D01*
X10868Y-8107D01*
Y-8108D01*
X10871Y-8110D01*
X10872Y-8113D01*
X10875Y-8117D01*
X10882Y-8130D01*
X10891Y-8145D01*
X10899Y-8166D01*
X10906Y-8189D01*
X10911Y-8216D01*
X10913Y-8247D01*
Y-8248D01*
Y-8251D01*
Y-8257D01*
X10912Y-8265D01*
X10911Y-8275D01*
X10908Y-8285D01*
X10906Y-8297D01*
X10904Y-8310D01*
X10894Y-8338D01*
X10887Y-8353D01*
X10880Y-8367D01*
X10871Y-8382D01*
X10860Y-8397D01*
X10848Y-8409D01*
X10834Y-8422D01*
X10833Y-8423D01*
X10830Y-8426D01*
X10824Y-8429D01*
X10816Y-8434D01*
X10805Y-8440D01*
X10792Y-8446D01*
X10777Y-8453D01*
X10758Y-8460D01*
X10738Y-8467D01*
X10715Y-8474D01*
X10689Y-8480D01*
X10661Y-8486D01*
X10630Y-8490D01*
X10597Y-8494D01*
X10559Y-8496D01*
X10521Y-8497D01*
X10498D01*
X10487Y-8496D01*
X10474D01*
X10459Y-8495D01*
X10442Y-8494D01*
X10407Y-8490D01*
X10371Y-8486D01*
X10334Y-8480D01*
X10318Y-8475D01*
X10302Y-8470D01*
X10300D01*
X10298Y-8469D01*
X10293Y-8467D01*
X10288Y-8464D01*
X10281Y-8462D01*
X10272Y-8459D01*
X10254Y-8449D01*
X10233Y-8438D01*
X10211Y-8423D01*
X10192Y-8407D01*
X10173Y-8387D01*
Y-8386D01*
X10171Y-8385D01*
X10168Y-8381D01*
X10166Y-8377D01*
X10159Y-8365D01*
X10149Y-8349D01*
X10141Y-8329D01*
X10134Y-8304D01*
X10130Y-8277D01*
X10127Y-8247D01*
Y-8245D01*
Y-8244D01*
Y-8241D01*
Y-8236D01*
X10128Y-8224D01*
X10131Y-8210D01*
X10133Y-8194D01*
X10138Y-8175D01*
X10145Y-8156D01*
X10153Y-8139D01*
X10154Y-8137D01*
X10158Y-8131D01*
X10163Y-8123D01*
X10171Y-8111D01*
X10181Y-8099D01*
X10194Y-8086D01*
X10208Y-8073D01*
X10224Y-8062D01*
X10227Y-8060D01*
X10233Y-8057D01*
X10243Y-8051D01*
X10256Y-8044D01*
X10272Y-8037D01*
X10292Y-8029D01*
X10315Y-8021D01*
X10339Y-8014D01*
X10340D01*
X10343Y-8012D01*
X10346D01*
X10352Y-8011D01*
X10358Y-8009D01*
X10366Y-8008D01*
X10377Y-8007D01*
X10387Y-8004D01*
X10400Y-8003D01*
X10413Y-8002D01*
X10428Y-8000D01*
X10445Y-7998D01*
X10462Y-7997D01*
X10480D01*
X10521Y-7996D01*
X10543D01*
X10555Y-7997D01*
D02*
G37*
G36*
X10658Y-8586D02*
X10667Y-8587D01*
X10678Y-8589D01*
X10689Y-8590D01*
X10702Y-8592D01*
X10730Y-8600D01*
X10759Y-8611D01*
X10776Y-8618D01*
X10791Y-8626D01*
X10806Y-8635D01*
X10820Y-8646D01*
X10822Y-8647D01*
X10824Y-8649D01*
X10829Y-8654D01*
X10834Y-8660D01*
X10841Y-8667D01*
X10850Y-8676D01*
X10858Y-8687D01*
X10866Y-8700D01*
X10875Y-8713D01*
X10884Y-8728D01*
X10892Y-8745D01*
X10899Y-8763D01*
X10905Y-8783D01*
X10909Y-8803D01*
X10912Y-8825D01*
X10913Y-8849D01*
Y-8850D01*
Y-8853D01*
Y-8859D01*
X10912Y-8866D01*
X10911Y-8874D01*
X10909Y-8885D01*
X10908Y-8897D01*
X10906Y-8909D01*
X10899Y-8936D01*
X10888Y-8964D01*
X10881Y-8978D01*
X10873Y-8993D01*
X10865Y-9007D01*
X10854Y-9019D01*
X10853Y-9021D01*
X10852Y-9022D01*
X10848Y-9025D01*
X10844Y-9030D01*
X10838Y-9035D01*
X10831Y-9041D01*
X10823Y-9046D01*
X10813Y-9053D01*
X10791Y-9066D01*
X10764Y-9079D01*
X10734Y-9089D01*
X10716Y-9092D01*
X10699Y-9094D01*
X10692Y-8995D01*
X10695D01*
X10699Y-8994D01*
X10703Y-8993D01*
X10716Y-8989D01*
X10733Y-8984D01*
X10750Y-8978D01*
X10768Y-8969D01*
X10785Y-8959D01*
X10800Y-8945D01*
X10802Y-8942D01*
X10806Y-8938D01*
X10811Y-8929D01*
X10818Y-8918D01*
X10824Y-8904D01*
X10830Y-8887D01*
X10834Y-8868D01*
X10836Y-8849D01*
Y-8847D01*
Y-8845D01*
Y-8841D01*
X10834Y-8837D01*
X10833Y-8824D01*
X10830Y-8808D01*
X10823Y-8790D01*
X10815Y-8770D01*
X10802Y-8751D01*
X10795Y-8742D01*
X10785Y-8733D01*
X10784D01*
X10783Y-8730D01*
X10776Y-8726D01*
X10764Y-8717D01*
X10749Y-8709D01*
X10729Y-8701D01*
X10706Y-8693D01*
X10679Y-8688D01*
X10648Y-8686D01*
X10640D01*
X10635Y-8687D01*
X10628D01*
X10620Y-8688D01*
X10601Y-8692D01*
X10582Y-8696D01*
X10560Y-8704D01*
X10539Y-8716D01*
X10521Y-8731D01*
X10518Y-8734D01*
X10514Y-8740D01*
X10505Y-8749D01*
X10497Y-8763D01*
X10489Y-8779D01*
X10481Y-8801D01*
X10476Y-8824D01*
X10474Y-8850D01*
Y-8852D01*
Y-8858D01*
X10475Y-8866D01*
X10476Y-8878D01*
X10480Y-8891D01*
X10483Y-8905D01*
X10489Y-8919D01*
X10496Y-8933D01*
X10497Y-8934D01*
X10500Y-8939D01*
X10504Y-8946D01*
X10510Y-8954D01*
X10518Y-8962D01*
X10528Y-8971D01*
X10538Y-8981D01*
X10550Y-8989D01*
X10537Y-9078D01*
X10142Y-9003D01*
Y-8621D01*
X10233D01*
Y-8928D01*
X10440Y-8970D01*
X10439Y-8969D01*
X10437Y-8967D01*
X10435Y-8963D01*
X10432Y-8959D01*
X10428Y-8952D01*
X10425Y-8945D01*
X10415Y-8926D01*
X10406Y-8905D01*
X10399Y-8880D01*
X10393Y-8853D01*
X10391Y-8825D01*
Y-8824D01*
Y-8820D01*
Y-8816D01*
X10392Y-8809D01*
X10393Y-8799D01*
X10394Y-8790D01*
X10396Y-8778D01*
X10399Y-8767D01*
X10408Y-8740D01*
X10413Y-8726D01*
X10420Y-8712D01*
X10428Y-8696D01*
X10437Y-8682D01*
X10448Y-8668D01*
X10461Y-8655D01*
X10462Y-8654D01*
X10464Y-8652D01*
X10468Y-8648D01*
X10474Y-8645D01*
X10481Y-8639D01*
X10489Y-8633D01*
X10498Y-8627D01*
X10509Y-8620D01*
X10522Y-8613D01*
X10535Y-8607D01*
X10550Y-8601D01*
X10565Y-8596D01*
X10583Y-8592D01*
X10600Y-8589D01*
X10620Y-8586D01*
X10640Y-8585D01*
X10651D01*
X10658Y-8586D01*
D02*
G37*
G36*
X10900Y-6864D02*
X10298D01*
X10299Y-6865D01*
X10304Y-6870D01*
X10310Y-6878D01*
X10318Y-6888D01*
X10329Y-6901D01*
X10339Y-6916D01*
X10352Y-6934D01*
X10364Y-6954D01*
Y-6955D01*
X10365Y-6956D01*
X10370Y-6963D01*
X10375Y-6974D01*
X10382Y-6987D01*
X10391Y-7002D01*
X10398Y-7018D01*
X10406Y-7036D01*
X10413Y-7052D01*
X10320D01*
Y-7051D01*
X10319Y-7049D01*
X10317Y-7044D01*
X10313Y-7039D01*
X10310Y-7032D01*
X10306Y-7024D01*
X10296Y-7005D01*
X10283Y-6984D01*
X10268Y-6961D01*
X10250Y-6938D01*
X10231Y-6915D01*
X10230Y-6914D01*
X10229Y-6913D01*
X10222Y-6906D01*
X10211Y-6895D01*
X10199Y-6883D01*
X10182Y-6868D01*
X10165Y-6854D01*
X10146Y-6842D01*
X10127Y-6831D01*
Y-6769D01*
X10900D01*
Y-6864D01*
D02*
G37*
G36*
X10662Y-7213D02*
X10668Y-7215D01*
X10678Y-7217D01*
X10687Y-7222D01*
X10700Y-7227D01*
X10713Y-7231D01*
X10727Y-7238D01*
X10758Y-7254D01*
X10790Y-7275D01*
X10820Y-7298D01*
X10834Y-7312D01*
X10847Y-7327D01*
X10848Y-7329D01*
X10850Y-7331D01*
X10853Y-7336D01*
X10858Y-7343D01*
X10863Y-7351D01*
X10868Y-7360D01*
X10874Y-7371D01*
X10880Y-7384D01*
X10886Y-7398D01*
X10892Y-7413D01*
X10898Y-7431D01*
X10902Y-7448D01*
X10911Y-7487D01*
X10912Y-7508D01*
X10913Y-7530D01*
Y-7531D01*
Y-7536D01*
Y-7542D01*
X10912Y-7551D01*
Y-7562D01*
X10911Y-7573D01*
X10908Y-7587D01*
X10907Y-7601D01*
X10900Y-7634D01*
X10892Y-7668D01*
X10879Y-7701D01*
X10872Y-7717D01*
X10863Y-7733D01*
X10861Y-7734D01*
X10860Y-7736D01*
X10857Y-7740D01*
X10853Y-7745D01*
X10841Y-7760D01*
X10825Y-7776D01*
X10805Y-7796D01*
X10779Y-7815D01*
X10750Y-7834D01*
X10716Y-7851D01*
X10715D01*
X10711Y-7852D01*
X10707Y-7854D01*
X10700Y-7857D01*
X10690Y-7860D01*
X10680Y-7864D01*
X10668Y-7867D01*
X10654Y-7871D01*
X10640Y-7874D01*
X10624Y-7878D01*
X10589Y-7885D01*
X10551Y-7890D01*
X10510Y-7891D01*
X10498D01*
X10490Y-7890D01*
X10480D01*
X10467Y-7888D01*
X10454Y-7887D01*
X10439Y-7885D01*
X10406Y-7879D01*
X10371Y-7872D01*
X10334Y-7860D01*
X10300Y-7845D01*
X10299D01*
X10297Y-7843D01*
X10292Y-7840D01*
X10285Y-7837D01*
X10278Y-7832D01*
X10270Y-7826D01*
X10250Y-7811D01*
X10228Y-7793D01*
X10206Y-7771D01*
X10183Y-7744D01*
X10165Y-7715D01*
Y-7714D01*
X10162Y-7712D01*
X10160Y-7707D01*
X10158Y-7700D01*
X10154Y-7693D01*
X10149Y-7683D01*
X10146Y-7672D01*
X10141Y-7660D01*
X10137Y-7647D01*
X10133Y-7633D01*
X10125Y-7601D01*
X10120Y-7566D01*
X10118Y-7529D01*
Y-7528D01*
Y-7524D01*
Y-7517D01*
X10119Y-7509D01*
X10120Y-7500D01*
X10121Y-7488D01*
X10123Y-7475D01*
X10125Y-7461D01*
X10132Y-7431D01*
X10142Y-7398D01*
X10149Y-7381D01*
X10158Y-7365D01*
X10167Y-7350D01*
X10178Y-7334D01*
X10179Y-7333D01*
X10180Y-7331D01*
X10183Y-7327D01*
X10188Y-7322D01*
X10194Y-7316D01*
X10202Y-7308D01*
X10210Y-7299D01*
X10220Y-7291D01*
X10231Y-7282D01*
X10243Y-7274D01*
X10257Y-7264D01*
X10272Y-7255D01*
X10288Y-7247D01*
X10305Y-7238D01*
X10343Y-7224D01*
X10366Y-7325D01*
X10365D01*
X10363Y-7326D01*
X10358Y-7327D01*
X10352Y-7330D01*
X10345Y-7333D01*
X10337Y-7337D01*
X10319Y-7345D01*
X10299Y-7356D01*
X10278Y-7370D01*
X10259Y-7385D01*
X10243Y-7404D01*
X10242Y-7406D01*
X10237Y-7413D01*
X10231Y-7423D01*
X10223Y-7439D01*
X10216Y-7456D01*
X10210Y-7479D01*
X10206Y-7503D01*
X10204Y-7531D01*
Y-7532D01*
Y-7535D01*
Y-7539D01*
X10206Y-7545D01*
Y-7553D01*
X10207Y-7562D01*
X10210Y-7583D01*
X10215Y-7606D01*
X10223Y-7631D01*
X10234Y-7655D01*
X10248Y-7679D01*
Y-7680D01*
X10250Y-7681D01*
X10256Y-7688D01*
X10265Y-7699D01*
X10278Y-7712D01*
X10295Y-7724D01*
X10313Y-7738D01*
X10337Y-7751D01*
X10363Y-7762D01*
X10364D01*
X10366Y-7763D01*
X10370Y-7764D01*
X10375Y-7765D01*
X10381Y-7768D01*
X10389Y-7769D01*
X10408Y-7774D01*
X10430Y-7778D01*
X10455Y-7782D01*
X10482Y-7784D01*
X10510Y-7785D01*
X10526D01*
X10535Y-7784D01*
X10545D01*
X10556Y-7783D01*
X10567Y-7782D01*
X10594Y-7778D01*
X10624Y-7774D01*
X10653Y-7767D01*
X10681Y-7757D01*
X10682D01*
X10685Y-7756D01*
X10688Y-7754D01*
X10693Y-7751D01*
X10707Y-7745D01*
X10722Y-7736D01*
X10741Y-7723D01*
X10758Y-7708D01*
X10776Y-7690D01*
X10791Y-7669D01*
Y-7668D01*
X10792Y-7667D01*
X10795Y-7664D01*
X10797Y-7659D01*
X10802Y-7646D01*
X10809Y-7630D01*
X10815Y-7611D01*
X10820Y-7589D01*
X10825Y-7564D01*
X10826Y-7538D01*
Y-7537D01*
Y-7535D01*
Y-7530D01*
X10825Y-7524D01*
Y-7517D01*
X10824Y-7508D01*
X10820Y-7488D01*
X10815Y-7466D01*
X10805Y-7441D01*
X10793Y-7418D01*
X10777Y-7394D01*
X10776Y-7393D01*
X10775Y-7392D01*
X10768Y-7385D01*
X10756Y-7374D01*
X10741Y-7361D01*
X10720Y-7349D01*
X10695Y-7334D01*
X10665Y-7323D01*
X10631Y-7313D01*
X10656Y-7212D01*
X10658D01*
X10662Y-7213D01*
D02*
G37*
G36*
X9541Y-9323D02*
X9552D01*
X9563Y-9324D01*
X9576Y-9325D01*
X9603Y-9330D01*
X9631Y-9335D01*
X9659Y-9344D01*
X9684Y-9354D01*
X9685D01*
X9686Y-9355D01*
X9695Y-9360D01*
X9705Y-9368D01*
X9719Y-9379D01*
X9734Y-9392D01*
X9750Y-9408D01*
X9765Y-9427D01*
X9779Y-9449D01*
Y-9450D01*
X9780Y-9451D01*
X9782Y-9455D01*
X9784Y-9460D01*
X9789Y-9472D01*
X9795Y-9489D01*
X9802Y-9509D01*
X9807Y-9531D01*
X9812Y-9556D01*
X9813Y-9582D01*
Y-9584D01*
Y-9587D01*
Y-9594D01*
X9812Y-9602D01*
X9811Y-9612D01*
X9809Y-9623D01*
X9807Y-9636D01*
X9804Y-9650D01*
X9794Y-9680D01*
X9788Y-9696D01*
X9781Y-9711D01*
X9773Y-9728D01*
X9763Y-9743D01*
X9751Y-9758D01*
X9738Y-9772D01*
X9737Y-9773D01*
X9734Y-9776D01*
X9730Y-9779D01*
X9724Y-9783D01*
X9716Y-9789D01*
X9706Y-9794D01*
X9696Y-9801D01*
X9683Y-9807D01*
X9668Y-9814D01*
X9652Y-9821D01*
X9634Y-9827D01*
X9615Y-9832D01*
X9594Y-9837D01*
X9572Y-9840D01*
X9547Y-9842D01*
X9521Y-9844D01*
X9514D01*
X9506Y-9842D01*
X9496D01*
X9483Y-9841D01*
X9469Y-9839D01*
X9452Y-9837D01*
X9435Y-9833D01*
X9416Y-9828D01*
X9397Y-9822D01*
X9378Y-9815D01*
X9360Y-9807D01*
X9341Y-9798D01*
X9323Y-9786D01*
X9307Y-9773D01*
X9292Y-9758D01*
X9291Y-9757D01*
X9289Y-9755D01*
X9286Y-9751D01*
X9282Y-9745D01*
X9278Y-9738D01*
X9272Y-9730D01*
X9266Y-9721D01*
X9260Y-9709D01*
X9256Y-9697D01*
X9250Y-9684D01*
X9239Y-9654D01*
X9232Y-9620D01*
X9231Y-9601D01*
X9230Y-9582D01*
Y-9581D01*
Y-9578D01*
Y-9572D01*
X9231Y-9564D01*
X9232Y-9553D01*
X9233Y-9543D01*
X9236Y-9530D01*
X9239Y-9516D01*
X9248Y-9486D01*
X9254Y-9471D01*
X9261Y-9455D01*
X9271Y-9440D01*
X9281Y-9424D01*
X9293Y-9409D01*
X9306Y-9395D01*
X9307Y-9394D01*
X9309Y-9392D01*
X9314Y-9388D01*
X9320Y-9383D01*
X9327Y-9378D01*
X9336Y-9372D01*
X9348Y-9365D01*
X9360Y-9358D01*
X9374Y-9352D01*
X9390Y-9345D01*
X9407Y-9339D01*
X9425Y-9333D01*
X9445Y-9328D01*
X9467Y-9325D01*
X9490Y-9323D01*
X9514Y-9321D01*
X9532D01*
X9541Y-9323D01*
D02*
G37*
G36*
X9757Y-7623D02*
X9768D01*
X9782Y-7625D01*
X9796Y-7626D01*
X9826Y-7629D01*
X9856Y-7634D01*
X9884Y-7640D01*
X9897Y-7645D01*
X9908Y-7649D01*
X9909D01*
X9910Y-7650D01*
X9917Y-7654D01*
X9926Y-7661D01*
X9939Y-7669D01*
X9953Y-7681D01*
X9967Y-7695D01*
X9981Y-7712D01*
X9994Y-7732D01*
Y-7734D01*
X9996Y-7735D01*
X9997Y-7738D01*
X9999Y-7743D01*
X10005Y-7755D01*
X10010Y-7771D01*
X10015Y-7792D01*
X10021Y-7817D01*
X10025Y-7844D01*
X10026Y-7874D01*
Y-7875D01*
Y-7879D01*
Y-7883D01*
X10025Y-7890D01*
Y-7899D01*
X10024Y-7909D01*
X10020Y-7931D01*
X10014Y-7957D01*
X10007Y-7984D01*
X9996Y-8011D01*
X9980Y-8036D01*
Y-8037D01*
X9978Y-8038D01*
X9972Y-8045D01*
X9962Y-8054D01*
X9946Y-8066D01*
X9928Y-8077D01*
X9904Y-8086D01*
X9877Y-8092D01*
X9862Y-8094D01*
X9846D01*
X9859Y-8003D01*
X9861D01*
X9866Y-8002D01*
X9873Y-7999D01*
X9882Y-7997D01*
X9892Y-7992D01*
X9903Y-7986D01*
X9912Y-7979D01*
X9921Y-7970D01*
X9922Y-7969D01*
X9925Y-7963D01*
X9929Y-7956D01*
X9933Y-7944D01*
X9939Y-7931D01*
X9943Y-7915D01*
X9946Y-7895D01*
X9948Y-7874D01*
Y-7873D01*
Y-7872D01*
Y-7868D01*
Y-7864D01*
X9946Y-7852D01*
X9944Y-7837D01*
X9941Y-7820D01*
X9936Y-7804D01*
X9930Y-7787D01*
X9921Y-7773D01*
X9919Y-7772D01*
X9916Y-7767D01*
X9910Y-7762D01*
X9902Y-7753D01*
X9891Y-7745D01*
X9880Y-7738D01*
X9864Y-7731D01*
X9848Y-7725D01*
X9847D01*
X9842Y-7724D01*
X9834Y-7723D01*
X9822Y-7722D01*
X9806Y-7719D01*
X9795D01*
X9785Y-7718D01*
X9727D01*
X9729Y-7719D01*
X9731Y-7721D01*
X9734Y-7724D01*
X9739Y-7729D01*
X9744Y-7736D01*
X9751Y-7743D01*
X9764Y-7760D01*
X9777Y-7783D01*
X9788Y-7810D01*
X9793Y-7824D01*
X9796Y-7839D01*
X9799Y-7855D01*
X9800Y-7872D01*
Y-7873D01*
Y-7876D01*
Y-7882D01*
X9799Y-7890D01*
X9798Y-7900D01*
X9795Y-7912D01*
X9793Y-7923D01*
X9789Y-7937D01*
X9786Y-7951D01*
X9780Y-7965D01*
X9773Y-7981D01*
X9765Y-7995D01*
X9755Y-8010D01*
X9745Y-8024D01*
X9732Y-8037D01*
X9718Y-8050D01*
X9717Y-8051D01*
X9715Y-8052D01*
X9710Y-8056D01*
X9703Y-8059D01*
X9695Y-8064D01*
X9685Y-8070D01*
X9675Y-8075D01*
X9662Y-8081D01*
X9648Y-8087D01*
X9633Y-8093D01*
X9616Y-8098D01*
X9599Y-8104D01*
X9561Y-8111D01*
X9540Y-8112D01*
X9519Y-8113D01*
X9505D01*
X9498Y-8112D01*
X9490D01*
X9471Y-8109D01*
X9448Y-8106D01*
X9423Y-8101D01*
X9397Y-8094D01*
X9371Y-8085D01*
X9370D01*
X9368Y-8084D01*
X9364Y-8081D01*
X9360Y-8079D01*
X9348Y-8073D01*
X9333Y-8064D01*
X9316Y-8051D01*
X9299Y-8037D01*
X9282Y-8020D01*
X9267Y-8001D01*
Y-7999D01*
X9266Y-7998D01*
X9264Y-7995D01*
X9261Y-7991D01*
X9256Y-7979D01*
X9248Y-7964D01*
X9241Y-7944D01*
X9236Y-7923D01*
X9231Y-7899D01*
X9230Y-7872D01*
Y-7871D01*
Y-7867D01*
Y-7862D01*
X9231Y-7855D01*
X9232Y-7847D01*
X9234Y-7837D01*
X9240Y-7814D01*
X9244Y-7801D01*
X9250Y-7789D01*
X9256Y-7775D01*
X9264Y-7760D01*
X9273Y-7748D01*
X9284Y-7734D01*
X9297Y-7721D01*
X9311Y-7709D01*
X9243D01*
Y-7622D01*
X9746D01*
X9757Y-7623D01*
D02*
G37*
G36*
X9800Y-8314D02*
X9243D01*
Y-8219D01*
X9800D01*
Y-8314D01*
D02*
G37*
G36*
X10900Y-10899D02*
X10887D01*
X10879Y-10898D01*
X10870Y-10896D01*
X10859Y-10895D01*
X10847Y-10892D01*
X10836Y-10888D01*
X10834D01*
X10833Y-10887D01*
X10826Y-10885D01*
X10817Y-10880D01*
X10803Y-10873D01*
X10788Y-10865D01*
X10770Y-10853D01*
X10752Y-10841D01*
X10734Y-10826D01*
X10733D01*
X10731Y-10824D01*
X10724Y-10818D01*
X10714Y-10809D01*
X10700Y-10795D01*
X10683Y-10777D01*
X10663Y-10756D01*
X10641Y-10730D01*
X10617Y-10702D01*
X10615Y-10701D01*
X10612Y-10696D01*
X10607Y-10690D01*
X10599Y-10682D01*
X10591Y-10672D01*
X10580Y-10660D01*
X10558Y-10634D01*
X10531Y-10606D01*
X10504Y-10578D01*
X10491Y-10564D01*
X10478Y-10552D01*
X10466Y-10542D01*
X10454Y-10532D01*
X10453D01*
X10452Y-10530D01*
X10448Y-10528D01*
X10443Y-10525D01*
X10432Y-10518D01*
X10416Y-10510D01*
X10399Y-10502D01*
X10380Y-10495D01*
X10359Y-10490D01*
X10339Y-10488D01*
X10337D01*
X10330Y-10489D01*
X10319Y-10490D01*
X10306Y-10493D01*
X10291Y-10498D01*
X10276Y-10505D01*
X10259Y-10515D01*
X10244Y-10529D01*
X10243Y-10531D01*
X10238Y-10536D01*
X10233Y-10545D01*
X10224Y-10557D01*
X10217Y-10572D01*
X10211Y-10590D01*
X10207Y-10611D01*
X10206Y-10634D01*
Y-10635D01*
Y-10638D01*
Y-10641D01*
X10207Y-10646D01*
X10208Y-10658D01*
X10210Y-10673D01*
X10216Y-10690D01*
X10223Y-10709D01*
X10234Y-10727D01*
X10248Y-10743D01*
X10250Y-10744D01*
X10255Y-10749D01*
X10264Y-10756D01*
X10277Y-10763D01*
X10293Y-10771D01*
X10312Y-10777D01*
X10334Y-10782D01*
X10360Y-10784D01*
X10350Y-10881D01*
X10345D01*
X10339Y-10880D01*
X10332Y-10879D01*
X10323Y-10877D01*
X10312Y-10875D01*
X10289Y-10868D01*
X10262Y-10859D01*
X10235Y-10846D01*
X10208Y-10829D01*
X10196Y-10819D01*
X10185Y-10807D01*
X10183Y-10806D01*
X10182Y-10804D01*
X10179Y-10800D01*
X10175Y-10796D01*
X10172Y-10789D01*
X10166Y-10781D01*
X10161Y-10771D01*
X10155Y-10761D01*
X10151Y-10749D01*
X10145Y-10736D01*
X10140Y-10721D01*
X10137Y-10706D01*
X10130Y-10670D01*
X10128Y-10652D01*
X10127Y-10632D01*
Y-10631D01*
Y-10627D01*
Y-10621D01*
X10128Y-10613D01*
X10130Y-10604D01*
X10131Y-10593D01*
X10132Y-10582D01*
X10135Y-10569D01*
X10142Y-10541D01*
X10153Y-10511D01*
X10160Y-10496D01*
X10168Y-10482D01*
X10179Y-10469D01*
X10189Y-10456D01*
X10190Y-10455D01*
X10192Y-10454D01*
X10195Y-10450D01*
X10200Y-10446D01*
X10207Y-10441D01*
X10214Y-10435D01*
X10231Y-10423D01*
X10254Y-10412D01*
X10279Y-10401D01*
X10309Y-10393D01*
X10325Y-10392D01*
X10341Y-10391D01*
X10350D01*
X10359Y-10392D01*
X10371Y-10393D01*
X10385Y-10395D01*
X10400Y-10399D01*
X10416Y-10404D01*
X10433Y-10411D01*
X10435Y-10412D01*
X10441Y-10414D01*
X10449Y-10419D01*
X10461Y-10426D01*
X10475Y-10434D01*
X10491Y-10445D01*
X10508Y-10459D01*
X10526Y-10474D01*
X10529Y-10476D01*
X10536Y-10482D01*
X10546Y-10493D01*
X10553Y-10500D01*
X10562Y-10508D01*
X10571Y-10517D01*
X10582Y-10529D01*
X10592Y-10541D01*
X10605Y-10553D01*
X10618Y-10567D01*
X10632Y-10584D01*
X10646Y-10600D01*
X10662Y-10619D01*
X10663Y-10620D01*
X10666Y-10622D01*
X10669Y-10627D01*
X10674Y-10633D01*
X10686Y-10647D01*
X10701Y-10665D01*
X10717Y-10682D01*
X10734Y-10701D01*
X10748Y-10716D01*
X10754Y-10722D01*
X10759Y-10728D01*
X10761Y-10729D01*
X10764Y-10731D01*
X10769Y-10736D01*
X10776Y-10742D01*
X10791Y-10755D01*
X10810Y-10768D01*
Y-10389D01*
X10900D01*
Y-10899D01*
D02*
G37*
G36*
X9800Y-6220D02*
X9430D01*
X9418Y-6221D01*
X9391Y-6223D01*
X9378Y-6225D01*
X9368Y-6229D01*
X9367D01*
X9363Y-6231D01*
X9359Y-6234D01*
X9353Y-6237D01*
X9347Y-6242D01*
X9340Y-6248D01*
X9333Y-6255D01*
X9327Y-6263D01*
X9326Y-6264D01*
X9325Y-6268D01*
X9322Y-6272D01*
X9319Y-6278D01*
X9316Y-6286D01*
X9314Y-6297D01*
X9313Y-6307D01*
X9312Y-6319D01*
Y-6320D01*
Y-6321D01*
Y-6328D01*
X9314Y-6340D01*
X9316Y-6353D01*
X9321Y-6368D01*
X9328Y-6385D01*
X9339Y-6402D01*
X9352Y-6417D01*
X9354Y-6419D01*
X9359Y-6423D01*
X9368Y-6429D01*
X9382Y-6436D01*
X9400Y-6444D01*
X9421Y-6450D01*
X9446Y-6455D01*
X9477Y-6456D01*
X9800D01*
Y-6551D01*
X9428D01*
X9416Y-6552D01*
X9403Y-6553D01*
X9387Y-6557D01*
X9371Y-6560D01*
X9356Y-6566D01*
X9343Y-6574D01*
X9342Y-6575D01*
X9339Y-6579D01*
X9333Y-6584D01*
X9327Y-6592D01*
X9322Y-6602D01*
X9316Y-6615D01*
X9313Y-6631D01*
X9312Y-6649D01*
Y-6650D01*
Y-6656D01*
X9313Y-6663D01*
X9314Y-6674D01*
X9316Y-6684D01*
X9321Y-6697D01*
X9326Y-6710D01*
X9333Y-6723D01*
X9334Y-6724D01*
X9336Y-6729D01*
X9342Y-6735D01*
X9348Y-6742D01*
X9357Y-6750D01*
X9368Y-6758D01*
X9381Y-6765D01*
X9395Y-6772D01*
X9397Y-6773D01*
X9402Y-6775D01*
X9411Y-6777D01*
X9424Y-6779D01*
X9441Y-6783D01*
X9460Y-6785D01*
X9484Y-6786D01*
X9511Y-6787D01*
X9800D01*
Y-6882D01*
X9243D01*
Y-6798D01*
X9321D01*
X9319Y-6797D01*
X9314Y-6793D01*
X9307Y-6787D01*
X9298Y-6779D01*
X9287Y-6770D01*
X9277Y-6758D01*
X9265Y-6744D01*
X9256Y-6729D01*
X9254Y-6727D01*
X9252Y-6721D01*
X9247Y-6711D01*
X9243Y-6700D01*
X9238Y-6684D01*
X9233Y-6668D01*
X9231Y-6648D01*
X9230Y-6628D01*
Y-6627D01*
Y-6626D01*
Y-6622D01*
Y-6618D01*
X9231Y-6606D01*
X9233Y-6592D01*
X9236Y-6577D01*
X9240Y-6559D01*
X9247Y-6543D01*
X9256Y-6527D01*
X9257Y-6525D01*
X9260Y-6520D01*
X9266Y-6513D01*
X9274Y-6505D01*
X9285Y-6496D01*
X9297Y-6486D01*
X9312Y-6478D01*
X9328Y-6471D01*
X9327Y-6470D01*
X9323Y-6468D01*
X9319Y-6464D01*
X9313Y-6460D01*
X9305Y-6453D01*
X9297Y-6444D01*
X9288Y-6435D01*
X9279Y-6424D01*
X9270Y-6413D01*
X9261Y-6400D01*
X9245Y-6369D01*
X9239Y-6353D01*
X9234Y-6335D01*
X9231Y-6318D01*
X9230Y-6298D01*
Y-6297D01*
Y-6294D01*
Y-6290D01*
X9231Y-6284D01*
Y-6277D01*
X9232Y-6269D01*
X9236Y-6251D01*
X9241Y-6230D01*
X9250Y-6209D01*
X9261Y-6189D01*
X9277Y-6170D01*
X9279Y-6168D01*
X9285Y-6163D01*
X9297Y-6156D01*
X9312Y-6147D01*
X9332Y-6139D01*
X9355Y-6132D01*
X9384Y-6127D01*
X9401Y-6125D01*
X9800D01*
Y-6220D01*
D02*
G37*
G36*
Y-7114D02*
X9719D01*
X9720Y-7115D01*
X9723Y-7118D01*
X9727Y-7121D01*
X9733Y-7126D01*
X9741Y-7133D01*
X9748Y-7141D01*
X9758Y-7150D01*
X9766Y-7161D01*
X9774Y-7173D01*
X9784Y-7186D01*
X9791Y-7201D01*
X9798Y-7216D01*
X9805Y-7234D01*
X9809Y-7251D01*
X9812Y-7271D01*
X9813Y-7291D01*
Y-7293D01*
Y-7299D01*
X9812Y-7308D01*
X9811Y-7321D01*
X9808Y-7335D01*
X9805Y-7351D01*
X9800Y-7367D01*
X9794Y-7383D01*
X9793Y-7386D01*
X9791Y-7390D01*
X9787Y-7397D01*
X9781Y-7407D01*
X9774Y-7417D01*
X9766Y-7428D01*
X9758Y-7437D01*
X9747Y-7447D01*
X9746Y-7448D01*
X9743Y-7450D01*
X9736Y-7454D01*
X9727Y-7457D01*
X9717Y-7463D01*
X9705Y-7468D01*
X9692Y-7472D01*
X9677Y-7476D01*
X9676D01*
X9671Y-7477D01*
X9665D01*
X9656Y-7478D01*
X9643Y-7479D01*
X9628D01*
X9610Y-7481D01*
X9243D01*
Y-7386D01*
X9578D01*
X9593Y-7385D01*
X9609D01*
X9626Y-7383D01*
X9641Y-7382D01*
X9652Y-7381D01*
X9654D01*
X9658Y-7379D01*
X9665Y-7376D01*
X9674Y-7373D01*
X9683Y-7368D01*
X9693Y-7361D01*
X9703Y-7353D01*
X9711Y-7344D01*
X9712Y-7342D01*
X9715Y-7338D01*
X9718Y-7332D01*
X9722Y-7324D01*
X9725Y-7313D01*
X9729Y-7301D01*
X9731Y-7287D01*
X9732Y-7272D01*
Y-7270D01*
Y-7265D01*
X9731Y-7257D01*
X9730Y-7246D01*
X9727Y-7235D01*
X9723Y-7222D01*
X9718Y-7208D01*
X9711Y-7194D01*
X9710Y-7193D01*
X9706Y-7188D01*
X9702Y-7181D01*
X9695Y-7173D01*
X9686Y-7164D01*
X9676Y-7155D01*
X9664Y-7148D01*
X9651Y-7141D01*
X9649Y-7140D01*
X9644Y-7139D01*
X9636Y-7136D01*
X9623Y-7133D01*
X9608Y-7129D01*
X9589Y-7127D01*
X9567Y-7126D01*
X9542Y-7125D01*
X9243D01*
Y-7030D01*
X9800D01*
Y-7114D01*
D02*
G37*
G36*
X10716Y-9892D02*
X10900D01*
Y-9987D01*
X10716D01*
Y-10320D01*
X10630D01*
X10132Y-9969D01*
Y-9892D01*
X10630D01*
Y-9788D01*
X10716D01*
Y-9892D01*
D02*
G37*
G36*
X9800Y-8853D02*
X9442D01*
X9429Y-8854D01*
X9416Y-8855D01*
X9401Y-8858D01*
X9388Y-8861D01*
X9376Y-8865D01*
X9375D01*
X9371Y-8867D01*
X9366Y-8869D01*
X9360Y-8873D01*
X9352Y-8879D01*
X9345Y-8886D01*
X9336Y-8894D01*
X9329Y-8903D01*
X9328Y-8904D01*
X9327Y-8908D01*
X9323Y-8914D01*
X9320Y-8922D01*
X9318Y-8931D01*
X9314Y-8943D01*
X9313Y-8955D01*
X9312Y-8969D01*
Y-8970D01*
Y-8971D01*
Y-8975D01*
Y-8979D01*
X9314Y-8990D01*
X9316Y-9005D01*
X9321Y-9022D01*
X9328Y-9038D01*
X9337Y-9057D01*
X9350Y-9073D01*
X9353Y-9075D01*
X9359Y-9080D01*
X9368Y-9087D01*
X9375Y-9091D01*
X9383Y-9094D01*
X9393Y-9099D01*
X9403Y-9102D01*
X9415Y-9106D01*
X9428Y-9109D01*
X9443Y-9113D01*
X9459Y-9114D01*
X9477Y-9116D01*
X9800D01*
Y-9211D01*
X9243D01*
Y-9126D01*
X9322D01*
X9321Y-9125D01*
X9319Y-9123D01*
X9314Y-9120D01*
X9308Y-9114D01*
X9301Y-9108D01*
X9293Y-9100D01*
X9285Y-9092D01*
X9275Y-9081D01*
X9267Y-9068D01*
X9259Y-9056D01*
X9251Y-9041D01*
X9244Y-9025D01*
X9238Y-9009D01*
X9233Y-8990D01*
X9231Y-8970D01*
X9230Y-8949D01*
Y-8948D01*
Y-8947D01*
Y-8941D01*
X9231Y-8930D01*
X9232Y-8919D01*
X9234Y-8904D01*
X9238Y-8888D01*
X9243Y-8873D01*
X9248Y-8856D01*
X9250Y-8854D01*
X9252Y-8849D01*
X9256Y-8842D01*
X9261Y-8833D01*
X9268Y-8823D01*
X9277Y-8812D01*
X9286Y-8801D01*
X9297Y-8793D01*
X9298Y-8792D01*
X9301Y-8790D01*
X9308Y-8786D01*
X9316Y-8782D01*
X9326Y-8777D01*
X9337Y-8772D01*
X9352Y-8767D01*
X9366Y-8764D01*
X9367D01*
X9370Y-8763D01*
X9377Y-8762D01*
X9387Y-8760D01*
X9400D01*
X9416Y-8759D01*
X9435Y-8758D01*
X9800D01*
Y-8853D01*
D02*
G37*
G36*
X9138Y-8314D02*
X9031D01*
Y-8219D01*
X9138D01*
Y-8314D01*
D02*
G37*
G36*
X9110Y-8363D02*
Y-8365D01*
X9109Y-8368D01*
X9108Y-8374D01*
X9107Y-8381D01*
Y-8390D01*
X9106Y-8400D01*
X9104Y-8420D01*
Y-8422D01*
Y-8427D01*
X9106Y-8434D01*
X9107Y-8443D01*
X9109Y-8453D01*
X9113Y-8463D01*
X9117Y-8472D01*
X9123Y-8481D01*
X9124Y-8482D01*
X9127Y-8483D01*
X9131Y-8486D01*
X9138Y-8489D01*
X9148Y-8492D01*
X9161Y-8496D01*
X9175Y-8497D01*
X9192Y-8498D01*
X9243D01*
Y-8389D01*
X9316D01*
Y-8497D01*
X9800D01*
Y-8592D01*
X9316D01*
Y-8675D01*
X9243D01*
Y-8592D01*
X9175D01*
X9165Y-8591D01*
X9152D01*
X9140Y-8590D01*
X9126Y-8587D01*
X9113Y-8585D01*
X9101Y-8581D01*
X9100Y-8580D01*
X9095Y-8579D01*
X9088Y-8575D01*
X9080Y-8571D01*
X9069Y-8564D01*
X9060Y-8556D01*
X9051Y-8546D01*
X9041Y-8534D01*
X9040Y-8533D01*
X9038Y-8527D01*
X9034Y-8520D01*
X9030Y-8509D01*
X9025Y-8496D01*
X9021Y-8478D01*
X9019Y-8460D01*
X9018Y-8437D01*
Y-8435D01*
Y-8430D01*
Y-8422D01*
X9019Y-8412D01*
X9020Y-8399D01*
X9023Y-8383D01*
X9025Y-8367D01*
X9028Y-8349D01*
X9110Y-8363D01*
D02*
G37*
%LPC*%
G36*
X10630Y-9987D02*
X10285D01*
X10630Y-10228D01*
Y-9987D01*
D02*
G37*
G36*
X10384Y-9291D02*
X10375D01*
X10370Y-9292D01*
X10363D01*
X10356Y-9293D01*
X10337Y-9297D01*
X10316Y-9302D01*
X10295Y-9310D01*
X10274Y-9320D01*
X10254Y-9334D01*
X10251Y-9337D01*
X10247Y-9343D01*
X10238Y-9351D01*
X10229Y-9364D01*
X10221Y-9379D01*
X10213Y-9397D01*
X10208Y-9416D01*
X10206Y-9439D01*
Y-9440D01*
Y-9441D01*
Y-9445D01*
X10207Y-9449D01*
X10208Y-9461D01*
X10211Y-9476D01*
X10219Y-9494D01*
X10228Y-9511D01*
X10240Y-9530D01*
X10248Y-9539D01*
X10257Y-9549D01*
X10259Y-9551D01*
X10267Y-9556D01*
X10278Y-9563D01*
X10293Y-9571D01*
X10312Y-9580D01*
X10336Y-9587D01*
X10361Y-9592D01*
X10391Y-9594D01*
X10398D01*
X10402Y-9593D01*
X10416Y-9592D01*
X10433Y-9589D01*
X10453Y-9584D01*
X10473Y-9576D01*
X10491Y-9565D01*
X10510Y-9551D01*
X10512Y-9549D01*
X10517Y-9543D01*
X10524Y-9534D01*
X10532Y-9521D01*
X10542Y-9504D01*
X10549Y-9486D01*
X10553Y-9464D01*
X10556Y-9441D01*
Y-9440D01*
Y-9439D01*
Y-9435D01*
X10555Y-9430D01*
X10553Y-9419D01*
X10550Y-9404D01*
X10544Y-9387D01*
X10537Y-9368D01*
X10525Y-9351D01*
X10510Y-9334D01*
X10508Y-9332D01*
X10502Y-9327D01*
X10491Y-9320D01*
X10477Y-9312D01*
X10459Y-9305D01*
X10437Y-9298D01*
X10412Y-9293D01*
X10384Y-9291D01*
D02*
G37*
G36*
X9539Y-9419D02*
X9510D01*
X9501Y-9420D01*
X9493D01*
X9484Y-9421D01*
X9460Y-9424D01*
X9436Y-9430D01*
X9409Y-9438D01*
X9384Y-9450D01*
X9362Y-9467D01*
X9361D01*
X9360Y-9469D01*
X9354Y-9475D01*
X9345Y-9485D01*
X9335Y-9498D01*
X9326Y-9516D01*
X9316Y-9536D01*
X9311Y-9558D01*
X9308Y-9570D01*
Y-9582D01*
Y-9584D01*
Y-9586D01*
Y-9589D01*
X9309Y-9594D01*
X9311Y-9607D01*
X9315Y-9623D01*
X9321Y-9642D01*
X9330Y-9662D01*
X9345Y-9682D01*
X9353Y-9691D01*
X9362Y-9701D01*
X9364Y-9703D01*
X9368Y-9705D01*
X9371Y-9708D01*
X9377Y-9711D01*
X9384Y-9715D01*
X9393Y-9719D01*
X9402Y-9723D01*
X9412Y-9728D01*
X9424Y-9732D01*
X9437Y-9736D01*
X9452Y-9739D01*
X9467Y-9742D01*
X9485Y-9744D01*
X9503Y-9746D01*
X9533D01*
X9540Y-9745D01*
X9548D01*
X9559Y-9744D01*
X9582Y-9741D01*
X9608Y-9735D01*
X9635Y-9728D01*
X9661Y-9716D01*
X9672Y-9709D01*
X9683Y-9701D01*
X9685Y-9698D01*
X9691Y-9693D01*
X9699Y-9682D01*
X9709Y-9668D01*
X9719Y-9652D01*
X9727Y-9630D01*
X9733Y-9608D01*
X9734Y-9595D01*
X9736Y-9582D01*
Y-9581D01*
Y-9579D01*
Y-9575D01*
X9734Y-9571D01*
X9733Y-9558D01*
X9729Y-9541D01*
X9723Y-9523D01*
X9713Y-9503D01*
X9700Y-9484D01*
X9692Y-9475D01*
X9683Y-9465D01*
X9682D01*
X9681Y-9463D01*
X9677Y-9461D01*
X9672Y-9458D01*
X9667Y-9455D01*
X9659Y-9450D01*
X9651Y-9447D01*
X9642Y-9442D01*
X9631Y-9437D01*
X9620Y-9434D01*
X9606Y-9429D01*
X9590Y-9426D01*
X9575Y-9423D01*
X9558Y-9421D01*
X9539Y-9419D01*
D02*
G37*
G36*
X9534Y-7710D02*
X9506D01*
X9499Y-7711D01*
X9490D01*
X9480Y-7712D01*
X9457Y-7716D01*
X9432Y-7721D01*
X9407Y-7729D01*
X9382Y-7741D01*
X9371Y-7748D01*
X9361Y-7756D01*
X9360D01*
X9359Y-7758D01*
X9353Y-7764D01*
X9345Y-7773D01*
X9334Y-7786D01*
X9325Y-7801D01*
X9316Y-7820D01*
X9311Y-7841D01*
X9308Y-7853D01*
Y-7865D01*
Y-7866D01*
Y-7867D01*
Y-7871D01*
X9309Y-7875D01*
X9311Y-7887D01*
X9314Y-7902D01*
X9321Y-7919D01*
X9330Y-7937D01*
X9342Y-7955D01*
X9350Y-7964D01*
X9360Y-7972D01*
X9362Y-7975D01*
X9366Y-7976D01*
X9369Y-7979D01*
X9375Y-7983D01*
X9381Y-7986D01*
X9389Y-7990D01*
X9398Y-7993D01*
X9408Y-7998D01*
X9419Y-8002D01*
X9432Y-8005D01*
X9445Y-8009D01*
X9477Y-8013D01*
X9512Y-8016D01*
X9522D01*
X9530Y-8015D01*
X9539D01*
X9549Y-8013D01*
X9573Y-8010D01*
X9599Y-8005D01*
X9626Y-7997D01*
X9650Y-7986D01*
X9661Y-7979D01*
X9671Y-7972D01*
X9674Y-7970D01*
X9679Y-7964D01*
X9688Y-7955D01*
X9696Y-7942D01*
X9705Y-7927D01*
X9713Y-7908D01*
X9719Y-7887D01*
X9720Y-7875D01*
X9722Y-7864D01*
Y-7862D01*
Y-7860D01*
Y-7858D01*
X9720Y-7853D01*
X9719Y-7840D01*
X9716Y-7825D01*
X9710Y-7808D01*
X9700Y-7790D01*
X9689Y-7772D01*
X9672Y-7755D01*
X9671D01*
X9670Y-7752D01*
X9667Y-7750D01*
X9663Y-7748D01*
X9657Y-7744D01*
X9651Y-7741D01*
X9643Y-7737D01*
X9634Y-7732D01*
X9623Y-7728D01*
X9611Y-7724D01*
X9599Y-7721D01*
X9585Y-7717D01*
X9569Y-7714D01*
X9553Y-7712D01*
X9534Y-7710D01*
D02*
G37*
G36*
X10555Y-5527D02*
X10503D01*
X10490Y-5528D01*
X10475D01*
X10457Y-5529D01*
X10439Y-5530D01*
X10418Y-5532D01*
X10375Y-5537D01*
X10334Y-5545D01*
X10315Y-5550D01*
X10297Y-5556D01*
X10282Y-5563D01*
X10269Y-5571D01*
X10268D01*
X10267Y-5573D01*
X10259Y-5579D01*
X10249Y-5589D01*
X10237Y-5602D01*
X10226Y-5618D01*
X10215Y-5637D01*
X10208Y-5658D01*
X10207Y-5669D01*
X10206Y-5681D01*
Y-5682D01*
Y-5683D01*
Y-5687D01*
X10207Y-5692D01*
X10208Y-5703D01*
X10213Y-5719D01*
X10220Y-5735D01*
X10229Y-5753D01*
X10243Y-5770D01*
X10252Y-5778D01*
X10262Y-5785D01*
X10263D01*
X10265Y-5788D01*
X10270Y-5790D01*
X10276Y-5792D01*
X10284Y-5796D01*
X10293Y-5801D01*
X10306Y-5805D01*
X10320Y-5809D01*
X10337Y-5813D01*
X10356Y-5818D01*
X10377Y-5822D01*
X10401Y-5826D01*
X10427Y-5829D01*
X10455Y-5831D01*
X10487Y-5833D01*
X10538D01*
X10551Y-5832D01*
X10566D01*
X10584Y-5831D01*
X10604Y-5830D01*
X10624Y-5827D01*
X10666Y-5823D01*
X10708Y-5815D01*
X10727Y-5810D01*
X10744Y-5804D01*
X10761Y-5797D01*
X10774Y-5790D01*
X10775D01*
X10776Y-5788D01*
X10783Y-5782D01*
X10793Y-5772D01*
X10804Y-5760D01*
X10816Y-5743D01*
X10826Y-5724D01*
X10833Y-5703D01*
X10834Y-5692D01*
X10836Y-5680D01*
Y-5679D01*
Y-5678D01*
Y-5674D01*
X10834Y-5669D01*
X10832Y-5658D01*
X10827Y-5642D01*
X10820Y-5625D01*
X10810Y-5607D01*
X10803Y-5598D01*
X10793Y-5589D01*
X10784Y-5579D01*
X10774Y-5571D01*
X10772D01*
X10770Y-5569D01*
X10767Y-5566D01*
X10761Y-5564D01*
X10754Y-5561D01*
X10743Y-5557D01*
X10731Y-5553D01*
X10719Y-5549D01*
X10702Y-5544D01*
X10685Y-5541D01*
X10663Y-5537D01*
X10640Y-5534D01*
X10614Y-5530D01*
X10586Y-5529D01*
X10555Y-5527D01*
D02*
G37*
G36*
Y-8093D02*
X10503D01*
X10490Y-8094D01*
X10475D01*
X10457Y-8096D01*
X10439Y-8097D01*
X10418Y-8099D01*
X10375Y-8104D01*
X10334Y-8112D01*
X10315Y-8117D01*
X10297Y-8123D01*
X10282Y-8130D01*
X10269Y-8138D01*
X10268D01*
X10267Y-8140D01*
X10259Y-8146D01*
X10249Y-8155D01*
X10237Y-8168D01*
X10226Y-8185D01*
X10215Y-8203D01*
X10208Y-8224D01*
X10207Y-8236D01*
X10206Y-8248D01*
Y-8249D01*
Y-8250D01*
Y-8254D01*
X10207Y-8258D01*
X10208Y-8270D01*
X10213Y-8285D01*
X10220Y-8302D01*
X10229Y-8319D01*
X10243Y-8337D01*
X10252Y-8345D01*
X10262Y-8352D01*
X10263D01*
X10265Y-8354D01*
X10270Y-8357D01*
X10276Y-8359D01*
X10284Y-8363D01*
X10293Y-8367D01*
X10306Y-8372D01*
X10320Y-8375D01*
X10337Y-8380D01*
X10356Y-8385D01*
X10377Y-8388D01*
X10401Y-8393D01*
X10427Y-8395D01*
X10455Y-8398D01*
X10487Y-8400D01*
X10538D01*
X10551Y-8399D01*
X10566D01*
X10584Y-8398D01*
X10604Y-8397D01*
X10624Y-8394D01*
X10666Y-8390D01*
X10708Y-8381D01*
X10727Y-8377D01*
X10744Y-8371D01*
X10761Y-8364D01*
X10774Y-8357D01*
X10775D01*
X10776Y-8354D01*
X10783Y-8349D01*
X10793Y-8339D01*
X10804Y-8326D01*
X10816Y-8310D01*
X10826Y-8291D01*
X10833Y-8270D01*
X10834Y-8258D01*
X10836Y-8247D01*
Y-8245D01*
Y-8244D01*
Y-8241D01*
X10834Y-8236D01*
X10832Y-8224D01*
X10827Y-8209D01*
X10820Y-8192D01*
X10810Y-8174D01*
X10803Y-8165D01*
X10793Y-8155D01*
X10784Y-8146D01*
X10774Y-8138D01*
X10772D01*
X10770Y-8135D01*
X10767Y-8133D01*
X10761Y-8131D01*
X10754Y-8127D01*
X10743Y-8124D01*
X10731Y-8120D01*
X10719Y-8116D01*
X10702Y-8111D01*
X10685Y-8107D01*
X10663Y-8104D01*
X10640Y-8100D01*
X10614Y-8097D01*
X10586Y-8096D01*
X10555Y-8093D01*
D02*
G37*
G36*
X10656Y-6121D02*
X10648D01*
X10644Y-6123D01*
X10637D01*
X10628Y-6124D01*
X10611Y-6126D01*
X10591Y-6132D01*
X10570Y-6139D01*
X10550Y-6149D01*
X10531Y-6164D01*
X10529Y-6166D01*
X10524Y-6171D01*
X10516Y-6180D01*
X10508Y-6193D01*
X10500Y-6208D01*
X10491Y-6227D01*
X10487Y-6248D01*
X10484Y-6271D01*
Y-6272D01*
Y-6274D01*
Y-6277D01*
X10485Y-6282D01*
X10487Y-6294D01*
X10490Y-6309D01*
X10496Y-6325D01*
X10504Y-6344D01*
X10516Y-6361D01*
X10531Y-6379D01*
X10533Y-6381D01*
X10539Y-6386D01*
X10550Y-6393D01*
X10563Y-6401D01*
X10580Y-6409D01*
X10601Y-6416D01*
X10625Y-6421D01*
X10652Y-6424D01*
X10660D01*
X10669Y-6422D01*
X10681Y-6421D01*
X10696Y-6419D01*
X10711Y-6415D01*
X10728Y-6411D01*
X10745Y-6404D01*
X10748Y-6402D01*
X10752Y-6400D01*
X10761Y-6395D01*
X10770Y-6388D01*
X10782Y-6380D01*
X10792Y-6371D01*
X10804Y-6359D01*
X10813Y-6346D01*
X10815Y-6345D01*
X10817Y-6339D01*
X10820Y-6332D01*
X10824Y-6323D01*
X10829Y-6311D01*
X10832Y-6297D01*
X10834Y-6283D01*
X10836Y-6268D01*
Y-6267D01*
Y-6265D01*
Y-6262D01*
X10834Y-6257D01*
X10833Y-6247D01*
X10830Y-6231D01*
X10824Y-6216D01*
X10816Y-6199D01*
X10804Y-6181D01*
X10788Y-6165D01*
X10785Y-6162D01*
X10778Y-6158D01*
X10768Y-6151D01*
X10754Y-6142D01*
X10735Y-6135D01*
X10711Y-6128D01*
X10686Y-6124D01*
X10656Y-6121D01*
D02*
G37*
%LPD*%
D33*
X3500Y-7725D02*
X3900D01*
X5075Y-7200D02*
Y-6800D01*
X2600Y-7725D02*
X3000D01*
X1700D02*
X2100D01*
X800D02*
X1200D01*
X5075Y-6200D02*
Y-5800D01*
D34*
X-9400Y-200D02*
G03*
X-9400Y-200I-125J0D01*
G01*
D35*
X-8900Y6100D02*
Y8700D01*
X-6700Y6100D02*
Y8700D01*
X-8900Y7800D02*
X-6700D01*
X-8500Y-3200D02*
X-4500D01*
X-8500Y-7200D02*
X-4500D01*
X-5500D02*
Y-3200D01*
X-10000Y-200D02*
Y3200D01*
X-5000Y-200D02*
Y3200D01*
X5800Y-6400D02*
X6300D01*
Y-5900D01*
X5800Y-5200D02*
X6300D01*
X5800Y-6400D02*
Y-6300D01*
Y-5300D02*
Y-5200D01*
X-8900Y-9300D02*
Y-8100D01*
X-10700Y-9300D02*
Y-8100D01*
X-9400Y8900D02*
X-8200D01*
X-9400Y10700D02*
X-8200D01*
X-10550Y7400D02*
X-9450D01*
X-10350Y-5100D02*
X-9250D01*
X-4100Y8500D02*
Y9300D01*
X-2350Y9025D02*
X-1650D01*
Y9225D01*
X-2350D02*
X-1650D01*
X-2350D02*
Y9525D01*
X-2750Y9125D02*
X-2350Y9525D01*
X-2750Y9125D02*
X-2350Y8725D01*
Y9025D01*
X-2750Y-2775D02*
X-2050D01*
X-2750Y-2975D02*
Y-2775D01*
Y-2975D02*
X-2050D01*
Y-3275D02*
Y-2975D01*
Y-3275D02*
Y-3275D01*
X-1650Y-2875D01*
X-2050Y-2475D02*
X-1650Y-2875D01*
X-2050Y-2775D02*
Y-2475D01*
X1050Y9925D02*
X6950D01*
X1050Y-3675D02*
X6950D01*
X-3800D02*
Y9925D01*
X10700Y-3675D02*
Y9925D01*
X9350Y-3675D02*
X10700D01*
X9350Y9925D02*
X10700D01*
X-3800D02*
X-1350D01*
X-3800Y-3675D02*
X-1350D01*
X4400Y-9000D02*
X5800D01*
Y-7600D01*
X4400D02*
X7200D01*
X4400Y-10800D02*
Y-7600D01*
Y-10800D02*
X7200D01*
Y-7600D01*
X9240Y-12080D02*
X9810D01*
X7970D02*
X8540D01*
X6700D02*
X7270D01*
X5430D02*
X6000D01*
X4160D02*
X4730D01*
X2890D02*
X3460D01*
X1620D02*
X2190D01*
X350D02*
X920D01*
X-920D02*
X-350D01*
X-2190D02*
X-1620D01*
X-3460D02*
X-2890D01*
X-4730D02*
X-4160D01*
X-6000D02*
X-5430D01*
X-7270D02*
X-6700D01*
X-8540D02*
X-7970D01*
X-9810D02*
X-9240D01*
X-12480Y-10510D02*
X-12080D01*
X-12580Y-10410D02*
X-12480Y-10510D01*
X-12580Y-10410D02*
Y-9910D01*
X-12480Y-9810D01*
X-12080D01*
X-12480Y-9240D02*
X-12080D01*
X-12580Y-9140D02*
X-12480Y-9240D01*
X-12580Y-9140D02*
Y-8640D01*
X-12480Y-8540D01*
X-12080D01*
X-12480Y-7970D02*
X-12080D01*
X-12580Y-7870D02*
X-12480Y-7970D01*
X-12580Y-7870D02*
Y-7370D01*
X-12480Y-7270D01*
X-12080D01*
X-12480Y-6700D02*
X-12080D01*
X-12580Y-6600D02*
X-12480Y-6700D01*
X-12580Y-6600D02*
Y-6100D01*
X-12480Y-6000D01*
X-12080D01*
X-12480Y-5430D02*
X-12080D01*
X-12580Y-5330D02*
X-12480Y-5430D01*
X-12580Y-5330D02*
Y-4830D01*
X-12480Y-4730D01*
X-12080D01*
X-12480Y-4160D02*
X-12080D01*
X-12580Y-4060D02*
X-12480Y-4160D01*
X-12580Y-4060D02*
Y-3560D01*
X-12480Y-3460D01*
X-12080D01*
X-12480Y-2890D02*
X-12080D01*
X-12580Y-2790D02*
X-12480Y-2890D01*
X-12580Y-2790D02*
Y-2290D01*
X-12480Y-2190D01*
X-12080D01*
X-12480Y-1620D02*
X-12080D01*
X-12580Y-1520D02*
X-12480Y-1620D01*
X-12580Y-1520D02*
Y-1020D01*
X-12480Y-920D01*
X-12080D01*
X-12480Y-350D02*
X-12080D01*
X-12580Y-250D02*
X-12480Y-350D01*
X-12580Y-250D02*
Y250D01*
X-12480Y350D01*
X-12080D01*
X-12480Y920D02*
X-12080D01*
X-12580Y1020D02*
X-12480Y920D01*
X-12580Y1020D02*
Y1520D01*
X-12480Y1620D01*
X-12080D01*
X-12480Y2190D02*
X-12080D01*
X-12580Y2290D02*
X-12480Y2190D01*
X-12580Y2290D02*
Y2790D01*
X-12480Y2890D01*
X-12080D01*
X-12480Y3460D02*
X-12080D01*
X-12580Y3560D02*
X-12480Y3460D01*
X-12580Y3560D02*
Y4060D01*
X-12480Y4160D01*
X-12080D01*
X-12480Y4730D02*
X-12080D01*
X-12580Y4830D02*
X-12480Y4730D01*
X-12580Y4830D02*
Y5330D01*
X-12480Y5430D01*
X-12080D01*
X-12480Y6000D02*
X-12080D01*
X-12580Y6100D02*
X-12480Y6000D01*
X-12580Y6100D02*
Y6600D01*
X-12480Y6700D01*
X-12080D01*
X-12480Y7270D02*
X-12080D01*
X-12580Y7370D02*
X-12480Y7270D01*
X-12580Y7370D02*
Y7870D01*
X-12480Y7970D01*
X-12080D01*
X-12480Y8540D02*
X-12080D01*
X-12580Y8640D02*
X-12480Y8540D01*
X-12580Y8640D02*
Y9140D01*
X-12480Y9240D01*
X-12080D01*
X-12480Y9810D02*
X-12080D01*
X-12580Y9910D02*
X-12480Y9810D01*
X-12580Y9910D02*
Y10410D01*
X-12480Y10510D01*
X-12080D01*
X-10510Y12080D02*
Y12480D01*
X-10410Y12580D01*
X-9910D01*
X-9810Y12480D01*
Y12080D02*
Y12480D01*
X-9240Y12080D02*
Y12480D01*
X-9140Y12580D01*
X-8640D01*
X-8540Y12480D01*
Y12080D02*
Y12480D01*
X-7970Y12080D02*
Y12480D01*
X-7870Y12580D01*
X-7370D01*
X-7270Y12480D01*
Y12080D02*
Y12480D01*
X-6700Y12080D02*
Y12480D01*
X-6600Y12580D01*
X-6100D01*
X-6000Y12480D01*
Y12080D02*
Y12480D01*
X-5430Y12080D02*
Y12480D01*
X-5330Y12580D01*
X-4830D01*
X-4730Y12480D01*
Y12080D02*
Y12480D01*
X-4160Y12080D02*
Y12480D01*
X-4060Y12580D01*
X-3560D01*
X-3460Y12480D01*
Y12080D02*
Y12480D01*
X-2890Y12080D02*
Y12480D01*
X-2790Y12580D01*
X-2290D01*
X-2190Y12480D01*
Y12080D02*
Y12480D01*
X-1620Y12080D02*
Y12480D01*
X-1520Y12580D01*
X-1020D01*
X-920Y12480D01*
Y12080D02*
Y12480D01*
X-350Y12080D02*
Y12480D01*
X-250Y12580D01*
X250D01*
X350Y12480D01*
Y12080D02*
Y12480D01*
X920Y12080D02*
Y12480D01*
X1020Y12580D01*
X1520D01*
X1620Y12480D01*
Y12080D02*
Y12480D01*
X2190Y12080D02*
Y12480D01*
X2290Y12580D01*
X2790D01*
X2890Y12480D01*
Y12080D02*
Y12480D01*
X3460Y12080D02*
Y12480D01*
X3560Y12580D01*
X4060D01*
X4160Y12480D01*
Y12080D02*
Y12480D01*
X4730Y12080D02*
Y12480D01*
X4830Y12580D01*
X5330D01*
X5430Y12480D01*
Y12080D02*
Y12480D01*
X6000Y12080D02*
Y12480D01*
X6100Y12580D01*
X6600D01*
X6700Y12480D01*
Y12080D02*
Y12480D01*
X7270Y12080D02*
Y12480D01*
X7370Y12580D01*
X7870D01*
X7970Y12480D01*
Y12080D02*
Y12480D01*
X8540Y12080D02*
Y12480D01*
X8640Y12580D01*
X9140D01*
X9240Y12480D01*
Y12080D02*
Y12480D01*
X9810Y12080D02*
Y12480D01*
X9910Y12580D01*
X10410D01*
X10510Y12480D01*
Y12080D02*
Y12480D01*
X12080Y10510D02*
X12480D01*
X12580Y10410D01*
Y9910D02*
Y10410D01*
X12480Y9810D02*
X12580Y9910D01*
X12080Y9810D02*
X12480D01*
X12080Y9240D02*
X12480D01*
X12580Y9140D01*
Y8640D02*
Y9140D01*
X12480Y8540D02*
X12580Y8640D01*
X12080Y8540D02*
X12480D01*
X12080Y7970D02*
X12480D01*
X12580Y7870D01*
Y7370D02*
Y7870D01*
X12480Y7270D02*
X12580Y7370D01*
X12080Y7270D02*
X12480D01*
X12080Y6700D02*
X12480D01*
X12580Y6600D01*
Y6100D02*
Y6600D01*
X12480Y6000D02*
X12580Y6100D01*
X12080Y6000D02*
X12480D01*
X12080Y5430D02*
X12480D01*
X12580Y5330D01*
Y4830D02*
Y5330D01*
X12480Y4730D02*
X12580Y4830D01*
X12080Y4730D02*
X12480D01*
X12080Y4160D02*
X12480D01*
X12580Y4060D01*
Y3560D02*
Y4060D01*
X12480Y3460D02*
X12580Y3560D01*
X12080Y3460D02*
X12480D01*
X12080Y2890D02*
X12480D01*
X12580Y2790D01*
Y2290D02*
Y2790D01*
X12480Y2190D02*
X12580Y2290D01*
X12080Y2190D02*
X12480D01*
X12080Y1620D02*
X12480D01*
X12580Y1520D01*
Y1020D02*
Y1520D01*
X12480Y920D02*
X12580Y1020D01*
X12080Y920D02*
X12480D01*
X12080Y350D02*
X12480D01*
X12580Y250D01*
Y-250D02*
Y250D01*
X12480Y-350D02*
X12580Y-250D01*
X12080Y-350D02*
X12480D01*
X12080Y-920D02*
X12480D01*
X12580Y-1020D01*
Y-1520D02*
Y-1020D01*
X12480Y-1620D02*
X12580Y-1520D01*
X12080Y-1620D02*
X12480D01*
X12080Y-2190D02*
X12480D01*
X12580Y-2290D01*
Y-2790D02*
Y-2290D01*
X12480Y-2890D02*
X12580Y-2790D01*
X12080Y-2890D02*
X12480D01*
X12080Y-3460D02*
X12480D01*
X12580Y-3560D01*
Y-4060D02*
Y-3560D01*
X12480Y-4160D02*
X12580Y-4060D01*
X12080Y-4160D02*
X12480D01*
X12080Y-4730D02*
X12480D01*
X12580Y-4830D01*
Y-5330D02*
Y-4830D01*
X12480Y-5430D02*
X12580Y-5330D01*
X12080Y-5430D02*
X12480D01*
X12080Y-6000D02*
X12480D01*
X12580Y-6100D01*
Y-6600D02*
Y-6100D01*
X12480Y-6700D02*
X12580Y-6600D01*
X12080Y-6700D02*
X12480D01*
X12080Y-7270D02*
X12480D01*
X12580Y-7370D01*
Y-7870D02*
Y-7370D01*
X12480Y-7970D02*
X12580Y-7870D01*
X12080Y-7970D02*
X12480D01*
X12080Y-8540D02*
X12480D01*
X12580Y-8640D01*
Y-9140D02*
Y-8640D01*
X12480Y-9240D02*
X12580Y-9140D01*
X12080Y-9240D02*
X12480D01*
X12080Y-9810D02*
X12480D01*
X12580Y-9910D01*
Y-10410D02*
Y-9910D01*
X12480Y-10510D02*
X12580Y-10410D01*
X12080Y-10510D02*
X12480D01*
X10510Y-12480D02*
Y-12080D01*
X10410Y-12580D02*
X10510Y-12480D01*
X9910Y-12580D02*
X10410D01*
X9810Y-12480D02*
X9910Y-12580D01*
X9810Y-12480D02*
Y-12080D01*
X9240Y-12480D02*
Y-12080D01*
X9140Y-12580D02*
X9240Y-12480D01*
X8640Y-12580D02*
X9140D01*
X8540Y-12480D02*
X8640Y-12580D01*
X8540Y-12480D02*
Y-12080D01*
X7970Y-12480D02*
Y-12080D01*
X7870Y-12580D02*
X7970Y-12480D01*
X7370Y-12580D02*
X7870D01*
X7270Y-12480D02*
X7370Y-12580D01*
X7270Y-12480D02*
Y-12080D01*
X6700Y-12480D02*
Y-12080D01*
X6600Y-12580D02*
X6700Y-12480D01*
X6100Y-12580D02*
X6600D01*
X6000Y-12480D02*
X6100Y-12580D01*
X6000Y-12480D02*
Y-12080D01*
X5430Y-12480D02*
Y-12080D01*
X5330Y-12580D02*
X5430Y-12480D01*
X4830Y-12580D02*
X5330D01*
X4730Y-12480D02*
X4830Y-12580D01*
X4730Y-12480D02*
Y-12080D01*
X4160Y-12480D02*
Y-12080D01*
X4060Y-12580D02*
X4160Y-12480D01*
X3560Y-12580D02*
X4060D01*
X3460Y-12480D02*
X3560Y-12580D01*
X3460Y-12480D02*
Y-12080D01*
X2890Y-12480D02*
Y-12080D01*
X2790Y-12580D02*
X2890Y-12480D01*
X2290Y-12580D02*
X2790D01*
X2190Y-12480D02*
X2290Y-12580D01*
X2190Y-12480D02*
Y-12080D01*
X1620Y-12480D02*
Y-12080D01*
X1520Y-12580D02*
X1620Y-12480D01*
X1020Y-12580D02*
X1520D01*
X920Y-12480D02*
X1020Y-12580D01*
X920Y-12480D02*
Y-12080D01*
X350Y-12480D02*
Y-12080D01*
X250Y-12580D02*
X350Y-12480D01*
X-250Y-12580D02*
X250D01*
X-350Y-12480D02*
X-250Y-12580D01*
X-350Y-12480D02*
Y-12080D01*
X-920Y-12480D02*
Y-12080D01*
X-1020Y-12580D02*
X-920Y-12480D01*
X-1520Y-12580D02*
X-1020D01*
X-1620Y-12480D02*
X-1520Y-12580D01*
X-1620Y-12480D02*
Y-12080D01*
X-2190Y-12480D02*
Y-12080D01*
X-2290Y-12580D02*
X-2190Y-12480D01*
X-2790Y-12580D02*
X-2290D01*
X-2890Y-12480D02*
X-2790Y-12580D01*
X-2890Y-12480D02*
Y-12080D01*
X-3460Y-12480D02*
Y-12080D01*
X-3560Y-12580D02*
X-3460Y-12480D01*
X-4060Y-12580D02*
X-3560D01*
X-4160Y-12480D02*
X-4060Y-12580D01*
X-4160Y-12480D02*
Y-12080D01*
X-4730Y-12480D02*
Y-12080D01*
X-4830Y-12580D02*
X-4730Y-12480D01*
X-5330Y-12580D02*
X-4830D01*
X-5430Y-12480D02*
X-5330Y-12580D01*
X-5430Y-12480D02*
Y-12080D01*
X-6000Y-12480D02*
Y-12080D01*
X-6100Y-12580D02*
X-6000Y-12480D01*
X-6600Y-12580D02*
X-6100D01*
X-6700Y-12480D02*
X-6600Y-12580D01*
X-6700Y-12480D02*
Y-12080D01*
X-7270Y-12480D02*
Y-12080D01*
X-7370Y-12580D02*
X-7270Y-12480D01*
X-7870Y-12580D02*
X-7370D01*
X-7970Y-12480D02*
X-7870Y-12580D01*
X-7970Y-12480D02*
Y-12080D01*
X-8540Y-12480D02*
Y-12080D01*
X-8640Y-12580D02*
X-8540Y-12480D01*
X-9140Y-12580D02*
X-8640D01*
X-9240Y-12480D02*
X-9140Y-12580D01*
X-9240Y-12480D02*
Y-12080D01*
X-9810Y-12480D02*
Y-12080D01*
X-9910Y-12580D02*
X-9810Y-12480D01*
X-10410Y-12580D02*
X-9910D01*
X-10510Y-12480D02*
X-10410Y-12580D01*
X-10510Y-12480D02*
Y-12080D01*
X-12446Y-10465D02*
X-12090D01*
X-12573Y-10338D02*
X-12446Y-10465D01*
X-12573Y-10338D02*
Y-9982D01*
X-12446Y-9855D01*
X-12090D01*
X-12080Y-9810D02*
Y-9240D01*
Y-8540D02*
Y-7970D01*
Y-7270D02*
Y-6700D01*
Y-6000D02*
Y-5430D01*
Y-4730D02*
Y-4160D01*
Y-3460D02*
Y-2890D01*
Y-2190D02*
Y-1620D01*
Y-920D02*
Y-350D01*
Y350D02*
Y920D01*
Y1620D02*
Y2190D01*
Y2890D02*
Y3460D01*
Y4160D02*
Y4730D01*
Y5430D02*
Y6000D01*
Y6700D02*
Y7270D01*
Y7970D02*
Y8540D01*
Y9240D02*
Y9810D01*
X-9810Y12080D02*
X-9240D01*
X-8540D02*
X-7970D01*
X-7270D02*
X-6700D01*
X-6000D02*
X-5430D01*
X-4730D02*
X-4160D01*
X-3460D02*
X-2890D01*
X-2190D02*
X-1620D01*
X-920D02*
X-350D01*
X350D02*
X920D01*
X1620D02*
X2190D01*
X2890D02*
X3460D01*
X4160D02*
X4730D01*
X5430D02*
X6000D01*
X6700D02*
X7270D01*
X7970D02*
X8540D01*
X9240D02*
X9810D01*
X12080Y9240D02*
Y9810D01*
Y7970D02*
Y8540D01*
Y6700D02*
Y7270D01*
Y5430D02*
Y6000D01*
Y4160D02*
Y4730D01*
Y2890D02*
Y3460D01*
Y1620D02*
Y2190D01*
Y350D02*
Y920D01*
Y-920D02*
Y-350D01*
Y-2190D02*
Y-1620D01*
Y-3460D02*
Y-2890D01*
Y-4730D02*
Y-4160D01*
Y-6000D02*
Y-5430D01*
Y-7270D02*
Y-6700D01*
Y-8540D02*
Y-7970D01*
Y-9810D02*
Y-9240D01*
X10510Y-12080D02*
X12080D01*
Y-10510D01*
X10510Y12080D02*
X12080D01*
Y10510D02*
Y12080D01*
X-12080Y10510D02*
Y12080D01*
X-10510D01*
X-12080Y-10510D02*
X-10510Y-12080D01*
D38*
X-11900Y600D02*
X-10825D01*
Y-600D02*
Y600D01*
X-11900Y-600D02*
X-10825D01*
D55*
X-1700Y-5900D02*
Y-5700D01*
X-700Y-5900D02*
Y-5700D01*
X-1200Y-6600D02*
Y-6300D01*
X-1800D02*
X-600D01*
X-2500Y-5900D02*
X-1700D01*
X-700D02*
X100D01*
X1500Y-7200D02*
Y-4600D01*
X-3900Y-7200D02*
X1500D01*
X-3900D02*
Y-4600D01*
X1500D01*
D56*
X-9800Y-8250D02*
D03*
D57*
X-8350Y9800D02*
D03*
M02*
